<svg xmlns="http://www.w3.org/2000/svg" viewBox="0 0 305 51" fill="none"><path fill="currentColor" d="M115 1v45h4v3h-8V1zM139.4 44.5q0 1.312-.5 2.281a4.5 4.5 0 0 1-1.281 1.563 5.3 5.3 0 0 1-1.844.906 7.3 7.3 0 0 1-2.125.313 7.8 7.8 0 0 1-2.281-.344 6.3 6.3 0 0 1-2-.938 5.5 5.5 0 0 1-1.438-1.593q-.531-.97-.531-2.188v-39q0-1.188.531-2.094a5.15 5.15 0 0 1 1.438-1.562A6.7 6.7 0 0 1 131.4.906q1.125-.343 2.281-.343 1.094 0 2.125.312 1.032.282 1.813.906.811.594 1.281 1.532.5.937.5 2.187zm-4-39q0-1.062-.531-1.5a1.68 1.68 0 0 0-1.188-.469q-.406 0-.812.156a2.2 2.2 0 0 0-.75.407 2.2 2.2 0 0 0-.532.625q-.187.344-.187.781v39q0 .438.187.813.219.375.532.624.343.25.718.407.406.125.813.125.688 0 1.219-.438.531-.469.531-1.531zM161.8 44.5q0 1.312-.5 2.281a4.5 4.5 0 0 1-1.281 1.563 5.3 5.3 0 0 1-1.844.906 7.3 7.3 0 0 1-2.125.313 7.8 7.8 0 0 1-2.281-.344 6.3 6.3 0 0 1-2-.938 5.5 5.5 0 0 1-1.438-1.593q-.531-.97-.531-2.188v-39q0-1.188.531-2.094a5.15 5.15 0 0 1 1.438-1.562A6.7 6.7 0 0 1 153.8.906q1.125-.343 2.281-.343 1.094 0 2.125.312 1.032.282 1.813.906.811.594 1.281 1.532.5.937.5 2.187zm-4-39q0-1.062-.531-1.5a1.68 1.68 0 0 0-1.188-.469q-.406 0-.812.156a2.2 2.2 0 0 0-.75.407 2.2 2.2 0 0 0-.532.625q-.187.344-.187.781v39q0 .438.187.813.219.375.532.624.343.25.718.407.406.125.813.125.688 0 1.219-.438.531-.469.531-1.531zM183.2 49h-4l-3-22v22h-4V1h4v22l3-22h4l-3.469 24zM217.438 18h-4V5.5q0-1.124-.469-1.562-.47-.438-1.031-.438-.563 0-1.032.438-.468.437-.468 1.562 0 3.344.312 6.156t.812 5.188a45 45 0 0 0 1.126 4.343q.624 1.938 1.25 3.563.5 1.281 1.093 2.969.625 1.687 1.157 4.031.53 2.344.874 5.469.376 3.124.376 7.281 0 1.312-.469 2.281a4.6 4.6 0 0 1-1.25 1.563 5.3 5.3 0 0 1-1.781.875 7.1 7.1 0 0 1-2 .281 7.5 7.5 0 0 1-2.032-.281 5.3 5.3 0 0 1-1.75-.875 4.6 4.6 0 0 1-1.25-1.563q-.468-.969-.468-2.281V32h4v12.5q0 1.124.468 1.563.469.437 1.032.437.561 0 1.031-.437.469-.438.469-1.563 0-4.031-.407-7.062-.375-3.063-.969-5.376-.593-2.344-1.312-4.093-.687-1.75-1.281-3.219a37 37 0 0 1-1.157-3.281 45 45 0 0 1-.968-4.188 62 62 0 0 1-.656-5.25q-.25-2.937-.25-6.531 0-1.312.468-2.25a4.3 4.3 0 0 1 1.25-1.531 5 5 0 0 1 1.75-.907A6.8 6.8 0 0 1 211.938.5q1.03 0 2 .313a5 5 0 0 1 1.781.906q.781.594 1.25 1.531.469.938.469 2.25zM235.838 1h3.999v48h-3.999V25.688h-4V49h-4V1h4v21.563h4zM261.238 49h-4l-.625-10.375h-2.782L253.238 49h-4l4-48h4zm-4.844-13.625L255.238 11l-1.188 24.375zM281.637 21q0 1.5-.75 2.313-.75.812-2.25 1.156 1.5.406 2.25 1.218.75.813.75 2.313v21h-4V28q0-.75-.187-1.156a1.2 1.2 0 0 0-.563-.594q-.375-.187-.937-.219-.563-.03-1.313-.031v23h-4V1h4.5q2.032 0 3.469.344 1.468.312 2.25 1.156.781.813.781 2.5zm-4-15q0-.75-.187-1.156a1.2 1.2 0 0 0-.563-.594q-.375-.187-.937-.219-.563-.03-1.313-.031v19q.75 0 1.313-.031.562-.032.937-.219t.563-.594q.187-.406.187-1.156zM304.038 22q0 1.875-.688 2.906a4.04 4.04 0 0 1-1.812 1.469q-1.125.469-2.563.563-1.437.062-2.937.062v22h-4V1h5q2.656 0 4.062.5 1.437.5 2.094 1.25t.75 1.625.094 1.625zm-4-16q0-.75-.219-1.156-.188-.406-.656-.594-.47-.187-1.25-.219-.75-.03-1.875-.031v20q.75 0 1.468-.031a3.5 3.5 0 0 0 1.282-.344 2.15 2.15 0 0 0 .906-.875q.344-.625.344-1.75z"/><path stroke="currentColor" d="M72.037.5v44c0 .71.154 1.05.31 1.197.234.218.46.303.69.303s.457-.085.69-.303c.157-.146.31-.488.31-1.197V.5h5v44c0 .934-.167 1.772-.518 2.499l-.003.006a5.1 5.1 0 0 1-1.385 1.73l-.01.007a5.8 5.8 0 0 1-1.945.956v.001Q74.14 50 73.038 50q-1.1 0-2.166-.3h-.004a5.8 5.8 0 0 1-1.913-.958l-.01-.008a5.1 5.1 0 0 1-1.385-1.73L67.556 47v-.001c-.352-.727-.519-1.564-.519-2.498V.5zM10.5.5v4h-5v17h4v4h-4v24h-5V.5zm13.4 0v49h-5V.5zm13.866 0 1.033 14.465v.019l.002-.015v-.004l1-14L39.835.5h5.03l-.067.56-2.993 24.938 2.992 22.937.073.565h-5.03l-.037-.458-1-12-.001-.01-.001-.016-.001.015v.011h-.001l-1 12-.038.458h-5.03l.074-.565 2.992-22.94L32.804 1.06 32.736.5zm56.172 0c1.787 0 3.208.167 4.225.527h.001c1 .348 1.789.803 2.306 1.394.496.567.796 1.202.871 1.9q.096.897.097 1.679v16c0 1.301-.237 2.382-.772 3.184l-.004.005a4.54 4.54 0 0 1-2.032 1.648c-.81.337-1.72.534-2.723.6h-.01q-1.209.052-2.46.06V49.5h-5V.5zm-.5 22.994q.476-.006.938-.025c.42-.038.78-.137 1.088-.291.277-.139.507-.356.691-.671.171-.312.282-.799.282-1.507V6c0-.463-.07-.753-.159-.919l-.013-.027c-.065-.14-.178-.256-.388-.34-.239-.096-.593-.163-1.084-.183h-.001a40 40 0 0 0-1.355-.028z"/></svg>