<svg xmlns="http://www.w3.org/2000/svg" viewBox="0 0 197 134" fill="none"><path fill="currentColor" d="M6 73v45h4v3H2V73zm24.4 43.5q0 1.312-.5 2.281a4.46 4.46 0 0 1-1.281 1.563 5.3 5.3 0 0 1-1.844.906 7.3 7.3 0 0 1-2.125.312q-1.155 0-2.281-.343a6.3 6.3 0 0 1-2-.938 5.5 5.5 0 0 1-1.438-1.593q-.531-.97-.531-2.188v-39q0-1.188.531-2.094a5.2 5.2 0 0 1 1.438-1.562 6.7 6.7 0 0 1 2.031-.938q1.125-.344 2.281-.344 1.095 0 2.125.313 1.032.282 1.813.906.811.594 1.281 1.531.5.939.5 2.188zm-4-39q0-1.062-.531-1.5a1.68 1.68 0 0 0-1.188-.469q-.405 0-.812.156-.407.126-.75.407a2.2 2.2 0 0 0-.532.625q-.187.344-.187.781v39q0 .437.188.812.218.375.53.626.345.25.72.406.405.125.812.125.687 0 1.219-.438.531-.468.531-1.531zm26.4 39q0 1.312-.5 2.281a4.46 4.46 0 0 1-1.281 1.563 5.3 5.3 0 0 1-1.844.906 7.3 7.3 0 0 1-2.125.312q-1.156 0-2.281-.343a6.3 6.3 0 0 1-2-.938 5.5 5.5 0 0 1-1.438-1.593q-.531-.97-.531-2.188v-39q0-1.188.531-2.094a5.2 5.2 0 0 1 1.438-1.562 6.7 6.7 0 0 1 2.031-.938q1.125-.344 2.281-.344 1.095 0 2.125.313 1.032.282 1.813.906.812.594 1.281 1.531.5.939.5 2.188zm-4-39q0-1.062-.531-1.5a1.68 1.68 0 0 0-1.188-.469q-.405 0-.812.156-.407.126-.75.407a2.2 2.2 0 0 0-.532.625q-.187.344-.187.781v39q0 .437.188.812.218.375.53.626.345.25.72.406.405.125.812.125.688 0 1.219-.438.531-.468.531-1.531zM74.2 121h-4l-3-22v22h-4V73h4v22l3-22h4l-3.469 24zm34.238-31h-4V77.5q0-1.124-.469-1.562-.47-.438-1.031-.438-.563 0-1.032.438-.468.437-.468 1.562 0 3.344.312 6.156t.812 5.188a45 45 0 0 0 1.126 4.344q.624 1.937 1.25 3.562.5 1.281 1.093 2.969.625 1.688 1.157 4.031.53 2.343.874 5.469.376 3.124.376 7.281 0 1.312-.469 2.281a4.6 4.6 0 0 1-1.25 1.563 5.3 5.3 0 0 1-1.781.875 7.2 7.2 0 0 1-2 .281 7.5 7.5 0 0 1-2.032-.281 5.3 5.3 0 0 1-1.75-.875 4.6 4.6 0 0 1-1.25-1.563q-.469-.969-.469-2.281V104h4.001v12.5q0 1.125.468 1.562t1.032.438q.561 0 1.031-.438.468-.437.469-1.562 0-4.032-.407-7.062-.375-3.063-.969-5.376-.593-2.344-1.312-4.093-.687-1.75-1.281-3.219a37 37 0 0 1-1.156-3.281 45 45 0 0 1-.97-4.188 62 62 0 0 1-.656-5.25q-.25-2.937-.25-6.531 0-1.312.47-2.25a4.3 4.3 0 0 1 1.25-1.531 5 5 0 0 1 1.749-.906 6.8 6.8 0 0 1 2.032-.313q1.03 0 2 .313a5 5 0 0 1 1.781.906q.781.594 1.25 1.531.468.938.469 2.25zm18.4-17h4v48h-4V97.688h-4V121h-4V73h4v21.563h4zm25.4 48h-4l-.625-10.375h-2.782L144.238 121h-4l4-48h4zm-4.844-13.625L146.238 83l-1.188 24.375zM172.637 93q0 1.5-.75 2.313-.75.812-2.25 1.156 1.5.406 2.25 1.219.75.812.75 2.312v21h-4v-21q0-.75-.187-1.156a1.2 1.2 0 0 0-.563-.594q-.375-.187-.937-.219-.563-.03-1.313-.031v23h-4V73h4.5q2.032 0 3.469.344 1.469.313 2.25 1.156.781.813.781 2.5zm-4-15q0-.75-.187-1.156a1.2 1.2 0 0 0-.563-.594q-.375-.187-.937-.219-.563-.03-1.313-.031v19q.75 0 1.313-.031t.937-.219.563-.594q.187-.406.187-1.156zm26.401 16q0 1.875-.688 2.906a4.04 4.04 0 0 1-1.812 1.469q-1.125.469-2.563.563-1.437.062-2.937.062v22h-4V73h5q2.656 0 4.062.5 1.437.5 2.094 1.25t.75 1.625.094 1.625zm-4-16q0-.75-.219-1.156-.188-.406-.656-.594-.47-.187-1.25-.219-.75-.03-1.875-.031v20q.75 0 1.468-.031a3.5 3.5 0 0 0 1.282-.344 2.15 2.15 0 0 0 .906-.875q.344-.625.344-1.75z"/><mask id="a" width="102" height="51" x="48" y="22" fill="#000" maskUnits="userSpaceOnUse"><path fill="#fff" d="M48 22h102v51H48z"/><path d="M58 26h-5v18h4v3h-4v24h-4V23h9zm13.4-3v48h-4V23zm15.9 14 1-14h4l-3 25 3 23h-4l-1-12-.5-8-.5 8-1 12h-4l3-23-3-25h4l1 14 .5 8zm35.237-14h4v43.5q0 1.312-.468 2.281a4.6 4.6 0 0 1-1.25 1.563 5.3 5.3 0 0 1-1.782.875 7.1 7.1 0 0 1-2 .281 7.5 7.5 0 0 1-2.031-.281 5.3 5.3 0 0 1-1.75-.875 4.6 4.6 0 0 1-1.25-1.563q-.469-.969-.469-2.281V23h4v43.5q0 1.124.469 1.563.469.437 1.031.437.563 0 1.032-.437.468-.438.468-1.563zm26.401 21q0 1.875-.688 2.906a4.04 4.04 0 0 1-1.812 1.469q-1.125.469-2.563.563-1.437.062-2.937.062v22h-4V23h5q2.655 0 4.062.5 1.437.5 2.094 1.25t.75 1.625.094 1.625zm-4-16q0-.75-.219-1.156-.187-.407-.657-.594-.468-.187-1.25-.219-.75-.03-1.874-.031v20q.75 0 1.468-.031a3.5 3.5 0 0 0 1.282-.344q.562-.281.906-.875.344-.625.344-1.75z"/></mask><path fill="currentColor" fill-opacity=".01" d="M58 26h-5v18h4v3h-4v24h-4V23h9zm13.4-3v48h-4V23zm15.9 14 1-14h4l-3 25 3 23h-4l-1-12-.5-8-.5 8-1 12h-4l3-23-3-25h4l1 14 .5 8zm35.237-14h4v43.5q0 1.312-.468 2.281a4.6 4.6 0 0 1-1.25 1.563 5.3 5.3 0 0 1-1.782.875 7.1 7.1 0 0 1-2 .281 7.5 7.5 0 0 1-2.031-.281 5.3 5.3 0 0 1-1.75-.875 4.6 4.6 0 0 1-1.25-1.563q-.469-.969-.469-2.281V23h4v43.5q0 1.124.469 1.563.469.437 1.031.437.563 0 1.032-.437.468-.438.468-1.563zm26.401 21q0 1.875-.688 2.906a4.04 4.04 0 0 1-1.812 1.469q-1.125.469-2.563.563-1.437.062-2.937.062v22h-4V23h5q2.655 0 4.062.5 1.437.5 2.094 1.25t.75 1.625.094 1.625zm-4-16q0-.75-.219-1.156-.187-.407-.657-.594-.468-.187-1.25-.219-.75-.03-1.874-.031v20q.75 0 1.468-.031a3.5 3.5 0 0 0 1.282-.344q.562-.281.906-.875.344-.625.344-1.75z"/><path fill="currentColor" d="M58 26v1h1v-1zm-5 0v-1h-1v1zm0 18h-1v1h1zm4 0h1v-1h-1zm0 3v1h1v-1zm-4 0v-1h-1v1zm0 24v1h1v-1zm-4 0h-1v1h1zm0-48v-1h-1v1zm9 0h1v-1h-1zm0 3v-1h-5v2h5zm-5 0h-1v18h2V26zm0 18v1h4v-2h-4zm4 0h-1v3h2v-3zm0 3v-1h-4v2h4zm-4 0h-1v24h2V47zm0 24v-1h-4v2h4zm-4 0h1V23h-2v48zm0-48v1h9v-2h-9zm9 0h-1v3h2v-3zm13.4 0h1v-1h-1zm0 48v1h1v-1zm-4 0h-1v1h1zm0-48v-1h-1v1zm4 0h-1v48h2V23zm0 48v-1h-4v2h4zm-4 0h1V23h-2v48zm0-48v1h4v-2h-4zm19.9 14-.998-.071v.009zm1-14v-1h-.931l-.067.929zm4 0 .993.12.134-1.12H92.3zm-3 25-.993-.12-.015.125.016.124zm3 23v1h1.139l-.147-1.13zm-4 0-.996.083.076.917h.92zm-1-12-.998.062v.01l.001.011zm-.5-8 .998-.062h-1.996zm-.5 8 .996.083.001-.01.001-.01zm-1 12v1h.92l.076-.917zm-4 0-.992-.13-.147 1.13H81.3zm3-23 .992.13.016-.125-.015-.124zm-3-25v-1h-1.127l.134 1.12zm4 0 .998-.071L86.23 22H85.3zm1 14 .998-.062v-.01zm.5 8-.998.062h1.996zm.5-8 .998.071 1-14L88.3 23l-.998-.071-1 14zm1-14v1h4v-2h-4zm4 0-.993-.12-3 25 .993.12.993.12 3-25zm-3 25-.992.13 3 23L92.3 71l.992-.13-3-23zm3 23v-1h-4v2h4zm-4 0 .996-.083-1-12L87.3 59l-.996.083 1 12zm-1-12 .998-.062-.5-8L86.8 51l-.998.062.5 8zm-.5-8-.998-.062-.5 8L86.3 59l.998.062.5-8zm-.5 8-.996-.083-1 12L85.3 71l.996.083 1-12zm-1 12v-1h-4v2h4zm-4 0 .992.13 3-23L84.3 48l-.992-.13-3 23zm3-23 .993-.12-3-25-.993.12-.993.12 3 25zm-3-25v1h4v-2h-4zm4 0-.998.071 1 14L86.3 37l.998-.071-1-14zm1 14-.998.062.5 8L86.8 45l.998-.062-.5-8zm.5 8 .998.062.5-8L87.3 37l-.998-.062-.5 8zm35.737-22v-1h-1v1zm4 0h1v-1h-1zm-.468 45.781.894.447.006-.011zm-1.25 1.563.605.796.01-.008.009-.007zm-1.782.875-.27-.963-.008.002zm-4.031 0-.279.96.009.002zm-1.75-.875-.624.78.009.008.01.008zm-1.25-1.563-.9.436.006.011zM115.537 23v-1h-1v1zm4 0h1v-1h-1zm3 0v1h4v-2h-4zm4 0h-1v43.5h2V23zm0 43.5h-1c0 .757-.134 1.362-.368 1.846l.9.435.9.436c.391-.808.568-1.724.568-2.717zm-.468 2.281-.895-.447a3.6 3.6 0 0 1-.98 1.229l.625.78.624.782a5.6 5.6 0 0 0 1.52-1.897zm-1.25 1.563-.605-.796a4.3 4.3 0 0 1-1.447.708l.27.963.271.962a6.3 6.3 0 0 0 2.116-1.041zm-1.782.875-.278-.96a6.1 6.1 0 0 1-1.722.241v2q1.171 0 2.279-.32zm-2 .281v-1a6.5 6.5 0 0 1-1.76-.244l-.271.963-.27.962a8.5 8.5 0 0 0 2.301.319zm-2.031-.281.279-.96a4.3 4.3 0 0 1-1.424-.711l-.605.796-.605.796a6.3 6.3 0 0 0 2.076 1.04zm-1.75-.875.625-.781a3.6 3.6 0 0 1-.98-1.229l-.895.447-.894.447c.374.749.88 1.385 1.52 1.897zm-1.25-1.563.9-.435c-.234-.484-.369-1.09-.369-1.846h-2c0 .993.178 1.909.569 2.717zm-.469-2.281h1V23h-2v43.5zm0-43.5v1h4v-2h-4zm4 0h-1v43.5h2V23zm0 43.5h-1c0 .832.163 1.712.787 2.294l.682-.731.683-.732c.004.004-.036-.03-.076-.165a2.4 2.4 0 0 1-.076-.666zm.469 1.563-.682.73c.47.439 1.049.707 1.713.707v-2c-.085 0-.193-.024-.348-.169zm1.031.437v1c.665 0 1.244-.268 1.714-.706l-.682-.731-.683-.732c-.155.145-.263.169-.349.169zm1.032-.437.682.73c.624-.582.786-1.461.786-2.293h-2c0 .312-.033.526-.075.666-.04.136-.08.17-.076.165zm.468-1.563h1V23h-2v43.5zm25.713-19.594.824.567.004-.006.004-.006zm-4.375 2.032.043.999h.011l.011-.002zm-2.937.062v-1h-1v1zm0 22v1h1v-1zm-4 0h-1v1h1zm0-48v-1h-1v1zm9.062.5-.335.942.006.003zm-1.281 3.344-.908.419.013.028.014.027zm-1.907-.813-.041 1h.002zM140.938 26v-1h-1v1zm0 20h-1v1h1zm1.468-.031.044.999.021-.001.022-.002zm2.188-1.219.865.501.006-.01.005-.01zm4.344-.75h-1c0 1.147-.214 1.892-.52 2.352l.832.554.832.555c.611-.916.856-2.108.856-3.461zm-.688 2.906-.824-.566c-.349.507-.8.873-1.373 1.112l.385.923.384.923a5.04 5.04 0 0 0 2.252-1.825zm-1.812 1.469-.385-.923c-.632.263-1.375.431-2.243.488l.065.998.065.997c1.049-.068 2.014-.275 2.882-.637zm-2.563.563-.043-1q-1.415.062-2.894.062v2q1.52 0 2.98-.063zm-2.937.062h-1v22h2V49zm0 22v-1h-4v2h4zm-4 0h1V23h-2v48zm0-48v1h5v-2h-5zm5 0v1c1.731 0 2.95.166 3.727.442L146 23.5l.335-.942c-1.098-.39-2.587-.558-4.397-.558zm4.062.5-.329.945c.874.303 1.392.645 1.67.963l.753-.658.752-.659c-.596-.681-1.475-1.173-2.517-1.536zm2.094 1.25-.753.659c.321.366.471.72.508 1.073l.995-.107.994-.107c-.087-.814-.437-1.543-.992-2.177zm.75 1.625-.995.107q.09.83.089 1.518h2q0-.812-.1-1.732zm.094 1.625h-1v16h2V28zm-4 0h1c0-.573-.08-1.15-.339-1.63l-.88.474-.881.474c.033.061.1.255.1.682zm-.219-1.156.908-.42c-.246-.533-.676-.896-1.193-1.102l-.372.928-.371.928c.108.044.116.076.12.085zm-.657-.594.372-.928c-.46-.184-1.002-.267-1.582-.29l-.04 1-.039.999c.462.018.753.081.918.148zm-1.25-.219.042-.999a47 47 0 0 0-1.916-.032v2q1.112 0 1.833.03zM140.938 26h-1v20h2V26zm0 20v1q.77 0 1.512-.032l-.044-1-.043-.998q-.696.03-1.425.03zm1.468-.031.087.996a4.5 4.5 0 0 0 1.642-.446l-.447-.894-.448-.894c-.247.123-.548.21-.92.241zm1.282-.344.447.894a3.15 3.15 0 0 0 1.324-1.268l-.865-.501-.866-.501a1.15 1.15 0 0 1-.488.482zm.906-.875.876.482c.344-.626.468-1.401.468-2.232h-2c0 .67-.106 1.06-.22 1.268zm.344-1.75h1V28h-2v15z" mask="url(#a)"/></svg>