<svg xmlns="http://www.w3.org/2000/svg" viewBox="0 0 208 250" width="208" height="250" fill="none"><path stroke="rgba(0, 0, 0, .87)" d="M63.674 129.818c6-6 12-43.5 23.5-59 10.69-14.41 32.615-1.733 35.5 17.5 1.5 10 6.5 20 8 25s18.5 23 6.5 48.5-23 28-38 29-35.5-22.5-39.5-29-1.1-26.901 4-32Z"/><path stroke="rgba(0, 0, 0, .87)" d="M69.301 129.688c5.237-5.371 10.474-38.938 20.512-52.812 9.33-12.898 28.467-1.552 30.985 15.665 1.31 8.951 5.674 17.902 6.983 22.378s16.147 20.587 5.673 43.413-20.075 25.063-33.167 25.958-30.986-20.14-34.477-25.958c-3.491-5.819-.96-24.08 3.491-28.644Z"/><path stroke="rgba(0, 0, 0, .87)" d="M82.674 154.318c-3.6-11.2 6-24.5 17.5-24.5s23.5 8 23 19.5-15.5 18.5-20 20.5-16-1.5-20.5-15.5Z"/><path stroke="rgba(0, 0, 0, .87)" d="m207.174 93.318-56 22 49 41h-49l43 50-52-13v49l-42-41-24 47-22-62-48 20 38-50-43-13 43-28-33-28 43 6-31-63 53 29-10-59 34 51 42-51-18 65 45-14-27 36z"/></svg>