<svg width="1060" height="1878" viewBox="0 0 1060 1878" fill="none" xmlns="http://www.w3.org/2000/svg" preserveAspectRatio="none">
<path d="M1043.37 45.9631C1043.12 50.403 1040.32 83.2144 1035.64 143.615C1031.26 200.197 1031.17 250.383 1031.42 288.416C1031.65 324.369 1034.85 370.815 1038.42 421.756C1040.92 457.466 1040.78 495.334 1039.93 547.006C1039.44 576.651 1037.37 612.553 1036.55 640.572C1035.73 668.59 1035.85 687.46 1037.26 720.212C1038.66 752.965 1041.34 799.029 1043.21 845.791C1045.08 892.552 1046.06 938.616 1047.47 982.881C1048.89 1027.14 1050.72 1068.21 1052.52 1139.6C1054.31 1210.98 1056.02 1311.43 1056.78 1370.67C1057.73 1444.81 1055.58 1481.43 1051.71 1529.2C1043.57 1629.87 1038.7 1647.48 1035.68 1675.44C1033.29 1714.35 1031.55 1755.61 1030.26 1792.2C1029.34 1812.7 1027.88 1837.12 1026 1863.96" stroke="#FBFF12" stroke-width="6" stroke-linecap="round" stroke-dasharray="18 18"/>
<path d="M16.6326 34.9631C16.8765 39.3785 19.6848 72.0095 24.3592 132.078C28.738 188.348 28.8267 238.259 28.5828 276.083C28.3523 311.838 25.1537 358.028 21.5842 408.689C19.0819 444.203 19.2193 481.862 20.0729 533.25C20.5626 562.732 22.6336 598.437 23.4521 626.301C24.2706 654.165 24.1486 672.931 22.7445 705.504C21.3403 738.076 18.6576 783.886 16.7879 830.391C14.9181 876.896 13.9426 922.706 12.5255 966.727C11.1084 1010.75 9.27929 1051.59 7.48344 1122.58C5.6876 1193.57 3.98043 1293.47 3.22293 1352.39C2.27495 1426.12 4.42386 1462.53 8.28716 1510.04C16.4287 1610.16 21.3034 1627.68 24.3168 1655.47C26.7057 1694.18 28.4535 1735.2 29.7395 1771.6C30.6596 1791.98 32.1229 1816.27 34 1842.96" stroke="#FBFF12" stroke-width="6" stroke-linecap="round" stroke-dasharray="18 18"/>
<path d="M18 16.5957C20.5008 16.8396 38.9821 19.648 73.0033 24.3224C104.873 28.7012 133.141 28.7898 154.563 28.546C174.814 28.3154 200.975 25.1168 229.668 21.5473C249.782 19.045 271.111 19.1824 300.216 20.036C316.913 20.5257 337.136 22.5967 352.917 23.4152C368.699 24.2337 379.327 24.1117 397.775 22.7076C416.223 21.3034 442.169 18.6207 468.508 16.7509C494.847 14.8812 520.793 13.9057 545.725 12.4886C570.657 11.0715 593.789 9.24234 633.996 7.44649C674.203 5.65063 730.784 3.94346 764.151 3.18595C805.909 2.23796 826.534 4.38688 853.441 8.25019C910.145 16.3917 920.067 21.2665 935.811 24.2799C957.731 26.6688 980.967 28.4166 1001.58 29.7025C1013.13 30.6226 1026.88 32.0859 1042 33.9631" stroke="#FBFF12" stroke-width="6" stroke-linecap="round" stroke-dasharray="18 18"/>
<path d="M1010 1861.33C1007.65 1861.09 990.309 1858.28 958.381 1853.6C928.472 1849.22 901.943 1849.14 881.839 1849.38C862.834 1849.61 838.282 1852.81 811.355 1856.38C792.478 1858.88 772.461 1858.74 745.147 1857.89C729.477 1857.4 710.499 1855.33 695.688 1854.51C680.878 1853.69 670.903 1853.81 653.59 1855.22C636.277 1856.62 611.927 1859.31 587.209 1861.18C562.49 1863.04 538.141 1864.02 514.743 1865.44C491.345 1866.85 469.635 1868.68 431.902 1870.48C394.169 1872.28 341.069 1873.98 309.755 1874.74C270.566 1875.69 251.21 1873.54 225.958 1869.68C172.743 1861.53 163.431 1856.66 148.656 1853.65C128.085 1851.26 106.278 1849.51 86.9333 1848.22C76.0965 1847.3 63.1883 1845.84 49 1843.96" stroke="#FBFF12" stroke-width="6" stroke-linecap="round" stroke-dasharray="18 18"/>
</svg>
