<svg xmlns="http://www.w3.org/2000/svg" width="124" height="53" fill="none"><circle cx="25" cy="25" r="24.5" stroke="#000"/><circle cx="30.5" cy="24.5" r="3" stroke="#000"/><circle cx="19.5" cy="24.5" r="3" stroke="#000"/><path stroke="#000" d="M115.349 8A24.93 24.93 0 0 1 123 26c0 13.807-11.193 25-25 25a24.9 24.9 0 0 1-12.5-3.345M78.5 41.646A24.9 24.9 0 0 1 73 26C73 12.193 84.193 1 98 1c3.947 0 7.681.915 11 2.544M111 4.642a25 25 0 0 1 2.646 1.858"/><path stroke="#000" d="M108 6.399A21.9 21.9 0 0 0 98 4c-12.15 0-22 9.85-22 22a21.9 21.9 0 0 0 5 13.965M85.5 44.106A21.9 21.9 0 0 0 98 48c12.15 0 22-9.85 22-22a21.94 21.94 0 0 0-7-16.094"/><circle cx="103.5" cy="20.5" r="3" stroke="#000"/><circle cx="92.5" cy="20.5" r="3" stroke="#000"/><circle cx="103.5" cy="30.5" r="3" stroke="#000"/><circle cx="92.5" cy="30.5" r="3" stroke="#000"/><path stroke="#000" stroke-linejoin="round" d="M83.545 41.373a.5.5 0 0 0 .475.346h5.002l-4.046 2.94a.5.5 0 0 0-.182.558l1.545 4.755-4.045-2.939a.5.5 0 0 0-.52-.042l-.068.042-4.046 2.939 1.546-4.755a.5.5 0 0 0-.182-.559l-4.046-2.94h5.002a.5.5 0 0 0 .475-.345L82 36.617zM111.545 6.373a.5.5 0 0 0 .476.346h5l-4.045 2.94a.5.5 0 0 0-.182.558l1.545 4.755-4.045-2.939a.5.5 0 0 0-.52-.042l-.068.042-4.046 2.939 1.546-4.755a.5.5 0 0 0-.182-.559l-4.045-2.94h5a.5.5 0 0 0 .476-.345L110 1.617z"/><path fill="#000" d="M70.354 28.354a.5.5 0 0 0 0-.708l-3.182-3.181a.5.5 0 1 0-.707.707L69.293 28l-2.829 2.828a.5.5 0 1 0 .708.707zM53 28v.5h17v-1H53z"/></svg>