<svg xmlns="http://www.w3.org/2000/svg" width="116" height="54" fill="none"><path fill="#000" d="m29.991 46.229-.018.5zm-17.5-2.5.277-.416zm71.5-40-.36-.348zm28 40 .499.033zm-43-4-.147.478zm-26.5 1.5-.396-.305-.397.516.6.25zm12-.5-.116-.486zm56 10 .354.353zm-26.5-49.5L83.7.823zm-54 45 .018-.5c-.92-.033-2.046.101-3.27.234-1.241.134-2.62.273-4.109.268-2.967-.009-6.364-.586-9.862-2.918l-.277.416-.277.416c3.702 2.468 7.305 3.077 10.413 3.086 1.549.005 2.976-.14 4.22-.274 1.26-.137 2.296-.258 3.126-.229zm-17.5-2.5.277-.416C3.861 37.374 1.614 30.13 4.43 24.968l-.439-.24-.439-.239c-3.184 5.838-.43 13.594 8.662 19.656zm-8.5-19 .439.24c1.528-2.803 2.734-5.586 4.866-7.902 2.101-2.28 5.117-4.108 10.266-4.843l-.07-.495-.072-.495c-5.35.764-8.585 2.687-10.86 5.156-2.242 2.435-3.536 5.401-5.008 8.1zm15.5-13 .07.495c5.145-.735 10.307.365 15.692 1.617 5.356 1.245 10.928 2.64 16.76 2.387l-.022-.5-.022-.499c-5.668.247-11.096-1.108-16.49-2.362-5.365-1.248-10.703-2.398-16.059-1.633zm32.5 4 .022.5c2.852-.125 5.32.03 7.707.093 2.378.063 4.66.034 7.063-.48 4.826-1.029 10.035-3.982 17.567-11.765l-.359-.348-.36-.348c-7.467 7.717-12.507 10.513-17.057 11.484-2.284.487-4.47.52-6.828.458-2.346-.062-4.878-.22-7.777-.094zm32-12 .36.348c.648-.67 1.63-.991 2.905-.964s2.786.403 4.403 1.06c3.23 1.312 6.771 3.702 9.479 6.41l.353-.354.354-.354c-2.793-2.793-6.445-5.262-9.81-6.629-1.682-.683-3.32-1.102-4.758-1.133-1.44-.03-2.736.329-3.645 1.268zm17.5 6.5-.353.353c2.717 2.718 5.61 6.287 7.673 11.518s3.307 12.157 2.681 21.596l.499.033.499.033c.634-9.561-.623-16.637-2.749-22.03s-5.114-9.074-7.896-11.857zm10.5 33.5-.499-.033c-.133 2.008-.681 3.46-1.52 4.49-.837 1.027-2 1.679-3.451 2.019-2.933.686-6.947.076-11.43-1.212-4.465-1.283-9.307-3.209-13.863-5.073-4.54-1.857-8.812-3.66-12.09-4.669l-.147.478-.147.478c3.222.991 7.437 2.77 12.006 4.639 4.553 1.863 9.441 3.809 13.964 5.108 4.504 1.294 8.733 1.974 11.935 1.224 1.617-.378 2.993-1.126 3.998-2.36 1.004-1.232 1.6-2.9 1.743-5.056zm-43-4 .147-.478c-5.285-1.626-11.566-1.79-16.72-1.282-2.582.254-4.897.678-6.681 1.18-.891.25-1.66.524-2.268.81-.591.278-1.09.596-1.374.965l.396.305.396.305c.133-.173.45-.408 1.008-.67.541-.255 1.254-.51 2.113-.752 1.716-.483 3.971-.898 6.507-1.148 5.078-.5 11.215-.33 16.329 1.243zm-26.5 1.5-.192.461c1.02.425 1.99.83 3.786.851 1.763.022 4.312-.323 8.522-1.326l-.116-.486-.116-.486c-4.19.997-6.64 1.319-8.278 1.298-1.604-.02-2.434-.365-3.414-.774zm12-.5.116.486c5.118-1.218 10.262-.25 14.972 1.362 2.353.805 4.586 1.766 6.646 2.687 2.05.916 3.945 1.8 5.587 2.432l.18-.467.179-.467c-1.609-.618-3.463-1.484-5.538-2.412-2.066-.923-4.333-1.9-6.73-2.72-4.79-1.638-10.146-2.669-15.528-1.388zm27.5 6.5-.18.467c3.2 1.23 8.705 3.821 14.21 5.238 2.76.71 5.562 1.137 8.118.948 2.563-.19 4.909-1.003 6.706-2.8l-.354-.353-.353-.354c-1.581 1.58-3.674 2.332-6.073 2.51-2.404.178-5.087-.223-7.795-.92-5.431-1.397-10.8-3.933-14.1-5.203zm28.5 3.5.354.353c4.423-4.423 5.021-11.51 4.142-18.292-.883-6.813-3.277-13.488-5.043-17.273l-.453.212-.453.211c1.734 3.716 4.09 10.29 4.957 16.978.871 6.717.219 13.381-3.857 17.457zm-1-35 .453-.212c-.915-1.96-2.686-4.081-4.869-6.094-2.191-2.019-4.827-3.956-7.51-5.542-2.68-1.585-5.427-2.83-7.84-3.45-2.379-.61-4.579-.65-6.026.392l.292.406.292.406c1.063-.765 2.867-.833 5.193-.236 2.292.589 4.95 1.788 7.58 3.343 2.627 1.553 5.206 3.449 7.341 5.417 2.142 1.974 3.806 3.991 4.641 5.781zm-25.5-14.5L83.7.823c-6.285 4.525-9.603 7.19-13.114 8.894-3.476 1.688-7.15 2.432-14.135 3.013l.041.499.041.498c7.015-.583 10.842-1.339 14.49-3.11 3.614-1.754 7.046-4.508 13.261-8.982zm-27.5 12-.041-.498c-13.92 1.157-27.254-3.475-30.377-3.995l-.082.493-.082.493c2.877.48 16.543 5.176 30.624 4.005zm-30.5-4 .082-.493c-3.105-.518-13.821-.51-21.474 9.183l.392.31.393.31c7.346-9.307 17.63-9.3 20.525-8.817zm-21 9-.392-.31C.779 22.757-.27 27.131.055 30.897c.324 3.748 2.002 6.832 3.52 9.11l.416-.278.416-.277c-1.482-2.223-3.053-5.14-3.355-8.641-.3-3.484.651-7.61 4.332-12.272zm-1 21.5-.416.277c1.515 2.273 3.058 4.21 5.449 5.825 2.385 1.611 5.578 2.88 10.364 3.887l.103-.49.103-.489c-4.714-.992-7.77-2.224-10.01-3.737-2.235-1.51-3.692-3.323-5.177-5.55zm15.5 9.5-.103.49c4.844 1.019 11.02.384 14.256-.573.806-.238 1.48-.51 1.91-.811.208-.147.424-.344.525-.606a.8.8 0 0 0 .04-.465.9.9 0 0 0-.21-.406c-.18-.205-.452-.35-.747-.463a7 7 0 0 0-1.16-.303c-.937-.174-2.249-.3-3.993-.363l-.018.5-.018.5c1.722.062 2.979.185 3.846.346.434.08.758.168.988.255.24.092.332.166.354.191.006.007-.012-.01-.02-.052a.2.2 0 0 1 .005-.1c.006-.016-.014.04-.167.147-.292.205-.838.44-1.618.67-3.104.919-9.11 1.534-13.767.553z"/><path stroke="#000" stroke-linecap="round" d="m24.491 46.729 1 3M54.962 38.729c.336.481.85 1.406.22 1.251"/></svg>