<svg xmlns="http://www.w3.org/2000/svg" viewBox="0 0 115 95" width="115" height="95" fill="none"><path stroke="rgba(0, 0, 0, .87)" stroke-linecap="round" d="m49.5 39.176-2.5-2M44.5 35.176l-3-2.5M40 31.676l-2.5-3M74 54.176l5 9M70 58.676h11M82.5 56.676c-1.2 0-1.5 1.333-1.5 2 .5.333 1.7.8 2.5 0 1-1 .5-2-1-2ZM79.876 65.746c.64-1.015-.329-1.98-.893-2.335-.548.245-1.583 1.012-1.332 2.115.313 1.38 1.426 1.49 2.225.22ZM60 .675c-1.6 1.2-8.667 10.5-12 15 4.5 3 15.7 10.2 24.5 15 11 6 25 22 28.5 19.5s14.5-16 13.5-16.5-25-19-35.5-22.5-17-12-19-10.5ZM.5 74.676c7.167-7.5 22.2-23 25-25 3.5-2.5 8.5-6.5 10-8.5s11.5-10 12-11 3 0 5 1 2.5 2.5 4 3 2 0 3.5 2 3 .5 3.5 1.5 2.5 2 3 2.5 2.5 3.5 3 4c.4.4.833 1.5 1 2-.833-.834-2.8-2.6-4-3-1.5-.5-1.5-.5-3-2s-1.5-1-2.5-1.5-13 11.5-15.5 12.5"/><path stroke="rgba(0, 0, 0, .87)" stroke-linecap="round" d="M48 50.176c-.333 0-.5-.7 1.5-3.5 2.5-3.5 7-9 7-10 0-.8-1.333-1-2-1-.333-.334-1-1.1-1-1.5s-1.667-.834-2.5-1c-.5-.334-1.5-1.1-1.5-1.5s-1-1.5-1.5-2"/><path fill="rgba(0, 0, 0, .87)" d="M54.423 35.943a.5.5 0 1 0-.845-.535l.422.267zM45 52.176l-.474.158zm6.5-2.5.29.406.04-.03zm10.818-8.615a.5.5 0 0 0-.636-.771l.318.386zM54 35.676l-.422-.268c-1.586 2.504-3.94 6.336-5.85 9.695-.954 1.679-1.802 3.247-2.387 4.476a16 16 0 0 0-.672 1.587c-.074.216-.13.418-.161.597-.028.162-.048.374.018.57l.474-.157.474-.159c.016.047-.002.038.02-.085a3 3 0 0 1 .121-.444c.13-.38.343-.88.629-1.479.57-1.196 1.403-2.74 2.353-4.411 1.9-3.341 4.245-7.159 5.825-9.655zm-9 16.5-.474.158c.086.26.229.49.442.659.215.17.466.252.723.274.49.043 1.056-.127 1.637-.385 1.179-.523 2.718-1.554 4.463-2.8l-.291-.407-.29-.406c-1.756 1.254-3.217 2.223-4.288 2.7-.544.242-.916.322-1.144.302a.34.34 0 0 1-.188-.061.4.4 0 0 1-.116-.193zm6.5-2.5.33.376v-.001l.004-.003.014-.013.057-.05.218-.19.807-.703a970 970 0 0 1 2.71-2.35c2.145-1.855 4.766-4.101 6.678-5.681L62 40.675l-.318-.385c-1.922 1.587-4.55 3.84-6.696 5.695a962 962 0 0 0-3.52 3.057l-.22.19q-.036.035-.056.05l-.014.013-.004.003-.001.001z"/><path stroke="rgba(0, 0, 0, .87)" stroke-linecap="round" d="M70.5 46.176c-2.833 2.833-11.2 10.5-22 18.5-13.5 10-24.5 25-25 26-.4.8-2.167 2.333-3 3M71 56.176l-3.5-3M66 52.176l-3.5-2.5M61 47.676l-3.5-2M55.5 43.676l-3.5-2.5"/><path fill="rgba(0, 0, 0, .87)" d="M101.389 39.213c-.239.08-.412.231-.659.35a.99.99 0 0 1-.8-.006c-.565-.313-.489-.506-.937-.876l-.009-.007c-.396-.351-.737-.778-.962-.885-.226-.106-.122-.272-.418-.456a2.5 2.5 0 0 1-.335-.244l-.029-.027a2.3 2.3 0 0 1-.254-.386c-.164-.273-.67-1.067-.889-1.347a1.05 1.05 0 0 1-.205-.412c-.046-.217-.041-.398-.072-.531a1 1 0 0 1-.024-.175q0-.03.019-.036c.014-.006.033.002.043.023.05.105.135.26.247.443q.059.094.092.16c.107.178.088.306.332.634.313.4.572.573.902 1.065.062.09.122.158.184.216l-.028-.026c.322.222.607.226 1.06.79.335.424.557.535.835.695.166.09.35.197.574.333.202.121.373.187.498.178a2 2 0 0 0 .767-.265 2.4 2.4 0 0 0 .387-.279c.242-.224.495-.554.499-.844.006-.186.01-.366-.006-.515-.012-.122-.054-.212-.096-.245-.111-.1-.295-.186-.494-.25-.364-.12-.748-.22-1.111-.342-.75-.25-1.862-.571-2.354-.775l-.258-.103a3 3 0 0 0-.849-.214 9 9 0 0 1-.993-.212c-.156-.02-.155-.09.04-.12.264-.03.465.033.605-.015.282-.09.407-.12.715.03.265.133.447.051.612.077q.035.005.069.018c.174.067.14.183 1.09.32.951.128 1.484.22 1.852.3.202.041.515.151.85.29.244.103.504.232.738.436q.096.087.164.185c.235.337.243.783.236 1.155-.033.764-.567 1.208-.763 1.438-.212.225-.334.278-.463.323-.107.038-.219.069-.402.133"/><path stroke="rgba(0, 0, 0, .87)" stroke-linecap="round" d="M57.5 12.176c-.8-1.6 2.333-2.334 4-2.5 2 .5 2 3.5 0 4.5s-3 0-4-2Z"/><path fill="rgba(0, 0, 0, .87)" d="M60.256 12.619c-.042-.131-.032.457-.074.377s-.074-.391-.112-.317c-.036.074-.102-.133-.105-.004v.02l.269-.098c.092-.023.146-.156.15-.329.015-.181-.098-.388-.134-.481-.067-.202-.105-.13-.16-.024-.06.115-.007.243.045.093.046-.149.03.12.047.186a.6.6 0 0 1 .005.138.3.3 0 0 1-.01.064.8.8 0 0 0-.071.174c-.075.2-.044-.028-.127.064-.085.09-.204.285-.284.097-.033-.085-.106-.033-.26-.076-.07-.03-.202-.067-.278-.355a.7.7 0 0 1 .083-.49.6.6 0 0 1 .254-.237c.064.02.24-.15.289-.104q.02.019.048.083c.13.315.075-.287.168-.376.093-.088.227.24.277.21.053-.03.123-.102.2-.024.075.078.165-.124.244.019l.02.034c.869 0 .869 1.45 0 1.45a1.3 1.3 0 0 1-.259-.428c-.04-.128-.044-.156-.114-.095-.04.035-.083-.017-.071-.177a.6.6 0 0 1 .075-.227c.04-.068.041-.015.083-.145.08-.261.1-.364.089-.204-.008.16.063-.194.065-.152.004.042-.02.255.06.098a.8.8 0 0 0 .071-.185c.948 0 .948 1.58 0 1.58q-.03.034-.05.056c-.032.04-.1-.145-.152-.077s-.157.009-.194.12c-.036.11-.046-.127-.087-.258"/><path stroke="rgba(0, 0, 0, .87)" stroke-linecap="round" d="m100 46.176 1-1.5M102 43.676l.5-1M104 41.676l1-1.5M106 39.676l1-1.5M108 37.176l1-1M111 35.176l-2-1M107.5 33.176l-2-1.5M104.5 30.676l-2-1M101.5 28.676l-1.5-1M99 26.676l-2-1M96 24.676l-2-1.5M92.5 22.676l-1.5-1M89.5 21.176l-1.5-1M87 19.176l-1.5-1M84 17.676l-1.5-.5M81.5 16.676l-1-1M79 15.176l-1.5-1M76.5 13.676l-1-.5M74 12.176l-1.5-1M71 10.676l-1.5-1M68 8.675l-1-.5M66 7.675l-2-1.5M63 5.675l-1.5-.5M60.5 5.675l-1 1M58.5 7.675l-1 1.5M56.5 10.176l-1 1M55 12.176l-1.5 1M52.5 14.176l-1 1M51 16.176c1 .333 3.1.8 3.5 0M56.5 15.176c0 .166.2.8 1 2M60 19.176c1 .666 3.4 1.9 5 1.5M67 21.676c-.333 1.333-.2 4 3 4M72.5 27.176c1 .5 5.5 0 6 2M80.5 30.676c.333 1 1.3 3.2 2.5 4M85.5 36.676c1.333.666 4.4 1.8 6 1M94 39.676c-.333 1.333-.4 3.8 2 3M98.5 45.176c.167 1.5 1 3.9 3 1.5s1.833-1 1.5 0"/></svg>