<svg xmlns="http://www.w3.org/2000/svg" viewBox="0 0 253 128" width="253" height="128" fill="none"><path stroke="rgba(0, 0, 0, .87)" stroke-linecap="round" d="M69.875 26.898c4.667-3.826 12.61-6.364 22.5-7.934m-22.5 7.934c.5-.078 1.6 1.914 2 10.501m-2-10.5c-6.512 5.339-13.977 12.908-21.5 21.265m133.5 73.234c-15.833.667-58.8-.9-104-12.5s-62.5-15.695-65.5-16.292m0 0a470 470 0 0 0-3.5 4.792c5.5 1.334 26.5 6.4 66.5 16 50 12 103.5 15 104.5 12.5s10.5-13.5 31-21.5c16.4-6.4 34.167-4.666 41-3-.753-2.654-3.555-5.618-4.5-8.792m-235 0a690 690 0 0 1 13.963-18.208m190.537 2.5c-.5-2-17-40.5-21.5-44.5s0-5.5-6-5.5m27.5 50c8.5 1.5 19.644 1.667 24.5 0m-24.5 0c-9.333-4.5-28.4-16.5-30-20.5m2.5-29.5c-6 0-6 4.5-15 4s-59.5-7.5-82 3-53.5 50.5-57.5 55.5m154.5-62.5c12 1.2 28.071 5.167 36 7m-190.5 55.5c-4 5 102 16.5 108 18s45.575 6 48 6m-156-24c10-6.143 156 16.5 158 15s9-7 25.5-11.792c13.2-3.835 24.186-1.598 29 0m-212.5-3.208c8-8 38.5-16.5 54-23.5 5.609-2.532 7.158-4.28 6.757-6m151.743 32.708c-1.315-4.417-4.422-10.742-6-15.708m-54.5-20.5c.333-5.333.4-16.2-2-17-3-1-39.754-1.999-48-1.999-9.5 0-56-3.5-50 9.5 2.99 6.477 8.05 9.966 8.757 13m91.243-3.5c-26.662-.334-82.237-.1-91.243 3.5m109.743 18.5c-29.333-1.331-94.1-1.894-118.5 6.5m5.5-65.935c43.095-6.841 123.18 4.681 130.5 7.934 1.476.657.498 3.188 2.5 7m-133-14.934c-2.167 3.145-8.1 10.534-14.5 14.934a45 45 0 0 1-6 3.501m-15.5 3.5c4.823 0 9.922-.827 15.5-3.5m-23.5 10.764c-2.28-.36-6.366-.078-7 3.264m7-3.264a443 443 0 0 0-6.275 7.13m10.775 1.105c-3.5 1.167-10.7 2.2-11.5-3-.116-.752-.107-1.405 0-1.97m11.5 4.97c-3.025 5.167-12.566 16-26.537 18m26.537-18c-2.8 3.6-10.966 3.834-14.698 3.5m-11.839 14.5a642 642 0 0 1 11.839-14.5m187.198-26c6.712 15.5 6 19.5 16 43m-200-25.47-3.198 8.47M8.375 37.398c-1.5 1-4.8 1.5-6-4.5-1.5-7.5 2-10.5 5-8.5m-6.5-5c0-1.5-1.5-6 1.5-8.5s5-2 7.5 0m7.5-6c.167-2 1.8-5.6 7-4s2.167 5.667 0 7.5m2 8c.333-2.333 2.3-6.3 7.5-3.5 3 1.616.5 5.5-2.5 6.5m-7 5c-1-1.5-5.3-5.2-8.5 0s.167 8.5 1.5 8.5m21-4c2.5-.833 7.6.8 6 4s-3.167 3.5-3.5 4.5m-20.5 40-6.5-37.5m7.5 33v-37.5m2 34 8-36.5"/></svg>