<svg xmlns="http://www.w3.org/2000/svg" width="378" height="179" fill="none"><path fill="#000" d="m11.686 128.368.353-.353a.5.5 0 0 0-.758.059zm-4 5.5.381.323.012-.014.01-.015zm-7 7-.159-.474zm9.5 13.5-.278.416zm12.5 13.5-.386.319a.5.5 0 0 0 .768.003zm9.5-11.5.4.3zm-8-14 .375-.33zm-12.5-14-.405-.294-4 5.5.405.294.404.294 4-5.5zm-4 5.5-.382-.323a97 97 0 0 1-3.717 4.14 35 35 0 0 1-1.891 1.852 10 10 0 0 1-.733.599c-.217.157-.36.233-.436.258l.159.474.158.475c.224-.075.468-.225.704-.396.246-.177.52-.404.812-.663a36 36 0 0 0 1.949-1.907 98 98 0 0 0 3.758-4.186zm-7 7-.159-.474a.76.76 0 0 0-.504.582c-.045.214-.017.443.03.646.095.416.32.939.618 1.515.602 1.163 1.57 2.67 2.67 4.209a61 61 0 0 0 3.506 4.467c1.15 1.321 2.25 2.43 3.061 2.971l.277-.416.278-.416c-.689-.459-1.713-1.475-2.861-2.795a61 61 0 0 1-3.447-4.392c-1.088-1.523-2.026-2.985-2.596-4.087-.288-.558-.465-.991-.532-1.28a1 1 0 0 1-.026-.162c-.003-.04 0-.055 0-.052a.25.25 0 0 1-.157.159zm9.5 13.5-.278.416c.554.369 1.405 1.14 2.444 2.182a105 105 0 0 1 3.425 3.649 251 251 0 0 1 6.523 7.572l.386-.319.385-.318a251 251 0 0 0-6.552-7.604 105 105 0 0 0-3.459-3.685c-1.036-1.04-1.95-1.878-2.597-2.309zm12.5 13.5.382.322c2.66-3.159 8.307-9.907 9.518-11.522l-.4-.3-.4-.3c-1.19 1.586-6.81 8.304-9.483 11.478zm9.5-11.5.4.3c.182-.243.342-.42.527-.649.17-.211.346-.449.464-.731.256-.614.185-1.288-.253-2.199-.433-.898-1.26-2.107-2.645-3.852-1.391-1.752-3.367-4.073-6.118-7.199l-.375.33-.376.33c2.749 3.124 4.71 5.429 6.086 7.161 1.38 1.739 2.146 2.874 2.526 3.664.374.776.335 1.133.232 1.379a2 2 0 0 1-.32.489c-.141.176-.356.421-.549.677zm-8-14 .375-.33c-8.794-9.993-12.008-13.509-12.522-14.023l-.354.353-.353.354c.486.485 3.672 3.969 12.478 13.976zm342.5-14-.354-.353a.5.5 0 0 1 .762.064zm3.539 5-.382.323-.014-.016-.012-.018zm7 7 .158-.474zm-7 7.5.366.34zm-14.54 17 .386.319a.503.503 0 0 1-.768.003zm-11-12-.4.3zm9.04-11-.376-.33zm12.961-13.5.408-.289 3.539 5-.408.289-.408.289-3.54-5zm3.539 5 .382-.323a97 97 0 0 0 3.716 4.14c.682.71 1.337 1.359 1.892 1.852.277.246.524.449.732.599.217.157.36.233.436.258l-.158.474-.158.475c-.225-.075-.468-.225-.705-.396-.245-.177-.52-.404-.811-.663a36 36 0 0 1-1.95-1.907 97 97 0 0 1-3.758-4.186zm7 7 .158-.474c.167.056.344.16.461.347a.8.8 0 0 1 .106.561c-.047.305-.24.612-.442.88-.426.561-1.151 1.264-1.964 2.003-1.665 1.513-3.744 3.223-4.953 4.523l-.366-.34-.366-.34c1.245-1.341 3.415-3.131 5.012-4.583.818-.743 1.477-1.389 1.84-1.867.191-.253.244-.389.25-.429.001-.003-.008.053.035.122.042.067.091.078.071.072zm-7 7.5.366.34c-6.026 6.487-11.347 13.138-14.52 16.979l-.386-.319-.385-.318c3.161-3.826 8.507-10.508 14.559-17.022zm-14.54 17-.382.322c-1.322-1.57-3.76-4.157-6.031-6.566-2.251-2.387-4.364-4.626-4.987-5.456l.4-.3.4-.3c.578.771 2.631 2.948 4.914 5.37 2.262 2.399 4.724 5.011 6.069 6.608zm-11-12-.4.3a13 13 0 0 0-.891-1.069c-.108-.117-.222-.237-.301-.324a2 2 0 0 1-.231-.289.73.73 0 0 1-.12-.492.72.72 0 0 1 .259-.447c.093-.081.208-.15.315-.211.109-.062.249-.137.4-.219 1.202-.656 4.167-2.367 9.633-8.579l.376.33.375.33c-5.534 6.289-8.588 8.078-9.905 8.797-.165.089-.285.153-.384.21a1 1 0 0 0-.158.1c-.014.012.062-.046.079-.175.018-.125-.037-.198-.024-.177.013.02.045.062.125.149.08.089.167.179.296.319.245.265.568.63.956 1.147zm9.04-11-.376-.33c8.814-10.016 12.502-13.042 12.983-13.523l.354.353.353.354c-.518.518-4.153 3.492-12.939 13.476z"/><path stroke="#000" stroke-linecap="round" d="M11.686 128.368c9.166-9.333 36.734-37.99 46.5-49.5 14-16.5 21.5-20.5 40.5-39.5 17.295-17.295 25.5-18 34.5-21.5 4.611-1.793 16.833-2 20.5-2.5m213 113.5c-8.864-9.622-20.608-24.184-30-36-13.465-16.94-20.118-23.401-38.5-43-16.733-17.84-20.617-26.214-29.5-30-4.552-1.94-25.352-4.883-29-5.5m-206.5 140.5c4-6 11.831-14.242 27.5-27.5 19.5-16.5 28-25.5 36-32.5 9.5-8.312 18.833-25.833 21-29.5m225.5 85.5c-4-6-11.1-13.384-26-27.5-9.5-9-21.5-24.5-29.5-31.5-8.572-7.5-13-17-21-24.5m-84.5-25c1.333 6.334 3.6 21.2 2 30-2 11-2 38-2 43.5s-2.5 28-2.5 42-2.5 20.5 0 20.5 16.5-5.5 31.5-5.5c7.433 0 22.5-1.5 30 0s18.5 1.5 18.5 0-2.5-11 0-17.5 5.5-34.5 5.5-44c0-7.6 1-32.166 1.5-43.5"/><path stroke="#000" stroke-linecap="round" d="M185.186 41.868c-2.5-4.5-4.5-9.5-7-8s-10.5 7-14.5 8-11 3.5-12 4 1-11.5 0-18 0-11 7.5-17 6-8 23.5-9 48.5-2.5 50.5 0 9.5 19 9 20.5-2.5 27.5-4 26.5-6.5-5-13.5-7-13-9.5-13.5-10"/><path stroke="#000" stroke-linecap="round" d="M179.185 33.368c-3.666-1.833-11.2-6.1-12-8.5-1-3-8-7-2.5-10.5s11.501-4 14.001-5 14.5 0 18 0 9-2.5 19.5 0 16.5-1 16 6-11.5 11-13.5 12.5-12 4.5-17 9-4.039 3.38-9 4c-4 .5-8 1-10.5 1.5"/><path stroke="#000" stroke-linecap="round" d="M165.686 13.868c2.666 1 9.3 3.4 12.5 3 5.5 0 14 2 15.5 1.5s18.5.5 19.5-.5 11-1 12-1 6 0 6.5-.5"/><path stroke="#000" stroke-linecap="round" d="M167.686 12.868c2.666 1 7.3 2.4 10.5 2 5.5 0 14 2 15.5 1.5s18.5.5 19.5-.5 11-1 12-1 6 0 6.5-.5"/><path fill="#000" d="m185.186 21.368-.354-.353a.5.5 0 0 0-.146.353zm0 11.5-.479-.144a.5.5 0 0 0 .38.634zm0-11.5.353.354c-.044.044-.079.057-.062.049l.072-.027q.121-.042.363-.095c.321-.07.764-.146 1.298-.224a72 72 0 0 1 3.894-.434 71 71 0 0 1 4.079-.248 23 23 0 0 1 1.533.004c.433.02.697.057.811.096l.159-.475.158-.474c-.261-.087-.653-.127-1.083-.146a24 24 0 0 0-1.604-.005 72 72 0 0 0-4.14.252 73 73 0 0 0-3.95.44 20 20 0 0 0-1.37.238 5 5 0 0 0-.462.121 2 2 0 0 0-.19.075.8.8 0 0 0-.213.146zm12.5-1-.159.475c.456.151 1.25.213 2.109.244.886.031 1.927.031 2.925.031 1.003 0 1.96 0 2.697.031.37.015.67.038.887.07q.162.023.229.045c.064.02.019.018-.042-.042l.354-.354.353-.353a.9.9 0 0 0-.376-.208 3 3 0 0 0-.374-.078 10 10 0 0 0-.989-.08c-.763-.03-1.743-.03-2.739-.03a86 86 0 0 1-2.889-.032c-.89-.032-1.534-.095-1.828-.193zm9 .5-.354.354c-.051-.051-.047-.077-.007.024q.045.113.108.333c.084.291.178.69.279 1.166.201.95.418 2.174.604 3.387.187 1.213.342 2.404.418 3.287.039.445.057.796.051 1.029a1 1 0 0 1-.015.2c-.003.012.003-.028.039-.081a.45.45 0 0 1 .377-.199v1a.55.55 0 0 0 .459-.253.7.7 0 0 0 .098-.24 2 2 0 0 0 .042-.405c.007-.288-.015-.683-.054-1.137a56 56 0 0 0-.426-3.353 67 67 0 0 0-.615-3.442 19 19 0 0 0-.295-1.234 5 5 0 0 0-.14-.425 1.1 1.1 0 0 0-.216-.364zm1.5 10v-.5c-.094 0-.402.028-.819.068-.437.042-1.034.103-1.741.177-1.416.149-3.277.352-5.185.57-1.907.22-3.864.455-5.469.666-1.591.21-2.874.4-3.408.534l.122.485.121.485c.466-.116 1.683-.3 3.295-.513a357 357 0 0 1 5.453-.663c1.905-.218 3.762-.421 5.175-.57a221 221 0 0 1 2.252-.224l.152-.012.052-.003zm-16.5 2-.122-.485c-.738.185-1.896.268-3.1.26-1.199-.008-2.389-.107-3.18-.265l-.098.49-.099.49c.876.176 2.136.277 3.37.285 1.229.009 2.488-.074 3.35-.29zm-6.5 0 .478.144c.266-.885.494-2.401.608-3.88.112-1.466.12-2.998-.101-3.885l-.485.121-.486.121c.179.713.187 2.098.075 3.566-.112 1.454-.334 2.887-.568 3.67zm.5-7.5.485-.121c-.388-1.55-.485-3.24-.485-3.879h-1c0 .695.102 2.47.514 4.121zm12.12-1.594c.197.065.356-.11.53-.26.128-.11.266-.207.44-.188.411.045.506.35.966.228.459-.12.954.033 1.147-.121s.264.228.55.104.473-.099.75-.01c.142.046.425.067.705.052.267-.015.528-.063.662-.155.178-.123.405-.074.602.004l.278.117a.36.36 0 0 1 .149.105c.013.016.013.043.005.066-.009.03-.028.055-.047.054-.093-.007-.209.027-.365.136l-.03.02c-.281.228-.349.01-.773.17-.143.056-.267.122-.386.181-.233.116-.457.21-.813.166-.539-.067-.584.524-1.364.292-.779-.236-.784.374-1.525.53a3.2 3.2 0 0 1-.81.042c-.541-.03-1.064-.144-1.363-.114-.454.045-1.068.127-1.713.034-.407-.057-.875-.012-1.343-.022a3.2 3.2 0 0 1-.799-.101c-.694-.193-1.657-.469-2.096-.631a5 5 0 0 0-.383-.13c-.182-.047-.327-.052-.607-.03a1.4 1.4 0 0 1-.875-.25c-.136-.098-.084-.2.067-.232.221-.047.39.02.513-.104.246-.25.346-.346.611-.163.143.099.258.04.357-.024.086-.054.161-.113.236-.087.16.057.141.269.984.184.841-.086 1.291-.096 1.603-.114.121-.007.289.023.48.058.303.055.663.125.972.092.504-.048 1.522.006 1.928-.123.404-.126.416.111.757.224m-1.672 4.089c-.335.174-.681-.376-1.097-.246s-.447.448-.942.426l-.056-.001c-.471-.002-.915.224-1.133.115-.224-.113-.222.275-.537.206-.312-.07-.496-.012-.763.122-.257.133-1.058.24-1.378.094l-.027-.013c-.244-.138-.583.034-.705.1a.2.2 0 0 1-.09.004.7.7 0 0 0-.166-.015c-.021.001-.041.018-.055.039-.016.026-.023.058-.007.073.053.045.1.116.21.205.081.055.154.088.223.135.275.177.357.07.604.074.068 0 .149.01.251.035.466.112.758.325 1.31.17.546-.159.709.415 1.47.032.433-.222.659-.122.926.005.195.093.414.2.746.199.783-.004 1.71-.455 2.173-.485s1.09-.038 1.73-.199c.577-.145 1.307-.076 1.951-.22q.105-.022.206-.053c.693-.218 1.686-.469 2.148-.6.431-.125.562-.156.944-.094l.084.014c.26.047.609.02.923-.109.159-.065.135-.176-.016-.242-.222-.095-.414-.052-.526-.193-.175-.216-.276-.329-.451-.3a.6.6 0 0 0-.18.067c-.301.157-.446-.201-.624-.156-.175.049-.166.25-1.06.14-.812-.093-1.287-.088-1.621-.09l-.098-.002c-.338-.003-1.003.261-1.545.262-.544 0-1.618.198-2.066.144-.449-.054-.42.182-.756.357"/><path stroke="#000" stroke-linecap="round" d="M117.686 65.368c-.667 11.5-2.1 36.4-4.5 44-3 9.5-3 40-5 47.5s-2 17.5 0 18.5 68 1.5 70 1.5m17-136c.833 6.334 2.6 21.1 3 29.5.5 10.5 1 44.5-1 49.5s-5.5 38-5 39.5"/><path stroke="#000" stroke-linecap="round" d="M108.186 158.868c2-.5 17.5 0 22 0s14.5 2.5 20.5 2.5h28.5c9.833-.833 18.5-1.5 20.5-1.5 2.5 0 21.5-1 33-1 9.2 0 22.5-.5 26 0m-135.5-49c-1.334.333-4.1 1.1-4.5 1.5-1 1.5 8.5 41.5 9.5 42.5s6 0 7-2-3.5-18.5-4-23c-.4-3.6-5.5-14.167-8-19Z"/><path stroke="#000" stroke-linecap="round" stroke-linejoin="round" d="M125.186 131.868c0-3-2.667-13-4.5-19.5 1.333.333 4.9 4.3 8.5 19.5 4.5 19 1.5 18.5 2 20s-6-16.5-6-20"/><path stroke="#000" stroke-linecap="round" d="M249.83 109.868c1.333.333 4.1 1.1 4.5 1.5 1 1.5-8.5 41.5-9.5 42.5s-6 0-7-2 3.5-18.5 4-23c.4-3.6 5.5-14.167 8-19Z"/><path stroke="#000" stroke-linecap="round" stroke-linejoin="round" d="M247.83 131.868c0-3 2.667-13 4.5-19.5-1.333.333-4.9 4.3-8.5 19.5-4.5 19-1.5 18.5-2 20s6-16.5 6-20m-60.644-41c-.8-2.8 1.5-5.5 3-5.5 2 0 4 .5 4 3.5 0 5.1-6 5.5-7 2"/><path fill="#000" d="M190.922 89.629c-.036-.25-.588.041-.773-.265-.158-.263-.054-.486-.192-.72.041.041.152.205.459.22.301-.008.408-.152.461-.201a.37.37 0 0 0 .109-.25c-.008-.156-.004-.234-.261-.385-.282-.095-.448-.055-.641.23-.119.253-.034.384-.024.43.022.052.029.07.029.097l-.001.017c-.009.123.101-.06.092-.128.003-.021-.012-.028.008-.007.017.013.066.032.172-.027.074-.021.125-.15.098-.17-.02-.029-.063.005-.099.074a.3.3 0 0 0-.026.1c-.01.064.013.034-.016.286a.5.5 0 0 1-.277.308c-.138.053-.242.037-.325.026-.084-.013-.154-.03-.216-.042l-.08-.01q-.019-.002-.022.003c.017-.01-.054.052.159-.029l.063-.392c-.06-.075-.002-.038.012-.054.073-.02.14.007.198.055.109.09.203.263.282.339a.4.4 0 0 1 .079.112q.009.026-.006.064c-.012.028-.031.053-.047.051a.84.84 0 0 0-.367.05.33.33 0 0 1-.209.014c-.049-.016-.086-.047-.132-.08a1 1 0 0 0-.08-.057c-.043-.033-.037.003-.181-.134-.092-.167-.103-.375.073-.451.219-.1.197-.043.238-.053l.058.006.075.003c.113-.003.199-.041.188-.086-.007-.02-.062-.042-.152.002a.36.36 0 0 0-.161.175c-.03.225-.004.163-.013.17l-.014-.065a1 1 0 0 1-.012-.264c.007-.23.056-.624.302-.847.366-.257.542-.227.754-.22.179.028.375.088.578.354.078.12.17.244.18.56a.8.8 0 0 1-.123.416.7.7 0 0 1-.508.31.76.76 0 0 1-.451-.078c-.395-.262-.441-.455-.513-.753-.012-.214-.01-.348.114-.571.071-.101.177-.289.561-.362a.9.9 0 0 1 .547.099c.142.076.225.157.287.223a.6.6 0 0 1 .246.107c.316.252.826 1.055.995 1.71q.027.086.047.182c.04.21.003.582-.301.844a.97.97 0 0 1-.789.215 1.88 1.88 0 0 1-1.152-.557 4 4 0 0 1-.247-.284c-.054-.073-.118-.149-.199-.282-.067-.125-.232-.382-.132-.809a.9.9 0 0 1 .285-.462c.06-.044.11-.112.348-.177a.8.8 0 0 1 .915.45c.082.196.07.264.076.327.049.158.034.86-.3 1.186q-.112.127-.244.225a1.2 1.2 0 0 1-.345.208.84.84 0 0 1-.398.055.75.75 0 0 1-.488-.265c-.219-.35-.343-.85-.121-1.267a1.6 1.6 0 0 1 .332-.382 1.2 1.2 0 0 1 .438-.23c.118-.025.269-.094.494.023a.7.7 0 0 1 .151.123.56.56 0 0 1 .085.615c-.03.035-.019.112-.201.17-.243-.019-.188-.106-.219-.137a.4.4 0 0 1-.018-.112c0-.14.109-.172.211-.118q.037.02.057.026c.002.01.05-.031-.11-.034-.154.061-.104.084-.121.08-.004-.001-.008-.011-.015-.02-.014-.02-.04-.04-.087-.047l-.043-.005c-.204-.003-.333.053-.15.113a.25.25 0 0 0 .125.005c.133-.043.108-.04.13.012.031.06.114.135.097.117-.026-.013-.173-.145-.23.142.013-.005.03-.017.053-.02.047-.004.115.045.165.05a.67.67 0 0 0-.455-.23c-.157-.007-.235.028-.285.045-.094.04-.109.053-.13.062.018-.067-.003-.081-.018-.091-.021-.025.037.048.055-.261.006.05-.005.107.067.283.04.089.122.238.32.355.2.12.432.115.545.088.237-.061.276-.124.328-.16a.58.58 0 0 0 .199-.322c.05-.25-.044-.354-.037-.35a.3.3 0 0 0 .077.079c.048.016.289.188.471.187a.64.64 0 0 0-.556.163.73.73 0 0 0-.243.61l-.026.002c-.11.02.107-.101.094-.33"/><path stroke="#000" stroke-linecap="round" stroke-linejoin="round" d="M186.186 48.868c-.8-2.8 1.5-5.5 3-5.5 2 0 4 .5 4 3.5 0 5.1-6 5.5-7 2"/><path fill="#000" d="M189.922 47.629c-.036-.25-.588.041-.773-.265-.158-.263-.054-.486-.192-.72.041.041.152.205.459.22.301-.008.408-.152.461-.201a.37.37 0 0 0 .109-.25c-.008-.156-.004-.234-.261-.384-.282-.096-.448-.056-.641.228-.119.254-.034.385-.024.431.022.052.029.07.029.097l-.001.017c-.009.123.101-.06.092-.128.003-.021-.012-.028.008-.007.017.013.066.032.172-.027.074-.021.125-.15.098-.17-.02-.029-.063.005-.099.074a.3.3 0 0 0-.026.1c-.01.065.013.034-.016.286a.5.5 0 0 1-.277.308c-.138.053-.242.037-.325.026-.084-.013-.154-.03-.216-.042l-.08-.01q-.019-.001-.022.003c.017-.01-.054.052.159-.029l.063-.392c-.06-.075-.002-.038.012-.054.073-.02.14.007.198.055.109.09.203.263.282.339a.4.4 0 0 1 .079.112c.007.015.003.04-.006.064-.012.029-.031.053-.047.051a.84.84 0 0 0-.367.05.33.33 0 0 1-.209.014c-.049-.016-.086-.047-.132-.08a1 1 0 0 0-.08-.057c-.043-.033-.037.003-.181-.134-.092-.168-.103-.375.073-.451.219-.1.197-.043.238-.053l.058.006.075.003c.113-.003.199-.041.188-.086-.007-.02-.062-.042-.152.002a.36.36 0 0 0-.161.175c-.03.225-.004.163-.013.17l-.014-.065a1 1 0 0 1-.012-.264c.007-.23.056-.624.302-.847.366-.257.542-.227.754-.22.179.028.375.088.578.354.078.12.17.244.18.56a.8.8 0 0 1-.123.416.7.7 0 0 1-.508.31.76.76 0 0 1-.451-.078c-.395-.262-.441-.455-.513-.753-.012-.214-.01-.348.114-.571.071-.101.177-.289.561-.361a.9.9 0 0 1 .547.097c.142.077.225.158.287.224a.6.6 0 0 1 .246.107c.316.252.826 1.055.995 1.71q.027.086.047.182c.04.21.003.583-.301.844a.97.97 0 0 1-.789.215 1.88 1.88 0 0 1-1.152-.557 4 4 0 0 1-.247-.284c-.054-.073-.118-.149-.199-.282-.067-.125-.232-.382-.132-.809a.9.9 0 0 1 .285-.462c.06-.044.11-.112.348-.178a.8.8 0 0 1 .915.45c.082.197.07.265.076.328.049.158.034.86-.3 1.186q-.112.127-.244.225a1.2 1.2 0 0 1-.345.208.84.84 0 0 1-.398.055.75.75 0 0 1-.488-.265c-.219-.35-.343-.85-.121-1.267a1.6 1.6 0 0 1 .332-.383c.165-.132.308-.191.438-.229.118-.025.269-.094.494.023a.7.7 0 0 1 .151.122.56.56 0 0 1 .085.615c-.03.036-.019.113-.201.17-.243-.018-.188-.105-.219-.136a.4.4 0 0 1-.018-.113c0-.14.109-.172.211-.117q.037.02.057.026c.002.01.05-.031-.11-.034-.154.061-.104.084-.121.08-.004-.001-.008-.011-.015-.02-.014-.02-.04-.04-.087-.047l-.043-.005c-.204-.003-.333.053-.15.113a.25.25 0 0 0 .125.005c.133-.043.108-.04.13.011.031.061.114.136.097.118-.026-.013-.173-.145-.23.142.013-.005.03-.017.053-.02.047-.004.115.045.165.05a.67.67 0 0 0-.455-.23c-.157-.007-.235.028-.285.045-.094.04-.109.053-.13.062.018-.067-.003-.081-.018-.091-.021-.025.037.048.055-.261.006.05-.005.107.067.283.04.089.122.238.32.355.2.12.432.115.545.088.237-.061.276-.124.328-.16a.58.58 0 0 0 .199-.322c.05-.25-.044-.354-.037-.35a.3.3 0 0 0 .077.079c.048.016.289.188.471.187a.64.64 0 0 0-.556.163.73.73 0 0 0-.243.61l-.026.002c-.11.02.107-.101.094-.33"/><path stroke="#000" stroke-linecap="round" stroke-linejoin="round" d="M187.186 67.868c-.8-2.8 1.5-5.5 3-5.5 2 0 4 .5 4 3.5 0 5.1-6 5.5-7 2"/><path fill="#000" d="M190.922 66.629c-.036-.25-.588.041-.773-.265-.158-.263-.054-.486-.192-.72.041.041.152.205.459.22.301-.008.408-.152.461-.201a.37.37 0 0 0 .109-.25c-.008-.156-.004-.234-.261-.385-.282-.095-.448-.055-.641.23-.119.253-.034.384-.024.43.022.052.029.07.029.097l-.001.017c-.009.123.101-.06.092-.128.003-.021-.012-.028.008-.007.017.013.066.032.172-.027.074-.021.125-.15.098-.17-.02-.029-.063.005-.099.074a.3.3 0 0 0-.026.1c-.01.064.013.034-.016.286a.5.5 0 0 1-.277.308c-.138.053-.242.037-.325.026-.084-.013-.154-.03-.216-.042l-.08-.01q-.019-.001-.022.003c.017-.01-.054.052.159-.029l.063-.392c-.06-.075-.002-.038.012-.054.073-.02.14.007.198.055.109.09.203.263.282.339a.4.4 0 0 1 .079.112q.009.026-.006.064c-.012.028-.031.053-.047.051a.84.84 0 0 0-.367.05.33.33 0 0 1-.209.014c-.049-.016-.086-.047-.132-.08a1 1 0 0 0-.08-.057c-.043-.033-.037.003-.181-.134-.092-.167-.103-.375.073-.451.219-.1.197-.043.238-.053l.058.006.075.003c.113-.003.199-.041.188-.086-.007-.02-.062-.042-.152.002a.36.36 0 0 0-.161.175c-.03.225-.004.163-.013.17l-.014-.065a1 1 0 0 1-.012-.264c.007-.23.056-.624.302-.847.366-.257.542-.227.754-.22.179.028.375.088.578.354.078.12.17.244.18.56a.8.8 0 0 1-.123.416.7.7 0 0 1-.508.31.76.76 0 0 1-.451-.078c-.395-.262-.441-.455-.513-.753-.012-.214-.01-.348.114-.571.071-.101.177-.289.561-.362a.9.9 0 0 1 .547.099c.142.076.225.157.287.223a.6.6 0 0 1 .246.107c.316.252.826 1.055.995 1.71q.027.086.047.182c.04.21.003.582-.301.844a.97.97 0 0 1-.789.215 1.88 1.88 0 0 1-1.152-.557 4 4 0 0 1-.247-.284c-.054-.073-.118-.149-.199-.282-.067-.125-.232-.382-.132-.809a.9.9 0 0 1 .285-.462c.06-.044.11-.112.348-.177a.8.8 0 0 1 .915.45c.082.196.07.264.076.327.049.158.034.86-.3 1.186q-.112.127-.244.225a1.2 1.2 0 0 1-.345.208.84.84 0 0 1-.398.055.75.75 0 0 1-.488-.265c-.219-.35-.343-.85-.121-1.267a1.6 1.6 0 0 1 .332-.382 1.2 1.2 0 0 1 .438-.23c.118-.025.269-.094.494.023a.7.7 0 0 1 .151.123.56.56 0 0 1 .085.615c-.03.035-.019.112-.201.17-.243-.019-.188-.106-.219-.137a.4.4 0 0 1-.018-.112c0-.14.109-.172.211-.118q.037.02.057.026c.002.01.05-.031-.11-.034-.154.061-.104.084-.121.08-.004-.001-.008-.011-.015-.02-.014-.02-.04-.04-.087-.047l-.043-.005c-.204-.003-.333.053-.15.113a.25.25 0 0 0 .125.005c.133-.043.108-.04.13.012.031.06.114.135.097.117-.026-.013-.173-.145-.23.142.013-.005.03-.017.053-.02.047-.004.115.045.165.05a.67.67 0 0 0-.455-.23c-.157-.007-.235.028-.285.045-.094.04-.109.053-.13.062.018-.067-.003-.081-.018-.091-.021-.025.037.048.055-.261.006.05-.005.107.067.283.04.089.122.238.32.355.2.12.432.115.545.088.237-.061.276-.124.328-.16a.58.58 0 0 0 .199-.322c.05-.25-.044-.354-.037-.35a.3.3 0 0 0 .077.079c.048.016.289.188.471.187a.64.64 0 0 0-.556.163.73.73 0 0 0-.243.61l-.026.002c-.11.02.107-.101.094-.33"/><path stroke="#000" stroke-linecap="round" stroke-linejoin="round" d="M183.186 169.868c-.8-2.8 1.5-5.5 3-5.5 2 0 4 .5 4 3.5 0 5.099-6 5.5-7 2"/><path fill="#000" d="M186.922 168.629c-.036-.25-.588.041-.773-.265-.158-.263-.054-.486-.192-.72.041.041.152.205.459.221.301-.009.408-.153.461-.202a.37.37 0 0 0 .109-.249c-.008-.157-.004-.235-.261-.385-.282-.096-.448-.056-.641.228-.119.254-.034.385-.024.431.022.052.029.071.029.097l-.001.017c-.009.123.101-.059.092-.128.003-.021-.012-.028.008-.007.017.013.066.032.172-.027.074-.021.125-.149.098-.171-.02-.028-.063.006-.099.075a.3.3 0 0 0-.026.1c-.01.065.013.034-.016.286-.032.101-.133.256-.277.308-.138.053-.242.036-.325.026-.084-.013-.154-.031-.216-.042l-.08-.011q-.019 0-.022.004c.017-.01-.054.052.159-.029l.063-.392c-.06-.076-.002-.038.012-.054.073-.02.14.007.198.055.109.09.203.263.282.339a.4.4 0 0 1 .079.112c.007.015.003.041-.006.064-.012.028-.031.053-.047.051a.84.84 0 0 0-.367.051.34.34 0 0 1-.209.013c-.049-.016-.086-.047-.132-.081l-.08-.056c-.043-.033-.037.003-.181-.134-.092-.168-.103-.375.073-.451.219-.1.197-.043.238-.053l.058.006.075.003c.113-.003.199-.041.188-.086-.007-.02-.062-.042-.152.002a.36.36 0 0 0-.161.175c-.03.225-.004.163-.013.17l-.014-.065a1 1 0 0 1-.012-.264c.007-.23.056-.624.302-.847.366-.257.542-.227.754-.219.179.027.375.087.578.353.078.12.17.244.18.559a.8.8 0 0 1-.123.417.7.7 0 0 1-.508.31.77.77 0 0 1-.451-.078c-.395-.262-.441-.455-.513-.753-.012-.214-.01-.348.114-.571.071-.101.177-.289.561-.362a.9.9 0 0 1 .547.099c.142.076.225.157.287.223a.6.6 0 0 1 .246.107c.316.252.826 1.055.995 1.71q.027.086.047.182c.04.21.003.582-.301.844a.97.97 0 0 1-.789.215c-.396-.051-.807-.199-1.152-.557a3 3 0 0 1-.247-.284c-.054-.073-.118-.149-.199-.282-.067-.125-.232-.382-.132-.809a.9.9 0 0 1 .285-.462c.06-.044.11-.112.348-.177a.804.804 0 0 1 .915.45c.082.196.07.264.076.327.049.158.034.861-.3 1.186q-.112.127-.244.225a1.1 1.1 0 0 1-.345.208.85.85 0 0 1-.398.055.76.76 0 0 1-.488-.265c-.219-.35-.343-.851-.121-1.267.105-.162.223-.296.332-.382a1.2 1.2 0 0 1 .438-.23c.118-.025.269-.094.494.023a.6.6 0 0 1 .151.123.55.55 0 0 1 .085.614c-.03.036-.019.113-.201.17-.243-.018-.188-.105-.219-.136a.4.4 0 0 1-.018-.113c0-.14.109-.172.211-.117q.037.02.057.026c.002.01.05-.031-.11-.034-.154.061-.104.084-.121.08-.004-.001-.008-.011-.015-.021-.014-.019-.04-.039-.087-.046l-.043-.005c-.204-.003-.333.053-.15.113a.24.24 0 0 0 .125.005c.133-.043.108-.04.13.012.031.06.114.135.097.117-.026-.013-.173-.145-.23.142.013-.006.03-.017.053-.019.047-.005.115.044.165.05a.66.66 0 0 0-.455-.23c-.157-.008-.235.027-.285.044-.094.039-.109.052-.13.062.018-.067-.003-.081-.018-.091-.021-.025.037.048.055-.261.006.05-.005.107.067.283.04.089.122.238.32.355.2.119.432.115.545.088.237-.061.276-.124.328-.16a.6.6 0 0 0 .085-.089.6.6 0 0 0 .114-.233c.05-.251-.044-.354-.037-.349a.3.3 0 0 0 .077.078c.048.016.289.187.471.187-.072-.016-.309-.049-.556.163a.73.73 0 0 0-.243.61l-.026.002c-.11.02.107-.101.094-.33"/><path stroke="#000" stroke-linecap="round" stroke-linejoin="round" d="M183.186 144.868c-.8-2.8 1.5-5.5 3-5.5 2 0 4 .5 4 3.5 0 5.099-6 5.5-7 2"/><path fill="#000" d="M186.922 143.629c-.036-.25-.588.041-.773-.265-.158-.263-.054-.486-.192-.72.041.041.152.205.459.221.301-.009.408-.153.461-.202a.37.37 0 0 0 .109-.249c-.008-.157-.004-.235-.261-.385-.282-.096-.448-.056-.641.228-.119.254-.034.385-.024.431.022.052.029.071.029.097l-.001.017c-.009.123.101-.059.092-.128.003-.021-.012-.028.008-.007.017.013.066.032.172-.027.074-.021.125-.149.098-.171-.02-.028-.063.006-.099.075a.3.3 0 0 0-.026.1c-.01.065.013.034-.016.286-.032.101-.133.256-.277.308-.138.053-.242.036-.325.026-.084-.013-.154-.031-.216-.042l-.08-.011q-.019 0-.022.004c.017-.01-.054.052.159-.029l.063-.392c-.06-.076-.002-.038.012-.054.073-.02.14.007.198.055.109.09.203.263.282.339a.4.4 0 0 1 .079.112c.007.015.003.041-.006.064-.012.028-.031.053-.047.051a.84.84 0 0 0-.367.051.34.34 0 0 1-.209.013c-.049-.016-.086-.047-.132-.081l-.08-.056c-.043-.033-.037.003-.181-.134-.092-.168-.103-.375.073-.451.219-.1.197-.043.238-.053l.058.006.075.003c.113-.003.199-.041.188-.086-.007-.02-.062-.042-.152.002a.36.36 0 0 0-.161.175c-.03.225-.004.163-.013.17l-.014-.065a1 1 0 0 1-.012-.264c.007-.23.056-.624.302-.847.366-.257.542-.227.754-.219.179.027.375.087.578.353.078.12.17.244.18.559a.8.8 0 0 1-.123.417.7.7 0 0 1-.508.31.77.77 0 0 1-.451-.078c-.395-.262-.441-.455-.513-.753-.012-.214-.01-.348.114-.571.071-.101.177-.289.561-.362a.9.9 0 0 1 .547.099c.142.076.225.157.287.223a.6.6 0 0 1 .246.107c.316.252.826 1.055.995 1.71q.027.086.047.182c.04.21.003.582-.301.844a.97.97 0 0 1-.789.215c-.396-.051-.807-.199-1.152-.557a3 3 0 0 1-.247-.284c-.054-.073-.118-.149-.199-.282-.067-.125-.232-.382-.132-.809a.9.9 0 0 1 .285-.462c.06-.044.11-.112.348-.177a.804.804 0 0 1 .915.45c.082.196.07.264.076.327.049.158.034.861-.3 1.186q-.112.127-.244.225a1.1 1.1 0 0 1-.345.208.85.85 0 0 1-.398.055.76.76 0 0 1-.488-.265c-.219-.35-.343-.851-.121-1.267.105-.162.223-.296.332-.382a1.2 1.2 0 0 1 .438-.23c.118-.025.269-.094.494.023a.6.6 0 0 1 .151.123.55.55 0 0 1 .085.614c-.03.036-.019.113-.201.17-.243-.018-.188-.105-.219-.136a.4.4 0 0 1-.018-.113c0-.14.109-.172.211-.117q.037.02.057.026c.002.01.05-.031-.11-.034-.154.061-.104.084-.121.08-.004-.001-.008-.011-.015-.021-.014-.019-.04-.039-.087-.046l-.043-.005c-.204-.003-.333.053-.15.113a.24.24 0 0 0 .125.005c.133-.043.108-.04.13.012.031.06.114.135.097.117-.026-.013-.173-.145-.23.142.013-.006.03-.017.053-.019.047-.005.115.044.165.05a.66.66 0 0 0-.455-.23c-.157-.008-.235.027-.285.044-.094.039-.109.052-.13.062.018-.067-.003-.081-.018-.091-.021-.025.037.048.055-.261.006.05-.005.107.067.283.04.089.122.238.32.355.2.119.432.115.545.088.237-.061.276-.124.328-.16a.6.6 0 0 0 .085-.089.6.6 0 0 0 .114-.233c.05-.251-.044-.354-.037-.349a.3.3 0 0 0 .077.078c.048.016.289.187.471.187-.072-.016-.309-.049-.556.163a.73.73 0 0 0-.243.61l-.026.002c-.11.02.107-.101.094-.33"/><path stroke="#000" stroke-linecap="round" stroke-linejoin="round" d="M186.186 114.868c-.8-2.8 1.5-5.5 3-5.5 2 0 4 .5 4 3.5 0 5.099-6 5.5-7 2"/><path fill="#000" d="M189.922 113.629c-.036-.25-.588.041-.773-.265-.158-.263-.054-.486-.192-.72.041.041.152.205.459.221.301-.009.408-.153.461-.202a.37.37 0 0 0 .109-.249c-.008-.157-.004-.235-.261-.385-.282-.096-.448-.056-.641.228-.119.254-.034.385-.024.431.022.052.029.071.029.097l-.001.017c-.009.123.101-.059.092-.128.003-.021-.012-.028.008-.007.017.013.066.032.172-.027.074-.021.125-.149.098-.171-.02-.028-.063.006-.099.075a.3.3 0 0 0-.026.1c-.01.065.013.034-.016.286-.032.101-.133.256-.277.308-.138.053-.242.036-.325.026-.084-.013-.154-.031-.216-.042l-.08-.011q-.019 0-.022.004c.017-.01-.054.052.159-.029l.063-.392c-.06-.076-.002-.038.012-.054.073-.02.14.007.198.055.109.09.203.263.282.339a.4.4 0 0 1 .079.112c.007.015.003.041-.006.064-.012.028-.031.053-.047.051a.84.84 0 0 0-.367.051.34.34 0 0 1-.209.013c-.049-.016-.086-.047-.132-.081l-.08-.056c-.043-.033-.037.003-.181-.134-.092-.168-.103-.375.073-.451.219-.1.197-.043.238-.053l.058.006q.042.005.075.003c.113-.003.199-.041.188-.086-.007-.02-.062-.042-.152.002a.36.36 0 0 0-.161.175c-.03.225-.004.163-.013.17l-.014-.065a1 1 0 0 1-.012-.264c.007-.23.056-.624.302-.847.366-.257.542-.227.754-.219.179.027.375.087.578.353.078.12.17.244.18.559a.8.8 0 0 1-.123.417.7.7 0 0 1-.508.31.77.77 0 0 1-.451-.078c-.395-.262-.441-.455-.513-.753-.012-.214-.01-.348.114-.571.071-.101.177-.289.561-.362a.9.9 0 0 1 .547.099c.142.076.225.157.287.223a.6.6 0 0 1 .246.107c.316.252.826 1.055.995 1.71q.027.086.047.182c.04.21.003.582-.301.844a.97.97 0 0 1-.789.215c-.396-.051-.807-.199-1.152-.557a3 3 0 0 1-.247-.284c-.054-.073-.118-.149-.199-.282-.067-.125-.232-.382-.132-.809a.9.9 0 0 1 .285-.462c.06-.044.11-.112.348-.177a.804.804 0 0 1 .915.45c.082.196.07.264.076.327.049.158.034.861-.3 1.186q-.112.127-.244.225a1.1 1.1 0 0 1-.345.208.85.85 0 0 1-.398.055.76.76 0 0 1-.488-.265c-.219-.35-.343-.851-.121-1.267.105-.162.223-.296.332-.382a1.2 1.2 0 0 1 .438-.23c.118-.025.269-.094.494.023a.6.6 0 0 1 .151.123.55.55 0 0 1 .085.614c-.03.036-.019.113-.201.17-.243-.018-.188-.105-.219-.136a.4.4 0 0 1-.018-.113c0-.14.109-.172.211-.117q.037.02.057.026c.002.01.05-.031-.11-.034-.154.061-.104.084-.121.08-.004-.001-.008-.011-.015-.021-.014-.019-.04-.039-.087-.046q-.022-.004-.043-.005c-.204-.003-.333.053-.15.113a.24.24 0 0 0 .125.005c.133-.043.108-.04.13.012.031.06.114.135.097.117-.026-.013-.173-.145-.23.142.013-.006.03-.017.053-.019.047-.005.115.044.165.05a.66.66 0 0 0-.455-.23c-.157-.008-.235.027-.285.044-.094.039-.109.052-.13.062.018-.067-.003-.081-.018-.091-.021-.025.037.048.055-.261.006.05-.005.107.067.283.04.089.122.238.32.355.2.119.432.115.545.088.237-.061.276-.124.328-.16a.6.6 0 0 0 .085-.089.6.6 0 0 0 .114-.233c.05-.251-.044-.354-.037-.349a.3.3 0 0 0 .077.078c.048.016.289.187.471.187-.072-.016-.309-.049-.556.163a.73.73 0 0 0-.243.61l-.026.002c-.11.02.107-.101.094-.33"/><path stroke="#000" stroke-linecap="round" stroke-linejoin="round" d="M122.686 22.368c-1.834 13.5-5.4 41-5 43m7-44.5c-1.834 13.5-5.9 42-5.5 44m1-7.5c7 .167 21.6.4 24 0 3-.5 18.458-1 21.5-1 3 0 17.166 1 18.5 1m-64 2c7 .167 21.6.4 24 0 3-.5 18.458-1 21.5-1 3 0 17.166 1 18.5 1m82-3.07c-7.547.136-23.288.327-25.875 0-3.235-.41-19.901-.82-23.18-.82-3.235 0-18.508.82-19.945.82m69 2c-7.547.136-23.288.327-25.875 0-3.235-.41-19.901-.82-23.18-.82-3.235 0-18.508.82-19.945.82m73-37.43c-.667 7-1.8 21.6-1 24s-1 16-2 22.5"/><path stroke="#000" stroke-linecap="round" stroke-linejoin="round" d="M268.186 19.868c-.667 7-1.8 21.6-1 24s-1 16-2 22.5m-55.5-8 1.5 9.5c10 .5 17.6 7 20 7 1 0 16-9 21-9 1 0-.167-4.333-1-7.5"/><path stroke="#000" stroke-linecap="round" stroke-linejoin="round" d="M211.186 67.868c.666 5.834.634 18.276 1.5 18.5 13.5 3.5 17 9.5 18 9.5 2.236 0 21.5-10 22-10.5s-.5-12 0-20"/><path stroke="#000" stroke-linecap="round" stroke-linejoin="round" d="M214.686 69.368c1.333 9.667 3.9 31 3.5 39-.5 10 4 49 2 50m-2-50 2 50m-2.5-89c1.333 9.667 3.9 31 3.5 39-.5 10 4 49 2 50m-2-50 2 50m25.5-91.5c-2.691 9.623-9.977 33.224-10.715 41.406m0 0c-.923 10.228-11.123 49.288-9.285 50.594zm6.025-39.531c-2.69 9.623-8.256 30.913-8.995 39.095-.923 10.228-10.908 49.177-9.07 50.483m9.07-50.483-9.07 50.483m-53.245-99.453-2.356 11c-10 .5-17.6 7-20 7-1 0-16-9-21-9-1 0 1.022-4.833 1.856-8"/><path stroke="#000" stroke-linecap="round" stroke-linejoin="round" d="M170.33 69.868c-.667 5.834-.634 18.276-1.5 18.5-13.5 3.5-17 9.5-18 9.5-2.236 0-21.5-10-22-10.5s.5-12 0-20"/><path stroke="#000" stroke-linecap="round" stroke-linejoin="round" d="M166.83 71.368c-1.333 9.667-1.451 32.52-2.144 40.5-1 11.5-4 47-4.5 49.5m3.5-89.5c-1.33 9.775-1.692 32.941-2.5 41-1.009 10.062-3 46-3 48m-25.356-92c2.691 9.623 9.976 33.224 10.715 41.406m0 0c.923 10.228 11.123 49.288 9.285 50.594zm-6.026-39.531c2.691 9.623 8.257 30.913 8.995 39.095m0 0c.924 10.228 11.01 50.224 9.172 51.53m-9.172-51.53 9.672 51.53"/><path fill="#000" d="M25.277 156.974c.018-.12-.146-.151-.305-.144-.163.003-.325.029-.436-.099-.234-.255-.15-.566-.607-.711-.46-.14-.848-.525-1.109-.497-.262.028-.132-.336-.47-.393-.343-.063-.519-.203-.724-.487l-.043-.057.019.012c-.119-.169-.462-.397-.778-.566-.162-.088-.31-.158-.422-.173-.356-.051-.497-.477-.638-.651a.6.6 0 0 1-.09-.153c-.007-.02 0-.045.014-.066.018-.025.045-.043.066-.033.099.045.258.095.478.11.407.026.312.249.754.401q.07.023.138.038c.317.072.601.045.961.311.005.004.023.014.028.019q.052.048.117.119c.375.367.728-.121 1.321.485.611.62.92.065 1.761.44.586.267 1.36 1.065 1.416 2.001.034.425-.068.772-.3 1.086a1.1 1.1 0 0 1-.37.305c-.648.276-1.113.078-1.514-.231a6 6 0 0 1-.695-.652c-.456-.511-1.234-.947-1.664-1.646a10 10 0 0 1-.365-.644c-.284-.578-.548-1.152-.7-1.466-.208-.426-.28-.558-.658-.736-.182-.072-.326-.162-.531-.182.007-.002.087-.047.086-.136-.007-.07-.025-.068-.029-.072-.01-.003-.006.011-.002.023q.017.039.041.084c.083.15 0 .229-.17.174a.4.4 0 0 1-.092-.047c-.018-.015-.036-.024-.067-.074-.011-.024-.044-.085-.007-.175.041-.084.094-.099.118-.111.195-.098.375-.072.518-.145.39-.174.642-.14.821.21.16.346.512.211.616.389.09.175-.051.304.62.94.21.2.38.372.525.513.297.282.51.467.675.606.239.202.595.805 1.044 1.117.256.179.63.511.984.806-.01.01.045-.087-.26-.011a.8.8 0 0 0-.203.126c-.207.21-.079.202-.006.224.052-.036.117-.087.134-.181M149.861 73.15c.073.063-.047-.25-.194-.286l.007.309c-.087-.082-.155-.175-.154-.298.002-.37.291-.5.12-.9-.173-.4-.075-.876-.246-1.035s.2-.272.051-.521c-.148-.251-.137-.43-.066-.695.052-.195.043-.652-.032-.98l-.002-.024a.8.8 0 0 0-.085-.3c-.163-.272.105-.585.168-.768a.5.5 0 0 1 .075-.137c.012-.015.037-.022.062-.022.031 0 .061.01.065.03.019.091.069.228.181.388.211.296-.022.334.102.725l.018.051-.004-.035c.168.345.397.535.363 1-.031.492.556.459.401 1.187-.153.736.454.65.693 1.308.072.199.109.428.125.662.004.07.028.264.008.332a2 2 0 0 1-.256.609 2 2 0 0 1-.228.308c-.06.064-.118.137-.29.247a.94.94 0 0 1-.452.14.9.9 0 0 1-.623-.22c-.212-.241-.324-.439-.437-.578-.229-.288-.511-.699-.585-1.28a3.4 3.4 0 0 1-.022-.527c.023-.607-.205-1.334-.062-1.99.138-.654.357-1.56.513-1.972.154-.41.189-.504.169-.92a1.06 1.06 0 0 1 .325-.79c.129-.109.206-.018.216.107.017.193-.059.336.057.457.235.238.328.323.141.548-.187.228.162.385.109.521-.052.142-.273.123-.145.877.133.75.18 1.154.222 1.434.041.277-.128.868-.027 1.314.043.187.072.46.112.729.028.201.173.453.311.532.185.104.116.208.104.365a.7.7 0 0 0-.368-.13.56.56 0 0 0-.321.083c-.117.08-.116.124-.119.145m81.13-1.462c.175-.261-.392-.548-.295-.899.095-.362.407-.419.335-.855-.074-.434.12-.883-.017-1.074-.138-.189.248-.23.146-.506-.104-.275-.065-.447.041-.702l.025-.072.003.024c.076-.299.002-.956-.221-1.135-.228-.193-.101-.57-.124-.772a.5.5 0 0 1 .009-.16c.004-.019.024-.035.047-.046.028-.013.06-.016.071 0a1.3 1.3 0 0 0 .332.298c.316.218.123.335.356.721.193.338.413.56.434.959 0 .008.005.03.005.038a1 1 0 0 1-.024.204c-.102.508.486.588.19 1.317-.303.722.306.774.379 1.51.038.616-.137 1.25-.47 1.973-.379.748-1.359.682-1.481-.148a3 3 0 0 0-.041-.32c-.105-.447-.234-1.036-.184-1.656.047-.617-.163-1.367-.009-2.036.151-.668.376-1.6.528-2.02.151-.425.185-.521.154-.946a1.2 1.2 0 0 1 .271-.826c.114-.126.205-.051.228.081.036.205-.033.358.089.482.246.234.341.328.158.572-.181.243.169.398.117.544-.051.148-.27.133-.146.917.128.782.167 1.204.203 1.496.036.29-.146.9-.061 1.37.079.469.097 1.417.272 1.747.056.11.069.188.057.25l-1.691-.169c.043.022.198-.005.314-.16m121.282 82.891c.349-.192.082-.789.412-1.084.33-.304.627-.182.862-.656.232-.473.688-.815.7-1.085.011-.269.358-.093.454-.43.094-.336.239-.49.494-.688.178-.138.495-.55.674-.912.001-.004.008-.013.01-.017.092-.153.167-.295.195-.408.099-.386.567-.487.759-.617a.7.7 0 0 1 .166-.081c.021-.006.046.003.065.019.024.02.039.049.027.07-.059.1-.134.263-.185.488-.087.417-.294.285-.485.742l-.04.114.015-.026c-.11.438-.107.787-.486 1.205-.416.454.02.868-.705 1.435-.73.556-.262.954-.71 1.727-.289.492-.808.946-1.239 1.288-.034.03-.128.122-.169.142-.433.177-.659.316-1.312.234a.93.93 0 0 1-.623-.495c-.302-.61-.477-1.39-.226-2.218.127-.412.292-.863.554-1.271.245-.392.527-.787.883-1.075.657-.552 1.671-1.18 2.178-1.38.505-.206.622-.247 1.025-.566.232-.182.614-.333.984-.329.187.003.193.119.064.235-.189.17-.388.214-.436.392-.091.357-.122.492-.465.511-.345.024-.269.408-.434.47-.16.07-.309-.125-.896.577-.565.711-.832 1.11-1.019 1.39-.111.171-.368.399-.604.675a1 1 0 0 0-.251.459 3 3 0 0 0-.077.748c.01.28.108.6.196.695a.78.78 0 0 0-.451-.412c-.224-.064-.178-.038-.183-.042a.3.3 0 0 1 .06.025c.055.027.128.076.221.096l-.138.115a1 1 0 0 0 .136-.06"/></svg>