<svg xmlns="http://www.w3.org/2000/svg" width="159" height="252" fill="none"><path stroke="#000" stroke-linecap="round" d="M141 .5c-13.624 0-44 11-57.5 17-.6 3.472-.935 3.364-1.392 8s-.196 5.705-.287 9c-.28 10.11.197 24.604 4.679 25.5 10 2 66-15.5 67.5-20S145 .5 141 .5Zm-65.5 34-59 59m-.5 9 51 84M81.5 38 21.063 96m-.324 3.5L73 186"/><path stroke="#000" d="M63.5 170.061c17.998 2.812 31 10.9 31 20.439 0 11.874-20.147 21.5-45 21.5s-45-9.626-45-21.5 20.147-21.5 45-21.5c2.381 0 4.719.088 7 .259"/><path stroke="#000" d="m4.5 190-4 37.5c0 12.979 21.938 23.5 49 23.5s49-10.521 49-23.5l-4-37.5"/><circle cx="16.5" cy="98" r="4.5" stroke="#000"/><path stroke="#000" d="M81.5 28.1a5 5 0 1 0 .546 9.656M65.5 194c0-4.971 2.239-9 5-9s5 4.029 5 9"/><path fill="#000" d="M70.434 190.39c-.01.03-.047.047-.08.056-.011.002-.028-.019-.036-.018-.016.002-.014.02-.031.02-.006.001-.034-.031-.04-.03-.03.005-.036.03-.058.042a1.1 1.1 0 0 0-.276.245c-.027.031-.085.055-.091.101 0 .005.033.02.035.022.034.035-.029-.005-.042-.001a.1.1 0 0 0-.078.092c-.001.017.072.034.028.031-.003 0-.037-.02-.042-.018-.013.005-.014.025-.02.03-.012.011-.012.014-.018.026-.008.017-.035.031-.035.053 0 .005.04.015.044.023s-.006.025-.017.027c-.01.003-.04-.011-.046-.012-.06-.013.011.036.012.039.018.058-.04.083-.053.129-.01.034-.003.074-.013.106-.011.038-.039.067-.041.106 0 .004.047.006.046.011a.27.27 0 0 1-.048.15c-.004.005-.045-.005-.05 0-.037.03-.12.085.06.103-.007.021-.013.046-.049.067-.023.014-.068.004-.048.019.004.003.043-.004.047.001.016.021.005.045.028.063.005.004.04-.001.046-.001.052.003-.03.03-.036.035q-.019.016-.023.029c-.007.011.003.018.005.026 0 .003.045-.015.047-.014.01.008.01.016.001.039-.002.006-.035.029-.037.033-.009.019.05-.031.041-.015 0 .003-.026.027-.028.03-.038.047.024-.011.026-.012.026-.011-.016.068.01.068.002 0 .02-.04.026-.039.04.009.077.035.12.078.008.006-.003.038-.003.042 0 .064.017-.019.02-.022.012-.011.02.003.03.005.008.003.016-.004.023-.055.079.035.141-.039.26.001.002 0 .02.039.022.039.038.007.003-.048-.022-.126-.007-.019.055.056.06.061.018.02.047.075.051.078.034.025-.08-.146-.068-.155 0 0 .02.033.024.035.01.007.005-.008.016 0 .026.019.09.097.068.04-.003-.007-.077-.097-.064-.102.006-.001.022-.018.032-.017s.033.031.035.031c.049.022.058.042.12.084s-.069-.076-.08-.092c-.012-.016.029 0 .042.006s.029.025.037.028c.058.014-.06-.064-.077-.087-.043-.052.069.016.09.008.005-.002-.022-.015-.022-.02 0-.018.04-.005.017-.04-.004-.006-.066-.055-.011-.035.008.002.034.021.044.019.014-.004.03-.018.024-.033-.004-.01-.056-.025-.037-.027.009-.001.034.02.047.017.014-.003.022-.025.024-.033s-.037-.019-.04-.02a.1.1 0 0 1-.025-.032c.018-.063.1-.11.092-.185 0-.006-.043-.01-.044-.011-.014-.021.095.014.135.007-.086-.013-.07-.018-.076-.033-.004-.007-.038-.009-.041-.01-.049-.017.017-.014.03-.013.05.001-.006-.015.027-.014s.08.017.081.004c-.03-.008-.111-.01-.123-.021-.044-.042.026-.103.034-.133l.003-.011c.005-.015.001-.021.01-.033.017-.027-.042-.01-.071-.015-.03-.004.115-.038.145-.048s-.003-.006.013-.014.039-.007.042-.018c.003-.013-.059-.017-.09-.006-.068.022-.132.059-.115.034.001-.001.038-.015.04-.02.013-.042-.005-.074-.006-.119 0-.006.036-.029.037-.033 0-.043-.05.012-.12.053.083-.068.126-.119.108-.14-.011-.011-.043.024-.073.041-.009.005.006-.025-.01-.011-.054.05-.103.115-.096.077 0-.002.029-.029.028-.033-.003-.013-.017-.006-.033.004-.015.011-.033.025-.042.024-.014-.001-.01-.053-.025-.067.05-.111.016-.095-.017-.018-.01-.007-.023-.005-.032-.019-.003-.005.007-.039.007-.042.003-.061-.019.018-.021.021-.032.026-.055-.037-.083.025-.001.002.002.086-.008.025-.001-.004.006-.043-.008-.045-.01-.001-.028-.022-.044-.02q-.011 0-.016.019c-.004.011.001.079-.02.03-.003-.007-.008-.031-.013-.043-.017-.04.002.043-.025-.025-.027-.067-.064-.112-.07-.057-.001.002.018.067.012.069-.011.002-.032-.004-.042.002-.005.002.017.038.016.039-.02.037-.058.017-.101.029-.008.003.014.058-.026.035-.046-.025-.177-.186-.177-.115 0 .016.052.077.084.118.028.037.042.057-.017.032-.003.061-.086.082-.058.15.001.003.069.032.066.036-.003.007-.037.002-.04.007-.017.021.006.049-.003.071-.004.008-.037-.002-.041.008s.04.025.015.036c-.018.007-.114.002-.127.015.092.016.088.026.11.047.004.004.037.005.04.007.016.009-.011.011.006.02.004.002.036.006.04.008.046.017-.028.024-.04.025-.049.004-.008.015-.028.022s-.041-.01-.054-.002c-.026.018-.024.046-.028.067-.001.009.042.008.042.009.01.019-.038.032.045.05-.219-.011.02.013-.026.033a.5.5 0 0 1-.121-.015c-.015-.009.019-.017-.004-.031-.005-.003-.1-.028-.106-.031-.044-.02.11-.005.12-.005.092.001-.01-.028-.017-.034-.03-.026-.007-.041-.028-.062-.013-.014-.114-.029-.11-.038.015-.031.157-.021.04-.069-.025-.011-.135-.022-.045-.032.005-.001.087-.005.04-.024-.007-.002-.039-.008-.041-.01-.015-.015.012-.018.002-.033s-.024-.036-.01-.049c.008-.008.07-.006.085-.007.044-.002-.02-.032.032-.027s.124.04.161.031l-.244-.072c.017-.048.06-.09.082-.145.003-.007-.04-.02-.038-.028.01-.037.054-.049.066-.087.004-.016.001-.04 0-.063a.1.1 0 0 1 .004-.054c.084.05.09-.002.12-.017.01-.004.026.016.037.017.04.007-.023-.051-.025-.067-.005-.068.111.086.136.063.001-.001-.033-.1-.032-.108-.002-.047.021.029.036.029.029 0 .053.014.066-.025.003-.011-.003-.078.031-.038.004.005.016.037.018.038.039.02.003-.08.01-.12.008-.041.057.022.067.041.028.049-.004.025-.004.031.01.064.024.048.039.05.028.101.042.091.015.002-.003-.01-.011.002-.015-.002-.014-.102.011-.121.052-.031.012.026.015.057.023.071q.007.012.021.001c.013-.01-.001-.081.011-.102.03-.048.077.017.11.008.013-.003.003-.043.012-.047.026-.009.044.023.07.011.003-.001.004-.042.012-.042.064.006.112.047.172.074.028.012.09.02.116.044.017.014.03.037.041.06.013.034.022.068.045.078.024.011.05-.022.078-.034.055-.021.01.075.001.088 0 .001-.022-.01-.03.013-.029.034.03-.013.03-.013-.005.009.016.049.027.052.007.001.036-.024.04-.023a.22.22 0 0 1 .126.169c0 .002-.041.016-.041.02-.003.046.056.055.097.091.04.035.035.079-.039.109.009.022-.006.054-.024.077l-.02.013c-.022.012.063.021.064.022.05.044 0 .062-.013.102a.2.2 0 0 0 .007.083c.005.019-.016.026-.007.044l.04.007c.042.027-.048.002-.065.002-.061.003-.094.004-.07.032.005.006.132.049.137.061.007.015-.039 0-.03.016 0 .001.029.008.025.016-.015.039-.043.078-.054.12-.002.006.045.013.043.022a.2.2 0 0 1-.064.117c-.009.008-.036-.012-.046-.013-.059-.012.01.041.01.045.002.09-.096.106-.114.195 0 .005.049.091-.023.055-.005-.002-.077-.041-.044.005.002.003.04.022.025.033s-.015.052-.065.038c-.016-.004-.084-.05-.056.012.002.003.07.137-.006.07-.007-.007-.033-.039-.05-.051-.012-.009-.019-.009-.013.015.002.011.024.024.023.044-.003.03-.04.023-.035.076.002.009.025.08-.017.043-.007-.006-.022-.038-.031-.037-.041.004-.063.044-.107.039-.016-.001-.036-.055-.055-.063-.018-.007-.047-.01-.048.019s.048.106.03.122c-.079.068-.194.046-.297.052-.015.001.002.032-.022.035-.045.007-.11.019-.177.013-.055-.005-.106-.024-.134-.063-.043-.066.033-.092-.001-.123-.016-.014-.064.082-.07.084-.059.018-.078-.039-.127-.045-.01-.001-.019.042-.028.04-.031-.006-.052-.038-.08-.05-.013-.006-.027.024-.037.014a.14.14 0 0 1-.047-.093c0-.003.04-.024.023-.039-.028-.025-.04-.077-.092-.088-.015-.004-.073.044-.052-.013.004-.012.08-.059-.002-.04-.012.006-.137.007-.092-.054.011-.016.068-.066.051-.075-.002-.001-.035.024-.044.013-.032-.041-.045-.092-.067-.138-.007-.012-.043.016-.05-.003l-.008-.024a.2.2 0 0 1 .002-.096c.004-.012.04-.008.043-.009.059-.02-.024-.019-.029-.024-.031-.025.006-.05-.006-.075-.003-.007-.042 0-.046-.001-.034-.013.036-.006.044-.015.02-.027.016-.055.011-.081-.002-.01-.047.002-.048-.007a.22.22 0 0 1 .026-.152c.005-.009.04-.001.048-.002.056-.009-.018-.033-.025-.038-.031-.023 0-.028-.004-.046-.02-.089.017-.192.047-.266.038-.098.09-.164.112-.257.001-.006-.045-.015-.044-.02.01-.07.051-.126.065-.195.001-.006-.043-.015-.042-.024a.07.07 0 0 1 .033-.053c.01-.006.04.021.05.015a.08.08 0 0 0 .036-.056c.001-.01-.046-.016-.041-.027.031-.077.063-.155.155-.197.007-.003.088.038.079.02l-.07-.043c.047-.111.14-.191.213-.281.003-.004-.04-.026-.035-.034.034-.045.058-.096.132-.109.007-.001.07.056.07.035 0-.003.008-.029-.002-.046-.001-.003-.035-.025-.03-.032a.22.22 0 0 1 .114-.087c.008-.002.034.032.04.031.041-.011.046-.063.098-.06.035.002.08.06.14.103.008.006.02-.003.049.027.075.075.151.162.232.241.017.017.01-.013.044.035.003.004.008.026.02.042.008.011.04.039.05.055.01.015-.019-.008-.009.012.01.019.047.051.042.064m.302 1.012c-.042.008.107.026.073.008zm-1.28-.305c.068.008-.015-.044-.068-.05-.053-.005.047.049.068.05m-.005.189c.055-.008-.151-.057-.114-.026.002.002.111.026.114.026m.53-1.319c.002.001.01-.004.01-.006-.03-.037-.047-.026-.01.006m-.505 1.488c.03-.002-.001-.023-.038-.021-.029.002.002.023.038.021m.92.518c-.002-.001-.008.003.003.01.034.023.03.008-.003-.01m-.948-.25c.012-.038.189-.045.165-.005-.004.008-.054-.022-.07-.013-.031.015.077.037.017.05a.6.6 0 0 1-.112-.032m1.109-.332c-.002 0-.005.009-.003.01.047.01.052-.009.003-.01m-.508.757c-.003-.004-.022.001-.021.004.02.076.064.065.02-.004m.17-1.167c-.027.041-.033.044-.02-.014zm-54.535-93.95c.014.022.004.057-.012.087-.005.009-.032.007-.037.014-.009.013.005.023-.005.036-.004.005-.046.005-.05.01-.014.026 0 .046-.006.071a1.3 1.3 0 0 0-.005.375c.004.042-.02.101.009.138.003.004.038-.009.04-.009.05.001-.023.017-.03.03a.1.1 0 0 0 .009.122c.01.013.075-.025.041.003-.002.002-.04.01-.043.016-.006.012.007.028.007.036-.001.016 0 .019.004.032.006.018-.004.046.011.063.004.003.04-.017.048-.013s.012.022.006.032c-.007.009-.037.018-.043.022-.054.03.033.02.036.021.051.032.024.09.044.133.015.032.046.059.06.09.015.036.012.076.034.108.002.004.041-.024.044-.02a.26.26 0 0 1 .055.148c0 .006-.038.024-.04.032-.003.017-.011.04-.01.058-.009.018.015.022.072-.075-.012 0-.022.006-.024.043 0 .024-.012.067 0 .05.002-.004.004-.044.007-.047.01-.013.024 0 .038-.022.002-.005-.002-.04-.002-.046.001-.052.023.031.028.037.03.042.049.02.076.015.006 0-.011-.046-.005-.048a.14.14 0 0 1 .057-.013q.02 0 .04.01c.007.003.011.044.015.047.018.015.001-.06.017-.047.004.003.012.036.014.04.024.055.006-.028.008-.03.014-.032.058.046.077.026.002-.003-.02-.041-.013-.046a.26.26 0 0 1 .154-.044c.01 0 .024.03.027.033.044.047 0-.026 0-.03.001-.03.063.011.006-.074a.1.1 0 0 0 .028-.014c.064-.043.08-.123.19-.157 0 0 .036.022.04.02.034-.015-.026-.041-.089-.093-.016-.012.077.016.084.018.025.006.08.037.085.038.042.003-.146-.08-.14-.095 0 0 .034.017.038.017.013 0 0-.01.015-.009.031.003.126.035.078-.002-.006-.004-.117-.043-.107-.055.005-.004.01-.03.02-.034s.044.01.046.01c.053-.005.071.008.145.016.075.007-.096-.034-.114-.043s.026-.013.04-.014.038.009.046.007q.024-.007.007-.013c-.023-.009-.098-.018-.116-.027-.062-.025.068-.017.082-.033.004-.004-.026-.003-.028-.007-.01-.015.032-.023-.006-.04-.006-.003-.084-.01-.027-.02.008-.003.04-.001.047-.008.01-.01.015-.028.003-.036-.01-.006-.06.012-.046 0 .007-.004.04-.003.048-.013.01-.01.003-.03 0-.037s-.04.01-.043.01a.1.1 0 0 1-.04-.004c-.018-.038-.004-.105-.039-.15a.1.1 0 0 0-.023-.02c-.005-.002-.034.03-.035.03-.024-.001.068-.068.087-.103-.062.06-.055.044-.071.041-.008 0-.03.025-.032.028-.042.03 0-.021.008-.032.03-.04-.015-.002.005-.029s.06-.056.05-.064c-.024.02-.072.086-.087.09-.057.015-.064-.07-.085-.091-.019-.02-.03-.02-.038-.038-.015-.031-.035.027-.061.044-.026.018.044-.112.055-.142.01-.03-.006-.002-.002-.02.004-.017.02-.033.015-.043s-.05.034-.064.064c-.031.063-.05.135-.057.105 0-.002.016-.037.014-.042-.02-.037-.051-.05-.08-.076l-.006-.007c-.005-.004.007-.046.004-.05-.029-.031-.028.043-.05.122.014-.107.01-.174-.017-.176-.016 0-.015.046-.024.08-.003.01-.013-.023-.015 0-.003.072.007.153-.013.121-.001-.001 0-.04-.004-.043-.022-.014-.017.062-.034.073-.013.01-.05-.03-.07-.032-.034-.117-.049-.083-.027-.001-.013 0-.024.01-.04.004-.005-.002-.017-.035-.019-.038-.033-.05-.004.026-.005.03-.012.04-.067.002-.054.067 0 .003.05.07.007.026-.003-.003-.02-.04-.031-.033-.012.005-.063-.01-.049.032.003.007.03.041.02.042q-.003 0-.018-.008c-.006-.004-.024-.02-.035-.027-.037-.023.027.033-.034-.006-.061-.04-.119-.054-.09-.005 0 .001.054.042.05.047-.007.008-.027.015-.032.026-.002.005.037.02.037.022.005.041-.038.048-.066.081-.005.007.045.04-.002.043-.052.003-.249-.061-.21-.006.015.025.27.08.133.09.028.053-.04.105.014.155.002.002.075 0 .075.004 0 .007-.033.017-.034.023a.03.03 0 0 0 .005.023c.008.013.024.023.026.038 0 .008-.033.017-.031.028s.047-.001.032.02c-.01.017-.09.07-.09.092.081-.045.085-.035.115-.034.005 0 .031-.02.035-.02.017-.005-.002.014.016.009.005-.002.03-.02.036-.022.043-.02-.007.033-.015.043-.03.038.005.016-.004.034s-.035.024-.037.039c-.004.031.02.049.034.065.005.007.031-.028.033-.028.02.004.002.05.066-.007-.139.17.022-.008.01.04a.5.5 0 0 1-.083.09c-.016.007-.003-.026-.027-.015-.006.002-.083.063-.09.066-.044.02.062-.093.067-.1.057-.072-.029-.01-.038-.01-.04.007-.038-.023-.07-.024-.02 0-.1.062-.105.05-.02-.041.092-.129-.032-.096-.027.006-.119.07-.06-.003.003-.005.063-.063.012-.053-.006.002-.036.016-.039.015-.023-.008-.004-.029-.022-.04-.019-.013-.044-.028-.04-.052.003-.015.056-.046.07-.055q.014-.011.01-.017c-.005-.01-.03-.014.004-.028.05-.018.129-.02.158-.044q-.125.022-.251.04c-.007-.057.016-.112.013-.164 0-.007-.046 0-.047-.008-.007-.032.027-.056.018-.088-.008-.025-.051-.059-.058-.088.098.002.073-.04.09-.065.005-.008.03 0 .04-.005.036-.014-.049-.028-.06-.04-.043-.048.14.012.146-.018 0-.002-.086-.061-.09-.068-.03-.036.034.011.046.003.022-.015.05-.017.037-.055-.004-.011-.049-.062.002-.05.007.002.035.02.037.02.044-.006-.045-.066-.062-.103s.06-.017.08-.007c.051.023.01.023.014.027.045.047.048.025.061.018a.3.3 0 0 0 .06.042c.014.005 0-.015-.046-.05q-.007-.003-.008.002-.002.005-.006.006l-.03-.037c-.034-.047-.014-.061.056-.02.04.024.068.069.078.034.005-.016-.047-.067-.049-.09-.002-.057.073-.03.094-.055.008-.01-.022-.036-.017-.044.014-.021.046-.005.059-.029.001-.002-.022-.037-.016-.04.049-.03.103-.023.157-.038.025-.007.068-.04.097-.04.051-.001.113.054.151.04.026-.01.021-.05.034-.079.026-.053.062.048.064.063 0 0-.023.008-.014.03.003.045.014-.03.014-.03.002.01.039.023.053.02h.003c.006-.004.01-.043.013-.044a.2.2 0 0 1 .188.027c0 .001-.017.041-.015.043.024.031.065-.009.106-.024s.058.006.035.08c.023.002.031.046.034.072.002.025.051-.044.054-.044.07-.017.064.04.096.076a.3.3 0 0 0 .081.05c.02.009.014.031.036.036.003 0 .029-.027.03-.028.048-.015-.027.04-.036.055-.034.052-.053.079-.016.08l.033-.017a.4.4 0 0 1 .104-.05c.018.007-.024.031-.005.038.002 0 .025-.018.03-.008.026.043.042.1.07.151.005.007.042-.023.048-.013a.3.3 0 0 1 .046.178c-.002.016-.036.014-.045.02-.053.03.035.037.038.042.057.101-.022.18.003.272.002.004.084.057.01.06h-.004c-.006 0-.087 0-.036.024.003.001.045 0 .038.016-.008.016.012.05-.038.058-.016.004-.097-.005-.042.033.004.001.131.078.033.056-.016-.004-.115-.04-.072-.001.009.008.034.008.043.024.015.026-.02.037.014.076.006.007.065.052.01.042-.009-.002-.04-.02-.046-.015-.03.021-.025.063-.062.08-.013.007-.06-.026-.08-.023-.018.003-.042.015-.026.039s.1.059.097.08c-.02.09-.115.131-.182.193-.01.01.022.023.008.038l-.027.032c-.05.06-.129.137-.207.118-.072-.019-.043-.088-.086-.087-.02 0 .018.1.016.105-.022.052-.072.025-.1.054-.006.006.02.041.014.046-.02.017-.05.01-.07.02-.008.006.006.036-.004.037q-.034.006-.076-.026c-.003-.002-.004-.045-.019-.041-.024.005-.061-.015-.08.022-.005.011.013.084-.017.038-.006-.01-.023-.098-.024-.018 0 .01-.006.067-.02.078q-.007.008-.018-.018c-.006-.017-.03-.087-.035-.074 0 .002.012.04.007.046-.02.017-.046.018-.072.036-.008.005.012.044 0 .05-.03.016-.08.013-.125.003-.016-.003-.008-.038-.01-.042-.021-.06-.028.023-.035.028-.043.03-.08-.01-.13-.006-.015 0-.01.04-.014.044-.037.029-.002-.037-.02-.048-.05-.031-.116-.048-.18-.077-.023-.011-.02.043-.041.032a.5.5 0 0 1-.201-.187.2.2 0 0 1-.014-.054c0-.01.031-.025.037-.031.04-.041-.034-.014-.042-.013-.038.002-.016-.021-.03-.032-.068-.053-.1-.151-.123-.223-.03-.094-.031-.174-.074-.253-.003-.005-.043.018-.046.014-.036-.055-.042-.12-.077-.176-.003-.004-.041.018-.047.011a.06.06 0 0 1-.01-.057c.003-.01.043-.012.046-.022a.07.07 0 0 0-.01-.061c-.006-.007-.045.02-.049.009-.028-.072-.058-.143-.022-.233.003-.006.09-.034.07-.04q-.04.008-.08.02c-.043-.103-.037-.217-.053-.326 0-.005-.046.013-.048.004-.01-.052-.031-.1.008-.162.004-.006.088-.016.073-.03-.002-.002-.017-.023-.036-.027-.003 0-.042.01-.044.002a.2.2 0 0 1 .01-.14c.004-.008.047-.004.05-.01.018-.038-.017-.078.02-.118.025-.027.098-.02.17-.034.01-.003.012-.018.054-.019.105-.002.221.002.334-.002.024 0-.002-.011.056-.005.004 0 .024.008.044.01.013 0 .056-.003.074 0 .018.002-.018.006.003.01s.07 0 .075.009m1.028.31c-.014.04.08-.077.045-.058zm-1.236.622c.065-.02-.032-.031-.083-.017-.05.017.063.024.083.017m.082.181c.043-.036-.16.024-.11.038.002 0 .108-.035.11-.038m-.49-1.061c.001 0 .002-.01 0-.01-.047-.003-.05.017 0 .01m.623 1.193c.019-.022-.018-.016-.042.01-.02.023.018.018.042-.01m1.203-.287c-.002 0-.005.006.008.007.04.004.03-.007-.008-.007m-1.006.476c-.026-.031.07-.18.09-.138.003.008-.049.033-.052.05-.005.034.075-.043.05.014a.6.6 0 0 1-.089.074m.721-.977c0 .002.005.009.007.007.033-.034.02-.049-.007-.007m.076.826c-.004-.002-.018.013-.015.016.061.05.09.016.015-.016m-.627-.85c.006.049 0 .056-.025.002zM80.117 32.39c.007.01-.02.018-.048.024-.009.001-.027-.018-.035-.017-.014.001-.01.017-.025.018-.006 0-.037-.029-.042-.028-.027.005-.031.03-.05.042-.1.068-.176.163-.252.261-.025.033-.082.06-.086.105 0 .005.033.02.036.021.035.034-.03-.004-.043 0a.1.1 0 0 0-.077.094c0 .017.072.034.028.03-.003 0-.037-.02-.042-.017-.013.005-.014.025-.02.03-.012.01-.013.013-.019.026-.008.017-.035.03-.035.052 0 .005.039.015.042.024s-.007.025-.018.027-.039-.013-.046-.015c-.06-.015.01.037.011.04.014.06-.046.081-.063.125-.012.033-.01.074-.023.105-.016.036-.047.061-.055.1 0 .004.046.013.045.018a.25.25 0 0 1-.074.141c-.004.004-.043-.013-.05-.009-.04.022-.132.056.04.113a.1.1 0 0 1-.063.055c-.025.008-.067-.012-.051.007.003.004.043.007.045.012.01.024-.006.045.011.069.004.005.04.009.045.011.05.017-.037.021-.043.024-.038.017-.038.035-.037.054v.009c0 .003.048.001.05.003.006.011.002.017-.015.032-.004.003-.043.014-.047.017-.015.013.056-.014.043-.004l-.038.018c-.052.03.026-.005.027-.006.025-.007-.042.051-.021.055.002 0 .031-.033.034-.032.016.002.022.01.032.027a.1.1 0 0 0 .02.03c.006.005 0 .038 0 .042.007.063.013-.022.014-.025.013-.023.041.045.035-.057.08.02.121-.06.237-.04.002 0 .027.033.03.033.037 0-.01-.047-.056-.113-.006-.01.014.005.035.02l.037.025c.023.014.065.06.07.062.039.016-.116-.12-.107-.13 0 0 .028.025.032.027.012.004.003-.009.015-.004.03.012.112.07.075.022-.005-.006-.1-.074-.088-.08.005-.004.016-.024.026-.026s.04.022.041.022c.053.01.067.026.136.053.07.026-.084-.057-.1-.07-.015-.013.028-.006.043-.004.014.003.034.018.042.019.059.001-.073-.047-.095-.066-.054-.04.07 0 .088-.01.005-.003-.024-.01-.025-.015-.005-.018.037-.013.007-.041-.005-.005-.076-.04-.018-.032.008.001.038.014.047.01.013-.007.024-.023.016-.035-.006-.01-.06-.013-.041-.019.008-.002.036.012.05.007.012-.006.015-.027.015-.035s-.04-.01-.043-.012a.1.1 0 0 1-.031-.025c.004-.062.076-.12.05-.187-.001-.006-.044 0-.044-.001-.02-.017.095-.008.132-.023-.086.007-.07-.002-.081-.014-.005-.005-.038 0-.042 0-.051-.005.014-.016.027-.019.049-.01-.01-.011.023-.018.032-.008.081-.003.08-.015-.032 0-.112.017-.126.009-.052-.028.001-.097.002-.127 0-.029-.007-.036 0-.054.013-.034-.043-.009-.074-.018-.031-.01.113-.041.143-.053.03-.01-.002-.005.014-.013.015-.008.038-.007.042-.017s-.057-.015-.09-.007c-.068.016-.136.047-.117.021.001-.002.04-.01.042-.016l.008-.027c.007-.025.001-.048.001-.08 0-.006.036-.03.036-.035-.003-.043-.05.015-.111.068.073-.079.11-.135.087-.154-.014-.01-.038.03-.063.054-.007.008 0-.025-.012-.007-.04.062-.071.136-.07.101 0-.002.02-.036.018-.04-.01-.021-.04.049-.054.054-.01.004-.022-.045-.038-.053.007-.121-.02-.094-.02-.01-.01-.003-.02.003-.03-.006-.005-.003-.01-.038-.011-.042-.022-.056-.008.025-.009.028-.01.035-.058-.009-.047.056 0 .003.047.072.007.026-.003-.003-.018-.04-.03-.035-.01.004-.061-.012-.048.03.003.01.046.064 0 .034-.005-.004-.022-.021-.033-.029-.036-.024.025.035-.034-.007s-.114-.061-.089-.012c0 .001.052.046.047.05-.007.008-.028.013-.034.023-.002.004.035.024.035.025.001.042-.043.043-.075.071-.006.006.038.047-.009.041-.051-.005-.234-.102-.205-.043l.014.012c.052.04.22.111.102.098.018.056-.058.102-.005.156.002.003.075.002.075.006 0 .006-.033.016-.035.022-.005.025.029.037.032.058 0 .008-.033.018-.03.028.001.01.046-.002.032.02-.011.016-.09.07-.091.09.082-.045.085-.036.115-.034.006 0 .031-.02.035-.02.018-.005-.002.014.016.009.005-.001.031-.019.036-.021.044-.019-.007.033-.015.043-.033.036.004.016-.006.033s-.037.022-.04.037c-.006.03.016.049.028.066.005.006.034-.026.035-.026.02.005-.002.049.066-.002-.153.158.023-.007.006.04a.5.5 0 0 1-.09.083c-.016.005 0-.026-.025-.018-.006.002-.088.057-.094.059-.046.018.069-.087.075-.093.063-.067-.027-.012-.036-.011-.04.004-.035-.025-.066-.026-.02 0-.102.059-.106.048-.015-.038.099-.123-.024-.089-.026.007-.118.07-.058 0 .004-.005.064-.06.013-.05-.006.002-.035.016-.038.015-.023-.005-.004-.026-.022-.037-.019-.01-.044-.025-.04-.05.001-.014.054-.048.067-.057.037-.025-.035-.026.014-.047.049-.019.129-.02.158-.044l-.252.038c-.008-.068.02-.135.025-.196 0-.008-.046-.007-.046-.016-.001-.038.037-.06.034-.095-.002-.025-.034-.063-.04-.09v-.006c.094.021.076-.022.095-.041.007-.007.03.005.04.003.037-.007-.044-.034-.053-.046-.038-.051.134.034.144.007 0 0-.08-.07-.083-.075-.026-.038.032.015.045.01.022-.011.05-.009.039-.046-.004-.01-.046-.062.003-.045.006.003.033.024.035.024.042-.001-.042-.067-.059-.103s.057-.01.076.002c.05.026.01.023.014.027.043.048.046.028.059.022.078.07.084.054.013-.006-.008-.007-.008.007-.013.006-.068-.077-.058-.106.025-.053.039.025.066.07.076.036.006-.016-.045-.068-.046-.092 0-.057.078-.029.105-.055.011-.01-.02-.038-.012-.046.021-.023.056-.005.08-.029.002-.002-.017-.04-.007-.043l.008-.003c.07-.023.133-.004.2-.001.033 0 .096-.013.13 0 .06.023.1.106.149.118.032.01.049-.028.078-.042.06-.026.042.088.034.102 0 0-.029-.012-.031.014-.023.038.03-.014.031-.014-.002.01.032.061.045.067.008.002.036-.024.04-.022a.3.3 0 0 1 .115.14.13.13 0 0 1 .01.058c0 .001-.042.013-.042.015-.01.033.046.035.083.05.037.016.031.038-.038.07.013.014-.014.047-.031.064s.067.004.069.005c.06.03.016.063.014.106 0 .02.016.06.027.081.008.017-.01.03.003.045.002.002.04-.002.04-.002.047.017-.046.012-.062.017-.06.016-.091.024-.063.046.007.005.14.02.148.03.01.014-.038.008-.027.022.001.002.03.002.029.01-.007.042-.027.085-.029.128 0 .006.047.004.047.012a.2.2 0 0 1-.038.124c-.007.008-.038-.005-.048-.004-.06 0 .02.036.02.04.021.084-.07.116-.066.201 0 .005.07.075-.008.055-.005-.001-.084-.024-.04.012.002.003.043.013.032.026s0 .05-.05.046c-.017 0-.093-.03-.05.022.004.003.104.113.015.066-.015-.008-.1-.07-.07-.02.006.01.03.017.034.036.006.03-.031.032-.012.082.004.008.046.07-.005.045-.008-.004-.031-.03-.04-.028l-.02.012c-.025.02-.043.053-.08.06-.016.002-.048-.046-.068-.049s-.05.001-.046.03c.004.03.07.094.056.114-.07.086-.187.086-.285.11-.014.004.008.03-.014.038-.076.03-.247.085-.348 0-.072-.065.031-.093-.021-.124-.014-.008-.037.02-.058.044a.2.2 0 0 1-.032.036c-.081.01-.11-.056-.171-.079-.013-.005-.026.038-.037.033-.04-.018-.062-.06-.092-.086-.014-.011-.035.014-.045 0a.17.17 0 0 1-.03-.119c0-.004.046-.01.033-.032-.022-.037-.017-.093-.062-.125-.014-.009-.085.014-.046-.032.009-.01.097-.026.014-.039-.014 0-.13-.044-.066-.084.016-.01.088-.035.075-.049-.002-.002-.041.009-.046-.005-.01-.033-.01-.068-.01-.102l-.006-.024c-.002-.007-.045-.001-.047-.012-.007-.03.008-.066.025-.092.006-.009.04.003.043.003.062-.003-.018-.022-.022-.027-.025-.03.017-.041.01-.065-.001-.006-.04-.01-.044-.011-.03-.02.037.003.046-.003.026-.019.028-.044.027-.067 0-.008-.046-.008-.046-.016a.18.18 0 0 1 .052-.125c.007-.007.04.007.047.008.057.003-.012-.033-.018-.038-.028-.026.004-.024.002-.04-.007-.081.04-.164.075-.226.045-.08.1-.133.124-.215.002-.005-.043-.017-.043-.022.013-.06.053-.108.065-.169.001-.005-.042-.016-.042-.025 0-.017.012-.035.031-.045.01-.004.04.021.049.017a.06.06 0 0 0 .033-.049c.001-.009-.045-.017-.04-.027.026-.068.052-.136.138-.175.006-.002.089.037.078.02l-.072-.04c.037-.101.117-.178.178-.267.002-.004-.043-.023-.039-.03.029-.044.045-.095.116-.113.007-.002.076.049.074.028 0-.003.004-.029-.008-.045-.001-.002-.036-.021-.033-.029a.24.24 0 0 1 .111-.1c.008-.004.036.03.042.028.042-.017.05-.074.114-.081.043-.005.082.059.141.103.008.006.025-.004.05.029.064.084.131.178.201.267.015.019-.004 0 .033.046l.03.032.047.057c.013.012-.01-.015.004 0 .013.016.047.05.05.055m-.125.807c-.039.019.11-.002.072-.01zm-1.118.125c.067-.016-.028-.04-.08-.028-.053.014.06.034.08.028m.08.194c.043-.036-.16.028-.11.04.003 0 .108-.038.11-.04m.715-1.554c.001.001.01-.005.009-.007-.03-.037-.048-.024-.01.007m-.586 1.678c.02-.021-.016-.015-.042.01-.02.022.017.017.042-.01m.703.167c-.002 0-.006.005.005.01.038.014.031 0-.005-.01m-.526.03c-.023-.033.086-.172.1-.13.003.007-.05.028-.055.046-.007.033.076-.04.049.016a.6.6 0 0 1-.094.068m.555-.605c-.001.001-.002.01 0 .01.048-.002.049-.021 0-.01m-.31.813c-.004-.003-.02.005-.019.008.037.07.076.05.018-.008m-.027-1.135c-.008.047-.011.053-.02-.007z"/><path stroke="#000" d="M1.5 219c0 7.732 23.232 23.5 49.742 23.5s46.258-15.268 46.258-23"/><path stroke="#000" stroke-linecap="round" d="m104 67.5-6.5 41m25-45.5 2.5 30.5M141.5 54l17 39.5"/></svg>