<svg width="393" height="161" viewBox="0 0 393 161" fill="none" xmlns="http://www.w3.org/2000/svg">
<path d="M16.1188 129V94.392H20.0068V125.112H50.6788V129H16.1188ZM59.1411 129C58.0851 129 57.1091 128.744 56.2131 128.232C55.3491 127.72 54.6611 127.032 54.1491 126.168C53.6371 125.272 53.3811 124.296 53.3811 123.24V100.2C53.3811 99.144 53.6371 98.184 54.1491 97.32C54.6611 96.424 55.3491 95.72 56.2131 95.208C57.1091 94.696 58.0851 94.44 59.1411 94.44H82.1811C83.2371 94.44 84.1971 94.696 85.0611 95.208C85.9571 95.72 86.6611 96.424 87.1731 97.32C87.6851 98.184 87.9411 99.144 87.9411 100.2V123.24C87.9411 124.296 87.6851 125.272 87.1731 126.168C86.6611 127.032 85.9571 127.72 85.0611 128.232C84.1971 128.744 83.2371 129 82.1811 129H59.1411ZM59.1411 125.112H82.1811C82.6931 125.112 83.1251 124.936 83.4771 124.584C83.8611 124.2 84.0531 123.752 84.0531 123.24V100.2C84.0531 99.688 83.8611 99.256 83.4771 98.904C83.1251 98.52 82.6931 98.328 82.1811 98.328H59.1411C58.6291 98.328 58.1811 98.52 57.7971 98.904C57.4451 99.256 57.2691 99.688 57.2691 100.2V123.24C57.2691 123.752 57.4451 124.2 57.7971 124.584C58.1811 124.936 58.6291 125.112 59.1411 125.112ZM98.8911 129C97.8351 129 96.8591 128.744 95.9631 128.232C95.0991 127.72 94.4111 127.032 93.8991 126.168C93.3871 125.272 93.1311 124.296 93.1311 123.24V100.2C93.1311 99.144 93.3871 98.184 93.8991 97.32C94.4111 96.424 95.0991 95.72 95.9631 95.208C96.8591 94.696 97.8351 94.44 98.8911 94.44H121.931C122.987 94.44 123.947 94.696 124.811 95.208C125.707 95.72 126.411 96.424 126.923 97.32C127.435 98.184 127.691 99.144 127.691 100.2V123.24C127.691 124.296 127.435 125.272 126.923 126.168C126.411 127.032 125.707 127.72 124.811 128.232C123.947 128.744 122.987 129 121.931 129H98.8911ZM98.8911 125.112H121.931C122.443 125.112 122.875 124.936 123.227 124.584C123.611 124.2 123.803 123.752 123.803 123.24V100.2C123.803 99.688 123.611 99.256 123.227 98.904C122.875 98.52 122.443 98.328 121.931 98.328H98.8911C98.3791 98.328 97.9311 98.52 97.5471 98.904C97.1951 99.256 97.0191 99.688 97.0191 100.2V123.24C97.0191 123.752 97.1951 124.2 97.5471 124.584C97.9311 124.936 98.3791 125.112 98.8911 125.112ZM133.025 129V94.44H136.961V109.752H148.097L160.961 94.44H165.953V94.488L151.505 111.72L166.001 128.952V129H160.961L148.097 113.688H136.961V129H133.025ZM189.825 129C188.769 129 187.793 128.744 186.897 128.232C186.033 127.72 185.345 127.032 184.833 126.168C184.321 125.272 184.065 124.296 184.065 123.24V121.896H187.953V123.24C187.953 123.752 188.129 124.2 188.481 124.584C188.865 124.936 189.313 125.112 189.825 125.112H212.865C213.377 125.112 213.809 124.936 214.161 124.584C214.545 124.2 214.737 123.752 214.737 123.24V115.512C214.737 115 214.545 114.568 214.161 114.216C213.809 113.864 213.377 113.688 212.865 113.688H189.825C188.769 113.688 187.793 113.432 186.897 112.92C186.033 112.376 185.345 111.672 184.833 110.808C184.321 109.944 184.065 108.984 184.065 107.928V100.2C184.065 99.144 184.321 98.184 184.833 97.32C185.345 96.424 186.033 95.72 186.897 95.208C187.793 94.696 188.769 94.44 189.825 94.44H212.865C213.921 94.44 214.881 94.696 215.745 95.208C216.641 95.72 217.345 96.424 217.857 97.32C218.369 98.184 218.625 99.144 218.625 100.2V101.544H214.737V100.2C214.737 99.688 214.545 99.256 214.161 98.904C213.809 98.52 213.377 98.328 212.865 98.328H189.825C189.313 98.328 188.865 98.52 188.481 98.904C188.129 99.256 187.953 99.688 187.953 100.2V107.928C187.953 108.44 188.129 108.872 188.481 109.224C188.865 109.576 189.313 109.752 189.825 109.752H212.865C213.921 109.752 214.881 110.024 215.745 110.568C216.641 111.08 217.345 111.768 217.857 112.632C218.369 113.496 218.625 114.456 218.625 115.512V123.24C218.625 124.296 218.369 125.272 217.857 126.168C217.345 127.032 216.641 127.72 215.745 128.232C214.881 128.744 213.921 129 212.865 129H189.825ZM223.822 129V94.44H227.71V109.752H255.31V94.44H259.246V129H255.31V113.688H227.71V129H223.822ZM264.698 129V100.2C264.698 99.144 264.954 98.184 265.466 97.32C265.978 96.424 266.666 95.72 267.53 95.208C268.426 94.696 269.402 94.44 270.458 94.44H293.498C294.554 94.44 295.514 94.696 296.378 95.208C297.274 95.72 297.978 96.424 298.49 97.32C299.002 98.184 299.258 99.144 299.258 100.2V129H295.37V116.376H268.586V129H264.698ZM268.586 112.488H295.37V100.2C295.37 99.688 295.178 99.256 294.794 98.904C294.442 98.52 294.01 98.328 293.498 98.328H270.458C269.946 98.328 269.498 98.52 269.114 98.904C268.762 99.256 268.586 99.688 268.586 100.2V112.488ZM333.911 129L322.631 115.56H327.719L339.047 128.952V129H333.911ZM304.727 129V94.488H333.527C334.583 94.488 335.543 94.76 336.407 95.304C337.303 95.816 338.007 96.504 338.519 97.368C339.031 98.232 339.287 99.192 339.287 100.248V110.376C339.287 111.432 339.031 112.392 338.519 113.256C338.007 114.12 337.303 114.824 336.407 115.368C335.543 115.88 334.583 116.136 333.527 116.136H308.615V129H304.727ZM310.487 112.2H333.527C334.039 112.2 334.471 112.024 334.823 111.672C335.207 111.32 335.399 110.888 335.399 110.376V100.248C335.399 99.736 335.207 99.304 334.823 98.952C334.471 98.568 334.039 98.376 333.527 98.376H310.487C309.975 98.376 309.527 98.568 309.143 98.952C308.791 99.304 308.615 99.736 308.615 100.248V110.376C308.615 110.888 308.791 111.32 309.143 111.672C309.527 112.024 309.975 112.2 310.487 112.2ZM344.336 129V94.488H373.136C374.192 94.488 375.152 94.76 376.016 95.304C376.912 95.816 377.616 96.504 378.128 97.368C378.64 98.232 378.896 99.192 378.896 100.248V110.376C378.896 111.432 378.64 112.392 378.128 113.256C377.616 114.12 376.912 114.824 376.016 115.368C375.152 115.88 374.192 116.136 373.136 116.136H348.224V129H344.336ZM350.096 112.2H373.136C373.648 112.2 374.08 112.024 374.432 111.672C374.816 111.32 375.008 110.888 375.008 110.376V100.248C375.008 99.736 374.816 99.304 374.432 98.952C374.08 98.568 373.648 98.376 373.136 98.376H350.096C349.584 98.376 349.136 98.568 348.752 98.952C348.4 99.304 348.224 99.736 348.224 100.248V110.376C348.224 110.888 348.4 111.32 348.752 111.672C349.136 112.024 349.584 112.2 350.096 112.2Z" fill="black"/>
<path d="M143.172 11.9375C143.964 12.6458 144.359 13.6042 144.359 14.8125C144.359 15.4375 144.193 16.1667 143.859 17C143.568 17.8333 142.984 18.6458 142.109 19.4375C141.234 20.1875 140.005 20.875 138.422 21.5C136.88 22.0833 134.859 22.4375 132.359 22.5625C131.109 22.5625 129.88 22.5625 128.672 22.5625C127.464 22.5208 126.13 22.4375 124.672 22.3125C123.255 22.1458 121.672 21.8958 119.922 21.5625C118.172 21.2292 116.13 20.7708 113.797 20.1875C110.63 22.8125 107.609 25.8542 104.734 29.3125C101.859 32.7708 99.0677 36.2708 96.3594 39.8125C96.6927 39.8958 97.026 39.9375 97.3594 39.9375C97.6927 39.9375 98.026 39.9375 98.3594 39.9375C99.4427 39.9375 100.547 39.8125 101.672 39.5625C102.797 39.3125 103.984 38.8542 105.234 38.1875C105.276 38.1458 105.359 38.125 105.484 38.125C105.859 38.125 106.047 38.3125 106.047 38.6875C106.047 38.8958 105.943 39.0417 105.734 39.125C104.401 39.8333 103.109 40.3333 101.859 40.625C100.651 40.9167 99.4844 41.0625 98.3594 41.0625C97.401 41.0625 96.4844 41 95.6094 40.875C95.1094 41.4583 94.5469 42.2083 93.9219 43.125C93.2969 44 92.6927 44.8125 92.1094 45.5625C89.3177 49.3542 86.7552 52.8333 84.4219 56C82.0885 59.1667 79.8385 61.8958 77.6719 64.1875C75.5052 66.4792 73.3594 68.2708 71.2344 69.5625C69.151 70.8542 66.9635 71.5 64.6719 71.5C62.0885 71.5 60.0885 70.8542 58.6719 69.5625C57.2552 68.3125 56.5469 66.5625 56.5469 64.3125C56.5469 64.1042 56.5677 63.8333 56.6094 63.5C56.6094 63.125 56.651 62.7708 56.7344 62.4375C56.776 62.1042 56.8594 61.8125 56.9844 61.5625C57.0677 61.3125 57.2135 61.1875 57.4219 61.1875C57.7969 61.1875 57.9844 61.375 57.9844 61.75C57.9844 62.2083 57.9427 62.6667 57.8594 63.125C57.7344 63.5417 57.6719 63.9375 57.6719 64.3125C57.6719 66.3958 58.3177 67.9375 59.6094 68.9375C60.901 69.8958 62.6094 70.375 64.7344 70.375C66.5677 70.375 68.4427 69.8542 70.3594 68.8125C72.276 67.7292 74.3594 65.9792 76.6094 63.5625C77.651 62.4375 78.8385 61.0417 80.1719 59.375C81.5052 57.6667 82.8385 55.9167 84.1719 54.125C85.5469 52.3333 86.8385 50.6042 88.0469 48.9375C89.2969 47.2708 90.3385 45.9167 91.1719 44.875L91.6719 44.1875C90.8385 44.4792 89.7969 44.7292 88.5469 44.9375C87.2969 45.1458 86.1302 45.25 85.0469 45.25C84.4635 45.25 83.7135 45.2083 82.7969 45.125C81.8802 45.0417 81.0052 44.8542 80.1719 44.5625C79.3385 44.2708 78.6094 43.875 77.9844 43.375C77.401 42.875 77.1094 42.1875 77.1094 41.3125C77.1094 40.4792 77.2969 39.7917 77.6719 39.25C78.0469 38.7083 78.526 38.2917 79.1094 38C79.7344 37.6667 80.4219 37.4375 81.1719 37.3125C81.9219 37.1875 82.651 37.125 83.3594 37.125C84.651 37.125 85.7969 37.2292 86.7969 37.4375C87.7969 37.6458 88.7344 37.8958 89.6094 38.1875C90.526 38.4375 91.4219 38.7083 92.2969 39C93.1719 39.25 94.1094 39.4583 95.1094 39.625C97.776 36.0833 100.526 32.625 103.359 29.25C106.234 25.8333 109.255 22.7083 112.422 19.875C110.422 19.3333 108.255 18.7083 105.922 18C103.589 17.25 101.047 16.375 98.2969 15.375C96.6719 14.7917 95.1302 14.375 93.6719 14.125C92.2135 13.875 90.8177 13.75 89.4844 13.75C88.151 13.75 86.776 13.8958 85.3594 14.1875C83.9844 14.4375 82.6094 14.8333 81.2344 15.375C79.901 15.875 78.6094 16.5208 77.3594 17.3125C76.151 18.0625 75.0677 18.9167 74.1094 19.875C73.9844 20 73.8385 20.0625 73.6719 20.0625C73.5052 20.0625 73.3594 20 73.2344 19.875C73.151 19.75 73.1094 19.625 73.1094 19.5C73.1094 19.3333 73.151 19.2083 73.2344 19.125C75.276 17.0833 77.7135 15.5 80.5469 14.375C83.4219 13.2083 86.401 12.625 89.4844 12.625C90.8594 12.625 92.3177 12.7708 93.8594 13.0625C95.401 13.3125 97.0052 13.7292 98.6719 14.3125C101.547 15.3958 104.193 16.3125 106.609 17.0625C109.068 17.8125 111.359 18.4583 113.484 19C116.734 16.2083 120.13 13.9792 123.672 12.3125C127.255 10.6042 131.026 9.75 134.984 9.75C135.651 9.75 136.359 9.77083 137.109 9.8125C137.901 9.85416 138.651 9.95833 139.359 10.125C140.109 10.2917 140.818 10.5208 141.484 10.8125C142.151 11.0625 142.714 11.4375 143.172 11.9375ZM92.7969 42.6875C93.0885 42.3542 93.3594 42.0208 93.6094 41.6875C93.8594 41.3125 94.1094 40.9583 94.3594 40.625C93.2344 40.375 92.2344 40.125 91.3594 39.875C90.526 39.5833 89.6927 39.3125 88.8594 39.0625C88.026 38.8125 87.1719 38.625 86.2969 38.5C85.4635 38.3333 84.4844 38.25 83.3594 38.25C82.901 38.25 82.3802 38.2917 81.7969 38.375C81.2552 38.4583 80.7135 38.6042 80.1719 38.8125C79.6302 39.0208 79.1719 39.3333 78.7969 39.75C78.4635 40.125 78.2969 40.6458 78.2969 41.3125C78.2969 41.8958 78.526 42.375 78.9844 42.75C79.4844 43.0833 80.0677 43.3542 80.7344 43.5625C81.4427 43.7708 82.151 43.9167 82.8594 44C83.6094 44.0833 84.2344 44.125 84.7344 44.125C85.3594 44.125 86.0677 44.0833 86.8594 44C87.6927 43.875 88.4844 43.75 89.2344 43.625C90.026 43.4583 90.7344 43.2917 91.3594 43.125C92.026 42.9583 92.5052 42.8125 92.7969 42.6875ZM140.422 19.1875C141.089 18.8542 141.714 18.2708 142.297 17.4375C142.88 16.5625 143.172 15.6875 143.172 14.8125C143.172 13.9375 142.88 13.25 142.297 12.75C141.714 12.25 141.005 11.8542 140.172 11.5625C139.339 11.2708 138.443 11.0833 137.484 11C136.568 10.9167 135.734 10.875 134.984 10.875C131.318 10.875 127.818 11.6458 124.484 13.1875C121.151 14.7292 117.943 16.7708 114.859 19.3125C117.068 19.8542 118.984 20.2708 120.609 20.5625C122.276 20.8542 123.776 21.0625 125.109 21.1875C126.443 21.3125 127.672 21.3958 128.797 21.4375C129.964 21.4375 131.13 21.4375 132.297 21.4375C134.38 21.3542 136.068 21.1042 137.359 20.6875C138.651 20.2292 139.672 19.7292 140.422 19.1875ZM112.203 68.75C111.495 68.75 110.786 68.7083 110.078 68.625C109.37 68.5417 108.745 68.3542 108.203 68.0625C107.62 67.7292 107.161 67.2708 106.828 66.6875C106.495 66.1042 106.328 65.3333 106.328 64.375C106.328 63.125 106.62 61.7917 107.203 60.375C107.745 58.9167 108.453 57.4583 109.328 56C110.161 54.5417 111.057 53.125 112.016 51.75C112.974 50.375 113.849 49.125 114.641 48C115.766 46.375 116.87 44.8333 117.953 43.375C119.078 41.9167 120.078 40.625 120.953 39.5C121.87 38.375 122.599 37.4792 123.141 36.8125C123.724 36.1458 124.016 35.8125 124.016 35.8125C124.057 35.6875 124.203 35.625 124.453 35.625C124.828 35.625 125.016 35.8125 125.016 36.1875C125.016 36.2708 124.974 36.3958 124.891 36.5625C124.891 36.5625 124.599 36.8958 124.016 37.5625C123.474 38.2292 122.745 39.125 121.828 40.25C120.953 41.3333 119.953 42.6042 118.828 44.0625C117.745 45.5208 116.641 47.0417 115.516 48.625C114.766 49.6667 113.932 50.8542 113.016 52.1875C112.099 53.5208 111.224 54.8958 110.391 56.3125C109.557 57.7292 108.87 59.1458 108.328 60.5625C107.745 61.9375 107.453 63.2083 107.453 64.375C107.453 65.125 107.599 65.7292 107.891 66.1875C108.182 66.6042 108.557 66.9167 109.016 67.125C109.474 67.3333 109.974 67.4792 110.516 67.5625C111.099 67.6042 111.661 67.625 112.203 67.625C113.995 67.625 115.953 67.2708 118.078 66.5625C120.203 65.8125 122.328 64.8542 124.453 63.6875C126.62 62.4792 128.745 61.125 130.828 59.625C132.953 58.125 134.911 56.5833 136.703 55C136.87 54.9167 136.995 54.875 137.078 54.875C137.453 54.875 137.641 55.0625 137.641 55.4375C137.641 55.6042 137.578 55.75 137.453 55.875C135.578 57.4583 133.599 59.0208 131.516 60.5625C129.474 62.1042 127.37 63.4792 125.203 64.6875C123.036 65.8958 120.849 66.875 118.641 67.625C116.474 68.375 114.328 68.75 112.203 68.75ZM133.078 27.8125C133.078 28.6458 132.786 29.375 132.203 30C131.62 30.5833 130.911 30.875 130.078 30.875C129.245 30.875 128.516 30.5833 127.891 30C127.307 29.375 127.016 28.6458 127.016 27.8125C127.016 26.9792 127.307 26.2708 127.891 25.6875C128.516 25.1042 129.245 24.8125 130.078 24.8125C130.911 24.8125 131.62 25.1042 132.203 25.6875C132.786 26.2708 133.078 26.9792 133.078 27.8125ZM184.578 56.375C184.661 56.4583 184.703 56.5625 184.703 56.6875C184.703 56.8542 184.641 57 184.516 57.125C179.807 61.2917 175.349 64.5 171.141 66.75C166.932 69 163.266 70.125 160.141 70.125C157.641 70.125 155.807 69.4792 154.641 68.1875C153.516 66.8542 152.953 64.9792 152.953 62.5625C152.953 61.2708 153.078 59.8958 153.328 58.4375C153.62 56.9792 153.974 55.5 154.391 54C151.141 56.25 148.141 58.4583 145.391 60.625C142.641 62.75 140.266 64.6667 138.266 66.375C136.266 68.0417 134.703 69.375 133.578 70.375C132.411 71.4167 131.828 71.9375 131.828 71.9375C131.661 72.0208 131.536 72.0625 131.453 72.0625C131.078 72.0625 130.891 71.875 130.891 71.5C130.891 71.3333 130.932 71.2083 131.016 71.125C130.974 71.1667 131.599 70.625 132.891 69.5C134.141 68.375 135.849 66.9167 138.016 65.125C140.182 63.2917 142.724 61.25 145.641 59C148.557 56.75 151.641 54.5208 154.891 52.3125C155.141 51.3125 155.432 50.2292 155.766 49.0625C156.141 47.8958 156.474 46.75 156.766 45.625C157.057 44.5 157.307 43.4583 157.516 42.5C157.724 41.5417 157.828 40.7708 157.828 40.1875C157.828 39.4375 157.682 38.9583 157.391 38.75C157.141 38.5417 156.682 38.4375 156.016 38.4375C155.307 38.4375 154.286 38.625 152.953 39C151.661 39.3333 149.87 40.0208 147.578 41.0625C146.495 41.5625 145.411 42.0833 144.328 42.625C143.286 43.1667 142.266 43.7083 141.266 44.25C140.307 44.75 139.411 45.2292 138.578 45.6875C137.786 46.1458 137.12 46.5417 136.578 46.875C136.536 46.9167 136.432 46.9375 136.266 46.9375C136.141 46.9375 136.016 46.8958 135.891 46.8125C135.766 46.7292 135.703 46.6042 135.703 46.4375C135.703 46.2292 136.099 45.875 136.891 45.375C137.641 44.875 138.599 44.3125 139.766 43.6875C140.932 43.0625 142.182 42.4167 143.516 41.75C144.849 41.0833 146.057 40.5 147.141 40C151.099 38.2083 154.078 37.3125 156.078 37.3125C157.995 37.3125 158.953 38.2917 158.953 40.25C158.953 40.8333 158.87 41.5417 158.703 42.375C158.536 43.2083 158.307 44.125 158.016 45.125C157.766 46.125 157.474 47.1667 157.141 48.25C156.849 49.2917 156.578 50.3125 156.328 51.3125C160.495 48.4375 164.557 45.875 168.516 43.625C172.516 41.3333 176.349 39.3958 180.016 37.8125C180.057 37.8125 180.099 37.8125 180.141 37.8125C180.182 37.7708 180.224 37.75 180.266 37.75C180.641 37.75 180.828 37.9375 180.828 38.3125C180.828 38.5625 180.724 38.7292 180.516 38.8125C176.099 40.7708 171.786 43 167.578 45.5C163.411 48 159.495 50.5 155.828 53C155.37 54.7083 154.974 56.3958 154.641 58.0625C154.307 59.6875 154.141 61.2083 154.141 62.625C154.141 64.7083 154.599 66.2917 155.516 67.375C156.432 68.4583 157.953 69 160.078 69C163.078 69 166.62 67.8958 170.703 65.6875C174.786 63.4792 179.141 60.3542 183.766 56.3125C183.932 56.2292 184.057 56.1875 184.141 56.1875C184.307 56.1875 184.453 56.25 184.578 56.375ZM286.266 18.0625C286.266 18.3542 286.141 18.5208 285.891 18.5625C285.432 18.6458 284.328 19.0417 282.578 19.75C280.87 20.4583 278.766 21.6042 276.266 23.1875C273.807 24.7292 271.099 26.8125 268.141 29.4375C265.182 32.0208 262.245 35.25 259.328 39.125C258.703 39.9583 257.828 41.2292 256.703 42.9375C255.62 44.6458 254.474 46.625 253.266 48.875C252.057 51.0833 250.849 53.4375 249.641 55.9375C248.432 58.4375 247.432 60.8958 246.641 63.3125C246.307 64.3542 245.911 65.7292 245.453 67.4375C244.995 69.1042 244.766 70.75 244.766 72.375C244.766 73.2083 244.849 74 245.016 74.75C245.224 75.5417 245.536 76.2292 245.953 76.8125C246.411 77.3958 246.995 77.8542 247.703 78.1875C248.453 78.5625 249.349 78.75 250.391 78.75C251.724 78.75 252.953 78.3542 254.078 77.5625C255.203 76.7708 256.161 75.75 256.953 74.5C257.786 73.2917 258.432 71.9167 258.891 70.375C259.349 68.875 259.578 67.3958 259.578 65.9375C259.578 65.6042 259.745 65.3958 260.078 65.3125C260.411 65.3125 260.62 65.4792 260.703 65.8125C260.703 67.2708 260.453 68.8125 259.953 70.4375C259.495 72.1042 258.828 73.625 257.953 75C257.078 76.375 255.995 77.5208 254.703 78.4375C253.453 79.3542 252.036 79.8125 250.453 79.8125C249.203 79.8125 248.141 79.6042 247.266 79.1875C246.391 78.8125 245.682 78.2917 245.141 77.625C244.599 76.9583 244.203 76.1667 243.953 75.25C243.745 74.375 243.641 73.4375 243.641 72.4375C243.641 70.9792 243.807 69.5208 244.141 68.0625C244.474 66.5625 244.807 65.25 245.141 64.125C244.016 65.6667 242.786 67.1042 241.453 68.4375C240.161 69.7292 238.724 70.8542 237.141 71.8125C235.599 72.7708 233.891 73.5208 232.016 74.0625C230.141 74.6042 228.036 74.875 225.703 74.875C224.245 74.875 222.724 74.625 221.141 74.125C219.557 73.6667 218.099 72.8958 216.766 71.8125C215.474 70.7708 214.391 69.4167 213.516 67.75C212.682 66.0417 212.266 64 212.266 61.625C212.266 59.875 212.536 57.9792 213.078 55.9375C213.62 53.8542 214.516 51.5625 215.766 49.0625C217.391 45.8125 219.203 42.7917 221.203 40C223.245 37.1667 225.328 34.5625 227.453 32.1875C229.62 29.8125 231.766 27.6458 233.891 25.6875C236.057 23.7292 238.078 21.9583 239.953 20.375C237.828 20.125 235.87 19.75 234.078 19.25C232.286 18.7083 230.599 18.1458 229.016 17.5625C227.474 16.9375 225.974 16.3125 224.516 15.6875C223.057 15.0625 221.578 14.5 220.078 14C218.62 13.5 217.078 13.0833 215.453 12.75C213.87 12.4167 212.141 12.25 210.266 12.25C209.349 12.25 208.328 12.3333 207.203 12.5C206.078 12.625 205.016 12.9167 204.016 13.375C203.016 13.8333 202.182 14.5 201.516 15.375C200.849 16.2083 200.516 17.3333 200.516 18.75C200.516 19.6667 200.724 20.4583 201.141 21.125C201.516 21.7917 202.036 22.3542 202.703 22.8125C203.37 23.2708 204.12 23.6458 204.953 23.9375C205.786 24.1875 206.62 24.3333 207.453 24.375C207.828 24.4167 208.016 24.625 208.016 25C208.016 25.3333 207.828 25.5 207.453 25.5H207.391C207.307 25.5417 206.849 25.5 206.016 25.375C205.182 25.2083 204.266 24.875 203.266 24.375C202.266 23.875 201.37 23.1875 200.578 22.3125C199.745 21.3958 199.328 20.1875 199.328 18.6875C199.328 17.2292 199.661 16.0208 200.328 15.0625C200.995 14.1042 201.849 13.3333 202.891 12.75C203.932 12.1667 205.12 11.75 206.453 11.5C207.745 11.25 209.016 11.125 210.266 11.125C212.266 11.125 214.12 11.2917 215.828 11.625C217.536 11.9583 219.161 12.3958 220.703 12.9375C222.245 13.4792 223.745 14.0833 225.203 14.75C226.703 15.375 228.266 16 229.891 16.625C231.516 17.25 233.224 17.8125 235.016 18.3125C236.849 18.8125 238.891 19.1667 241.141 19.375C241.891 18.75 242.661 18.0625 243.453 17.3125C244.286 16.5625 245.141 15.875 246.016 15.25C246.932 14.625 247.87 14.1042 248.828 13.6875C249.786 13.2292 250.807 13 251.891 13C252.974 13 253.87 13.25 254.578 13.75C255.328 14.25 255.703 15.1042 255.703 16.3125C255.703 17.4375 255.307 18.3125 254.516 18.9375C253.766 19.5208 252.849 19.9583 251.766 20.25C250.682 20.5 249.557 20.6458 248.391 20.6875C247.266 20.7292 246.328 20.75 245.578 20.75C244.245 20.75 242.891 20.6875 241.516 20.5625C240.141 21.6875 238.661 22.9583 237.078 24.375C235.495 25.75 233.87 27.25 232.203 28.875C230.87 30.1667 229.474 31.6458 228.016 33.3125C226.599 34.9375 225.182 36.6875 223.766 38.5625C222.391 40.3958 221.078 42.3125 219.828 44.3125C218.578 46.2708 217.474 48.25 216.516 50.25C215.557 52.25 214.786 54.2292 214.203 56.1875C213.661 58.1042 213.391 59.9167 213.391 61.625C213.391 63.6667 213.724 65.4583 214.391 67C215.099 68.5 216.036 69.75 217.203 70.75C218.37 71.75 219.682 72.5 221.141 73C222.599 73.5 224.12 73.75 225.703 73.75C228.286 73.75 230.682 73.3333 232.891 72.5C235.099 71.7083 237.099 70.6042 238.891 69.1875C240.724 67.8125 242.349 66.1667 243.766 64.25C245.224 62.2917 246.474 60.1875 247.516 57.9375C249.891 52.2708 252.474 47.3333 255.266 43.125C258.057 38.9167 260.849 35.3333 263.641 32.375C266.474 29.375 269.182 26.9167 271.766 25C274.391 23.0417 276.724 21.5208 278.766 20.4375C280.807 19.3125 282.432 18.5417 283.641 18.125C284.891 17.7083 285.536 17.5 285.578 17.5C285.62 17.5 285.641 17.5 285.641 17.5C285.682 17.4583 285.724 17.4375 285.766 17.4375C286.016 17.4375 286.182 17.5833 286.266 17.875V18.0625ZM251.453 14.125C250.62 14.1667 249.828 14.375 249.078 14.75C248.328 15.125 247.578 15.5833 246.828 16.125C246.12 16.625 245.432 17.1875 244.766 17.8125C244.099 18.3958 243.432 18.9583 242.766 19.5C243.682 19.625 244.661 19.6875 245.703 19.6875C246.245 19.6875 246.995 19.6875 247.953 19.6875C248.953 19.6458 249.932 19.5208 250.891 19.3125C251.891 19.1042 252.745 18.7708 253.453 18.3125C254.203 17.8542 254.578 17.1875 254.578 16.3125C254.578 14.8542 253.682 14.125 251.891 14.125H251.453ZM323.422 53.125C323.505 53.2917 323.547 53.4167 323.547 53.5C323.547 53.75 323.484 53.8958 323.359 53.9375C317.568 59.1458 311.839 63.0208 306.172 65.5625C300.505 68.1042 294.776 69.4167 288.984 69.5C286.443 69.5 284.026 69.25 281.734 68.75C279.443 68.2083 277.505 67.6042 275.922 66.9375C274.755 66.6042 273.568 66.125 272.359 65.5C271.193 64.8333 270.13 64.0417 269.172 63.125C263.464 72.625 258.505 80.5 254.297 86.75C250.047 93 246.651 97.4167 244.109 100C244.068 100.083 243.839 100.333 243.422 100.75C242.964 101.208 242.422 101.688 241.797 102.188C241.13 102.688 240.422 103.125 239.672 103.5C238.88 103.917 238.151 104.125 237.484 104.125C236.734 104.125 236.172 103.896 235.797 103.438C235.38 102.979 235.172 102.396 235.172 101.688C235.172 100.604 235.568 99.0417 236.359 97C237.109 95 238.214 92.6458 239.672 89.9375C242.005 85.6042 244.755 81.1667 247.922 76.625C251.089 72.125 254.484 67.75 258.109 63.5C261.693 59.2083 265.422 55.1458 269.297 51.3125C273.172 47.4375 277.005 44.0208 280.797 41.0625C282.089 38.8125 283.109 37.0208 283.859 35.6875C284.609 34.3542 285.193 33.3333 285.609 32.625C286.026 31.875 286.318 31.3958 286.484 31.1875C286.651 30.9792 286.776 30.875 286.859 30.875C286.984 30.875 287.109 30.9167 287.234 31C287.359 31.0833 287.422 31.2292 287.422 31.4375C287.422 31.3958 287.401 31.4375 287.359 31.5625C287.318 31.6458 287.151 31.9375 286.859 32.4375C286.609 32.9375 286.193 33.7292 285.609 34.8125C285.026 35.8958 284.193 37.3958 283.109 39.3125C285.151 37.6458 287.464 36.3333 290.047 35.375C292.672 34.4167 295.63 33.9375 298.922 33.9375C300.922 33.9375 302.672 34.2083 304.172 34.75C305.714 35.25 306.984 35.9375 307.984 36.8125C308.984 37.6875 309.734 38.7083 310.234 39.875C310.734 41.0417 310.984 42.2708 310.984 43.5625C310.984 44.8958 310.734 46.25 310.234 47.625C309.734 48.9583 309.089 50.2708 308.297 51.5625C307.505 52.8125 306.609 54.0208 305.609 55.1875C304.609 56.3542 303.589 57.3958 302.547 58.3125C301.047 59.6458 299.422 60.8958 297.672 62.0625C295.964 63.1875 294.193 64.1667 292.359 65C290.568 65.7917 288.755 66.4167 286.922 66.875C285.13 67.3333 283.401 67.5625 281.734 67.5625C282.818 67.8125 283.922 68.0208 285.047 68.1875C286.214 68.3125 287.484 68.375 288.859 68.375C290.984 68.375 293.297 68.1458 295.797 67.6875C298.297 67.2292 300.964 66.4375 303.797 65.3125C306.63 64.1458 309.609 62.5833 312.734 60.625C315.901 58.6667 319.193 56.1667 322.609 53.125C322.734 53 322.859 52.9375 322.984 52.9375C323.068 52.9375 323.13 52.9583 323.172 53C323.255 53.0417 323.339 53.0833 323.422 53.125ZM243.297 99.25C244.839 97.6667 246.818 95.2083 249.234 91.875C251.651 88.5417 254.422 84.4792 257.547 79.6875C260.672 74.8958 264.068 69.4792 267.734 63.4375C271.401 57.3542 275.255 50.7708 279.297 43.6875C276.089 46.3125 273.068 49.0208 270.234 51.8125C267.443 54.6042 264.859 57.3333 262.484 60C260.109 62.6667 257.984 65.1875 256.109 67.5625C254.234 69.8958 252.651 71.9583 251.359 73.75C248.943 77.0833 246.797 80.2292 244.922 83.1875C243.047 86.1875 241.484 88.8958 240.234 91.3125C238.943 93.7708 237.964 95.875 237.297 97.625C236.63 99.4167 236.297 100.771 236.297 101.688C236.297 102.021 236.401 102.312 236.609 102.562C236.776 102.854 237.089 103 237.547 103C238.005 103 238.526 102.854 239.109 102.562C239.651 102.271 240.193 101.917 240.734 101.5C241.276 101.083 241.776 100.667 242.234 100.25C242.693 99.8333 243.047 99.5 243.297 99.25ZM276.297 65.875C277.089 66.0833 277.859 66.2292 278.609 66.3125C279.401 66.3958 280.151 66.4375 280.859 66.4375C284.401 66.4792 288.005 65.6875 291.672 64.0625C295.339 62.4375 298.714 60.2292 301.797 57.4375C302.797 56.5625 303.755 55.5833 304.672 54.5C305.63 53.4167 306.484 52.2917 307.234 51.125C307.984 49.9583 308.589 48.75 309.047 47.5C309.505 46.2083 309.734 44.9375 309.734 43.6875C309.734 42.6458 309.547 41.625 309.172 40.625C308.797 39.5833 308.193 38.6667 307.359 37.875C306.526 37.0417 305.422 36.375 304.047 35.875C302.672 35.3333 300.964 35.0625 298.922 35.0625C296.505 35.0625 294.401 35.3125 292.609 35.8125C290.818 36.2708 289.234 36.8542 287.859 37.5625C286.526 38.2708 285.359 39.0208 284.359 39.8125C283.359 40.5625 282.464 41.2292 281.672 41.8125C280.089 44.5625 278.255 47.6875 276.172 51.1875C274.089 54.6458 271.964 58.2917 269.797 62.125C270.672 63 271.734 63.7708 272.984 64.4375C274.234 65.0625 275.339 65.5417 276.297 65.875ZM333.359 65.75C333.359 65.9583 333.276 66.3542 333.109 66.9375C332.984 67.4792 332.693 68.0833 332.234 68.75C331.776 69.375 331.089 70.0208 330.172 70.6875C329.297 71.3542 328.089 71.8958 326.547 72.3125C326.089 72.3125 325.859 72.125 325.859 71.75C325.859 71.5833 326.005 71.4167 326.297 71.25C327.255 71 328.047 70.6875 328.672 70.3125C329.339 69.9792 329.901 69.6042 330.359 69.1875C330.234 69.2292 330.047 69.25 329.797 69.25C328.839 69.25 328.005 68.9167 327.297 68.25C326.63 67.5417 326.297 66.7083 326.297 65.75C326.297 64.75 326.63 63.9167 327.297 63.25C328.005 62.5417 328.839 62.1875 329.797 62.1875C330.797 62.1875 331.63 62.5417 332.297 63.25C333.005 63.9167 333.359 64.75 333.359 65.75Z" fill="black"/>
</svg>
