<svg xmlns="http://www.w3.org/2000/svg" viewBox="0 0 300 184" fill="none"><path stroke="rgba(0, 0, 0, .87)" d="M33.114 22.5c25.5 6.333 49.5 13.4 51.5 15 2.5 2-15 33-15.5 35.5s1.5 1-50-12.5M.114 79c27.833 6.5 56.1 14.3 56.5 17.5.5 4-10 24.5-12 33.5m19.5 13.5c4.166-13.833 13.3-41.2 16.5-40 4 1.5 113 32 114 36 .8 3.2-9.334 29-14.5 41.5m27.5 2.5c3.333-11.667 10.5-35 12.5-35 2.5 0 61 19 64 20M285.114 144.5c-18.667-5-56-15.6-56-18 0-3 12-45 15-43.5s47 14.5 50.5 16.5m4.5-20c-16.834-4.167-50.1-13.1-48.5-15.5 2-3 8.5-29 11-34M97.614 5c-.167 5-1.1 15-3.5 15-3 0-49-13.5-55.5-15M220.114 54.177c3.501.841 5.666 1.323 6 1.323 2 0 9.5-17.167 14.5-31.5M203.114 49.945c-16.517-4.198-38.868-10.054-56.5-14.945M140.614 33.5c-12.601-3.564-22.068-6.779-22.5-7.5-1.5-2.5 0-10 3-13.5M164.114 107.869c7.708 2.337 14.735 4.395 20.5 5.974M205.114 74.66c8.278 2.744 13.619 4.742 13.5 5.34-.5 2.5-14.5 34.5-18.5 37-.687.429-4.533-.3-10.5-1.828M198.114 72.384c-28.156-9.017-75.808-22.938-80-25.384-4.8-2.8-10-3.5-12-3.5L89.614 84c18.704 6.235 47.485 15.615 71 22.804"/><path stroke="rgba(0, 0, 0, .87)" d="M164.114 82c-10.8 7.2-6.167 20.667-2.5 26.5 6.5-2.5 19.7-9.1 20.5-15.5 1-8-4.5-20-18-11ZM188.817 90.203c-10.8 7.2-6.166 20.667-2.5 26.5 6.5-2.5 19.7-9.1 20.5-15.5 1-8-4.5-20-18-11ZM202.817 50.203c-10.8 7.2-6.166 20.667-2.5 26.5 6.5-2.5 19.7-9.1 20.5-15.5 1-8-4.5-20-18-11ZM144.817 10.203c-10.8 7.2-6.166 20.667-2.5 26.5 6.5-2.5 19.7-9.1 20.5-15.5 1-8-4.5-20-18-11Z"/><path fill="rgba(0, 0, 0, .87)" d="M144.813 44.935a1.1 1.1 0 0 1-.173.349q-.114.146-.243.3-.125.14-.254.295a1.2 1.2 0 0 0-.181.334.24.24 0 0 0-.226.006 1 1 0 0 0-.192.156q-.087.105-.167.227a1 1 0 0 1-.133.164q-.369.342-.849.607a6.5 6.5 0 0 1-.99.445 8 8 0 0 1-2.091.428l-.015.007a10 10 0 0 1-.438-.168.64.64 0 0 1-.339-.306.85.85 0 0 1-.331-.155.64.64 0 0 1-.243-.26l-.008-.015a1.6 1.6 0 0 0-.093-.332 8 8 0 0 0-.139-.31l-.185-.426a1.2 1.2 0 0 1-.077-.45q.001-.286.015-.567.027-.288.007-.582-.285.172-.558.276-.268.09-.526.186a3 3 0 0 0-.508.243q-.24.15-.486.424l-.019.018a1 1 0 0 0-.637-.026l-.567.16q-.275.076-.542.056-.255-.016-.486-.346l-.376-.133-.003-.026q-.054-.48-.082-.999-.015-.516.049-1.015.069-.51.244-.97a2.9 2.9 0 0 1 .517-.861q.144-.16.291-.295.158-.13.338-.253a.04.04 0 0 0 .019-.018q.047.078.144.014a3 3 0 0 1 .154-.083l.133-.375q.037 0 .092.02l.122.043.099.035a.08.08 0 0 0 .075-.036q.015-.006.012-.033a.1.1 0 0 1 .004-.048.33.33 0 0 1 .141-.186 1 1 0 0 1 .231-.092q.124-.03.238-.04a.5.5 0 0 0 .183-.06q.089.031.162.07a.24.24 0 0 1 .124.106.3.3 0 0 1 .033.186.7.7 0 0 1-.041.222l-.052.217a.7.7 0 0 0-.022.204l.007.015a.5.5 0 0 1-.172.237q-.101.076-.232.13-.12.056-.25.11a.5.5 0 0 0-.196.166l-.004.012a9 9 0 0 1-.364.219 5 5 0 0 1-.374.215q.085.142.015.204a.36.36 0 0 1-.154.083.5.5 0 0 0-.139.075q-.04.047.079.165a.7.7 0 0 1-.181.16 5 5 0 0 0-.221.132 1 1 0 0 0-.17.164q-.057.09-.012.244l.018.02q-.053.042-.096.201-.029.151-.059.34l-.029.363a2 2 0 0 1-.026.251.5.5 0 0 0 .139.273q.117.091.231.12a.4.4 0 0 0 .223.004q.107-.024.135-.101l.089-.006q-.006.085.039.1.048.005.115-.008l.089-.006a.4.4 0 0 1 .085.005q.214.027.475-.043.273-.064.526-.186.255-.122.466-.296a1.7 1.7 0 0 0 .343-.338l.008-.022.022.008a1 1 0 0 0 .455-.125q.202-.115.382-.238.184-.133.375-.215a.74.74 0 0 1 .431-.058.45.45 0 0 1 .154-.12l.172-.1q.095-.054.162-.105a.3.3 0 0 0 .114-.146.4.4 0 0 0 .017-.118 1 1 0 0 1 .02-.093q.06-.029.228-.08.171-.064.347-.139.186-.07.347-.138a.6.6 0 0 0 .202-.114l.015.03q.078.164.075.312a.8.8 0 0 1-.045.27 1.3 1.3 0 0 1-.127.253q-.081.12-.15.246l-.015.007a2 2 0 0 1-.203.152 1.4 1.4 0 0 1-.202.115q-.195.092-.39.26a.9.9 0 0 1-.118.33l-.183.308a1.6 1.6 0 0 0-.143.298.7.7 0 0 0 .001.348q-.119.02-.154.083a.3.3 0 0 0-.01.133l.042.164a.3.3 0 0 1 .015.167q.084.253.255.438t.387.312q.217.126.445.22l.475.167.309.11q.354.126.622.034.269-.091.505-.269.248-.173.5-.357.251-.185.572-.245.062-.177.171-.238a2 2 0 0 1 .209-.1.5.5 0 0 0 .184-.096q.087-.069.079-.258a.47.47 0 0 0 .279-.088q.132-.09.249-.21.132-.127.238-.252.121-.13.238-.214a.7.7 0 0 1 .06-.24q.061-.102.107-.198a.5.5 0 0 0 .053-.217.54.54 0 0 0-.092-.269l-.007-.015.004-.011q-.009-.152.056-.229a1 1 0 0 1 .169-.126q.105-.05.184-.097a.19.19 0 0 0 .11-.135q.342.12.443.294.116.165.093.368a1.3 1.3 0 0 1-.123.417q-.093.228-.168.475m8.764 3.826-.209.1-.127.079a1 1 0 0 1-.124.068q-.064.04-.202.115a2 2 0 0 0-.233.129 1 1 0 0 1-.239.114q-.12-.08-.222-.041a2 2 0 0 0-.187.108l-.165.115a.12.12 0 0 1-.141.012 6 6 0 0 1-.62.066 1.9 1.9 0 0 0-.614.119l-.057-.12-1.345.145a.5.5 0 0 0-.134.027q-.07.026-.138.039a6 6 0 0 1-.594.063q-.29.01-.574.008l-.16-.007q.01.252-.109.31a.6.6 0 0 1-.301.042 3 3 0 0 1-.38-.085.7.7 0 0 0-.337-.032 2 2 0 0 0-.268-.12 4 4 0 0 0-.288-.065 2 2 0 0 1-.295-.08 1.5 1.5 0 0 1-.276-.135l-.022-.008q-.219.023-.343-.084a.65.65 0 0 1-.188-.24 2 2 0 0 1-.112-.351 2.5 2.5 0 0 0-.082-.365 3 3 0 0 1-.076-.313 2 2 0 0 1-.041-.412q-.01-.215.045-.407a.52.52 0 0 1 .199-.315q.15-.108.275-.25.114-.147.192-.367l.051-.144a1 1 0 0 1 .04-.147 1 1 0 0 1 .118.054l.121.043a.2.2 0 0 0 .115-.01q.06-.027.095-.127a.11.11 0 0 0-.013-.104.2.2 0 0 1-.02-.082q.1-.075.176-.112.09-.042.153-.082a.6.6 0 0 0 .118-.12.55.55 0 0 0 .071-.236q.214-.184.454-.3.254-.12.508-.205.256-.095.522-.175.264-.08.515-.19.178.162.331.117.165-.042.299-.106.138-.075.261-.106.123-.03.246.149l.014.03q.404-.194.69-.054.298.143.449.383a.8.8 0 0 1 .15.488q-.007.234-.223.244.078.165.02.33a.5.5 0 0 1-.19.256 2.3 2.3 0 0 0-.275.214l-.245.236a5 5 0 0 1-.415.4q-.211.174-.509.243-.179-.126-.292-.054a.8.8 0 0 0-.177.186.7.7 0 0 1-.14.15q-.068.05-.172-.112l-.015-.03-.03.015a.8.8 0 0 0-.214.148.35.35 0 0 1-.191.118 2 2 0 0 0-.19-.13l-.194-.118a.7.7 0 0 1-.218.334.8.8 0 0 1-.31.138q-.16.03-.356.023a2.4 2.4 0 0 0-.397-.003 1.6 1.6 0 0 0-.383.063.75.75 0 0 0-.334.205q.067.16.226.241.161.07.342.122.185.04.35.099a.57.57 0 0 1 .278.198l.007.015.015-.007q.277.06.552.058.288-.009.556-.027.282-.024.556-.026.29-.01.571.04a.2.2 0 0 0 .108.15q.095.047.192.056l.018-.018a1.4 1.4 0 0 1 .209-.237.6.6 0 0 1 .254-.122 1 1 0 0 1 .267-.017q.144.014.292.054.147.04.299.068l.022.008.023-.029q.091-.117.173-.138a.5.5 0 0 1 .182-.022q.096.009.188.03.104.024.212 0 .175.136.347.073a4 4 0 0 0 .336-.142l.049.142.049-.033q.22-.096.325-.146.116-.046.213-.073.1-.039.22-.06.134-.027.364-.082.19-.044.369-.093.19-.045.377-.115.046.042.024.108l-.04.11a.4.4 0 0 0-.045.059q-.016.044-.002.074m-4.083-3q-.007-.015-.019-.02l-.007-.015q-.19-.204-.347-.247a.54.54 0 0 0-.319-.014 1.1 1.1 0 0 0-.306.128 2.3 2.3 0 0 1-.303.154.8.8 0 0 1-.32.06.64.64 0 0 1-.372-.144l-.191.33a5 5 0 0 0-.155.331.75.75 0 0 0-.364.082 1.7 1.7 0 0 0-.271.203q-.117.12-.242.262-.11.135-.261.244l.025.07q.052-.006.088.069l.05.105q.183-.135.426-.185.252-.048.498-.072.26-.033.502-.084a.82.82 0 0 0 .411-.214.91.91 0 0 0 .671-.21q.283-.236.518-.513.045-.06.144-.16a1 1 0 0 0 .144-.16m9.951 5.775a2.7 2.7 0 0 1-.321.483 1 1 0 0 1-.304.228q-.15.07-.366.119a3.3 3.3 0 0 0-.525.15l-.209.062a1.3 1.3 0 0 0-.201.078 4 4 0 0 0-.62.03q-.371.03-.768.063a11 11 0 0 1-.731.027q-.337.005-.517-.084-.098.065-.271.028a2 2 0 0 1-.262-.068 2 2 0 0 0-.306-.083.48.48 0 0 0-.301.042q-.03.015-.041.01l-.004.012q.01.003 0 0-.004.011-.038.036-.172.1-.309.065a.5.5 0 0 1-.227-.13 1.7 1.7 0 0 1-.211-.212 1 1 0 0 0-.215-.2.45.45 0 0 0-.25-.102q-.14-.024-.328.083-.007-.226-.161-.318a2 2 0 0 0-.331-.154 5 5 0 0 1-.308-.147q-.143-.088-.136-.284l.004-.011-.161-.281-.045.021a.5.5 0 0 0-.132.09.7.7 0 0 1-.12.095 6 6 0 0 1-.282.198 1.3 1.3 0 0 1-.295.132 1 1 0 0 1-.327.045.66.66 0 0 1-.321-.076.9.9 0 0 1 .327-.431q.221-.17.44-.33a1.5 1.5 0 0 0 .333-.378q.116-.22-.016-.553a.54.54 0 0 0-.027-.345 9 9 0 0 1-.137-.384.64.64 0 0 1-.016-.342q.029-.15.29-.22-.091-.058-.105-.125a.23.23 0 0 1 .072-.099q.045-.059.087-.105a.6.6 0 0 0 .152.028.5.5 0 0 1 .148.003.15.15 0 0 1 .11.04q.04.025.053.13a1 1 0 0 1 .005.163 2.468 2.468 0 0 0 .072.672q.066.235.173.46l.022.044q.004-.01.064-.04a1 1 0 0 1 .13-.052l.135-.065.09-.042.336-.142q.16-.068.288-.147a.8.8 0 0 0 .238-.214 1.1 1.1 0 0 0 .18-.334 9 9 0 0 0 .854-.27q.433-.17.869-.313.437-.144.875-.224.45-.077.909-.002.036.211.134.358.097.147.183.29.098.145.146.324.06.183.014.453a2.4 2.4 0 0 1-.317.895 6.6 6.6 0 0 1-.541.79q-.183.234-.358.483a2.5 2.5 0 0 0-.265.54l.069.049a.45.45 0 0 1 .28-.087q.144.013.28.05.137.035.266.056.145.014.28-.087.124.105.261.105.153-.009.305-.054a6 6 0 0 0 .31-.102.7.7 0 0 1 .301-.042l.02-.093q.246-.06.409-.066a5 5 0 0 0 .304-.017q.14-.011.298-.068.156-.056.393-.234a.24.24 0 0 1 .126.032q.077.028.091.095m-3.468-2.46a.6.6 0 0 0-.11-.076 1 1 0 0 1-.091-.094 1 1 0 0 0-.152-.166q-.077-.064-.218-.052l-.008.022-.011-.004a9 9 0 0 0-1.386.578q-.655.34-1.357.638l-.064-.134a.43.43 0 0 0-.163.178l-.074.21a.8.8 0 0 1-.089.18q-.053.08-.191.119l-.041.01q-.01.17.051.242a.5.5 0 0 0 .165.096l.196.044a.2.2 0 0 1 .131.084q.026.034.021.082a.3.3 0 0 1-.016.081l.11.04q.066.023.137.035a.8.8 0 0 1 .254.09q.139.061.107.225.252-.01.519-.028a.9.9 0 0 0 .489-.187l.05.105.011.004q.015-.007.026-.004.335-.068.603-.333.279-.261.49-.61a4.6 4.6 0 0 0 .354-.72q.156-.367.257-.654m12.156-.343a.53.53 0 0 1-.405.056 2.3 2.3 0 0 1-.364-.166 1.5 1.5 0 0 0-.345-.148q-.166-.058-.35.075a.9.9 0 0 0-.361-.14q-.195-.045-.414-.06l-.429-.052a1.5 1.5 0 0 1-.409-.108l-.121-.254a.37.37 0 0 1-.276.076.38.38 0 0 1-.242-.16.8.8 0 0 1-.515-.02q-.228-.094-.448-.172a.9.9 0 0 0-.452-.06q-.219.021-.48.339-.19.22-.372.452l-.357.446q-.477.577-.963 1.138-.47.555-1.002 1.075a8 8 0 0 0-.334 1.013q-.135.524-.257 1.04a.8.8 0 0 0-.131.265 1.5 1.5 0 0 0-.024.314q.005.164.035.323.035.15.087.28l.266-.117.139.484a5 5 0 0 1 .359-.208 3 3 0 0 1 .426-.185q.217-.084.425-.11.224-.033.423 0a2 2 0 0 0 .202-.115.7.7 0 0 1 .194-.093.4.4 0 0 1 .197-.03q.111.003.228.094.425-.073.806-.274.386-.21.768-.412.385-.21.774-.36.399-.144.843-.099-.492.547-1.116 1.01-.62.451-1.297.746a1.5 1.5 0 0 1-.429.16l-.231.054a5 5 0 0 0-.227.044 7 7 0 0 0-.727.227 5 5 0 0 0-.706.31.18.18 0 0 0-.057-.12.4.4 0 0 0-.125-.07 1 1 0 0 0-.147-.039.4.4 0 0 1-.122-.043q-.264.08-.638.047a1.3 1.3 0 0 1-.612-.167 1.4 1.4 0 0 1-.179-.163 1.3 1.3 0 0 1-.163-.17 2.04 2.04 0 0 1-.402-.937 2.5 2.5 0 0 1 .101-1.021l-.057-.12a.6.6 0 0 0 .271-.202.6.6 0 0 0 .116-.258q.04-.147.046-.306.022-.167.066-.325a.7.7 0 0 1 .058-.166q.047-.059.099-.14.214-.322.408-.625.2-.315.409-.626.518-.762 1.095-1.477.592-.723 1.198-1.416a1.3 1.3 0 0 0-.326-.203 3 3 0 0 0-.357-.15 7 7 0 0 1-.361-.141 1.3 1.3 0 0 1-.326-.203l-.065-.06q.003-.011-.085-.042a1 1 0 0 0-.162-.033 2 2 0 0 1-.203-.06.7.7 0 0 1-.169-.084q-.08-.053-.064-.135l.039-.11q.073-.173.159-.205a.3.3 0 0 1 .194-.018q.106.012.228.056.125.032.26.005.285.176.55.306a2.7 2.7 0 0 0 .534.177q.277.06.559.037.293-.021.614-.156.299-.28.524-.635.229-.366.473-.703.258-.343.559-.597.305-.265.77-.349a.57.57 0 0 1 .294.154q.11.113.214.237-.11.135-.202.29a6 6 0 0 1-.194.303 3 3 0 0 1-.202.29 1 1 0 0 1-.268.228q.125.106.119.191a.23.23 0 0 1-.081.158q-.075.073-.177.149a.5.5 0 0 0-.14.15q-.124-.033-.264.08a.8.8 0 0 1-.244.162q-.154.156-.081.332.075.175.131.332a.4.4 0 0 0 .195.081q.111.002.201-.003a.5.5 0 0 1 .177.025q.077.028.112.14.154-.082.256-.022a.9.9 0 0 1 .202.134.8.8 0 0 0 .209.111q.114.03.272-.102a.35.35 0 0 1 .255.053q.11.075.19.167.084.078.16.143a.27.27 0 0 0 .215.027q.157.08.36.14.214.064.425.1a7 7 0 0 0 .436.068q.229.02.407.045.13.157.136.247a.24.24 0 0 1-.044.158 1 1 0 0 1-.107.161.5.5 0 0 0-.06.24m6.433 3.634q-.197.03-.233.166a2 2 0 0 0-.045.27.7.7 0 0 1-.061.24q-.046.096-.252.047a.35.35 0 0 1-.119.194.6.6 0 0 1-.198.104 1 1 0 0 1-.22.06 1.4 1.4 0 0 0-.209.062l-.046-.116-.209.1a.27.27 0 0 1 .082.154q.017.092.026.17a.5.5 0 0 0 .061.146q.039.064.147.077a.4.4 0 0 0-.016.218q.04.102.089.206.05.104.074.213a.37.37 0 0 1-.034.236 2 2 0 0 0-.094.265 4 4 0 0 1-.095.302 1.2 1.2 0 0 1-.131.265.38.38 0 0 1-.195.167 1.4 1.4 0 0 1-.256.406 1.8 1.8 0 0 1-.351.324 1 1 0 0 1-.21.136q-.146.06-.295.095a8 8 0 0 1-.309.065q-.144.023-.286.072a.8.8 0 0 0-.266.155 3.4 3.4 0 0 1-.531-.188 1 1 0 0 0-.546-.107 1 1 0 0 0-.079.047q-.045.021-.053.08a.7.7 0 0 0-.311-.21.7.7 0 0 0-.374-.032q-.105.05-.121.13a22 22 0 0 1-.931-.776 4.5 4.5 0 0 1-.753-.926 6 6 0 0 1-.04-.275 1 1 0 0 1 .006-.297.4.4 0 0 1 .097-.239q.072-.099.257-.095.123.006.169.085.05.068.079.164l.078.202q.038.1.134.147.083-.057.138-.038a.3.3 0 0 1 .121.08q.058.045.113.102a.24.24 0 0 0 .158.044.6.6 0 0 1-.059.166q-.042.084.035.148.206.049.419.186l.432.253q.217.127.442.193a.66.66 0 0 0 .441-.017q.08.015.166.058l.169.085q.088.031.18.052a.4.4 0 0 0 .182-.023.7.7 0 0 1 .307-.127q.186-.035.357-.06a1.1 1.1 0 0 0 .324-.11.5.5 0 0 0 .228-.292.5.5 0 0 0 .213-.074.8.8 0 0 0 .147-.134q.068-.087.121-.168a.6.6 0 0 1 .144-.16.8.8 0 0 1-.208-.186 3 3 0 0 0-.148-.214 1.4 1.4 0 0 0-.162-.207.6.6 0 0 0-.227-.167.66.66 0 0 0-.275-.346 1.1 1.1 0 0 0-.368-.156 3 3 0 0 0-.414-.06 1.2 1.2 0 0 1-.395-.114q-.034-.112-.094-.12a.3.3 0 0 0-.133-.01 3 3 0 0 1-.167.015q-.074 0-.136-.073a.32.32 0 0 0 .026-.214 2 2 0 0 0-.058-.22 1 1 0 0 1-.026-.208.28.28 0 0 1 .096-.202.41.41 0 0 1 .34-.116q.181.014.365.092l.379.159q.198.071.385.037.123.106.275.135.155.017.315.024.162-.004.315-.013a.9.9 0 0 1 .307.047q.062-.14.169-.164a1 1 0 0 1 .22-.021q.114-.01.212-.037.1-.039.133-.202a1.25 1.25 0 0 0-.455-.26 2.2 2.2 0 0 0-.491-.087 6 6 0 0 0-.511-.032q-.248 0-.499-.065a.38.38 0 0 1-.33-.017.9.9 0 0 0-.305-.12l-.105.05a.6.6 0 0 0-.107-.225 2 2 0 0 1-.122-.218.37.37 0 0 1-.022-.219q.029-.114.219-.196l-.039-.1a.4.4 0 0 1 .245.012q.124.031.243.086.132.045.251.064.118.016.238-.078a.18.18 0 0 0 .083.117l.122.043q.076-.11.179-.086a.7.7 0 0 1 .214.064q.122.042.236.07.119.018.216-.084l.061.109a.5.5 0 0 0 .086-.032q.049-.033.047-.096.146.078.316.125l.339.095q.174.037.328.092.159.043.298.142a.14.14 0 0 1 .127-.042.4.4 0 0 1 .121.043q.093.195.156.403a.5.5 0 0 1-.023.415zm6.661 2.534q-.02.093-.072.099a1 1 0 0 1-.096-.01.6.6 0 0 0-.114-.027q-.055-.02-.093.017l-.137.386a2.5 2.5 0 0 0-.47.17q-.225.106-.453.224-.225.108-.456.2a1.6 1.6 0 0 1-.455.124 1.3 1.3 0 0 1-.402.293 5 5 0 0 1-.5.183q-.249.073-.51.143a3 3 0 0 0-.485.176q-.225.106-.399.282a1 1 0 0 0-.245.447.45.45 0 0 0-.255.159 3 3 0 0 0-.145.234 1 1 0 0 1-.146.234q-.072.1-.224.107a.46.46 0 0 1-.005.26.35.35 0 0 1-.114.183 1 1 0 0 1-.192.156q-.11.06-.211.137l-.067.05-.068.05q-.154.12-.294.096a2 2 0 0 1-.284-.076 1.1 1.1 0 0 0-.269-.083q-.141-.025-.306.09.002-.11-.095-.083a.33.33 0 0 1-.17-.01 1 1 0 0 0-.167-.196 3 3 0 0 0-.186-.178 6 6 0 0 0-.17-.185.7.7 0 0 1-.115-.24 6 6 0 0 1-.174-.173.6.6 0 0 1-.118-.228q.147-.172.215-.396.071-.236.145-.446.078-.222.222-.382.133-.164.43-.195.287.101.629.048.342-.052.689-.153.362-.108.701-.224.354-.124.666-.162.016-.219.058-.477.053-.255.182-.445a.5.5 0 0 1 .048-.17 1 1 0 0 0 .088-.18.4.4 0 0 0 .022-.166q-.006-.09-.123-.18a.47.47 0 0 1 .028-.289l.146-.272q.073-.135.116-.257a.4.4 0 0 0-.02-.293l.035.075q.07-.026.08-.084a1 1 0 0 0 .006-.122q0-.075.021-.13.023-.066.105-.087a.44.44 0 0 1 .133-.2.6.6 0 0 1 .192-.12 1 1 0 0 1 .234-.066 3 3 0 0 1 .242-.05.42.42 0 0 0 .28.086q.153-.008.294-.02a1.4 1.4 0 0 1 .27.008q.134.01.219.153.163.032.198.144a.5.5 0 0 1 .029.234.4.4 0 0 0 .135-.1.34.34 0 0 1 .158-.094l.051.242q.06-.066.134-.028a.5.5 0 0 0 .143.051q.002.1.05.142a.4.4 0 0 0 .124.07q.077.026.155.054a.2.2 0 0 1 .113.102q.075.138.084.254.02.12.014.24.005.127-.001.25.009.114.051.241a.3.3 0 0 0 .209-.063.6.6 0 0 0 .163-.178q.072-.099.133-.202a.7.7 0 0 1 .137-.175.25.25 0 0 1 .183-.06q.1 0 .242.123.19.168.158.255-.016.082-.118.158a3 3 0 0 0-.181.16q-.078.083-.011.244-.052-.03-.142.012-.037.036-.016.081l.036.075zm-1.645-.583-.043-.09a.9.9 0 0 0-.248-.249 1.7 1.7 0 0 0-.355-.225 2.5 2.5 0 0 0-.386-.174 4 4 0 0 0-.324-.103 1.2 1.2 0 0 0-.583.03.8.8 0 0 0-.472.318q.124.069.148.177a.7.7 0 0 1 .025.245 2 2 0 0 1-.027.251.6.6 0 0 0 .036.25.16.16 0 0 0-.039.11q.003.063.009.115a.2.2 0 0 1-.009.096q-.015.044-.094.054a.5.5 0 0 1-.01.17 2 2 0 0 0-.03.189q.006.088.031.16.035.075.15.102.522-.212 1.042-.414.519-.2 1.03-.418a.3.3 0 0 0 .039-.11q.02-.056-.027-.097.111-.035.131-.09a.23.23 0 0 0 .032-.126l.021-.13a.22.22 0 0 1 .102-.112zm-4.094 2.852q-.327.046-.636.147a1.24 1.24 0 0 1-.646.032.52.52 0 0 1-.578.02.5.5 0 0 0-.149.034 1 1 0 0 0-.157.056.3.3 0 0 0-.12.094.15.15 0 0 0-.025.14l.028.06q.007.015.044.053.09.132.17.222t.156.155q.092.057.206.085.125.032.296.043.014.03.025.07.025.035-.002.075.136.036.256.016a1.2 1.2 0 0 0 .227-.081 4 4 0 0 0 .229-.118q.123-.07.25-.11a.7.7 0 0 1 .149-.246q.102-.113.189-.219a.7.7 0 0 0 .124-.242q.042-.122-.036-.286m13.224-1.146a.53.53 0 0 1-.405.055 2.3 2.3 0 0 1-.364-.166 1.5 1.5 0 0 0-.346-.147q-.166-.06-.349.075a.9.9 0 0 0-.361-.14q-.195-.045-.414-.06l-.429-.053a1.5 1.5 0 0 1-.409-.108l-.122-.254a.36.36 0 0 1-.275.077.38.38 0 0 1-.242-.16.8.8 0 0 1-.515-.021 10 10 0 0 0-.449-.172.9.9 0 0 0-.451-.06q-.219.02-.481.34-.19.218-.371.452l-.357.445q-.477.577-.963 1.139-.47.555-1.002 1.074a8 8 0 0 0-.334 1.013q-.136.525-.257 1.04a.7.7 0 0 0-.131.265q-.028.152-.024.315.004.162.035.323.034.149.087.28l.265-.118.14.485q.16-.105.359-.209.214-.11.426-.184.217-.086.425-.111.223-.033.422 0 .105-.05.203-.114a.7.7 0 0 1 .194-.093.4.4 0 0 1 .197-.03q.111.003.228.093.424-.073.806-.274.386-.21.767-.411.387-.212.774-.36.4-.145.844-.1-.492.548-1.116 1.01-.62.451-1.297.747a1.5 1.5 0 0 1-.429.159l-.231.054a5 5 0 0 0-.227.044 7 7 0 0 0-.727.228 5 5 0 0 0-.706.309.18.18 0 0 0-.057-.12.4.4 0 0 0-.125-.069 1 1 0 0 0-.147-.04.4.4 0 0 1-.122-.043q-.264.081-.638.048a1.3 1.3 0 0 1-.612-.167 1.4 1.4 0 0 1-.179-.163 1.4 1.4 0 0 1-.164-.17 2.04 2.04 0 0 1-.401-.938 2.5 2.5 0 0 1 .101-1.02l-.057-.12a.6.6 0 0 0 .27-.203.6.6 0 0 0 .116-.257q.04-.148.047-.307.021-.167.065-.325a.7.7 0 0 1 .059-.166q.045-.058.099-.139.214-.322.408-.626a22.465 22.465 0 0 1 1.504-2.103q.591-.723 1.197-1.416a1.3 1.3 0 0 0-.326-.202 3 3 0 0 0-.356-.151 7 7 0 0 1-.361-.14 1.3 1.3 0 0 1-.326-.203l-.066-.06q.005-.012-.084-.043a1 1 0 0 0-.162-.033 2 2 0 0 1-.203-.06.7.7 0 0 1-.169-.084q-.08-.053-.064-.134l.039-.11q.074-.174.159-.206a.3.3 0 0 1 .193-.018q.108.013.229.056.126.032.259.005.286.176.551.307.268.12.534.177.276.06.559.036.293-.021.614-.155.298-.28.524-.636.23-.366.472-.702.259-.344.56-.598.306-.264.77-.348a.57.57 0 0 1 .294.153q.11.114.214.238-.11.135-.202.289a6 6 0 0 1-.194.304 3 3 0 0 1-.202.289q-.11.135-.268.228.124.106.119.192a.24.24 0 0 1-.081.158q-.075.072-.177.148a.5.5 0 0 0-.14.15q-.125-.033-.264.08a.8.8 0 0 1-.244.162q-.155.156-.081.332.075.176.131.332a.4.4 0 0 0 .195.082q.111.002.2-.004a.5.5 0 0 1 .178.026q.077.028.112.139.154-.082.256-.021a.9.9 0 0 1 .202.133.8.8 0 0 0 .209.112q.114.028.272-.103a.35.35 0 0 1 .255.053q.11.077.19.167.083.079.16.144a.27.27 0 0 0 .214.026q.159.08.361.14.214.064.424.1.222.041.437.068.228.02.406.045.13.158.137.247a.24.24 0 0 1-.044.159 1 1 0 0 1-.107.16.47.47 0 0 0-.06.24m2.055 8.237a5 5 0 0 1-.72.627 2.4 2.4 0 0 1-.647.318q-.321.097-.744.135-.423.036-1.065.095a1.3 1.3 0 0 0-.419-.186 4 4 0 0 1-.425-.1 1.1 1.1 0 0 1-.349-.174q-.16-.107-.226-.379l-.166-.058a1 1 0 0 0 .077-.322q.021-.166-.148-.25a.6.6 0 0 0 .238-.215q.088-.143.154-.293.077-.147.161-.28a.44.44 0 0 1 .251-.183.52.52 0 0 1 .015-.393q.1-.176.251-.322.166-.152.328-.294a.8.8 0 0 0 .243-.336 1 1 0 0 1-.125-.243q-.035-.15-.197-.145-.4.182-.793.341a14 14 0 0 0-.773.323 9 9 0 0 0-.737.398 5 5 0 0 0-.688.502.45.45 0 0 0-.35.075q-.15.108-.286.247a2.5 2.5 0 0 1-.283.235.43.43 0 0 1-.32.098l-.236.314q-.132.165-.251.322a.8.8 0 0 0-.146-.114 2 2 0 0 1-.19-.13.7.7 0 0 1-.145-.15.22.22 0 0 1-.057-.157q-.003-.026.035-.1l.032-.088q.132-.302.373-.527.227-.218.471-.417.249-.21.475-.429.226-.218.351-.534.165.058.245-.026a.8.8 0 0 0 .152-.182q.072-.099.148-.171.075-.074.222.004a.44.44 0 0 1 .013-.319q.08-.157.202-.289.125-.142.275-.25.155-.12.264-.218.043-.158.132-.301a.8.8 0 0 1 .241-.225 4 4 0 0 0 .496-.347.4.4 0 0 0 .109-.098q.057-.055.109-.098a.9.9 0 0 0 .239-.251l.179-.297q.103-.15.213-.248a.55.55 0 0 1 .339-.116.8.8 0 0 1 .111-.21l.167-.19q.084-.093.152-.182a.7.7 0 0 0 .126-.216.5.5 0 0 1 .139-.075q.085-.032.16-.068a.6.6 0 0 0 .128-.079.24.24 0 0 0 .066-.15 1.5 1.5 0 0 0 .094-.303.37.37 0 0 1 .182-.233q.03-.152.116-.22a.8.8 0 0 1 .209-.1q.112-.035.231-.056.134-.027.239-.076a.2.2 0 0 1 .04-.185 1 1 0 0 1 .155-.157q.102-.075.21-.136a.8.8 0 0 0 .165-.116q.114-.11.205-.226a2 2 0 0 1 .44-.366.9.9 0 0 1 .313-.076q.034-.236.144-.334a.8.8 0 0 1 .273-.14q.164-.04.335-.068a.7.7 0 0 0 .318-.16q.133.009.288.027.16.007.307.047.151.029.276.098.125.068.2.207l.036.075q.007.015.003.026l-.008.022.036.075.057.12a.5.5 0 0 1 .057.12.8.8 0 0 1-.063.176 2 2 0 0 0-.073.173.7.7 0 0 0-.037.173q.006.09.105.162a2.4 2.4 0 0 0-.32.657q-.119.369-.252.744a5 5 0 0 1-.305.687 1.27 1.27 0 0 1-.503.506l-.277.536q-.147-.04-.234.03a.5.5 0 0 0-.143.16l-.127.216a.36.36 0 0 1-.148.171 3 3 0 0 0-.266.192 3 3 0 0 1-.282.198q-.143.087-.306.128a.56.56 0 0 1-.315-.024.6.6 0 0 1-.143.123 1.8 1.8 0 0 1-.434.207.8.8 0 0 1-.182.022q-.1.002-.185-.003a.5.5 0 0 0-.178.011q-.12.02-.25.074a1.5 1.5 0 0 1-.265.08 1 1 0 0 1-.267.017.43.43 0 0 1-.231-.12.64.64 0 0 1-.41.104 6 6 0 0 1-.373-.07 1 1 0 0 0-.348-.036q-.162.004-.314.187a.3.3 0 0 0-.08.084 1 1 0 0 0-.042.084q-.043.122-.117.294-.074.174-.005.297.464-.047.907-.176.459-.135.93-.168l.046.116q.12-.23.296-.169.18.052.365.13l.077.027.033.012a.1.1 0 0 1 .048.004q.21.075.218.264.007.189.008.363-.17.09-.313.25-.129.153-.265.329-.126.18-.274.35-.133.165-.313.287.08.09.046.153a.5.5 0 0 1-.092.117.3.3 0 0 0-.058.129q-.008.059.113.139a.45.45 0 0 0-.222.133 5 5 0 0 0-.144.197 2 2 0 0 1-.134.202.4.4 0 0 1-.195.13q.01.114-.004.222a.4.4 0 0 1-.063.214q.084.254.231.33a.8.8 0 0 0 .328.091q.17.011.352.026t.334.143q.384-.1.521-.101h.211a.6.6 0 0 0 .212-.037q.127-.042.497-.21.305.021.576-.081.284-.1.581-.13m1.551-9.608q-.036.137-.141.186a2 2 0 0 1-.201.078 3 3 0 0 0-.22.06q-.097.027-.151.145-.167.015-.25.11a2 2 0 0 0-.16.204 1 1 0 0 1-.155.194q-.095.09-.284.098l.05.105a2.7 2.7 0 0 0-.863.577q-.37.378-.697.773a1.04 1.04 0 0 0-.354.297q-.136.175-.277.362-.126.18-.292.331a.64.64 0 0 1-.396.171q.06.184-.016.292a.56.56 0 0 1-.193.193 5 5 0 0 1-.266.155.47.47 0 0 0-.186.207.9.9 0 0 0 .413.134q.23.02.464-.01a3.5 3.5 0 0 0 .461-.11q.224-.07.425-.11l.05.105a3 3 0 0 0 1.052-.374q.472-.28.935-.638-.072-.112-.03-.197a10 10 0 0 1 .205-.226q.227-.293.384-.56.355-.546.622-1.123.281-.584.519-1.183zM123.813 104.935a1.1 1.1 0 0 1-.173.349q-.114.146-.243.299-.126.142-.254.296a1.2 1.2 0 0 0-.181.334.24.24 0 0 0-.226.006 1 1 0 0 0-.192.156 3 3 0 0 0-.167.227 1 1 0 0 1-.133.164 4.3 4.3 0 0 1-.849.607 6.6 6.6 0 0 1-.99.445q-.512.178-1.047.288a8 8 0 0 1-1.044.14l-.015.007a10 10 0 0 1-.438-.168.64.64 0 0 1-.339-.306.9.9 0 0 1-.331-.155.64.64 0 0 1-.243-.26l-.008-.015a1.6 1.6 0 0 0-.093-.332 8 8 0 0 0-.139-.31l-.185-.426a1.2 1.2 0 0 1-.077-.45q.001-.285.015-.567.027-.288.007-.582-.285.173-.558.275-.268.092-.526.187a3 3 0 0 0-.508.243q-.24.15-.486.424l-.019.018a1 1 0 0 0-.637-.026q-.291.083-.567.159a1.6 1.6 0 0 1-.542.057q-.255-.016-.486-.346l-.376-.133-.003-.026a18 18 0 0 1-.082-.999q-.015-.516.049-1.015a4.4 4.4 0 0 1 .244-.97q.18-.471.517-.861.144-.16.291-.295.158-.13.338-.253a.04.04 0 0 0 .019-.018q.046.078.144.014.11-.062.154-.083l.133-.375a.3.3 0 0 1 .092.02l.122.043.099.035a.08.08 0 0 0 .075-.036q.015-.006.012-.033a.1.1 0 0 1 .004-.048.33.33 0 0 1 .141-.186 1 1 0 0 1 .231-.092q.123-.031.238-.04a.5.5 0 0 0 .183-.06q.088.031.162.07a.24.24 0 0 1 .124.106.3.3 0 0 1 .033.186.7.7 0 0 1-.041.222l-.052.217a.7.7 0 0 0-.022.204l.007.015a.48.48 0 0 1-.172.237 1 1 0 0 1-.232.129q-.12.058-.25.111a.5.5 0 0 0-.196.167l-.004.011q-.176.111-.364.219a5 5 0 0 1-.374.215q.086.142.015.204a.36.36 0 0 1-.154.083.5.5 0 0 0-.139.075q-.04.047.079.165a.7.7 0 0 1-.181.159 5 5 0 0 0-.221.133 1 1 0 0 0-.17.164q-.057.091-.012.244l.018.019q-.052.043-.096.202-.029.151-.059.34l-.029.363a2 2 0 0 1-.026.251.5.5 0 0 0 .139.273.6.6 0 0 0 .231.12.43.43 0 0 0 .223.004q.107-.024.135-.101l.089-.006q-.006.085.039.101.048.004.115-.009l.089-.006a.4.4 0 0 1 .085.005q.214.026.475-.043.273-.065.526-.186.255-.122.466-.296.221-.17.343-.338l.008-.022.022.008a1 1 0 0 0 .455-.125 6 6 0 0 0 .382-.237q.184-.134.375-.216a.74.74 0 0 1 .431-.059.5.5 0 0 1 .154-.119l.172-.1q.095-.054.162-.105a.3.3 0 0 0 .114-.146.4.4 0 0 0 .017-.118 1 1 0 0 1 .02-.093q.06-.029.228-.081a7 7 0 0 0 .347-.138q.186-.07.347-.138a.6.6 0 0 0 .202-.115l.015.03q.078.165.075.313a.8.8 0 0 1-.045.27 1.3 1.3 0 0 1-.127.253 4 4 0 0 0-.15.246l-.015.007a3 3 0 0 1-.203.152 1.5 1.5 0 0 1-.202.115q-.195.092-.39.259a.9.9 0 0 1-.118.332l-.183.307a1.6 1.6 0 0 0-.143.298.7.7 0 0 0 .001.348q-.119.02-.154.083a.3.3 0 0 0-.01.133l.042.164a.3.3 0 0 1 .015.167q.084.254.255.438.171.185.387.312.217.126.445.219l.475.168.309.11q.354.125.622.034a1.8 1.8 0 0 0 .505-.269q.249-.172.5-.357.252-.185.572-.245.062-.177.171-.238.108-.061.209-.1a.5.5 0 0 0 .184-.097q.087-.068.079-.257a.47.47 0 0 0 .279-.088q.132-.09.249-.21.132-.127.238-.252.121-.13.238-.214a.7.7 0 0 1 .06-.24q.061-.102.107-.198a.5.5 0 0 0 .053-.217.54.54 0 0 0-.092-.269l-.007-.015.004-.011q-.009-.152.056-.229a1 1 0 0 1 .169-.126q.105-.05.184-.097a.19.19 0 0 0 .11-.135q.342.121.443.294.115.165.093.368a1.3 1.3 0 0 1-.123.417 5 5 0 0 0-.168.475m8.764 3.826-.209.1-.127.079a1 1 0 0 1-.124.068q-.064.04-.202.115-.12.057-.233.129a1 1 0 0 1-.239.114q-.12-.08-.222-.041a1.4 1.4 0 0 0-.187.108l-.165.115a.12.12 0 0 1-.141.012 7 7 0 0 1-.62.067 1.9 1.9 0 0 0-.614.118l-.057-.12-1.345.145a.5.5 0 0 0-.134.028 1 1 0 0 1-.138.038 6 6 0 0 1-.594.063 16 16 0 0 1-.574.008l-.16-.007q.01.252-.109.309a.6.6 0 0 1-.301.043 3 3 0 0 1-.38-.085.7.7 0 0 0-.337-.033 2 2 0 0 0-.268-.119 4 4 0 0 0-.288-.065 2 2 0 0 1-.295-.08 1.4 1.4 0 0 1-.276-.135l-.022-.008q-.219.022-.343-.084a.65.65 0 0 1-.188-.241 2 2 0 0 1-.112-.35 2.5 2.5 0 0 0-.082-.365 3 3 0 0 1-.076-.313 2 2 0 0 1-.041-.412 1.2 1.2 0 0 1 .045-.407.52.52 0 0 1 .199-.315q.15-.108.275-.25.114-.147.192-.367l.051-.144a1 1 0 0 1 .04-.147 1 1 0 0 1 .118.054l.121.043a.2.2 0 0 0 .115-.009q.06-.029.095-.128a.11.11 0 0 0-.013-.104.2.2 0 0 1-.02-.082q.1-.076.176-.112.09-.043.153-.082a.6.6 0 0 0 .118-.12.6.6 0 0 0 .071-.236q.214-.185.454-.299.254-.122.508-.206.257-.095.522-.175a5 5 0 0 0 .515-.191q.178.163.331.118.165-.042.299-.106.138-.075.261-.106t.246.149l.014.03q.404-.193.69-.054.298.143.449.383a.8.8 0 0 1 .15.488q-.007.234-.223.244a.42.42 0 0 1 .02.331.5.5 0 0 1-.19.255 2.4 2.4 0 0 0-.275.214l-.245.236a5 5 0 0 1-.415.4q-.211.174-.509.243-.179-.126-.292-.054a.8.8 0 0 0-.177.186.7.7 0 0 1-.14.149q-.068.051-.172-.111l-.015-.029-.03.014a.8.8 0 0 0-.214.148.35.35 0 0 1-.191.118 2 2 0 0 0-.19-.129l-.194-.119a.7.7 0 0 1-.218.334.8.8 0 0 1-.31.138 1.6 1.6 0 0 1-.356.023 2.4 2.4 0 0 0-.397-.003 1.6 1.6 0 0 0-.383.063.75.75 0 0 0-.334.205q.067.16.226.241.161.07.342.122.185.04.35.099a.6.6 0 0 1 .278.198l.007.015.015-.007q.277.06.552.058.288-.009.556-.027.282-.024.556-.026a2.8 2.8 0 0 1 .571.04.2.2 0 0 0 .108.15q.095.047.192.056l.018-.018q.05-.07.092-.117a1 1 0 0 1 .117-.12.6.6 0 0 1 .254-.122 1 1 0 0 1 .267-.017q.144.014.292.054.147.04.299.068l.022.008.023-.029q.091-.117.173-.138a.5.5 0 0 1 .182-.022q.096.01.188.029.104.025.212.001.175.136.347.073a4 4 0 0 0 .336-.142l.049.142.049-.033a10 10 0 0 0 .325-.146q.116-.045.213-.074.1-.038.22-.058a14 14 0 0 0 .733-.176q.19-.044.377-.115.046.042.024.108l-.04.11a1 1 0 0 0-.045.059q-.016.044-.002.074m-4.083-3.001q-.007-.015-.019-.019l-.007-.015q-.19-.204-.347-.247a.54.54 0 0 0-.319-.014 1.1 1.1 0 0 0-.306.128 2 2 0 0 1-.303.154.9.9 0 0 1-.32.061.64.64 0 0 1-.372-.144l-.191.33a5 5 0 0 0-.155.33.76.76 0 0 0-.364.082 1.7 1.7 0 0 0-.271.203q-.117.12-.242.262-.11.135-.261.244l.025.07q.052-.006.088.069l.05.105a1.1 1.1 0 0 1 .426-.185q.252-.048.498-.072.26-.033.502-.084a.8.8 0 0 0 .411-.214.92.92 0 0 0 .671-.21q.283-.236.518-.513.045-.059.144-.16.112-.11.144-.161m9.951 5.776a2.7 2.7 0 0 1-.321.483q-.14.15-.304.228-.15.07-.366.119a3 3 0 0 0-.525.15l-.209.062a1.4 1.4 0 0 0-.201.078 4 4 0 0 0-.62.029l-.768.064q-.383.025-.731.027-.337.004-.517-.084-.098.065-.271.028a2 2 0 0 1-.262-.068 2 2 0 0 0-.306-.083.5.5 0 0 0-.301.042q-.03.015-.041.011l-.004.011q.01.003 0 0a.1.1 0 0 1-.038.036q-.172.1-.309.065a.5.5 0 0 1-.227-.131 1.6 1.6 0 0 1-.211-.211 1 1 0 0 0-.215-.201.46.46 0 0 0-.25-.101q-.14-.025-.328.083-.007-.227-.161-.318a2 2 0 0 0-.331-.154 5 5 0 0 1-.308-.147q-.143-.087-.136-.284l.004-.011-.161-.281-.045.021a.5.5 0 0 0-.132.09.7.7 0 0 1-.12.095q-.135.1-.282.198a1.2 1.2 0 0 1-.295.132 1 1 0 0 1-.327.046.67.67 0 0 1-.321-.077.9.9 0 0 1 .327-.431q.221-.17.44-.329.21-.174.333-.379.116-.22-.016-.553a.54.54 0 0 0-.027-.345 9 9 0 0 1-.137-.385.64.64 0 0 1-.016-.341q.029-.151.29-.22-.091-.058-.105-.125a.2.2 0 0 1 .072-.098q.045-.059.087-.106a.6.6 0 0 0 .152.028.5.5 0 0 1 .148.003.16.16 0 0 1 .11.039q.04.027.053.131a1 1 0 0 1 .005.163 2.452 2.452 0 0 0 .072.672q.066.235.173.46l.022.044q.004-.01.064-.039.059-.029.13-.053l.135-.064.09-.043.336-.142q.16-.067.288-.147a.8.8 0 0 0 .238-.214q.11-.135.18-.334.425-.111.854-.269.433-.17.869-.314.437-.144.875-.224.45-.078.909-.002a.9.9 0 0 0 .134.358q.097.147.183.289a1.1 1.1 0 0 1 .146.325q.06.183.014.453a2.4 2.4 0 0 1-.317.895 6.6 6.6 0 0 1-.541.79q-.183.234-.358.483a2.5 2.5 0 0 0-.265.539l.069.05a.45.45 0 0 1 .28-.088q.144.014.28.05t.266.057q.145.013.28-.087a.4.4 0 0 0 .261.105q.153-.009.305-.054a5 5 0 0 0 .31-.102.7.7 0 0 1 .301-.042l.02-.093q.246-.061.409-.066.163-.004.304-.017.14-.011.298-.068a1.7 1.7 0 0 0 .393-.234.25.25 0 0 1 .126.032q.077.028.091.095m-3.468-2.46a.7.7 0 0 0-.11-.076 1 1 0 0 1-.091-.094 1 1 0 0 0-.152-.166q-.077-.064-.218-.052l-.008.022-.011-.004a9 9 0 0 0-1.386.578q-.655.34-1.357.638l-.064-.135a.43.43 0 0 0-.163.179l-.074.21a1 1 0 0 1-.089.18q-.053.08-.191.119l-.041.01q-.01.17.051.242a.5.5 0 0 0 .165.096l.196.044a.2.2 0 0 1 .131.084q.026.034.021.082a.3.3 0 0 1-.016.081l.11.039q.066.024.137.036a.8.8 0 0 1 .254.09q.139.062.107.225.252-.01.519-.028a.9.9 0 0 0 .489-.187l.05.105.011.004a.04.04 0 0 1 .026-.004 1.2 1.2 0 0 0 .603-.333 2.9 2.9 0 0 0 .49-.61q.21-.348.354-.72.156-.367.257-.655m12.156-.343a.54.54 0 0 1-.405.056 2.3 2.3 0 0 1-.364-.167 1.6 1.6 0 0 0-.345-.147q-.166-.059-.35.075a.9.9 0 0 0-.361-.14q-.195-.045-.414-.06l-.429-.052a1.6 1.6 0 0 1-.409-.108l-.121-.254a.36.36 0 0 1-.276.076.38.38 0 0 1-.242-.16.8.8 0 0 1-.515-.021 10 10 0 0 0-.448-.171.9.9 0 0 0-.452-.061q-.219.022-.48.34-.19.22-.372.452l-.357.446q-.477.576-.963 1.138-.47.555-1.002 1.075a8 8 0 0 0-.334 1.013q-.135.524-.257 1.04a.8.8 0 0 0-.131.265 1.5 1.5 0 0 0-.024.314q.005.163.035.324.035.148.087.279l.266-.117.139.484q.16-.104.359-.208.215-.111.426-.185.217-.084.425-.11.224-.033.423 0 .104-.05.202-.115a.7.7 0 0 1 .194-.092.4.4 0 0 1 .197-.03q.111.001.228.093.425-.073.806-.274.386-.211.768-.412.385-.212.774-.36a1.9 1.9 0 0 1 .843-.099q-.492.547-1.116 1.01-.62.452-1.297.746a1.5 1.5 0 0 1-.429.159l-.231.055a4 4 0 0 0-.227.044 7 7 0 0 0-.727.227 5 5 0 0 0-.706.31.18.18 0 0 0-.057-.12.4.4 0 0 0-.125-.069 1 1 0 0 0-.147-.04.4.4 0 0 1-.122-.043 1.7 1.7 0 0 1-.638.047 1.3 1.3 0 0 1-.612-.167 1.3 1.3 0 0 1-.179-.163 1.3 1.3 0 0 1-.163-.169 2.05 2.05 0 0 1-.402-.938 2.5 2.5 0 0 1 .101-1.021l-.057-.12a.6.6 0 0 0 .271-.202.6.6 0 0 0 .116-.258q.04-.147.046-.306a2 2 0 0 1 .066-.325.7.7 0 0 1 .058-.166q.047-.058.099-.139.214-.323.408-.626.2-.315.409-.626.518-.762 1.095-1.477a56 56 0 0 1 1.198-1.416 1.3 1.3 0 0 0-.326-.203 3 3 0 0 0-.357-.151 7 7 0 0 1-.361-.14 1.3 1.3 0 0 1-.391-.263q.003-.011-.085-.042a1 1 0 0 0-.162-.033 2 2 0 0 1-.203-.059.7.7 0 0 1-.169-.085q-.08-.054-.064-.135l.039-.11q.073-.173.159-.205a.3.3 0 0 1 .194-.018q.106.012.228.056.125.032.26.005a7 7 0 0 0 .55.306q.268.12.534.177.277.061.559.037.293-.021.614-.156.299-.28.524-.635.229-.366.473-.703.258-.343.559-.597.305-.265.77-.349a.56.56 0 0 1 .294.154q.11.113.214.237-.11.136-.202.289a6 6 0 0 1-.194.304 3 3 0 0 1-.202.289 1 1 0 0 1-.268.229q.125.106.119.191a.23.23 0 0 1-.081.158q-.075.073-.177.149a.5.5 0 0 0-.14.149q-.124-.031-.264.08a.8.8 0 0 1-.244.163q-.154.156-.081.332.075.176.131.332a.4.4 0 0 0 .195.082q.111.002.201-.004a.5.5 0 0 1 .177.025q.077.028.112.14.154-.082.256-.022a.9.9 0 0 1 .202.134.8.8 0 0 0 .209.111q.114.029.272-.102a.35.35 0 0 1 .255.053q.11.076.19.167.084.079.16.143a.27.27 0 0 0 .215.027q.157.08.36.14.214.064.425.1.221.042.436.068.229.02.407.045.13.157.136.247a.24.24 0 0 1-.044.158 1 1 0 0 1-.107.161.5.5 0 0 0-.06.24m6.433 3.634q-.197.03-.233.167a2 2 0 0 0-.045.269.7.7 0 0 1-.061.24q-.046.095-.252.047a.35.35 0 0 1-.119.194.6.6 0 0 1-.198.104 1 1 0 0 1-.22.059 1.4 1.4 0 0 0-.209.063l-.046-.116-.209.1a.27.27 0 0 1 .082.153q.017.093.026.171a.5.5 0 0 0 .061.146q.039.064.147.077a.4.4 0 0 0-.016.218q.04.102.089.206.05.105.074.213a.37.37 0 0 1-.034.236 2 2 0 0 0-.094.265 4 4 0 0 1-.095.302 1.2 1.2 0 0 1-.131.265.4.4 0 0 1-.195.167 1.4 1.4 0 0 1-.256.406q-.151.183-.351.324a.903.903 0 0 1-.21.137q-.146.06-.295.094a9 9 0 0 1-.309.065 1.6 1.6 0 0 0-.286.072.8.8 0 0 0-.266.155 3.5 3.5 0 0 1-.531-.188 1 1 0 0 0-.546-.107 1 1 0 0 0-.079.047q-.045.021-.053.08a.7.7 0 0 0-.311-.209.7.7 0 0 0-.374-.033q-.105.05-.121.131a22 22 0 0 1-.931-.777 4.5 4.5 0 0 1-.753-.926 6 6 0 0 1-.04-.275 1 1 0 0 1 .006-.297.4.4 0 0 1 .097-.239q.072-.099.257-.095.123.006.169.085.05.068.079.164l.078.202q.038.1.134.147.083-.058.138-.038a.3.3 0 0 1 .121.08q.058.045.113.102a.24.24 0 0 0 .158.044.6.6 0 0 1-.059.165q-.042.085.035.149.206.05.419.186l.432.253q.217.126.442.193a.66.66 0 0 0 .441-.017q.08.016.166.058l.169.085q.088.031.18.052a.4.4 0 0 0 .182-.023.7.7 0 0 1 .307-.127q.186-.034.357-.061.185-.033.324-.108a.5.5 0 0 0 .228-.293.5.5 0 0 0 .213-.073.8.8 0 0 0 .147-.135q.068-.087.121-.168a.6.6 0 0 1 .144-.16.8.8 0 0 1-.208-.186 4 4 0 0 0-.148-.214 1.4 1.4 0 0 0-.162-.207.6.6 0 0 0-.227-.167.66.66 0 0 0-.275-.346 1.1 1.1 0 0 0-.368-.156 3 3 0 0 0-.414-.059 1.2 1.2 0 0 1-.395-.115q-.034-.112-.094-.12a.3.3 0 0 0-.133-.01l-.167.015q-.074-.001-.136-.073a.32.32 0 0 0 .026-.214 2 2 0 0 0-.058-.22 1 1 0 0 1-.026-.208.28.28 0 0 1 .096-.202.41.41 0 0 1 .34-.116q.181.014.365.092l.379.159a.75.75 0 0 0 .385.037.6.6 0 0 0 .275.135q.155.018.315.024.162-.004.315-.013a.9.9 0 0 1 .307.047q.062-.14.169-.164a1 1 0 0 1 .22-.021q.114-.01.212-.037.1-.039.133-.202a1.2 1.2 0 0 0-.455-.26 2 2 0 0 0-.491-.087 6 6 0 0 0-.511-.032 2 2 0 0 1-.499-.065.38.38 0 0 1-.33-.017 1 1 0 0 0-.305-.121l-.105.05a.6.6 0 0 0-.107-.224 2 2 0 0 1-.122-.218.37.37 0 0 1-.022-.219q.029-.114.219-.196l-.039-.101a.43.43 0 0 1 .245.012q.124.033.243.087.132.046.251.064.117.016.238-.077a.18.18 0 0 0 .083.116l.122.043q.076-.11.179-.086a.7.7 0 0 1 .214.064q.122.042.236.071.119.017.216-.085l.061.109a.5.5 0 0 0 .086-.032.1.1 0 0 0 .047-.096q.146.078.316.125l.339.095q.174.037.328.092a1 1 0 0 1 .298.142.14.14 0 0 1 .127-.042.4.4 0 0 1 .121.043q.093.195.156.403a.5.5 0 0 1-.023.415zm5.872 1.745a2.2 2.2 0 0 1-.299.528q-.171.237-.426.396-.112.072-.195.13a3 3 0 0 0-.14.112 2 2 0 0 0-.143.123 4 4 0 0 0-.166.153q-.195.167-.38.338a1.5 1.5 0 0 1-.428.258.4.4 0 0 0-.257.059 1.5 1.5 0 0 0-.214.148q-.094.09-.196.166a.25.25 0 0 1-.204.052l-.03.014a4 4 0 0 1-.495.484 2 2 0 0 1-.592.337.33.33 0 0 0-.161.105 1 1 0 0 0-.092.154.6.6 0 0 1-.077.147q-.039.073-.094.091a.18.18 0 0 1-.111-.002.5.5 0 0 1-.077-.065l-.022-.008-.191.082q.084.08.087.105.008.015-.028.115a.2.2 0 0 0-.034.062.6.6 0 0 0-.528.087 3 3 0 0 0-.404.366q-.045.059-.087.106a1 1 0 0 1-.094.091.7.7 0 0 0-.139-.099 2 2 0 0 1-.106-.087.24.24 0 0 1-.054-.094.5.5 0 0 1 .041-.184l-.029-.06q.231-.055.315-.187t.135-.275a2 2 0 0 1 .146-.272q.09-.117.336-.142l.008-.022a.42.42 0 0 1 .186-.245 3 3 0 0 1 .284-.135q.145-.061.36-.209.229-.154.455-.336.237-.177.436-.355.2-.178.313-.287a.3.3 0 0 1 .139-.075l.194-.056q.111-.035.201-.078a.3.3 0 0 0 .158-.13l.012-.033a.56.56 0 0 1 .197-.241 1.4 1.4 0 0 1 .278-.188.2.2 0 0 1 .178-.011q.104.024.179-.049.03-.014.035-.062a.3.3 0 0 0 .02-.092l-.007-.015q.008-.022 0-.037l.008-.022q.005-.048.057-.092a1 1 0 0 0 .095-.091.24.24 0 0 0 .054-.117q.024-.067-.038-.175l.004-.011-.011-.004a.43.43 0 0 0-.221-.042q-.1.003-.208.026a2 2 0 0 0-.175.038.18.18 0 0 1-.137-.036.21.21 0 0 1-.07-.187 1 1 0 0 0-.186-.003.4.4 0 0 0-.171.026q-.052-.167-.185-.215a1.5 1.5 0 0 0-.299-.068 4 4 0 0 1-.306-.047.34.34 0 0 1-.238-.171q-.108-.014-.106-.087.005-.085.015-.182a.7.7 0 0 0-.011-.215q-.009-.114-.145-.188-.006-.051.027-.077a.3.3 0 0 1 .083-.058 1 1 0 0 0 .101-.039.3.3 0 0 0 .09-.043.37.37 0 0 0 .176.063q.119.017.124.106l.067.024q.144-.16.251-.185a.25.25 0 0 1 .207.049.5.5 0 0 1 .164.17q.087.105.178.199a.6.6 0 0 0 .194.119q.11.04.264-.043a.37.37 0 0 0 .176.099q.103.024.21.038.112.002.219.015a.5.5 0 0 1 .206.048q.202.096.42.186a.52.52 0 0 0 .449-.04.7.7 0 0 1 .183.115q.066.06.101.135.04.064.075.139.047.078.116.165m7.777 1.736a.54.54 0 0 1-.405.055 2.3 2.3 0 0 1-.364-.166 1.5 1.5 0 0 0-.346-.148q-.166-.058-.349.075a.9.9 0 0 0-.361-.14 3 3 0 0 0-.414-.059l-.429-.053a1.5 1.5 0 0 1-.409-.108l-.122-.254a.36.36 0 0 1-.275.076.38.38 0 0 1-.242-.16.8.8 0 0 1-.515-.021 10 10 0 0 0-.449-.171.87.87 0 0 0-.451-.06q-.219.021-.481.339-.19.219-.371.453l-.357.445q-.478.577-.963 1.139-.47.554-1.002 1.074a8 8 0 0 0-.334 1.013q-.136.523-.257 1.041a.7.7 0 0 0-.131.264 1.5 1.5 0 0 0-.024.315q.004.162.035.323.034.148.087.279l.265-.117.139.485q.162-.105.36-.209.213-.11.426-.184.217-.085.425-.111.222-.033.422 0a2 2 0 0 0 .203-.114.7.7 0 0 1 .194-.093.4.4 0 0 1 .197-.03q.111.003.228.093.424-.073.806-.274.386-.211.767-.412.387-.211.774-.359.4-.145.844-.1-.492.547-1.116 1.01-.62.452-1.297.747a1.5 1.5 0 0 1-.429.158q-.108.025-.231.055a5 5 0 0 0-.227.044 7 7 0 0 0-.727.228 5 5 0 0 0-.706.309.2.2 0 0 0-.057-.12.4.4 0 0 0-.125-.069 1 1 0 0 0-.147-.04.3.3 0 0 1-.122-.043q-.264.081-.638.048a1.3 1.3 0 0 1-.612-.168 1.3 1.3 0 0 1-.179-.162 1.4 1.4 0 0 1-.164-.17 2.04 2.04 0 0 1-.401-.938 2.5 2.5 0 0 1 .101-1.021l-.057-.12a.6.6 0 0 0 .27-.202.6.6 0 0 0 .116-.257q.04-.148.047-.307.021-.166.065-.325a.7.7 0 0 1 .059-.166q.045-.058.099-.139.213-.322.408-.626.2-.315.409-.626.518-.762 1.095-1.477.591-.723 1.197-1.416a1.3 1.3 0 0 0-.326-.202 3 3 0 0 0-.356-.152 6 6 0 0 1-.361-.14 1.3 1.3 0 0 1-.326-.202l-.066-.061q.004-.01-.084-.042a1 1 0 0 0-.163-.033 2 2 0 0 1-.202-.059.7.7 0 0 1-.169-.085q-.08-.053-.064-.135l.039-.11q.074-.172.159-.205a.3.3 0 0 1 .193-.018q.108.013.229.056a.6.6 0 0 0 .259.005q.286.175.551.307.268.12.534.176.276.061.559.037.293-.021.614-.155a3.3 3.3 0 0 0 .524-.636q.228-.366.472-.702a3.7 3.7 0 0 1 .56-.598q.305-.264.77-.349a.57.57 0 0 1 .294.154q.11.114.214.238a2.4 2.4 0 0 0-.202.289 6 6 0 0 1-.195.304 2.5 2.5 0 0 1-.201.289q-.11.135-.268.228.124.106.119.192a.24.24 0 0 1-.081.157q-.075.073-.177.149a.5.5 0 0 0-.14.149q-.125-.031-.264.081a.9.9 0 0 1-.244.162q-.155.156-.081.332.075.176.131.332a.4.4 0 0 0 .195.082q.111.002.2-.004a.5.5 0 0 1 .178.026q.077.027.112.139.153-.083.256-.021a.9.9 0 0 1 .201.133.8.8 0 0 0 .21.112q.114.027.272-.103a.35.35 0 0 1 .255.053q.11.077.19.167.083.08.16.144a.26.26 0 0 0 .214.026q.159.081.361.14a4 4 0 0 0 .424.101q.222.041.436.067.23.02.407.045.13.158.137.247a.25.25 0 0 1-.044.159 1 1 0 0 1-.107.161.46.46 0 0 0-.06.24m2.055 8.237a5 5 0 0 1-.72.627 2.4 2.4 0 0 1-.647.318q-.321.098-.744.134l-1.065.095a1.3 1.3 0 0 0-.419-.185 4 4 0 0 1-.425-.101 1.1 1.1 0 0 1-.349-.173q-.161-.107-.226-.379l-.166-.059a1 1 0 0 0 .077-.321q.021-.165-.148-.251a.6.6 0 0 0 .238-.214 2.4 2.4 0 0 0 .154-.294q.077-.146.161-.278a.44.44 0 0 1 .251-.185.51.51 0 0 1 .015-.392q.1-.176.251-.322.165-.152.328-.294a.8.8 0 0 0 .243-.336 1 1 0 0 1-.125-.243q-.035-.15-.197-.145a21 21 0 0 1-.793.341 15 15 0 0 0-.773.323 9 9 0 0 0-.737.397 5 5 0 0 0-.688.503.45.45 0 0 0-.35.075q-.15.108-.286.246a2.5 2.5 0 0 1-.283.236.43.43 0 0 1-.32.098l-.236.314q-.132.165-.251.322a.7.7 0 0 0-.146-.114 2 2 0 0 1-.19-.13.7.7 0 0 1-.145-.151.21.21 0 0 1-.057-.157q-.003-.025.035-.099l.032-.088q.131-.302.373-.527a8 8 0 0 1 .471-.417q.249-.21.475-.429.227-.218.351-.535.165.06.245-.025a.8.8 0 0 0 .152-.182 1.3 1.3 0 0 1 .147-.171q.076-.074.223.004a.44.44 0 0 1 .013-.319q.08-.157.202-.289.125-.142.275-.25a5 5 0 0 0 .264-.218q.044-.159.131-.301a.8.8 0 0 1 .242-.226q.142-.086.259-.169a7 7 0 0 0 .237-.177.4.4 0 0 0 .109-.098q.057-.055.109-.098a.9.9 0 0 0 .238-.252l.18-.296q.104-.15.212-.248a.55.55 0 0 1 .34-.116.8.8 0 0 1 .111-.21l.167-.189q.083-.094.152-.183a.7.7 0 0 0 .126-.216.5.5 0 0 1 .139-.075q.085-.032.16-.068a.6.6 0 0 0 .128-.079.24.24 0 0 0 .066-.151 1.5 1.5 0 0 0 .094-.302.37.37 0 0 1 .182-.233.36.36 0 0 1 .116-.221.9.9 0 0 1 .209-.1q.112-.034.231-.055a1 1 0 0 0 .239-.077.2.2 0 0 1 .04-.184 1 1 0 0 1 .155-.157q.102-.075.21-.137a.8.8 0 0 0 .165-.115q.114-.11.205-.226a2 2 0 0 1 .44-.366.9.9 0 0 1 .313-.076q.035-.237.143-.334a.8.8 0 0 1 .274-.14 4 4 0 0 1 .335-.068.7.7 0 0 0 .318-.161q.133.01.288.028.16.007.307.047a.9.9 0 0 1 .276.097q.125.07.2.208l.036.075q.007.014.003.026l-.008.022.036.075.057.119q.031.05.057.12a.8.8 0 0 1-.063.177 1.4 1.4 0 0 0-.073.173.7.7 0 0 0-.037.173q.006.089.104.161a2.4 2.4 0 0 0-.319.658 25 25 0 0 1-.252.744 5 5 0 0 1-.305.687 1.26 1.26 0 0 1-.503.506l-.277.536q-.147-.04-.234.029a.5.5 0 0 0-.144.16l-.126.217a.36.36 0 0 1-.148.171 3 3 0 0 0-.266.192 3 3 0 0 1-.282.198q-.143.087-.306.128a.55.55 0 0 1-.315-.025.6.6 0 0 1-.143.124 1.8 1.8 0 0 1-.434.207.8.8 0 0 1-.182.022q-.1.002-.185-.003a.5.5 0 0 0-.178.011q-.12.02-.25.073a1.4 1.4 0 0 1-.265.081 1 1 0 0 1-.267.017.43.43 0 0 1-.231-.119.64.64 0 0 1-.41.103 6 6 0 0 1-.373-.07 1 1 0 0 0-.348-.036q-.162.004-.314.187a.3.3 0 0 0-.08.084 1 1 0 0 0-.042.084 6 6 0 0 1-.117.294q-.074.173-.005.297.464-.047.907-.176.459-.136.93-.168l.046.116q.119-.23.296-.169.18.052.364.129l.078.028.033.012a.1.1 0 0 1 .048.004q.21.075.217.264t.008.363q-.168.09-.312.25a11 11 0 0 0-.265.329 4 4 0 0 1-.274.35 1.4 1.4 0 0 1-.313.287q.08.09.045.153a.5.5 0 0 1-.091.117.3.3 0 0 0-.058.129q-.008.058.113.139a.45.45 0 0 0-.222.133 5 5 0 0 0-.144.197 2 2 0 0 1-.134.202.4.4 0 0 1-.195.129q.01.115-.004.223a.4.4 0 0 1-.063.213q.084.255.231.331a.8.8 0 0 0 .328.091q.17.011.352.025.18.015.334.144.384-.1.521-.102l.211.001a.6.6 0 0 0 .212-.037q.127-.042.497-.21.303.021.576-.081.284-.099.581-.13m1.551-9.608q-.036.137-.141.186a1.4 1.4 0 0 1-.201.078 3 3 0 0 0-.22.059q-.097.028-.151.145-.167.016-.25.111a2 2 0 0 0-.16.204 1 1 0 0 1-.155.194q-.095.09-.284.098l.05.105a2.7 2.7 0 0 0-.863.577q-.37.378-.697.773-.213.11-.354.297-.136.175-.277.362-.126.179-.292.331a.65.65 0 0 1-.396.171q.06.183-.016.292a.56.56 0 0 1-.193.193 6 6 0 0 1-.266.155.47.47 0 0 0-.186.207q.195.119.413.134.229.02.464-.01a3 3 0 0 0 .461-.11q.224-.07.425-.11l.05.104a3 3 0 0 0 1.052-.373q.472-.28.935-.638-.072-.113-.03-.197l.102-.113.102-.113a5 5 0 0 0 .385-.56q.355-.546.622-1.123.28-.584.519-1.183zM78.74 75.058q.093.02.1.071a1 1 0 0 1-.009.097.6.6 0 0 0-.026.115q-.02.054.017.092l.389.133q.065.245.174.468.11.224.23.45.11.224.205.453.099.22.13.454.18.16.297.398.106.234.19.498.076.248.148.509.072.26.182.483t.286.395a.97.97 0 0 0 .45.24.45.45 0 0 0 .162.253 3 3 0 0 0 .236.143q.13.056.236.142.1.071.11.223a.46.46 0 0 1 .26.002q.102.023.184.112.084.08.158.19.062.109.14.21l.05.066.052.067q.121.153.098.294t-.072.285a1.1 1.1 0 0 0-.08.27q-.023.14.094.304-.112 0-.082.096a.33.33 0 0 1-.009.17 1 1 0 0 0-.194.17q-.093.09-.175.187a6 6 0 0 0-.183.173.7.7 0 0 1-.238.117 7 7 0 0 1-.172.177.6.6 0 0 1-.227.12 1.1 1.1 0 0 0-.398-.21 10 10 0 0 1-.448-.14 1.1 1.1 0 0 1-.384-.218q-.165-.13-.2-.428.098-.288.041-.63a5 5 0 0 0-.162-.686q-.112-.36-.232-.698a3.3 3.3 0 0 1-.17-.665 5 5 0 0 1-.477-.051 1.2 1.2 0 0 1-.448-.178.4.4 0 0 1-.17-.045 1 1 0 0 0-.18-.087.4.4 0 0 0-.167-.02q-.09.007-.179.125a.47.47 0 0 1-.289-.024l-.273-.143a2 2 0 0 0-.259-.113.4.4 0 0 0-.293.024l.075-.037q-.026-.07-.085-.078a1 1 0 0 0-.122-.004.4.4 0 0 1-.13-.02q-.066-.023-.088-.104a.43.43 0 0 1-.203-.131.6.6 0 0 1-.12-.19 1 1 0 0 1-.07-.234 3 3 0 0 1-.054-.242.42.42 0 0 0 .084-.28 9 9 0 0 0-.024-.293 1.4 1.4 0 0 1 .006-.271q.007-.134.15-.221.03-.163.142-.2a.5.5 0 0 1 .233-.031.5.5 0 0 0-.102-.134.33.33 0 0 1-.096-.157l.242-.053q-.067-.06-.03-.134a.5.5 0 0 0 .05-.144q.1-.004.141-.051a.4.4 0 0 0 .068-.126l.053-.155a.2.2 0 0 1 .1-.114.65.65 0 0 1 .253-.087q.12-.022.241-.017.126-.006.249-.002.115-.01.24-.054a.3.3 0 0 0-.064-.208.6.6 0 0 0-.18-.16 3 3 0 0 0-.204-.132.7.7 0 0 1-.177-.134.25.25 0 0 1-.061-.182q-.003-.1.12-.244.165-.192.253-.161.081.015.159.116.07.085.161.179.085.078.245.009-.03.051.014.14.036.038.081.016l.075-.037zm-.564 1.653-.09.044a.9.9 0 0 0-.245.25 1.7 1.7 0 0 0-.222.358 2.6 2.6 0 0 0-.17.388 4 4 0 0 0-.098.325q-.053.267.037.582t.323.47q.067-.126.175-.151a.7.7 0 0 1 .245-.028q.122.004.251.024a.56.56 0 0 0 .25-.039q.047.04.11.038.063-.004.115-.01a.2.2 0 0 1 .096.008q.045.014.055.093a.5.5 0 0 1 .17.008q.093.02.19.028a.6.6 0 0 0 .159-.033q.075-.037.101-.151a71 71 0 0 1-.426-1.037 38 38 0 0 0-.43-1.026.3.3 0 0 0-.111-.038q-.056-.019-.097.03-.036-.112-.091-.131a.24.24 0 0 0-.126-.03l-.13-.02a.22.22 0 0 1-.114-.1zm2.9 4.06q.049.326.154.635.105.307.04.645a.53.53 0 0 1 .026.578.5.5 0 0 0 .036.148 1 1 0 0 0 .058.156.3.3 0 0 0 .095.12q.06.044.14.023l.06-.03a.3.3 0 0 0 .053-.043 2 2 0 0 0 .22-.173q.09-.081.153-.158a.7.7 0 0 0 .082-.207q.03-.126.04-.296a.4.4 0 0 1 .07-.026q.034-.025.074 0a.6.6 0 0 0 .013-.255 1.2 1.2 0 0 0-.083-.227 4 4 0 0 0-.121-.227 1.5 1.5 0 0 1-.113-.249.7.7 0 0 1-.247-.146 6 6 0 0 0-.221-.187.7.7 0 0 0-.244-.12q-.123-.042-.286.039m-1.301-13.21a.54.54 0 0 1 .06.405 2.3 2.3 0 0 1-.162.365 1.5 1.5 0 0 0-.143.348q-.057.165.079.349a.9.9 0 0 0-.136.362 3 3 0 0 0-.055.415l-.047.429q-.024.215-.103.41l-.253.125q.095.12.08.275a.38.38 0 0 1-.158.243.8.8 0 0 1-.015.515q-.09.23-.166.451a.9.9 0 0 0-.055.452q.024.219.345.477.221.186.457.366l.45.352q.581.47 1.149.949.56.463 1.086.99.492.192 1.017.322t1.044.244q.118.09.265.128.153.027.315.021.164-.006.323-.038.149-.037.278-.091l-.12-.264.483-.145a5 5 0 0 1-.213-.357 3 3 0 0 1-.19-.424 1.8 1.8 0 0 1-.115-.423 1.4 1.4 0 0 1-.004-.423 2 2 0 0 0-.118-.2.7.7 0 0 1-.095-.194.4.4 0 0 1-.031-.197q0-.11.09-.229a2.7 2.7 0 0 0-.283-.802 48 48 0 0 1-.421-.763 6 6 0 0 1-.369-.77 1.9 1.9 0 0 1-.109-.842q.553.486 1.022 1.104.459.616.762 1.288.11.186.164.427.025.108.058.23.021.12.046.227.098.367.236.724.127.353.318.703a.18.18 0 0 0-.12.058.4.4 0 0 0-.067.126 1 1 0 0 0-.038.148.4.4 0 0 1-.042.122q.084.263.055.637-.014.368-.16.615a1.4 1.4 0 0 1-.16.18 1.3 1.3 0 0 1-.168.166 2.04 2.04 0 0 1-.934.412 2.5 2.5 0 0 1-1.022-.089l-.119.058a.6.6 0 0 0-.205-.268.6.6 0 0 0-.259-.113 1.4 1.4 0 0 0-.307-.043 2.4 2.4 0 0 1-.326-.061.7.7 0 0 1-.166-.057 2 2 0 0 0-.14-.097q-.325-.21-.631-.401a25 25 0 0 1-.631-.401 23 23 0 0 1-1.49-1.078 57 57 0 0 1-1.43-1.181 1.3 1.3 0 0 0-.198.328 3 3 0 0 0-.147.359q-.06.177-.136.362a1.3 1.3 0 0 1-.199.328l-.06.067q-.01-.004-.041.084a1 1 0 0 0-.03.163 2 2 0 0 1-.058.204.7.7 0 0 1-.082.17q-.053.081-.134.065l-.111-.037q-.174-.072-.207-.158a.3.3 0 0 1-.02-.192q.01-.108.053-.23.03-.126.002-.26.172-.287.3-.553.117-.27.17-.536a1.94 1.94 0 0 0-.133-1.172 3.3 3.3 0 0 0-.64-.516q-.369-.225-.708-.465a3.6 3.6 0 0 1-.604-.552 1.6 1.6 0 0 1-.358-.766.56.56 0 0 1 .15-.296q.112-.11.235-.217.136.11.292.199.154.09.306.191.154.09.291.199.136.108.232.264.105-.125.19-.12.085.003.159.078t.15.175a.5.5 0 0 0 .151.139q-.03.126.084.263a.8.8 0 0 1 .165.242q.157.153.333.077.174-.077.33-.135a.4.4 0 0 0 .08-.196q0-.11-.006-.2a.5.5 0 0 1 .023-.178q.027-.077.138-.114-.084-.151-.024-.255a.9.9 0 0 1 .131-.203.8.8 0 0 0 .109-.21q.027-.116-.106-.272a.35.35 0 0 1 .05-.255q.075-.111.165-.192.079-.084.142-.162a.27.27 0 0 0 .023-.215q.08-.158.136-.362.06-.215.096-.425.04-.223.062-.437.017-.23.04-.408.157-.132.246-.139.09-.006.159.042.074.037.162.105a.5.5 0 0 0 .24.057m8.212-2.15q.42.402.636.712t.326.643q.1.32.143.742.04.423.107 1.065a1.3 1.3 0 0 0-.18.42q-.039.223-.096.426a1.1 1.1 0 0 1-.17.351q-.105.162-.376.231l-.056.166a1 1 0 0 0-.322-.072q-.166-.02-.25.15a.6.6 0 0 0-.216-.235 2.4 2.4 0 0 0-.296-.15 4 4 0 0 1-.28-.158.44.44 0 0 1-.188-.25.5.5 0 0 1-.393-.01 1.4 1.4 0 0 1-.324-.247q-.154-.164-.298-.324a.8.8 0 0 0-.339-.24.9.9 0 0 1-.242.128q-.148.035-.142.2.185.397.35.787.153.387.332.77.183.372.406.733a5.3 5.3 0 0 0 .51.682q-.03.2.08.349t.25.283q.128.13.239.28.114.137.101.319l.317.232q.165.131.325.247a.8.8 0 0 0-.113.147q-.06.104-.127.192a.7.7 0 0 1-.15.147.21.21 0 0 1-.155.058q-.027.004-.1-.034l-.089-.03a1.6 1.6 0 0 1-.531-.367 8 8 0 0 1-.423-.466 10 10 0 0 0-.434-.47 1.5 1.5 0 0 0-.538-.345q.056-.165-.028-.245a.8.8 0 0 0-.185-.15 1.3 1.3 0 0 1-.173-.145q-.073-.075.002-.222a.44.44 0 0 1-.319-.01 1.66 1.66 0 0 1-.545-.47 5 5 0 0 0-.22-.262 1.2 1.2 0 0 1-.304-.128.8.8 0 0 1-.228-.238 4 4 0 0 0-.172-.257 7 7 0 0 0-.18-.235.4.4 0 0 0-.1-.108 2 2 0 0 1-.098-.109.9.9 0 0 0-.255-.235l-.299-.176a1.4 1.4 0 0 1-.25-.21.55.55 0 0 1-.12-.337.7.7 0 0 1-.21-.11l-.192-.164a4 4 0 0 0-.184-.15.7.7 0 0 0-.218-.123.5.5 0 0 1-.077-.138 2 2 0 0 0-.07-.16.6.6 0 0 0-.08-.126.23.23 0 0 0-.151-.064 1.5 1.5 0 0 0-.303-.091.37.37 0 0 1-.236-.18.35.35 0 0 1-.222-.113.8.8 0 0 1-.102-.208 2 2 0 0 1-.058-.23 1 1 0 0 0-.08-.238.2.2 0 0 1-.185-.038 1 1 0 0 1-.158-.153 2 2 0 0 1-.14-.209.8.8 0 0 0-.117-.164 2 2 0 0 0-.228-.201 2 2 0 0 1-.203-.206 1.3 1.3 0 0 1-.169-.23.9.9 0 0 1-.079-.312q-.237-.032-.336-.14a.8.8 0 0 1-.143-.271 4 4 0 0 1-.071-.334.7.7 0 0 0-.165-.317q.009-.133.024-.289.006-.159.043-.307a1 1 0 0 1 .095-.277.5.5 0 0 1 .205-.202l.075-.037q.015-.007.025-.004l.023.008.074-.036.119-.059a.5.5 0 0 1 .119-.058q.081.015.177.06a2 2 0 0 0 .174.072q.09.03.174.034.09-.006.16-.106.291.198.661.312t.747.243q.366.124.691.297.325.174.512.497l.539.27q-.038.15.032.234a.5.5 0 0 0 .162.142l.217.124a.37.37 0 0 1 .174.146q.08.126.194.264t.202.28.131.304a.56.56 0 0 1-.02.315q.058.045.125.142a1.8 1.8 0 0 1 .211.431.8.8 0 0 1 .025.182 2 2 0 0 1-.001.185.5.5 0 0 0 .013.178q.022.119.076.25.055.13.084.263.029.134.02.267a.43.43 0 0 1-.116.233.64.64 0 0 1 .108.408q-.027.189-.066.374-.044.17-.032.348.007.163.19.313.016.03.085.078.063.033.085.041.123.042.296.113.174.072.296.003a5 5 0 0 0-.186-.906 4.3 4.3 0 0 1-.179-.928l.116-.047q-.233-.117-.173-.294.05-.18.125-.366l.027-.078.011-.033a.1.1 0 0 1 .004-.048q.072-.21.261-.22a10 10 0 0 1 .363-.013q.092.168.254.31.155.126.332.261.18.124.354.27.165.13.29.31.09-.082.152-.048a.5.5 0 0 1 .118.09q.06.045.13.056.06.009.138-.114a.44.44 0 0 0 .135.22q.09.067.2.142.103.06.202.132.09.067.132.193.114-.01.223.002a.4.4 0 0 1 .214.06q.253-.087.328-.234a.8.8 0 0 0 .087-.33l.021-.351a.6.6 0 0 1 .14-.337q-.105-.382-.108-.52l-.002-.21a.6.6 0 0 0-.04-.212 7 7 0 0 0-.214-.495 1.4 1.4 0 0 0-.089-.575 2.6 2.6 0 0 1-.137-.579m-9.625-1.44q.137.035.188.139.044.09.08.2.026.108.062.22.03.096.147.149.017.167.113.249t.207.157q.102.06.195.153.091.094.102.283l.104-.051q.207.48.587.856.382.366.78.688.114.211.302.35.177.134.365.273.18.123.335.288.147.149.175.394.182-.062.293.013a.55.55 0 0 1 .195.19q.08.127.157.265a.47.47 0 0 0 .21.183.9.9 0 0 0 .13-.415q.015-.23-.016-.463a3.5 3.5 0 0 0-.115-.46 4 4 0 0 1-.116-.424l.104-.05a3 3 0 0 0-.385-1.048 9 9 0 0 0-.65-.928q-.112.075-.196.032l-.115-.1-.114-.102a5 5 0 0 0-.564-.378 9 9 0 0 0-1.13-.608 18 18 0 0 0-1.19-.505zM91.46 50.226q.292.124.413.277.114.138.198.29.089.143.206.306.12.153.413.314.02.415.162.65.132.23.256.41.13.166.16.363.038.186-.144.533a1 1 0 0 0-.163.08q-.075.037-.157.096.203.168.231.338.033.16.01.338a3 3 0 0 0-.052.366.76.76 0 0 0 .105.42 2.2 2.2 0 0 1-.42.612 1.6 1.6 0 0 1-.42.29 1.8 1.8 0 0 1-.424.116q-.215.012-.411.045a1.3 1.3 0 0 0-.375.12.8.8 0 0 0-.347.29.36.36 0 0 0-.076.184q0 .075.037.149.036.075.095.156a.6.6 0 0 1 .084.153l-.164.08a1 1 0 0 1 .32.444q.08.237.07.519a3 3 0 0 1-.089.551 13 13 0 0 1-.163.514q.225.213.297.436.073.223.063.467-.004.234-.051.478-.046.244-.063.511a.5.5 0 0 0-.064.226l-.013.255q.006.127-.013.256a.28.28 0 0 1-.087.18q-.09.082-.167.055a.23.23 0 0 0-.163.006l-.008.023a.7.7 0 0 1-.273.328 1.3 1.3 0 0 1-.393.138q-.216.05-.442.06-.225.009-.419.03a7 7 0 0 0-.54-.16 3.3 3.3 0 0 1-.591-.189 2 2 0 0 1-.513-.311.9.9 0 0 1-.297-.473l-.01-.04-.142.087a.56.56 0 0 0-.173-.257 1.3 1.3 0 0 0-.284-.11 1 1 0 0 1-.15-.248 2 2 0 0 1-.125-.253 6 6 0 0 0-.428-.704 1.3 1.3 0 0 0-.657-.471.4.4 0 0 0-.103-.023l-.1-.034a.9.9 0 0 0-.046-.338q-.062-.182-.116-.35a1.3 1.3 0 0 1-.083-.337.5.5 0 0 1 .07-.31q-.075-.001-.138.002a.3.3 0 0 1-.13-.02.5.5 0 0 1-.287-.246l-.168-.342a7 7 0 0 0-.143-.272 3 3 0 0 1-.131-.23l-.09.043q.045-.17-.016-.278a4 4 0 0 0-.15-.212 1.4 1.4 0 0 1-.121-.227q-.06-.12.002-.296l.011-.034a.9.9 0 0 1-.22-.372 7 7 0 0 1-.152-.46 8 8 0 0 0-.145-.483 1 1 0 0 0-.257-.41q.002-.185-.045-.337a4 4 0 0 1-.098-.294 2 2 0 0 1-.069-.308 1 1 0 0 1 .04-.37l-.095-.193q-.058-.12-.04-.175.02-.055.068-.051l.081-.022q-.032-.085.028-.189a.8.8 0 0 1 .15-.221q.096-.103.2-.191.105-.09.161-.144.783-.042 1.432.414a1 1 0 0 0-.031.126l-.045.133q-.045-.015-.081-.09l-.051-.103a.5.5 0 0 1-.246.139q-.145.024-.274.042a.8.8 0 0 0-.26.072q-.127.044-.21.214a.74.74 0 0 0-.066.485q.039.249.123.475.072.224.141.42a.43.43 0 0 1-.013.33.9.9 0 0 1 .169.23l.124.216a1 1 0 0 0 .162.18.6.6 0 0 0 .292.087q.24.528.452 1.07.204.528.515 1.03l-.163.08a.23.23 0 0 1 .125.105q.04.064.092.13a.8.8 0 0 0 .129.131.3.3 0 0 0 .18.05.7.7 0 0 0 .08.2q.05.079.118.164.078.102.14.209.054.093.094.23l.008.015q.114.027.214.061l.222.076q.147.186.253.42a8 8 0 0 0 .226.461q.11.224.264.425.158.19.395.295.002.212.13.342.13.131.28.232.153.101.296.187a.4.4 0 0 1 .187.213l.134-.066q.068.345.267.562.199.216.561.24l.015-.007.011.004q.388-.227.523-.552t.213-.732q.038-.186.091-.34a5 5 0 0 1 .099-.326l.007-.022a.67.67 0 0 1-.075-.397q.016-.193.088-.404.06-.177.095-.351a.47.47 0 0 0-.067-.345.4.4 0 0 0-.067-.097 1 1 0 0 1-.07-.086l-.029-.06-.029-.059a.68.68 0 0 0 .1-.473 2.6 2.6 0 0 0-.152-.498q-.099-.255-.2-.502a1.2 1.2 0 0 1-.108-.482 1.3 1.3 0 0 0-.441-.522 3 3 0 0 0-.595-.327l-.303-.128a3 3 0 0 1-.247-.146 1.169 1.169 0 0 1-.37-.51l-.015-.03a2 2 0 0 0-.17-.009.6.6 0 0 1-.175-.034 1.1 1.1 0 0 1-.372-.214 9 9 0 0 1-.32-.295 4 4 0 0 0-.362-.322 1.6 1.6 0 0 0-.472-.248 10 10 0 0 1-.426-.529 6 6 0 0 1-.393-.592 3.7 3.7 0 0 1-.292-.632 2.2 2.2 0 0 1-.121-.66q.06-.14.132-.277.063-.152.131-.277.133.12.344.191.198.068.391.158.185.076.314.207.129.13.123.364.04-.012.14.023.094.02.138.034.333.114.583.36t.485.537q.228.276.467.556.243.269.53.44.133.084.214.247.084.152.164.316.084.153.202.28a.4.4 0 0 0 .296.113q.114.137.172.293.051.142.12.264.06.12.18.198.122.08.36.073l.003-.011.011.004a1.8 1.8 0 0 1 .453-.056q.222 0 .437-.012.219-.024.42-.105a.93.93 0 0 0 .369-.32q-.115-.064-.088-.14a1 1 0 0 1 .046-.171l.148-.073q.063-.04.138-.077a8 8 0 0 0 .231-.788q.066-.3.045-.53a1.7 1.7 0 0 0-.115-.497 37.829 37.829 0 0 1-.572-1.446 8 8 0 0 1-.265-.783m-4.417 2.604a.2.2 0 0 0-.186.147 3 3 0 0 0-.072.247q.118-.058.252-.087l.26-.072a1 1 0 0 0-.095-.156q-.056-.093-.159-.08m5.491-10.36q.218.123.368.336.155.2.242.454.09.241.126.5.024.257-.007.494.03.381.01.696-.03.3-.105.596t-.193.603q-.117.307-.272.687 0 .111.062.182.067.06.151.102.089.03.193.053a.7.7 0 0 1 .166.056.19.19 0 0 0 .01.19q.058.081.095.156.236.068.332.188.085.115.136.256l.098.294a.76.76 0 0 0 .194.301.4.4 0 0 0 .114.101q.051.03.133.082.144.087.135.22a2 2 0 0 1-.024.252.6.6 0 0 0-.009.244q.01.115.195.19-.016.267.048.55.076.285.14.568.066.282.049.548a.8.8 0 0 1-.181.496l-.12.132a.6.6 0 0 1-.134.103 1 1 0 0 1-.112.036.5.5 0 0 0-.096.03 1.5 1.5 0 0 1-.445.033 3 3 0 0 1-.895-.206l-.422-.144a.13.13 0 0 0 .027-.115l-.051-.104-.312.005q.046-.059.027-.114a.4.4 0 0 0-.051-.104q-.145.136-.234.105a.35.35 0 0 1-.185-.112 2 2 0 0 1-.176-.209.4.4 0 0 0-.203-.168 4 4 0 0 1-.48-.226 10 10 0 0 1-.852-.588 5 5 0 0 0-.443-.3.64.64 0 0 0-.049-.4 6 6 0 0 1-.182-.409.75.75 0 0 1-.057-.378q.029-.189.303-.343a.95.95 0 0 1 .473.211q.195.154.368.336t.364.348a.95.95 0 0 0 .48.188q.046.485.355.74.314.243.709.428.117.052.255.124.125.068.228.164a.48.48 0 0 1 .318.084l.258.187a.9.9 0 0 0 .259.113q.126.03.293-.098a3.8 3.8 0 0 0-.193-1.465 5.2 5.2 0 0 0-.695-1.302q-.261-.36-.525-.674a4.3 4.3 0 0 0-.582-.582 3.3 3.3 0 0 0-.682-.431 2.8 2.8 0 0 0-.836-.236.32.32 0 0 0-.043-.238 1.3 1.3 0 0 1-.106-.234.3.3 0 0 1-.017-.204q.03-.089.23-.131.135-.141.246-.102.104.023.2.105.1.07.203.13.102.06.244-.027a.3.3 0 0 0 .074.111q.05.068.14.135.077.063.158.116.07.048.107.049.212-.04.264-.158a.9.9 0 0 0 .043-.27q.001-.148.035-.285.027-.151.191-.232.061-.289.104-.522a21 21 0 0 0 .099-.907q.009-.245.037-.545a.8.8 0 0 1-.134-.404q-.003-.211.014-.441m3.09-6.227.102.209.081.126q.033.048.07.123.04.063.117.2.058.12.132.231.072.112.116.239-.078.121-.038.221.044.09.11.187l.117.163a.12.12 0 0 1 .014.141q.053.315.073.62.009.3.126.612l-.12.059.162 1.342a.5.5 0 0 0 .028.134q.026.07.04.137.05.29.07.594.014.289.015.574l-.005.16q.253-.014.31.105.06.12.046.301a3 3 0 0 1-.08.381.7.7 0 0 0-.028.337 2 2 0 0 0-.117.27 4 4 0 0 0-.061.288q-.031.164-.077.297-.045.132-.131.277l-.008.022q.025.218-.08.344a.66.66 0 0 1-.239.19 2 2 0 0 1-.349.117q-.195.032-.364.086-.111.036-.311.08-.2.042-.412.045a1.2 1.2 0 0 1-.407-.04.52.52 0 0 1-.318-.195q-.11-.15-.254-.272a1.3 1.3 0 0 0-.369-.188l-.144-.05a1 1 0 0 1-.148-.038 1 1 0 0 1 .053-.118l.041-.122a.2.2 0 0 0-.01-.115q-.03-.06-.129-.093a.11.11 0 0 0-.104.014.2.2 0 0 1-.082.022 1 1 0 0 1-.113-.175q-.044-.09-.084-.153a.5.5 0 0 0-.122-.116.54.54 0 0 0-.237-.068 2 2 0 0 1-.304-.45 4 4 0 0 1-.211-.506 9 9 0 0 1-.182-.52 5 5 0 0 0-.197-.513q.161-.18.114-.333a1.6 1.6 0 0 0-.11-.297 1.1 1.1 0 0 1-.108-.26q-.033-.123.146-.247l.03-.015q-.198-.402-.062-.69.139-.3.377-.453a.8.8 0 0 1 .487-.156q.233.006.247.22a.42.42 0 0 1 .33-.023q.166.057.258.187.099.146.216.272l.24.243q.217.197.404.41.176.21.249.506-.125.18-.05.292a.8.8 0 0 0 .187.176.7.7 0 0 1 .151.138q.051.067-.108.173l-.03.015.014.03q.06.12.15.212a.36.36 0 0 1 .122.19 2 2 0 0 0-.127.192q-.06.103-.117.195a.7.7 0 0 1 .336.214q.103.135.142.308.032.16.027.356-.015.193.001.397.01.189.068.382.051.179.209.331a.47.47 0 0 0 .239-.228q.067-.162.117-.343.038-.185.095-.352a.58.58 0 0 1 .195-.28l.015-.007-.008-.015q.058-.278.052-.552-.013-.29-.033-.556a7 7 0 0 1-.033-.556 2.8 2.8 0 0 1 .034-.57.2.2 0 0 0 .149-.11.6.6 0 0 0 .053-.193l-.018-.019a1.5 1.5 0 0 1-.24-.205.6.6 0 0 1-.124-.253 1 1 0 0 1-.02-.267q.012-.145.05-.293.038-.147.065-.3l.008-.022-.03-.022q-.118-.09-.14-.172a.5.5 0 0 1-.024-.181q.007-.096.027-.19a.5.5 0 0 0-.002-.21q.135-.177.07-.348a4 4 0 0 0-.147-.335l.141-.05-.033-.049a11 11 0 0 0-.15-.324 2 2 0 0 1-.076-.211 1 1 0 0 1-.061-.22q-.03-.133-.087-.363a11 11 0 0 0-.097-.368 3 3 0 0 0-.12-.375q.042-.048.108-.025l.111.038a.4.4 0 0 0 .059.045q.045.015.074 0m-2.953 4.119q-.015.007-.019.018l-.014.008q-.202.19-.244.35a.54.54 0 0 0-.01.319q.037.148.132.304.087.142.157.302a.8.8 0 0 1 .065.319.64.64 0 0 1-.14.373l.332.188q.16.079.332.15.002.212.087.364.087.142.206.268.12.116.265.24.136.108.246.257l.07-.026q-.007-.051.068-.088l.104-.051a1.1 1.1 0 0 1-.19-.424 6 6 0 0 1-.078-.497 6 6 0 0 0-.089-.501.83.83 0 0 0-.22-.41.91.91 0 0 0-.217-.668 4 4 0 0 0-.519-.511 2 2 0 0 1-.162-.142 1 1 0 0 0-.162-.142M213.96 117.857q.284.11.531.293.24.168.401.421.073.112.132.194.053.067.114.138.052.067.125.142.062.07.155.164.17.194.342.377.162.178.264.424a.4.4 0 0 0 .061.256q.061.108.15.212.093.094.169.194a.26.26 0 0 1 .055.204l.014.03q.269.228.49.489t.344.588a.32.32 0 0 0 .106.16q.07.05.155.09a.6.6 0 0 1 .148.075q.074.037.092.094a.17.17 0 0 1-.001.111.4.4 0 0 1-.064.077l-.007.022.084.19q.078-.085.104-.088.015-.007.115.026a.15.15 0 0 0 .063.034.6.6 0 0 0 .092.527q.173.22.372.399.059.045.107.086a1 1 0 0 1 .092.094.7.7 0 0 0-.098.14 2 2 0 0 1-.086.107.3.3 0 0 1-.093.055.6.6 0 0 1-.185-.039l-.059.029q-.058-.23-.191-.312a1.4 1.4 0 0 0-.277-.132 2 2 0 0 1-.273-.143q-.118-.089-.146-.334l-.022-.008a.42.42 0 0 1-.247-.183 3 3 0 0 1-.139-.283 2 2 0 0 0-.212-.357 7 7 0 0 0-.342-.451 7 7 0 0 0-.36-.432 13 13 0 0 0-.29-.31.3.3 0 0 1-.077-.138l-.058-.193a2 2 0 0 0-.08-.2.32.32 0 0 0-.133-.157l-.033-.011a.56.56 0 0 1-.243-.195 1.4 1.4 0 0 1-.191-.275.2.2 0 0 1-.014-.178.18.18 0 0 0-.05-.178q-.015-.03-.063-.034a.3.3 0 0 0-.092-.019l-.015.007q-.022-.007-.037 0l-.023-.008q-.048-.004-.092-.056a1 1 0 0 0-.092-.093.23.23 0 0 0-.118-.053q-.067-.023-.174.039l-.012-.003-.003.011a.43.43 0 0 0-.039.222q.003.1.028.207.018.093.04.175a.18.18 0 0 1-.035.137.21.21 0 0 1-.185.073 1 1 0 0 0-.002.185.4.4 0 0 0 .029.171q-.168.054-.213.187t-.065.3a4 4 0 0 1-.043.307.35.35 0 0 1-.168.24q-.012.107-.086.107l-.182-.013a.6.6 0 0 0-.215.014q-.115.01-.186.146-.052.007-.078-.026a.3.3 0 0 1-.058-.082 1 1 0 0 0-.041-.1.3.3 0 0 0-.043-.09.37.37 0 0 0 .06-.177q.016-.119.105-.125l.023-.067q-.163-.142-.188-.249a.26.26 0 0 1 .046-.208.55.55 0 0 1 .168-.165 4 4 0 0 0 .198-.18.6.6 0 0 0 .116-.196q.038-.111-.046-.263a.37.37 0 0 0 .097-.178 2 2 0 0 0 .035-.211 2 2 0 0 1 .013-.218q0-.111.046-.207.094-.203.181-.422a.52.52 0 0 0-.045-.448.7.7 0 0 1 .112-.185.5.5 0 0 1 .134-.103q.063-.04.138-.077.078-.046.164-.117m1.644-7.797a.54.54 0 0 1 .061.405 2.3 2.3 0 0 1-.162.365 1.5 1.5 0 0 0-.144.348q-.056.166.08.349a.9.9 0 0 0-.136.362 2.6 2.6 0 0 0-.055.415l-.048.429a1.6 1.6 0 0 1-.103.411l-.253.124a.36.36 0 0 1 .08.275.38.38 0 0 1-.157.243.8.8 0 0 1-.015.515q-.09.23-.166.451a.9.9 0 0 0-.055.452q.024.219.345.477.22.186.457.366l.449.352q.582.47 1.15.949.56.463 1.086.99.492.192 1.017.322t1.043.244q.119.09.266.128.151.027.315.021.163-.006.323-.038.149-.037.278-.091l-.12-.264.483-.145a5 5 0 0 1-.213-.357 3 3 0 0 1-.19-.424 1.8 1.8 0 0 1-.115-.423 1.4 1.4 0 0 1-.005-.423 2 2 0 0 0-.117-.201.7.7 0 0 1-.095-.193.45.45 0 0 1-.032-.197.4.4 0 0 1 .091-.229 2.7 2.7 0 0 0-.284-.802q-.216-.384-.42-.763a6 6 0 0 1-.369-.77 1.9 1.9 0 0 1-.109-.842q.552.486 1.022 1.104.459.615.762 1.288.11.186.164.427l.057.231q.022.118.047.226.098.367.236.724.127.354.317.703a.18.18 0 0 0-.119.058.4.4 0 0 0-.067.126 1 1 0 0 0-.038.148.4.4 0 0 1-.042.122q.084.263.055.638a1.3 1.3 0 0 1-.16.614 1.4 1.4 0 0 1-.161.18 1.3 1.3 0 0 1-.168.166q-.435.334-.933.412a2.5 2.5 0 0 1-1.022-.089l-.119.059a.6.6 0 0 0-.206-.269.6.6 0 0 0-.258-.113 1.5 1.5 0 0 0-.308-.043 2 2 0 0 1-.325-.061.6.6 0 0 1-.167-.057 2 2 0 0 0-.14-.097q-.324-.21-.631-.401-.317-.195-.631-.401a23 23 0 0 1-1.489-1.078 58 58 0 0 1-1.43-1.181 1.3 1.3 0 0 0-.198.328 3 3 0 0 0-.147.359 8 8 0 0 1-.136.362 1.3 1.3 0 0 1-.199.328l-.06.067q-.01-.005-.041.085a1 1 0 0 0-.031.162q-.022.104-.057.204a.7.7 0 0 1-.083.17q-.052.081-.134.066l-.111-.038q-.173-.072-.206-.157a.3.3 0 0 1-.021-.193q.012-.108.054-.23a.6.6 0 0 0 .001-.259q.173-.288.301-.554a2.7 2.7 0 0 0 .17-.536 1.948 1.948 0 0 0-.132-1.172 3.3 3.3 0 0 0-.641-.516 13 13 0 0 1-.709-.464 3.7 3.7 0 0 1-.604-.553 1.6 1.6 0 0 1-.357-.766.55.55 0 0 1 .15-.295q.112-.11.235-.217.137.108.291.198.156.09.307.191.155.09.291.199.136.108.232.264.104-.124.189-.121.085.005.159.079.073.075.151.176a.5.5 0 0 0 .151.138q-.03.126.083.263a.8.8 0 0 1 .165.243q.159.153.333.076t.331-.135a.4.4 0 0 0 .079-.196 2 2 0 0 0-.006-.2.5.5 0 0 1 .024-.178q.025-.077.138-.113-.084-.153-.024-.256a.8.8 0 0 1 .131-.203.9.9 0 0 0 .109-.211q.026-.115-.106-.271a.35.35 0 0 1 .05-.255q.075-.111.164-.192.08-.084.142-.162a.26.26 0 0 0 .024-.215q.08-.159.136-.362.061-.215.096-.425a7 7 0 0 0 .062-.437q.016-.23.04-.408.156-.132.246-.139a.25.25 0 0 1 .159.042q.073.038.162.105a.47.47 0 0 0 .24.057m8.213-2.151q.42.404.636.713t.325.643q.102.32.143.742l.108 1.065a1.3 1.3 0 0 0-.181.421q-.039.222-.096.425a1.1 1.1 0 0 1-.169.351q-.105.162-.376.231l-.057.166a1 1 0 0 0-.321-.072q-.168-.02-.25.15a.6.6 0 0 0-.217-.235 2 2 0 0 0-.295-.15 4 4 0 0 1-.281-.158.44.44 0 0 1-.187-.25.5.5 0 0 1-.393-.01 1.4 1.4 0 0 1-.324-.247 17 17 0 0 1-.298-.324.8.8 0 0 0-.339-.24.9.9 0 0 1-.242.128q-.148.037-.142.199.186.398.35.789.153.386.332.769.183.372.406.733.216.346.51.682a.45.45 0 0 0 .079.349q.11.148.25.283.13.13.239.28.114.138.102.319l.317.232q.166.131.324.247a1 1 0 0 0-.112.147q-.06.103-.127.192a.7.7 0 0 1-.15.147.22.22 0 0 1-.156.059q-.025.004-.099-.035l-.089-.03a1.6 1.6 0 0 1-.531-.367 8 8 0 0 1-.423-.466 10 10 0 0 0-.434-.47 1.5 1.5 0 0 0-.539-.345q.057-.166-.028-.244a.8.8 0 0 0-.184-.15 1.3 1.3 0 0 1-.173-.146q-.074-.074.001-.222a.44.44 0 0 1-.318-.01 1.633 1.633 0 0 1-.545-.471 5 5 0 0 0-.221-.26 1.2 1.2 0 0 1-.303-.129.8.8 0 0 1-.228-.238 4 4 0 0 0-.352-.492.4.4 0 0 0-.1-.108l-.099-.108a.9.9 0 0 0-.254-.236q-.155-.09-.299-.176a1.4 1.4 0 0 1-.25-.209.56.56 0 0 1-.12-.338.7.7 0 0 1-.211-.109l-.191-.165a6 6 0 0 0-.184-.149.7.7 0 0 0-.218-.124.5.5 0 0 1-.077-.138 2 2 0 0 0-.069-.16.7.7 0 0 0-.081-.126.23.23 0 0 0-.152-.064 1.4 1.4 0 0 0-.303-.091.37.37 0 0 1-.236-.18q-.152-.027-.221-.113a.8.8 0 0 1-.103-.208 2 2 0 0 1-.057-.23 1 1 0 0 0-.08-.238.2.2 0 0 1-.185-.038 1 1 0 0 1-.158-.153 2 2 0 0 1-.14-.209.8.8 0 0 0-.117-.163 2 2 0 0 0-.229-.202 2 2 0 0 1-.371-.436.9.9 0 0 1-.079-.312q-.237-.032-.336-.14a.8.8 0 0 1-.143-.271 4 4 0 0 1-.072-.334.7.7 0 0 0-.164-.316q.007-.134.024-.289.005-.16.043-.308a.9.9 0 0 1 .095-.277.5.5 0 0 1 .205-.202l.074-.037q.015-.008.026-.003l.022.007.075-.036.119-.059a.5.5 0 0 1 .119-.058.7.7 0 0 1 .177.06q.085.042.174.072t.174.035q.088-.007.16-.107.29.199.661.312.37.114.747.243.366.125.691.297.325.174.511.497l.54.271q-.038.147.031.233a.5.5 0 0 0 .162.142q.104.06.218.124a.36.36 0 0 1 .173.146q.081.126.195.264t.202.28q.087.141.131.304a.56.56 0 0 1-.021.315q.06.045.125.142a1.8 1.8 0 0 1 .212.431 1 1 0 0 1 .025.182q.003.1-.002.185a.5.5 0 0 0 .014.178q.022.12.076.249.055.13.083.264.03.134.021.267a.43.43 0 0 1-.117.233.64.64 0 0 1 .109.408 7 7 0 0 1-.066.374q-.045.17-.032.348.007.163.19.313.015.03.085.078a1 1 0 0 0 .085.041q.122.042.296.114.173.07.296.002a5 5 0 0 0-.186-.906 4.3 4.3 0 0 1-.179-.928l.115-.047q-.232-.117-.172-.294.05-.181.125-.366l.027-.078.011-.033a.1.1 0 0 1 .004-.048q.072-.21.261-.22t.363-.013q.092.168.254.31.154.127.331.261.181.125.354.27.166.13.291.309.089-.08.152-.047a.5.5 0 0 1 .118.09q.058.045.129.056.06.009.138-.113a.45.45 0 0 0 .136.219q.088.067.199.142.103.06.203.132a.4.4 0 0 1 .132.193q.115-.01.222.002a.4.4 0 0 1 .215.061q.252-.088.328-.235a.8.8 0 0 0 .087-.33l.021-.351a.6.6 0 0 1 .14-.337q-.105-.382-.108-.519-.003-.138-.002-.212a.6.6 0 0 0-.039-.211 6 6 0 0 0-.216-.494 1.35 1.35 0 0 0-.088-.575 2.6 2.6 0 0 1-.137-.58m-9.625-1.439a.27.27 0 0 1 .188.139q.044.088.08.201.025.107.061.219.03.096.148.149a.36.36 0 0 0 .113.249q.095.082.206.157.103.06.196.153.092.094.101.283l.104-.051q.209.479.587.856.384.366.781.688.113.212.302.35.177.135.365.273.18.124.335.288a.65.65 0 0 1 .175.394q.182-.062.293.013a.56.56 0 0 1 .195.19q.08.127.157.265a.48.48 0 0 0 .21.183.9.9 0 0 0 .129-.414 2.3 2.3 0 0 0-.015-.464 3.4 3.4 0 0 0-.116-.46 4 4 0 0 1-.115-.423l.104-.052a3 3 0 0 0-.386-1.047 9 9 0 0 0-.649-.928q-.111.074-.197.032l-.114-.101-.114-.1a5 5 0 0 0-.564-.379 9 9 0 0 0-1.13-.608 18 18 0 0 0-1.19-.505zm13.097-13.745q.292.124.413.277.114.138.198.29.088.142.206.306.12.153.412.314.02.415.163.65.131.23.256.41a.8.8 0 0 1 .161.364q.035.184-.145.532a1 1 0 0 0-.164.08 1 1 0 0 0-.156.096q.202.168.231.339a1 1 0 0 1 .009.337 3 3 0 0 0-.051.367.76.76 0 0 0 .105.419 2.2 2.2 0 0 1-.42.612 1.6 1.6 0 0 1-.421.29 1.7 1.7 0 0 1-.423.116q-.214.013-.412.045a1.3 1.3 0 0 0-.375.12.8.8 0 0 0-.346.29.35.35 0 0 0-.076.185q0 .074.036.148.037.075.096.156a.6.6 0 0 1 .084.153l-.164.08a1 1 0 0 1 .319.444q.08.237.071.519a3 3 0 0 1-.089.551q-.08.27-.163.514.223.213.297.436.072.223.063.467a3 3 0 0 1-.051.478 4 4 0 0 0-.063.511.5.5 0 0 0-.065.226l-.013.255q.007.126-.013.256a.28.28 0 0 1-.086.181q-.09.081-.167.054a.24.24 0 0 0-.163.007l-.008.022a.7.7 0 0 1-.273.328 1.3 1.3 0 0 1-.394.138q-.215.05-.441.06t-.419.03a7 7 0 0 0-.54-.159 3.3 3.3 0 0 1-.592-.19 2 2 0 0 1-.512-.311.9.9 0 0 1-.297-.473l-.011-.041-.142.088a.56.56 0 0 0-.172-.257 1.3 1.3 0 0 0-.285-.109 1.1 1.1 0 0 1-.15-.249 3 3 0 0 1-.124-.253 5.6 5.6 0 0 0-.429-.704 1.3 1.3 0 0 0-.656-.471.4.4 0 0 0-.104-.023l-.099-.034a1 1 0 0 0-.046-.338l-.116-.349a1.3 1.3 0 0 1-.083-.338.5.5 0 0 1 .069-.311q-.075 0-.137.003a.4.4 0 0 1-.13-.019.5.5 0 0 1-.287-.247l-.168-.342a7 7 0 0 0-.275-.502l-.089.043q.046-.17-.017-.278a3 3 0 0 0-.15-.212 1.4 1.4 0 0 1-.121-.227q-.058-.12.002-.296l.012-.033a.9.9 0 0 1-.22-.373 7 7 0 0 1-.152-.46 9 9 0 0 0-.145-.483 1 1 0 0 0-.257-.41 1.1 1.1 0 0 0-.046-.337 5 5 0 0 1-.098-.294 2 2 0 0 1-.068-.307 1 1 0 0 1 .04-.37l-.095-.194q-.058-.12-.04-.175.02-.056.067-.051l.082-.022q-.033-.085.027-.189a.8.8 0 0 1 .15-.22q.097-.104.202-.192.104-.088.16-.144a2.2 2.2 0 0 1 1.431.415 1 1 0 0 0-.03.125l-.046.133q-.044-.015-.081-.09l-.051-.103a.5.5 0 0 1-.245.139 8 8 0 0 1-.275.042.8.8 0 0 0-.26.073q-.126.043-.209.213a.74.74 0 0 0-.066.485q.04.249.122.475.073.223.142.42a.43.43 0 0 1-.013.33.9.9 0 0 1 .168.23l.125.217a1 1 0 0 0 .162.179.6.6 0 0 0 .292.087q.24.528.452 1.07.204.528.515 1.03l-.163.08a.24.24 0 0 1 .125.106q.04.063.092.13a1 1 0 0 0 .128.131.32.32 0 0 0 .182.049.7.7 0 0 0 .08.201q.047.078.117.164.077.1.139.208a1 1 0 0 1 .095.23l.007.015q.115.027.215.061l.222.076q.147.186.253.42.105.235.226.462.11.222.264.424.158.19.394.295a.48.48 0 0 0 .131.342q.13.131.28.232.152.101.296.187a.4.4 0 0 1 .187.213l.134-.066q.068.345.266.562.2.216.562.241l.015-.008.011.004q.387-.226.523-.552.135-.325.212-.732.038-.186.092-.341a5 5 0 0 1 .098-.325l.008-.022a.68.68 0 0 1-.075-.397 1.7 1.7 0 0 1 .088-.404q.06-.177.095-.351a.47.47 0 0 0-.068-.345.3.3 0 0 0-.066-.097 1 1 0 0 1-.07-.086l-.029-.059-.029-.06a.68.68 0 0 0 .1-.473 2.7 2.7 0 0 0-.153-.498q-.098-.255-.2-.502a1.2 1.2 0 0 1-.108-.482 1.3 1.3 0 0 0-.441-.522 3 3 0 0 0-.594-.327l-.303-.128a3 3 0 0 1-.247-.146 1 1 0 0 1-.203-.205 1.2 1.2 0 0 1-.168-.305l-.015-.03a2 2 0 0 0-.17-.009.6.6 0 0 1-.174-.034 1.1 1.1 0 0 1-.373-.214 9 9 0 0 1-.32-.295 4 4 0 0 0-.361-.321 1.6 1.6 0 0 0-.473-.248 10 10 0 0 1-.426-.53 6 6 0 0 1-.392-.592 3.6 3.6 0 0 1-.292-.632 2.1 2.1 0 0 1-.121-.66q.06-.14.131-.277.065-.152.132-.277.132.12.343.191.2.068.392.159.185.075.313.206.129.13.124.364.04-.011.141.023.092.02.136.034.333.114.583.36t.486.537q.227.277.467.556.242.269.53.44.133.084.213.247.084.153.165.316.084.153.202.28a.4.4 0 0 0 .295.113 1 1 0 0 1 .172.293q.052.142.121.265.058.119.18.197.122.08.359.073l.004-.011.011.004q.23-.058.452-.056.223 0 .438-.012.22-.024.419-.105a.9.9 0 0 0 .369-.32q-.114-.063-.087-.14.015-.083.045-.171l.149-.073q.063-.04.138-.077.166-.488.231-.788t.045-.53a1.8 1.8 0 0 0-.115-.497 40.364 40.364 0 0 1-.572-1.446 8 8 0 0 1-.265-.783m-4.417 2.604a.205.205 0 0 0-.187.147q-.045.133-.072.247.12-.058.253-.087l.26-.072a1 1 0 0 0-.095-.156q-.056-.093-.159-.08m5.491-10.36q.218.123.368.336.154.2.241.454.092.241.126.5.025.257-.007.494.031.382.01.696-.027.3-.104.596a6 6 0 0 1-.193.603q-.117.308-.272.687 0 .112.062.182.066.06.151.102.089.03.192.053a.7.7 0 0 1 .167.057.2.2 0 0 0 .009.189q.06.081.096.156.237.069.332.188.084.115.135.256.044.126.098.294a.76.76 0 0 0 .195.301.4.4 0 0 0 .114.101q.05.03.133.083.143.085.135.22a2 2 0 0 1-.024.251.6.6 0 0 0-.009.245q.01.114.195.19-.017.266.048.549.076.285.141.568.065.281.048.549a.82.82 0 0 1-.182.495l-.119.132a.6.6 0 0 1-.134.103 1 1 0 0 1-.112.036.4.4 0 0 0-.096.03 1.5 1.5 0 0 1-.445.033 3 3 0 0 1-.896-.206l-.421-.144a.13.13 0 0 0 .027-.114l-.052-.105-.311.006q.045-.06.027-.115a.4.4 0 0 0-.051-.104q-.145.136-.235.106a.35.35 0 0 1-.184-.113 2 2 0 0 1-.176-.209.4.4 0 0 0-.203-.168 4 4 0 0 1-.48-.226 10 10 0 0 1-.852-.587 5 5 0 0 0-.443-.3.64.64 0 0 0-.049-.4 6 6 0 0 1-.182-.41.74.74 0 0 1-.057-.378q.027-.189.303-.343a.95.95 0 0 1 .473.211q.195.154.368.337.173.182.364.347.196.153.481.188.044.485.354.74.314.243.708.428.119.052.255.124.126.067.229.165a.48.48 0 0 1 .318.083l.258.188a.9.9 0 0 0 .259.112q.126.03.293-.098a3.8 3.8 0 0 0-.193-1.465 5.2 5.2 0 0 0-.695-1.302q-.261-.36-.525-.674a4.4 4.4 0 0 0-.582-.582 3.3 3.3 0 0 0-.682-.431 2.8 2.8 0 0 0-.836-.236.33.33 0 0 0-.043-.237 1.2 1.2 0 0 1-.106-.235.28.28 0 0 1-.017-.204q.03-.089.231-.131.134-.141.245-.102a.46.46 0 0 1 .199.105q.1.07.203.13t.245-.027a.3.3 0 0 0 .073.112q.052.067.14.134.078.063.159.116.07.048.107.049.211-.04.264-.157a.9.9 0 0 0 .043-.27q0-.15.035-.286.027-.151.191-.232.061-.288.104-.522.03-.237.055-.452.027-.225.044-.455.009-.244.037-.544a.8.8 0 0 1-.135-.405q-.001-.212.015-.441m3.09-6.227.102.209.081.126a1 1 0 0 1 .069.123q.04.064.117.2.058.12.132.232.073.11.117.238-.078.12-.038.222.043.09.109.186l.118.164a.12.12 0 0 1 .014.14q.053.315.073.62.01.3.125.612l-.119.059.162 1.342a.5.5 0 0 0 .028.134q.025.07.04.137.05.29.07.594.012.29.014.574l-.004.16q.252-.014.31.106a.6.6 0 0 1 .046.3 3 3 0 0 1-.08.381.7.7 0 0 0-.029.337 2 2 0 0 0-.116.27 4 4 0 0 0-.062.289 2 2 0 0 1-.076.296q-.045.132-.132.277l-.007.022q.024.219-.08.344a.7.7 0 0 1-.239.19 2 2 0 0 1-.349.117 2.5 2.5 0 0 0-.364.086q-.111.037-.312.08a2 2 0 0 1-.411.045 1.2 1.2 0 0 1-.408-.04.52.52 0 0 1-.317-.195 1.7 1.7 0 0 0-.254-.272 1.3 1.3 0 0 0-.369-.188l-.144-.05a1 1 0 0 1-.148-.037 1 1 0 0 1 .052-.119l.042-.122a.2.2 0 0 0-.01-.115q-.03-.06-.129-.093a.11.11 0 0 0-.104.014.2.2 0 0 1-.082.022 1 1 0 0 1-.114-.175 2 2 0 0 0-.084-.153.5.5 0 0 0-.121-.116.54.54 0 0 0-.237-.068 2 2 0 0 1-.304-.45 4 4 0 0 1-.212-.506 9 9 0 0 1-.181-.52 5 5 0 0 0-.197-.513q.16-.18.114-.333a1.7 1.7 0 0 0-.109-.297 1.1 1.1 0 0 1-.11-.26q-.032-.123.147-.247l.029-.015q-.197-.402-.062-.69.14-.3.378-.453a.8.8 0 0 1 .487-.156q.232.006.246.22a.42.42 0 0 1 .33-.023q.167.057.258.187.1.146.217.272l.239.243q.218.198.405.41.176.21.248.506-.123.18-.05.292a.8.8 0 0 0 .188.176.7.7 0 0 1 .151.138q.051.067-.109.174l-.029.014.014.03q.058.12.151.212a.36.36 0 0 1 .121.19 2 2 0 0 0-.128.192l-.116.195a.7.7 0 0 1 .336.214q.103.134.142.309.032.16.027.356-.016.192.001.396.01.189.068.382.05.18.209.332a.47.47 0 0 0 .238-.228q.069-.164.118-.344.038-.185.095-.352a.57.57 0 0 1 .195-.28l.014-.007-.007-.015q.058-.278.052-.552a15 15 0 0 0-.033-.556 8 8 0 0 1-.033-.556 2.7 2.7 0 0 1 .034-.57.21.21 0 0 0 .149-.11.6.6 0 0 0 .053-.193l-.019-.019a2 2 0 0 1-.118-.09 1 1 0 0 1-.121-.115.6.6 0 0 1-.124-.253 1 1 0 0 1-.021-.267q.013-.144.051-.293.038-.147.065-.3l.007-.021-.029-.023q-.118-.09-.14-.171a.5.5 0 0 1-.024-.182q.008-.096.027-.189a.5.5 0 0 0-.002-.211q.133-.177.069-.348a4 4 0 0 0-.146-.335l.141-.05-.033-.049a10 10 0 0 0-.15-.323 2 2 0 0 1-.076-.212 1 1 0 0 1-.061-.22 13 13 0 0 0-.184-.73 3 3 0 0 0-.12-.376q.041-.048.108-.025l.111.038a.4.4 0 0 0 .059.045q.044.015.074 0m-2.953 4.119a.04.04 0 0 0-.019.018l-.015.008q-.201.19-.243.35a.54.54 0 0 0-.01.319q.036.148.132.305.087.141.157.3a.8.8 0 0 1 .064.32.63.63 0 0 1-.14.373l.333.188q.158.079.332.15.002.212.087.364.087.141.205.269.122.115.265.239.136.108.247.257l.07-.025q-.006-.053.068-.089l.104-.051a1.1 1.1 0 0 1-.19-.424 7 7 0 0 1-.078-.497 6 6 0 0 0-.089-.5.83.83 0 0 0-.219-.41.92.92 0 0 0-.218-.669 4 4 0 0 0-.519-.511 2 2 0 0 1-.162-.142 1 1 0 0 0-.162-.142M154.282 13.031q0 .215-.079.45-.078.214-.175.449a5 5 0 0 0-.176.488 1.5 1.5 0 0 0-.078.488l-.352.352.117.117a.73.73 0 0 0-.429.352q-.117.254-.215.546a4 4 0 0 1-.195.528.6.6 0 0 1-.411.312 3 3 0 0 1-.371.88q-.254.39-.527.76l-.195.235a2 2 0 0 0-.137.235q-.098.175-.176.37a1.7 1.7 0 0 1-.215.352q-.136.195-.293.39a3 3 0 0 0-.293.392 2 2 0 0 1-.136.195q-.058.078-.118.176l-.429.644q-.195.274-.332.703-.293.195-.489.489-.195.272-.351.566a7 7 0 0 1-.332.527q-.176.255-.43.391a.5.5 0 0 1-.215-.254 1.3 1.3 0 0 1-.039-.312v-.332a1.4 1.4 0 0 0 0-.332q.294-.119.391-.332.098-.215.137-.47a7 7 0 0 0 .097-.507.93.93 0 0 1 .332-.586 4 4 0 0 1 .157-.098q.254-.175.449-.508a7 7 0 0 0 .39-.742q.177-.39.313-.78.156-.411.332-.684l.508-.352-.117-.156q.234-.235.371-.508l.312-.547q.176-.293.371-.527.216-.235.547-.391-.039-.43.078-.781.137-.372.352-.664.215-.313.488-.586.274-.273.547-.567-.039-.429.273-.625a.4.4 0 0 0 .215.02 1 1 0 0 1 .254-.04q.117 0 .195.06.08.038.079.214M215.657 55.89q-.196.078-.235.235a1 1 0 0 0-.039.293q.02.156.02.313a.38.38 0 0 1-.117.273q.175.098.136.293a.7.7 0 0 0 0 .332.6.6 0 0 0-.195.234 2.5 2.5 0 0 0-.137.332 4 4 0 0 0-.097.352 5 5 0 0 1-.079.312 1.3 1.3 0 0 1-.214.43 3 3 0 0 1-.254.293 1.7 1.7 0 0 0-.254.273.64.64 0 0 0-.137.372q-.137-.02-.254.136v.235a.65.65 0 0 0-.43.175 1.7 1.7 0 0 0-.234.352q-.078.195-.176.41a.8.8 0 0 1-.273.313l-.156.078a.5.5 0 0 0-.118.058q-.234.177-.371.47a1.9 1.9 0 0 1-.351.487q.038.157.215.137.175-.02.293 0-.04.078.019.137l.098.097-.117.137q.156.215.332.293.195.078.41.196-.097.332-.039.624.078.293.039.626-.117-.039-.215.078a.7.7 0 0 1-.176.156.39.39 0 0 1 .254.351.42.42 0 0 1-.117.391 4.3 4.3 0 0 0-.664-1.113 4 4 0 0 0-.938-.88q-.156.099-.332 0a8 8 0 0 1-.332-.194.8.8 0 0 0-.273-.118q-.098-.039-.098.196v.136q.02.06.02.137a.94.94 0 0 0-.508.195q-.215.157-.469.274l-.117-.117q-.195.41-.527.527-.313.117-.664.156a6 6 0 0 0-.684.118q-.312.078-.488.449a.47.47 0 0 0-.352-.02 2.5 2.5 0 0 0-.332.098 1 1 0 0 1-.293.039q-.137-.02-.254-.254-.137.312-.293.41a.44.44 0 0 1-.312.078 1.2 1.2 0 0 1-.332-.097 2 2 0 0 0-.352-.118.65.65 0 0 0-.351-.02q-.177.04-.352.255a.9.9 0 0 1-.391-.078.9.9 0 0 1-.254-.235 3 3 0 0 1-.175-.332l-.157-.351q0-.216.02-.43 0-.214.215-.312-.098-.06-.098-.157a1.4 1.4 0 0 1-.019-.234.42.42 0 0 0 .371-.137q.136-.156.254-.312a.8.8 0 0 1 .254-.235q.136-.078.371.078h.214a.8.8 0 0 0 .196-.02q.097-.038.097-.097 0-.078-.156-.254.371-.312.762-.41.39-.117.801-.156.41-.06.82-.098.429-.038.84-.195.215.214.41.156t.371-.156a.9.9 0 0 1 .352-.117q.176-.039.371.234.234-.215.488-.195t.508.058q.254.04.488.02.254-.04.488-.371a.4.4 0 0 0 .293-.117q.118-.118.196-.274.097-.176.175-.332a.75.75 0 0 1 .196-.273l.117.136q.371-.156.586-.41.215-.273.351-.566.157-.292.293-.586a1.9 1.9 0 0 1 .391-.566q.098-.294.254-.606a8 8 0 0 0 .312-.664q.157-.331.235-.645a1.65 1.65 0 0 0 .058-.664.46.46 0 0 0-.195.098q-.078.06-.176.117a.5.5 0 0 1-.195.04q-.078-.021-.156-.137l-1.211.468q-.586.216-1.153.508-.156-.117-.39.059a2 2 0 0 1-.352.215V58a3.7 3.7 0 0 1-.605.293q-.312.117-.645.215a.25.25 0 0 1-.136.117.8.8 0 0 1-.196.02h-.234a1 1 0 0 0-.176-.02.6.6 0 0 0-.176.176q-.078.097-.195.058.02-.41.195-.761.177-.352.43-.664.254-.313.547-.586.293-.294.566-.586l.235.254q.312-.508.898-.899.606-.39 1.094-.722.098 0 .195.02.117 0 .176.097a.43.43 0 0 1 .312 0q.177.039.332.136.176.078.333.196.156.097.273.175l.117-.117a.23.23 0 0 0 .156.117h.215l.254-.507q.058.117.156.136.118.02.215.02l.117-.156a.65.65 0 0 1 .45.39q.117.274.293.489m-2.364-.253a.6.6 0 0 1-.175-.157q-.079-.117-.176-.078-.117.04-.117.176t.117.195h.195a.19.19 0 0 0 .156-.136m-6.172 8.418a.65.65 0 0 1-.351-.02.5.5 0 0 1-.274-.215q-.137-.058-.195-.02a.3.3 0 0 0-.117.079 1 1 0 0 0-.117.098q-.058.059-.196.078-.254.039-.566.078a3.7 3.7 0 0 0-.605.136q-.294.099-.547.254-.235.157-.371.41l.351.118q.097-.333.235-.43a.34.34 0 0 1 .293-.058.9.9 0 0 1 .332.117q.194.078.371.136.176.04.332-.02.175-.057.312-.35l.098.097q.058.059.019.137l.137-.118a.7.7 0 0 0 .215-.117q.137-.118.273-.214.138-.099.235-.137.117-.06.136.02zM201.801 94.008q-.293.156-.273.39.02.215.078.45.058.234.039.41t-.371.215a.6.6 0 0 1-.078.37q-.098.157-.254.274-.137.117-.313.215a2.4 2.4 0 0 0-.293.215l-.136-.156-.274.273a.45.45 0 0 1 .215.195q.078.138.137.254.078.118.175.196.099.078.274.039 0 .195.098.351.117.137.253.274.138.136.235.293a.62.62 0 0 1 .078.39q-.02.215 0 .469t.02.527q0 .254-.059.489a.64.64 0 0 1-.215.371 2.3 2.3 0 0 1-.176.781 3 3 0 0 1-.371.703 1.471 1.471 0 0 1-.254.332 3 3 0 0 1-.41.313q-.215.137-.449.273-.215.117-.41.274a1.4 1.4 0 0 0-.332.39q-.45.039-.938 0a1.7 1.7 0 0 0-.918.137 1 1 0 0 0-.097.117q-.059.058-.039.156a1.14 1.14 0 0 0-.606-.156q-.351 0-.605.156-.138.137-.118.274a37 37 0 0 1-1.894-.703 7.4 7.4 0 0 1-1.699-1.036 10 10 0 0 1-.215-.41 1.7 1.7 0 0 1-.156-.468.7.7 0 0 1 .019-.43q.058-.195.352-.293.195-.059.312.039.117.078.215.215l.234.273a.44.44 0 0 0 .293.156q.098-.136.196-.136.117 0 .234.058.117.04.234.098.138.04.274-.02.02.118 0 .293-.02.157.137.215.351-.039.761.059l.821.156q.41.078.8.059.392-.02.684-.274.137-.02.293 0l.312.039q.157 0 .313-.019a.7.7 0 0 0 .273-.137 1.1 1.1 0 0 1 .411-.371q.273-.156.527-.293.273-.156.449-.352.195-.215.195-.585a.8.8 0 0 0 .293-.235 1.2 1.2 0 0 0 .157-.293q.058-.176.097-.332.04-.176.137-.332a1.3 1.3 0 0 1-.43-.176 6 6 0 0 0-.351-.254 2.2 2.2 0 0 0-.371-.234 1 1 0 0 0-.45-.137q-.292-.331-.625-.39a1.9 1.9 0 0 0-.664-.04 4.5 4.5 0 0 0-.683.137 2 2 0 0 1-.684.04q-.117-.157-.215-.137a.5.5 0 0 0-.214.058q-.118.059-.254.118-.118.039-.254-.04a.54.54 0 0 0-.078-.351 5 5 0 0 0-.215-.313 2 2 0 0 1-.157-.312.47.47 0 0 1 .04-.371q.175-.313.468-.371.294-.078.625-.059l.684.04q.352 0 .625-.157a1 1 0 0 0 .508.058q.253-.058.508-.136.254-.097.488-.195.253-.098.508-.098.02-.255.175-.352.157-.098.332-.156.177-.078.313-.176.137-.117.098-.39-.45-.177-.86-.157a3.6 3.6 0 0 0-.82.137 10 10 0 0 0-.82.234q-.391.138-.821.176a.63.63 0 0 1-.527.157 1.6 1.6 0 0 0-.547-.02l-.137.137a1 1 0 0 0-.293-.293 3 3 0 0 1-.312-.274.6.6 0 0 1-.156-.332q-.02-.195.234-.43l-.117-.136a.7.7 0 0 1 .39-.117q.216-.02.43 0 .235 0 .43-.04.195-.038.332-.253a.3.3 0 0 0 .195.136h.215q.058-.215.234-.234.177-.04.371-.02.215 0 .411-.02.194-.038.293-.253l.156.137a1 1 0 0 0 .117-.098.17.17 0 0 0 .02-.176q.273.04.566.02l.586-.04a4 4 0 0 1 .566-.038q.274-.02.547.058a.23.23 0 0 1 .176-.136.6.6 0 0 1 .215 0q.253.253.469.547a.85.85 0 0 1 .195.663zM177.301 91.613q.059.157 0 .235a.3.3 0 0 1-.137.097q-.097.04-.195.098a.24.24 0 0 0-.137.156q-.234-.215-.371-.176a.6.6 0 0 0-.273.118 1.4 1.4 0 0 1-.274.175q-.156.06-.41-.078a1.5 1.5 0 0 1-.683.04 11 11 0 0 1-.625-.137 3 3 0 0 0-.606-.137 1.16 1.16 0 0 0-.644.117q.078.254-.059.41a1.4 1.4 0 0 1-.273.274 1 1 0 0 0-.215.254q-.078.117.078.332a7 7 0 0 0-.547.761q-.234.39-.508.762-.117.585-.41 1.133a2 2 0 0 1-.859.84.8.8 0 0 0-.196-.235 4 4 0 0 1-.214-.234 1 1 0 0 1-.157-.254.5.5 0 0 1 0-.332q.333-.255.469-.586a3.7 3.7 0 0 0 .234-.703q.099-.37.196-.723.097-.351.351-.644a1.7 1.7 0 0 1 .02-.45q.039-.234.039-.43a.7.7 0 0 0-.098-.37q-.098-.176-.41-.274-.175.136-.351.079a4 4 0 0 1-.313-.176 1 1 0 0 0-.352-.137q-.175-.06-.371.117-.351-.273-.605-.195a1.6 1.6 0 0 0-.508.273q-.234.195-.508.41a.9.9 0 0 1-.605.215 1 1 0 0 0-.235.235q-.097.117-.214.273-.099.137-.215.293a.9.9 0 0 1-.254.234q-.04-.078-.098-.078-.039-.02-.097 0-.06.02-.137.059a.4.4 0 0 1-.117.02 1.45 1.45 0 0 1-.332-.528 1.03 1.03 0 0 1-.039-.625q.097-.39.429-.742a8 8 0 0 1 .742-.723q.411-.351.801-.703a2.5 2.5 0 0 0 .586-.742q.254-.469.547-.86.312-.39.762-.722.136-.117.273-.195.156-.078.274-.176a1 1 0 0 0 .136-.117q.255.098.293.253a.5.5 0 0 1 .02.313q-.04.175-.137.371a.9.9 0 0 0-.078.352q-.254.02-.371.195a2.4 2.4 0 0 0-.215.41q-.078.235-.176.488a1 1 0 0 1-.293.391q.216.156.469.176.254.02.527 0 .293-.04.567-.04.292 0 .547.118a.47.47 0 0 1 .195.195q.078.117.137.235.058.097.136.136.078.02.215-.117V90.5q.078.156.215.137a.6.6 0 0 1 .254-.02 2.1 2.1 0 0 0 .547-.566 3.7 3.7 0 0 0 .39-.703q-.078-.157.157-.664.253-.528.586-1.114.351-.605.683-1.113.333-.527.43-.684.215-.331.449-.625.234-.312.508-.585v-.196a.23.23 0 0 1 .117-.156q.059.058.098.117.058.039.137 0l.097-.469a.4.4 0 0 0 .196.137q.117.02.234.059a.6.6 0 0 1 .215.078q.117.058.176.195a2 2 0 0 1-.176.371 7 7 0 0 0-.157.293 4 4 0 0 0-.156.313q-.059.155-.078.41a.9.9 0 0 1-.176.37 18 18 0 0 1-.254.333 2.4 2.4 0 0 0-.195.351q-.059.157.039.352l-.351.215q-.196.117-.118.371l.137.098a.5.5 0 0 0-.254.156 9 9 0 0 0-.254.312l-.273.352q-.117.176-.215.254 0 .235-.137.43l-.273.39a1.5 1.5 0 0 0-.215.371q-.058.196.059.43-.137.059-.118.215.02.137.02.254a.9.9 0 0 1 .234.175q.117.098.254.196a.8.8 0 0 0 .254.097q.137 0 .293-.117.293.02.488.118.215.097.411.175t.39.078q.215 0 .508-.195zm-4.023-3.36q0-.195-.02-.058v.157l.02-.059z"/></svg>