<svg width="195" height="128" viewBox="0 0 195 128" fill="none" xmlns="http://www.w3.org/2000/svg">
<path d="M81.8733 34.7833C80.6733 37.1833 0.373291 127.283 0.373291 127.283C0.373291 127.283 84.1733 40.8833 87.3733 39.2833C91.3733 37.2833 109.373 18.2833 111.873 13.7833C114.373 9.28325 120.873 -4.33796 109.373 2.28325C92.8733 11.7833 83.3733 31.7833 81.8733 34.7833Z" stroke="black" stroke-linecap="round"/>
<path d="M86.8733 33.7833C83.6733 34.9833 89.2067 27.9499 92.3733 24.2833C96.04 19.7833 104.573 9.68325 109.373 5.28325C115.373 -0.216745 109.373 10.7833 106.373 14.2833C104.476 16.4968 90.8733 32.2833 86.8733 33.7833Z" stroke="black" stroke-linecap="round"/>
<path d="M94.2356 14.7833C89.0041 9.02178 86.6615 8.5601 81.8733 7.28325C74.3733 5.28325 63.3733 14.7833 69.3733 16.2833C74.1733 17.4833 76.04 13.4499 76.3733 11.2833" stroke="black" stroke-linecap="round"/>
<path d="M97.3733 18.2833C98.1596 19.2309 98.4584 19.7777 99.3733 20.9361" stroke="black" stroke-linecap="round"/>
<path d="M99.3733 20.9361C100.298 22.1074 101.295 23.3928 102.373 24.8049" stroke="black" stroke-linecap="round"/>
<path d="M102.373 24.8049C103.735 26.5872 105.227 28.5714 106.873 30.7833C116.176 43.2833 161.873 44.2833 176.373 22.2833C183.575 11.3568 175.873 -0.716748 165.373 7.28325C154.873 15.2833 156.873 25.7833 176.373 25.7833C191.973 25.7833 194.873 23.4499 194.373 22.2833" stroke="black" stroke-linecap="round"/>
</svg>
