<svg xmlns="http://www.w3.org/2000/svg" viewBox="0 0 195 128" width="195" height="128" fill="none"><path stroke="rgba(0, 0, 0, .87)" stroke-linecap="round" d="M81.873 34.783c-1.2 2.4-81.5 92.5-81.5 92.5s83.8-86.4 87-88c4-2 22-21 24.5-25.5s9-18.121-2.5-11.5c-16.5 9.5-26 29.5-27.5 32.5Z"/><path stroke="rgba(0, 0, 0, .87)" stroke-linecap="round" d="M86.873 33.783c-3.2 1.2 2.334-5.833 5.5-9.5 3.667-4.5 12.2-14.6 17-19 6-5.5 0 5.5-3 9-1.897 2.214-15.5 18-19.5 19.5ZM94.236 14.783c-5.232-5.761-7.574-6.223-12.363-7.5-7.5-2-18.5 7.5-12.5 9 4.8 1.2 6.667-2.833 7-5"/><path stroke="rgba(0, 0, 0, .87)" stroke-linecap="round" d="M97.373 18.283c.787.948 1.085 1.495 2 2.653M99.373 20.936a302 302 0 0 1 3 3.869M102.373 24.805a592 592 0 0 1 4.5 5.978c9.303 12.5 55 13.5 69.5-8.5 7.202-10.926-.5-23-11-15s-8.5 18.5 11 18.5c15.6 0 18.5-2.333 18-3.5"/></svg>