<svg xmlns="http://www.w3.org/2000/svg" viewBox="0 0 268 283" width="268" height="283" fill="none"><path fill="rgba(0, 0, 0, .87)" d="m108 170.222.49.098zm2-41-.499-.032-.001.013zm5-53-.478-.147zm-6-25-.436.245zm-6.5-9 .447-.223zm-32-6-.085-.492zm-1.5-7-.288-.408zm15.5-17.5-.41-.287zm34.5-11-.186.464zm59.5 33.5-.494-.079zm-19.5 150.5.494.08zm60 34.5.481.136.027-.095-.011-.098zm-40.5-168-.141.48zm26-29-.224.447zm-16.5-10 .277-.416zM115 .967l-.08-.493zm-8.5 22.255-.462-.19zm48-14-.098.49zm-4 8.5-.44-.237zm8.275 172 .5.018zm-1.275 18 .489-.106-.086-.394h-.403zm1.197 5.5.5-.012zm-46.052-4.5-.062.496a.501.501 0 0 0 .557-.566zM48 106.222l.455.207zm2.5-45.5.495.073zm0 182.5.212.453a.5.5 0 0 0 .257-.626zm-50-6.5-.285-.411a.5.5 0 0 0-.15.656zm19-10 .082.493zm-2-70.5-.486-.118zm47.5-134-.33-.376zm15.865-6 .375.331zM94 34.538l.134-.482zm-3.5 19.184.48.137zm-11 18.5.248.434zm-30.212 7.25-.5-.006zM89.36 34.539l-.08-.494zM88 49.722l.492.09zm-13.5 22.5.127.484zm162.5 204 .248-.434zm17 3.5.454.21zm7-26-.241.438zm-42.971-31-.482-.132zm48.799 35 .493.083zm-11.328-148 .482-.131zm-21-65-.245.436zm-15.5 43 .492.088zm-.971 85.5.498.051zM201.5 72.722l-.416.278zm11 8.5.144-.479zm-18-26.095.085-.492zm1.5 14.095-.455.207zM112.698 8.166l-.473-.163zm0 19.556-.496.06zm2.302 22 .482-.133zm-.372 11-.483.128zm-10.128-11-.42.272zm53.87 162-.488.107zm38.63-4-.168-.471zm-24-150.5.06.497zm6.751-1.64-.309-.392-.037.028-.031.035zM174 59.223l.082.493zm-4 66.5-.483-.129zm-16 100.5.497-.055zm-46-56 .49.098c.058-.287.12-.95.189-1.87.07-.936.147-2.176.231-3.645.167-2.937.358-6.799.552-10.997.388-8.398.788-18.149 1.038-24.566l-.5-.02-.5-.019c-.25 6.416-.65 16.164-1.037 24.559-.194 4.197-.384 8.054-.551 10.986-.084 1.467-.161 2.7-.23 3.628-.071.943-.13 1.535-.172 1.748zm2-41 .499.032c.5-7.747 1.35-19.693 2.274-30.351.462-5.33.943-10.333 1.408-14.328.467-4.015.913-6.959 1.297-8.206l-.478-.147-.478-.147c-.416 1.353-.87 4.397-1.334 8.385-.467 4.008-.948 9.023-1.411 14.357-.926 10.667-1.776 22.621-2.276 30.373zm-1-78 .436-.245c-1.154-2.05-2.311-3.336-3.403-4.584-1.088-1.242-2.115-2.453-3.086-4.394l-.447.223-.447.224c1.029 2.059 2.127 3.348 3.227 4.605 1.095 1.252 2.188 2.467 3.284 4.416zm-38.5-15-.085-.492c-.698.12-1.498.044-2.21-.209-.717-.254-1.294-.666-1.606-1.168-.296-.478-.386-1.088-.043-1.857.353-.794 1.173-1.765 2.732-2.865L69 29.222l-.288-.408c-1.632 1.151-2.613 2.25-3.07 3.276-.468 1.05-.375 2.012.107 2.79.467.752 1.264 1.28 2.122 1.584.86.305 1.834.403 2.714.25zM119 .722l-.186.464c.371.149.921.264 1.568.36.658.095 1.454.174 2.34.237 1.773.126 3.926.19 6.09.19 2.165 0 4.349-.064 6.183-.19 1.813-.124 3.344-.313 4.163-.586L139 .722l-.158-.474c-.681.227-2.088.412-3.915.538a93 93 0 0 1-6.115.186c-2.148 0-4.276-.062-6.019-.186a32 32 0 0 1-2.267-.23c-.636-.093-1.086-.196-1.34-.298zm20 0 .158.475c.126-.042.39-.088.816-.124.413-.034.942-.057 1.572-.067 1.26-.02 2.904.009 4.802.083 3.794.148 8.58.475 13.29.943 4.712.468 9.333 1.076 12.801 1.782 1.737.353 3.164.728 4.163 1.114q.75.292 1.113.556c.257.185.288.295.29.309l.495-.07.495-.071c-.061-.424-.369-.744-.696-.98-.341-.245-.8-.47-1.336-.677-1.078-.416-2.569-.804-4.324-1.161-3.517-.716-8.177-1.327-12.902-1.797-4.728-.47-9.535-.798-13.35-.947-1.908-.075-3.572-.104-4.857-.084-.642.01-1.195.034-1.639.07-.431.037-.8.089-1.049.172zm39.5 33.5-.494-.079c-.982 6.142-4.679 12.686-7.876 18.204-1.587 2.738-3.057 5.234-3.969 7.264-.456 1.015-.787 1.944-.917 2.75-.13.8-.074 1.56.349 2.152l.407-.29.407-.291c-.202-.283-.287-.727-.176-1.411.11-.679.4-1.515.842-2.5.885-1.97 2.321-4.411 3.922-7.173 3.178-5.483 6.981-12.189 7.999-18.547zm-12.5 30-.407.29c1.241 1.738 3.723 5.462 5.643 9.488.96 2.013 1.773 4.087 2.222 6.016.452 1.937.525 3.675.068 5.048l.474.158.474.158c.542-1.626.428-3.576-.042-5.592-.472-2.024-1.316-4.17-2.293-6.218-1.955-4.1-4.473-7.876-5.732-9.638zm8 21-.474-.158c-1.012 3.036-2.768 10.691-4.081 17.944-.657 3.631-1.206 7.176-1.497 10.007-.145 1.414-.227 2.66-.224 3.654.001.497.024.94.073 1.313.048.366.125.702.256.964l.447-.224.447-.223c-.057-.114-.116-.321-.159-.646a10 10 0 0 1-.064-1.187c-.003-.944.075-2.151.219-3.549.287-2.794.831-6.312 1.486-9.931 1.312-7.247 3.057-14.842 4.045-17.806zm-5.5 33.5-.447.224c.124.249.197.78.162 1.632-.034.822-.163 1.855-.364 3.037-.403 2.362-1.086 5.267-1.835 8.17a371 371 0 0 1-2.216 8.106c-.651 2.302-1.16 4.083-1.29 4.733l.49.098.49.098c.12-.599.611-2.319 1.272-4.657.657-2.32 1.471-5.216 2.222-8.128s1.443-5.848 1.853-8.252c.204-1.201.341-2.281.377-3.164.036-.854-.016-1.619-.267-2.12zm-5.5 26-.49-.098c-.137.685-.135 1.624-.143 3.041a122 122 0 0 1-.179 6.343c-.311 5.791-1.184 15.147-3.682 30.635l.494.079.494.08c2.502-15.513 3.379-24.906 3.693-30.74.157-2.918.172-4.943.18-6.392.008-1.473.01-2.285.123-2.85zm-4 78h-.5v5h1v-5zm51.5-168 .224.447c1.308-.654 2.131-1.408 2.555-2.293.425-.887.41-1.824.21-2.758-.198-.924-.591-1.904-.976-2.89-.392-1.002-.784-2.032-1.025-3.114l-.488.108-.488.109c.259 1.167.679 2.262 1.069 3.26.396 1.015.753 1.91.93 2.736.175.816.16 1.504-.134 2.117-.295.615-.909 1.235-2.101 1.831zm-6-32.5.224-.447c-5.967-2.983-13.441-7.965-16.447-9.969l-.277.416-.277.416c2.994 1.996 10.52 7.015 16.553 10.031zm-16.5-10 .277-.416c-2.395-1.597-7.325-4.994-9.492-6.495l-.285.411-.285.411c2.166 1.5 7.103 4.902 9.508 6.505zm-103.5-.5.41.287c.3-.428.845-.911 1.634-1.433.782-.516 1.77-1.05 2.917-1.588 2.294-1.076 5.192-2.157 8.28-3.16 6.18-2.004 13.074-3.678 17.339-4.367L115 .967l-.08-.493c-4.325.699-11.269 2.386-17.487 4.403-3.11 1.01-6.05 2.105-8.397 3.206-1.173.55-2.207 1.107-3.043 1.659-.828.547-1.496 1.113-1.903 1.693zM115 .967l.08.494a28 28 0 0 1 2.543-.315q.495-.03.812-.015c.222.012.337.038.379.055L119 .722l.186-.464c-.199-.08-.448-.112-.7-.125a8 8 0 0 0-.927.016c-.704.045-1.601.157-2.639.325zm-12.5 41.255.447-.223c-.511-1.022-1.23-2.28-2.104-3.449-.87-1.162-1.917-2.268-3.093-2.946l-.25.433-.25.434c1.008.58 1.959 1.565 2.792 2.678.829 1.108 1.518 2.312 2.011 3.297zm4-19-.462-.19c-1.736 4.216-3.212 6.544-4.61 8.222-.701.843-1.389 1.53-2.097 2.22-.706.688-1.439 1.385-2.202 2.228l.371.335.37.336c.738-.814 1.443-1.485 2.159-2.183.713-.695 1.432-1.412 2.168-2.296 1.477-1.775 3.001-4.197 4.765-8.481zM115 .967l-.48-.14c-.39 1.33-.895 2.967-1.476 4.74l.475.155.475.156a163 163 0 0 0 1.486-4.77zm39.5 8.255-.098.49c2.501.5 3.963.755 5.336.883 1.372.128 2.647.127 4.762.127v-1c-2.127 0-3.353 0-4.67-.123-1.316-.122-2.733-.367-5.232-.867zm24-3.5-.495.07c.081.566.263 1.573.488 2.86.226 1.294.498 2.888.763 4.645l.495-.075.494-.074a207 207 0 0 0-.767-4.668c-.228-1.304-.405-2.284-.483-2.828zm1.251 7.5-.495.075c1.133 7.506-.554 16.497-1.25 20.846l.494.08.494.078c.686-4.289 2.413-13.458 1.251-21.153zm-15.251-3v.5c.808 0 2.067.236 3.567.596 1.487.357 3.156.823 4.771 1.262 1.607.437 3.163.848 4.4 1.086.616.12 1.173.2 1.625.214.227.008.442 0 .635-.034.186-.033.394-.097.565-.233l-.312-.39-.313-.391c.015-.012-.006.01-.113.029q-.149.027-.429.02c-.374-.013-.871-.081-1.469-.197-1.193-.23-2.715-.631-4.327-1.07-1.604-.435-3.294-.907-4.8-1.269-1.492-.358-2.858-.623-3.8-.623zM145 8.166l-.045.498c4.636.418 8.169.793 9.447 1.049l.098-.49.098-.491c-1.344-.269-4.942-.648-9.553-1.064zm5.5 9.556.44.237c.156-.29.17-.676.145-1.026a7.6 7.6 0 0 0-.232-1.303c-.246-.964-.67-2.118-1.214-3.24-.544-1.119-1.218-2.228-1.974-3.088-.743-.845-1.63-1.524-2.61-1.633l-.055.497-.055.497c.604.067 1.279.515 1.969 1.3.677.77 1.306 1.795 1.825 2.865.519 1.068.918 2.159 1.145 3.049.114.446.182.83.203 1.127q.015.224 0 .354a1 1 0 0 1-.018.098l-.009.03zm-36.981-12-.034.499c7.116.495 18.808 1.353 27.972 2.136l.043-.498.043-.498c-9.172-.784-20.87-1.643-27.989-2.138zM141.5 7.86l-.043.498c1.216.104 2.388.207 3.498.307l.045-.498.045-.498c-1.112-.1-2.285-.203-3.502-.307zm0 0-.5-.015c-.25 8.226-.675 20.764-1.137 31.646-.231 5.44-.472 10.465-.704 14.328-.117 1.932-.231 3.57-.341 4.824-.111 1.27-.215 2.105-.303 2.459l.485.121.485.121c.111-.445.22-1.364.33-2.614.111-1.267.225-2.915.342-4.85.233-3.872.474-8.904.705-14.347.463-10.886.888-23.43 1.138-31.658zM139 61.222l-.485-.121c-.072.288-.151.849-.238 1.611-.088.775-.188 1.79-.296 3.009a580 580 0 0 0-.738 9.497c-.539 7.597-1.148 17.35-1.68 26.977-.531 9.626-.984 19.131-1.211 26.23-.114 3.549-.17 6.502-.152 8.571.009 1.033.038 1.857.089 2.427.025.282.057.524.103.705.021.086.053.192.108.287.038.067.189.307.5.307v-1c.129 0 .227.054.284.101.053.043.077.085.084.097.014.023.008.022-.006-.034a4 4 0 0 1-.077-.552c-.048-.529-.076-1.321-.085-2.347-.018-2.048.038-4.985.151-8.53.227-7.088.68-16.584 1.211-26.207s1.14-19.37 1.679-26.961c.269-3.796.521-7.05.737-9.48.107-1.215.206-2.22.293-2.984q.133-1.164.214-1.482zm-4 79v.5a.4.4 0 0 1-.291-.118c-.041-.042-.052-.074-.047-.063.009.022.03.092.051.237q.062.42.069 1.299c.009 1.161-.059 2.832-.18 4.858-.241 4.047-.694 9.462-1.163 14.932-.468 5.466-.953 10.987-1.258 15.233-.153 2.123-.261 3.935-.299 5.265a23 23 0 0 0-.002 1.634c.01.207.026.391.05.542.02.126.056.312.154.459l.416-.278.416-.277c.035.052.021.064.001-.061a4 4 0 0 1-.038-.432c-.018-.379-.016-.903.003-1.558.037-1.308.144-3.102.296-5.222.305-4.238.789-9.748 1.258-15.22.468-5.467.922-10.895 1.165-14.958.121-2.029.19-3.729.181-4.925-.004-.594-.028-1.085-.079-1.436a2 2 0 0 0-.121-.483.8.8 0 0 0-.16-.247.6.6 0 0 0-.422-.181zm-25.393 46 .496-.063c-.521-4.1-.971-7.849-1.267-10.696a101 101 0 0 1-.316-3.513 23 23 0 0 1-.05-1.101 3 3 0 0 1 .02-.529l-.49-.098-.49-.098a4 4 0 0 0-.04.738c.004.309.022.698.053 1.154.06.915.17 2.122.318 3.551.297 2.857.748 6.616 1.27 10.718zm0 0 .036.499c6.815-.501 20.881-1.499 22.857-1.499v-1c-2.024 0-16.149 1.003-22.93 1.502zm49.393-1.5-.494-.079c-.274 1.698-.173 3.477-.231 5.061l.5.018.5.018c.062-1.718-.043-3.318.219-4.938zm-26.5 0-.084.493c4.381.75 10.95 1.899 16.422 2.911 2.737.506 5.196.978 6.968 1.347.887.184 1.596.342 2.08.466q.365.093.528.15c.058.02.078.03.076.029l-.018-.011a.4.4 0 0 1-.047-.037c-.018-.017-.158-.143-.15-.366l.5.018.5.018a.53.53 0 0 0-.174-.407.7.7 0 0 0-.14-.097 2 2 0 0 0-.218-.092 8 8 0 0 0-.61-.174 52 52 0 0 0-2.123-.476 337 337 0 0 0-6.99-1.351 1383 1383 0 0 0-16.436-2.914zm-20.9 16.5.495-.068c-.67-4.876-1.38-10.175-1.992-14.995l-.496.063-.496.063c.613 4.825 1.323 10.128 1.994 15.005zm0 0-.085.493a5778 5778 0 0 0 23.99 4.063c4.061.677 7.766 1.287 10.53 1.727 1.383.22 2.531.398 3.373.522.421.061.767.109 1.028.142.247.031.451.053.564.053v-1h-.011l-.029-.002-.094-.008-.305-.035a59 59 0 0 1-1.008-.14c-.835-.122-1.979-.3-3.36-.519-2.762-.44-6.463-1.049-10.523-1.726a5633 5633 0 0 1-23.986-4.063zm39.4 6.5v.5h6.5v-1H151zm7.775-18-.5-.018c-.327 8.991-.233 17.415-.078 23.531l.5-.013.5-.012c-.155-6.104-.248-14.507.078-23.47zm-46.13 19 .495-.07c-.321-2.271-.677-4.821-1.045-7.498l-.495.068-.495.068c.368 2.679.724 5.229 1.045 7.502zm-40.145-3v-.5c-1.984 0-8.835-.497-15.577-1.309-3.367-.405-6.694-.888-9.36-1.423-1.334-.268-2.494-.547-3.407-.834-.933-.293-1.543-.574-1.836-.818l-.32.384-.32.384c.457.381 1.237.709 2.177 1.004.96.302 2.158.589 3.509.86 2.703.543 6.059 1.029 9.438 1.436 6.75.813 13.65 1.316 15.696 1.316zm-26.5-47.5h.5c0-5.508-.125-17.122.062-28.054.094-5.465.266-10.752.57-15.012.151-2.13.336-3.997.559-5.498.225-1.516.483-2.611.764-3.229l-.455-.207-.455-.207c-.344.757-.617 1.975-.843 3.496-.228 1.536-.415 3.431-.568 5.574-.306 4.287-.478 9.594-.571 15.066-.188 10.943-.063 22.579-.063 28.071zm4.5-97.5.495.073c2-13.608 3.502-26.682 4.002-31.521l-.497-.052-.497-.051c-.5 4.827-1.999 17.887-3.998 31.479zm-8.5 140.5-.497-.057a110 110 0 0 0-.64 9.17c-.088 3.452.032 6.945.658 9.031l.479-.144.479-.143c-.574-1.914-.704-5.255-.617-8.719.087-3.441.386-6.926.635-9.08zm0 18-.479.144c1.206 4.019 6.18 17.704 8.51 24.029l.469-.173.47-.173c-2.337-6.341-7.297-19.989-8.491-23.97zm8.5 24-.212-.452c-10.667 4.999-30.716 14.607-32.512 15.505l.224.447.224.447c1.782-.891 21.821-10.494 32.488-15.494zm-32.5 15.5-.224-.447c-1.119.56-2.016.958-2.751 1.192-.74.235-1.266.288-1.665.209-.733-.146-1.283-.804-1.886-2.612l-.474.158-.474.158c.597 1.792 1.297 3.01 2.639 3.276.639.127 1.355.021 2.163-.236.812-.258 1.765-.685 2.896-1.251zm-7-1.5.474-.158c-.615-1.846-2.512-5.677-4.606-9.674a448 448 0 0 0-5.932-10.913l-.436.245-.436.245a448 448 0 0 1 5.918 10.887c2.106 4.02 3.96 7.773 4.544 9.526zm8.5-30.5.082.493c1.561-.26 3.714-1.03 6.04-1.975 2.334-.948 4.895-2.094 7.273-3.121 2.39-1.033 4.59-1.943 6.237-2.442.83-.251 1.478-.384 1.924-.391.223-.004.354.025.422.055.05.022.045.033.046.035l.476-.154.476-.154c-.1-.31-.322-.521-.593-.642-.255-.112-.55-.145-.844-.14-.59.01-1.347.177-2.197.434-1.71.518-3.96 1.451-6.343 2.481-2.396 1.035-4.933 2.17-7.254 3.113-2.33.946-4.388 1.675-5.827 1.915zm-19 10 .285.411c.442-.306.944-.647 1.492-1.012L2 235.705l-.277-.416c-.553.368-1.06.712-1.508 1.022zm1.5-1.017.277.416c2.396-1.594 5.68-3.652 8.9-5.399 3.238-1.758 6.344-3.163 8.405-3.507l-.082-.493-.082-.493c-2.246.374-5.486 1.86-8.718 3.614-3.253 1.765-6.565 3.84-8.977 5.446zm0 0 .498.048c1.33-13.789 10.988-60.913 15.488-79.413l-.486-.118-.486-.118c-4.5 18.501-14.175 65.687-15.512 79.553zm15.5-79.483.486.118c2.358-9.694 5.236-26.589 7.71-42.042 2.476-15.473 4.547-29.492 5.295-33.484l-.491-.092-.491-.092c-.752 4.008-2.829 18.069-5.3 33.51-2.476 15.461-5.348 32.316-7.695 41.964zm13-75.5.491.092c.377-2.006.94-5.516 1.635-9.705.695-4.195 1.523-9.08 2.428-13.856.905-4.777 1.887-9.435 2.89-13.175.502-1.87 1.006-3.502 1.506-4.8.506-1.314.988-2.233 1.424-2.724l-.374-.332-.374-.332c-.564.634-1.097 1.7-1.61 3.029-.517 1.344-1.032 3.013-1.538 4.9-1.013 3.776-2 8.462-2.907 13.248-.907 4.787-1.736 9.682-2.431 13.878-.697 4.202-1.258 7.692-1.631 9.685zm10-44.5.374.332c.941-1.059 2.66-2.244 4.828-3.492 2.156-1.24 4.705-2.516 7.267-3.765 2.556-1.247 5.129-2.47 7.308-3.6 2.167-1.122 4-2.178 5.052-3.098L65 22.222l-.33-.376c-.947.83-2.676 1.836-4.853 2.964-2.165 1.12-4.717 2.335-7.286 3.588-2.563 1.25-5.14 2.538-7.327 3.797-2.175 1.252-4.02 2.504-5.078 3.695zm28.5-7 .288.409c8.543-6.03 8.48-9.154 11.952-13.077l-.375-.332-.374-.331c-3.773 4.264-3.322 6.953-11.78 12.923zm11.865-13 .375.331c1.41-1.593 2.676-3.124 3.67-4.544l-.41-.287-.41-.287c-.962 1.375-2.2 2.874-3.6 4.456zm-15.865 6 .33.377c1.517-1.329 4.407-2.595 7.48-3.64a75 75 0 0 1 8.158-2.247l-.103-.49-.103-.489a76 76 0 0 0-8.274 2.278c-3.07 1.046-6.135 2.363-7.817 3.835zm29 12.316.134-.482c-.77-.213-1.501-.334-2.134-.334v1c.516 0 1.153.1 1.866.298zm0 0-.498-.045c-.497 5.527-2.79 16.656-3.483 19.092l.481.137.48.137c.71-2.49 3.015-13.68 3.518-19.276zm-3.5 19.184-.48-.137c-1.168 4.1-2.438 13.443-10.768 18.203l.248.434.248.434C88.52 67.644 89.871 57.76 90.981 53.86zm-42.5 52.5.455.207c.445-.978.726-2.417.912-4.163.188-1.759.283-3.88.332-6.251.097-4.721.01-10.56.089-16.536l-.5-.006-.5-.007c-.08 6.047.009 11.781-.089 16.528-.049 2.362-.143 4.449-.326 6.166-.184 1.729-.454 3.032-.828 3.855zm44-72v-.5c-.574 0-1.543.131-2.719.322l.08.494.08.494c1.194-.194 2.08-.31 2.559-.31zm-2.639.316-.08-.494c-2.75.447-6.061.63-9.402.819-3.325.188-6.68.385-9.464.867l.085.492.085.493c2.716-.47 6.01-.665 9.35-.854 3.324-.188 6.693-.372 9.506-.83zm0 0-.494.075c.2 1.311.238 6.234-1.359 15.02l.492.09.492.089c1.603-8.815 1.59-13.87 1.364-15.35zM88 49.722l-.492-.09c-1.002 5.513-1.993 10.443-3.894 14.307-1.886 3.832-4.656 6.593-9.241 7.8l.127.483.127.484c4.915-1.294 7.895-4.282 9.884-8.326 1.974-4.01 2.983-9.08 3.98-14.568zm-38.712 29.75.5.007c.014-1.076.033-2.16.06-3.244l-.5-.013-.5-.012q-.04 1.636-.06 3.256zm.06-3.25.5.013c.131-5.283.436-10.61 1.147-15.44l-.495-.073-.495-.072c-.719 4.888-1.025 10.26-1.157 15.56zm161.652 176-.121.485c.022.006.105.04.263.163q.223.174.549.509c.435.447.975 1.078 1.63 1.866 1.302 1.567 3.032 3.725 5.186 6.143 4.311 4.84 10.353 10.759 18.245 15.268l.248-.434.248-.434c-7.76-4.434-13.719-10.266-17.994-15.065-2.139-2.401-3.85-4.535-5.164-6.117-.654-.787-1.217-1.445-1.682-1.924a7 7 0 0 0-.651-.6c-.192-.15-.408-.288-.636-.345zm26 24-.248.434c1.677.959 5.271 3.513 8.743 4.965 1.743.729 3.537 1.22 5.121 1.076 1.629-.148 3.009-.969 3.838-2.765l-.454-.21-.454-.209c-.671 1.454-1.728 2.07-3.021 2.188-1.339.122-2.95-.294-4.645-1.003-3.403-1.423-6.809-3.868-8.632-4.91zm-18-57-.481-.135c-.301 1.07-.629 2.249-.972 3.503l.482.132.483.132c.342-1.252.669-2.428.969-3.496zm-.971 3.5-.482-.132c-1.536 5.612-3.658 12.915-5.211 18.84-.776 2.963-1.415 5.6-1.77 7.523-.176.957-.287 1.76-.303 2.346-.009.288.004.558.06.779.048.189.179.535.556.629l.121-.485.121-.485c.197.049.201.213.172.096a2 2 0 0 1-.031-.506c.015-.506.113-1.247.288-2.193.347-1.884.978-4.49 1.754-7.45 1.552-5.923 3.664-13.19 5.208-18.83zm42.971 31 .241-.438c-3.966-2.181-11.933-7.784-20.309-13.927a1195 1195 0 0 1-22.597-17.03l-.306.395-.306.396a1196 1196 0 0 0 22.617 17.045c8.361 6.132 16.385 11.778 20.419 13.997zm5.828 4 .493.083c.058-.347-.095-.647-.306-.895-.209-.245-.533-.509-.975-.815-.891-.615-2.394-1.488-4.799-2.811l-.241.438-.241.438c2.412 1.327 3.87 2.176 4.712 2.758.425.293.661.498.783.641.12.14.07.149.081.081zm0 0 .5-.01c-.443-21.671-1.328-66.896-1.328-74.49h-1c0 7.607.886 52.848 1.328 74.51zm-1.328-74.5h.5c0-4.791-1.756-20.455-3.879-36.254-2.124-15.8-4.628-31.838-6.139-37.377l-.482.131-.482.132c1.489 5.461 3.985 21.423 6.111 37.247 2.127 15.827 3.871 31.413 3.871 36.121zm-31-138.5.245-.436c-4.005-2.252-7.93-4.432-11.263-6.456-3.343-2.03-6.046-3.878-7.628-5.461l-.354.353-.354.354c1.677 1.677 4.475 3.579 7.817 5.608 3.352 2.036 7.297 4.227 11.292 6.474zm-23.5-.5.488-.108c-.509-2.292-1.91-5.61-3.143-9-1.252-3.442-2.345-6.99-2.345-9.892h-1c0 3.099 1.157 6.8 2.405 10.234 1.267 3.484 2.616 6.667 3.107 8.875zm-5.5-19 .448-.221c-.328-.665-.371-1.227-.427-1.747-.052-.477-.12-1.14-.797-1.479l-.224.447-.224.447c.133.067.192.148.251.692.054.501.106 1.236.525 2.083zm10 7.5.354-.353c-3.25-3.25-5.332-5.15-6.834-6.24-1.52-1.101-2.496-1.407-3.52-1.407v1c.748 0 1.522.195 2.934 1.218 1.43 1.036 3.462 2.885 6.712 6.136zm40 77 .482-.131c-.655-2.404-1.648-6.662-2.888-11.91-1.238-5.243-2.719-11.462-4.348-17.77-1.628-6.308-3.405-12.71-5.235-18.321-1.828-5.602-3.719-10.448-5.582-13.62l-.431.252-.431.253c1.805 3.075 3.669 7.833 5.493 13.425 1.821 5.582 3.592 11.962 5.218 18.26s3.105 12.508 4.343 17.75c1.236 5.236 2.235 9.518 2.897 11.944zm-18.002-61.5.431-.253c-1.026-1.747-2.086-3.065-3.184-3.683l-.245.436-.245.436c.852.48 1.801 1.596 2.812 3.317zM219 87.722l-.492-.087c-2.761 15.558-2.493 31.98-1.794 46.985.7 15.038 1.828 28.6.818 38.552l.497.05.498.051c1.019-10.049-.118-23.736-.814-38.699-.699-14.995-.96-31.323 1.779-46.764zm-21.5-32.14-.064.497c2.601.337 5.125.504 7.391.392 2.259-.111 4.295-.501 5.897-1.302l-.224-.447-.224-.447c-1.426.713-3.307 1.09-5.499 1.197-2.186.108-4.647-.052-7.213-.385zm0 0-.495-.072c-.345 2.354-.105 5.549.601 8.722.706 3.176 1.891 6.388 3.478 8.768l.416-.278.416-.277c-1.496-2.244-2.644-5.328-3.334-8.43-.69-3.104-.909-6.167-.587-8.36zm4 17.14-.416.278c2.01 3.014 3.549 4.823 5.246 6.063 1.7 1.242 3.522 1.887 6.026 2.638l.144-.479.144-.479c-2.496-.748-4.174-1.354-5.724-2.487-1.553-1.135-3.014-2.826-5.004-5.811zm35.998-24.5-.273-.418c-2.105 1.376-5.343 4.72-8.644 10.376-3.308 5.667-6.694 13.682-9.074 24.434l.488.108.488.108c2.36-10.659 5.71-18.576 8.962-24.146 3.257-5.583 6.4-8.783 8.327-10.043zm-24.998 33-.144.48c2.171.65 3.917.863 5.189.996.645.068 1.135.112 1.512.18.398.072.538.15.581.195l.357-.35.357-.351c-.285-.29-.714-.405-1.118-.478-.424-.076-.97-.126-1.585-.19-1.248-.131-2.922-.336-5.005-.96zm-18-26.095-.085.493c1.013.175 2.023.33 3.021.459l.064-.496.064-.496a73 73 0 0 1-2.979-.452zm0 0-.487-.113c-.348 1.496-.512 3.886-.321 6.491.191 2.609.741 5.479 1.853 7.924l.455-.207.455-.207c-1.047-2.302-1.58-5.047-1.766-7.583-.186-2.538-.021-4.822.298-6.191zm1.5 14.095-.455.207c1.242 2.732 2.007 4.519 2.964 6.113.966 1.61 2.122 3.018 4.137 5.034l.354-.354.354-.353c-1.985-1.984-3.079-3.327-3.988-4.841-.918-1.532-1.653-3.245-2.911-6.013zm23.995 13.5-.488-.108q-.273 1.232-.527 2.51l.49.098.49.098q.253-1.269.523-2.49zm-.525 2.5-.491-.092c-.468 2.488-.321 1.655-.471 2.505l.492.087.492.088c.151-.847-.003.017.469-2.495zm-105.951-79.5-.475-.155c-.259.79-.533 1.607-.819 2.436l.473.163.473.163c.287-.834.563-1.656.823-2.451zm-.821 2.444-.473-.163c-2.073 6.018-5.265 12.79-6.187 15.029l.462.19.462.19c.89-2.159 4.125-9.034 6.209-15.083zm0 0-.499-.032c-.273 4.244-.66 14.144.003 19.648l.496-.06.497-.06c-.651-5.4-.272-15.214.002-19.464zm0 19.556-.496.06c.408 3.392.607 7.514.894 11.505.285 3.966.657 7.811 1.422 10.569l.482-.134.482-.133c-.735-2.648-1.103-6.395-1.389-10.374-.284-3.954-.486-8.129-.898-11.553zm2.302 48.5.478.147c1.328-4.317 1.144-10.078-.367-15.775l-.483.128-.483.128c1.48 5.581 1.633 11.142.377 15.225zm-.372-15.5.483-.128c-.433-1.634-1.488-3.364-2.593-4.998-1.127-1.668-2.299-3.227-3.082-4.619l-.436.245-.436.245c.81 1.44 2.042 3.086 3.126 4.689 1.106 1.636 2.069 3.24 2.455 4.694zm.372-11-.482.134c1.164 4.193.242 8.896-.364 10.708l.474.158.474.159c.642-1.918 1.616-6.837.38-11.292zM97.5 36.037l.25-.433c-.511-.294-1.03-.559-1.545-.79L96 35.27l-.205.456c.484.217.974.467 1.455.745zM96 35.27l.205-.456a15 15 0 0 0-2.071-.758l-.134.482-.134.482c.61.169 1.263.407 1.93.706zm0 0-.438.242c1.668 3.016 5.708 10.142 8.518 14.482l.42-.272.42-.272c-2.79-4.308-6.816-11.407-8.482-14.422zm8.5 14.452-.42.272c.895 1.381 1.915 2.61 2.927 3.788 1.017 1.184 2.019 2.309 2.914 3.515 1.773 2.39 3.098 5.062 3.098 8.925h1c0-4.137-1.434-7.012-3.295-9.52-.923-1.244-1.958-2.407-2.959-3.572-1.007-1.173-1.99-2.358-2.845-3.68zm9.019 16.5h-.5c0 7.957-2.513 29.423-4.513 41.921l.494.079.494.079c2-12.501 4.525-34.036 4.525-42.079zm-4.519 42-.494-.079c-1.005 6.281-1.881 18.808-2.505 30.051-.625 11.248-1.001 21.262-1.001 22.528h1c0-1.233.374-11.219.999-22.472.626-11.256 1.5-23.729 2.495-29.949zm3.645 100.5.062-.496c-.227-.028-.45-.01-.614.002a2.2 2.2 0 0 1-.432.006l-.061.496-.061.496c.235.03.46.012.627 0 .185-.014.306-.021.417-.008zm-1.045.008.061-.496c-12.396-1.532-33.633-3.012-39.161-3.012v1c5.472 0 26.665 1.475 39.039 3.004zM42 201.222l.32-.384c-.027-.023-.076-.081-.107-.242-.032-.165-.037-.397-.005-.713.064-.631.262-1.472.533-2.522.537-2.076 1.334-4.872 1.755-8.074l-.496-.065-.496-.065c-.41 3.126-1.187 5.851-1.73 7.954-.27 1.039-.488 1.952-.56 2.671-.037.361-.041.703.017 1.004.059.305.189.604.449.82zm2-12 .496.065c1.34-10.209 2.004-24.263 2.004-31.065h-1c0 6.767-.662 20.776-1.996 30.935zm0 0-.07.495c9.84 1.404 28.49 4.199 32.472 4.996l.098-.491.098-.49c-4.017-.803-22.7-3.603-32.527-5.005zm61.5-28.5h-.5c0 2.111 1.361 25.138 2.505 33.567l.495-.067.495-.067c-1.138-8.386-2.495-31.368-2.495-33.433zm-29 33.5-.098.491c1.05.209 3.024.33 5.487.393 2.478.064 5.492.07 8.645.041a641 641 0 0 0 17.485-.425l-.019-.5-.019-.499a644 644 0 0 1-17.456.424c-3.148.029-6.149.023-8.61-.04-2.477-.064-4.366-.185-5.317-.375zm81 13.5-.489.107.871 4 .488-.107.489-.106-.87-4zm.87 4-.488.107.326 1.5.489-.107.488-.106-.326-1.5zm59.659-38.5-.497-.05c-.856 8.432-.82 18.327-.45 27.071l.499-.021.5-.021c-.369-8.724-.403-18.564.446-26.928zm-.448 27-.499.021c.335 7.918.945 14.906 1.421 19.037l.497-.058.497-.057c-.474-4.105-1.082-11.07-1.416-18.964zm-20.581 7.5.168.471c5.603-2.001 16.059-5.835 20.586-7.502l-.173-.469-.173-.469c-4.527 1.667-14.979 5.499-20.576 7.498zm-18.5-156.5-.141.48c.916.27 1.925.562 3.006.866l.135-.482.135-.481a254 254 0 0 1-2.994-.862zm3 .864-.135.482c3.783 1.063 8.448 2.26 13.05 3.052l.085-.493.085-.492c-4.553-.784-9.18-1.971-12.95-3.03zm0 0-.377-.328c-.641.735-1.834 1.88-3.306 2.894-1.478 1.017-3.191 1.87-4.877 2.074l.06.496.06.497c1.914-.233 3.784-1.184 5.323-2.243 1.545-1.063 2.801-2.266 3.494-3.061zM166 64.222l.484.125c.225-.872.539-1.883.94-2.949l-.468-.176-.469-.176a31 31 0 0 0-.971 3.051zm.956-3 .468.176c.966-2.573 2.416-5.417 4.289-7.405 1.867-1.98 4.08-3.046 6.646-2.291l.141-.48.141-.48c-3.063-.9-5.645.432-7.655 2.566-2.003 2.125-3.511 5.109-4.499 7.738zm6.044-4-.06-.496c-2.402.292-3.704 1.373-4.556 2.378-.209.246-.39.485-.548.699-.162.219-.294.4-.42.553-.272.328-.394.366-.46.366v1c.566 0 .953-.393 1.231-.73.147-.178.3-.388.452-.593.156-.21.321-.428.507-.648.728-.858 1.816-1.777 3.914-2.032zm10.5-4.585-.309-.393-3.749 2.946.309.393.308.393 3.75-2.946zm-3.749 2.946-.377-.33c-.434.496-1.243 1.28-2.233 1.985-.995.71-2.131 1.309-3.223 1.491l.082.493.082.493c1.308-.218 2.589-.914 3.64-1.663 1.056-.752 1.922-1.589 2.405-2.14zM174 59.223l-.082-.494c-1.546.258-3.499.902-4.83 1.834-.662.463-1.23 1.04-1.467 1.731-.252.735-.1 1.504.489 2.24l.39-.312.39-.312c-.411-.514-.447-.932-.323-1.291.137-.402.507-.825 1.095-1.237 1.169-.819 2.966-1.424 4.42-1.667zm-5.5 5-.39.312c.968 1.21 2.95 4.425 4.76 7.858.902 1.71 1.754 3.462 2.411 5.03.662 1.58 1.107 2.933 1.223 3.861l.496-.062.496-.062c-.134-1.072-.626-2.531-1.293-4.123-.671-1.604-1.538-3.384-2.448-5.11-1.815-3.443-3.833-6.728-4.865-8.017zm8.5 17-.496.061c.054.433.023 1.06-.092 1.866a33 33 0 0 1-.547 2.787c-.489 2.096-1.189 4.584-1.909 7.15-.718 2.56-1.455 5.196-2.013 7.568-.555 2.361-.943 4.504-.943 6.067h1c0-1.437.362-3.481.916-5.838.552-2.348 1.284-4.962 2.003-7.527.718-2.559 1.424-5.07 1.919-7.193a34 34 0 0 0 .564-2.873c.118-.831.165-1.564.094-2.13zm-5.5 25.499h-.5c0 6.012-.287 14.388-1.483 18.871l.483.129.483.129c1.235-4.632 1.517-13.14 1.517-19.129zm-1.5 19-.483-.129c-1 3.752-2.003 7.635-2.755 11.021-.749 3.37-1.262 6.296-1.262 8.108h1c0-1.687.487-4.512 1.238-7.891.748-3.365 1.745-7.231 2.745-10.98zm-4 19h-.5c0 .833-.275 3.185-.699 6.391-.421 3.185-.983 7.163-1.546 11.215-.563 4.05-1.126 8.172-1.548 11.64-.421 3.455-.707 6.293-.707 7.754h1c0-1.389.277-4.163.699-7.633.422-3.458.984-7.573 1.546-11.623.562-4.048 1.125-8.032 1.548-11.222.419-3.169.707-5.605.707-6.522zm-7.63 67 .024.5q.915-.043 1.942-.097l-.026-.499-.026-.5q-1.025.054-1.937.097zm1.94-.096.026.499c5.576-.289 13.436-.794 20.566-1.463 3.564-.335 6.95-.711 9.778-1.121 2.815-.409 5.117-.858 6.488-1.348l-.168-.471-.168-.471c-1.267.453-3.478.891-6.296 1.3-2.805.407-6.172.781-9.728 1.115-7.111.667-14.957 1.171-20.524 1.46zm1.19-29.904h-.5c0 5.989-.293 18.079-1.189 29.866l.499.038.498.038c.898-11.816 1.192-23.931 1.192-29.942zm-2.5 46 .041.499 2.501-.209-.042-.499-.042-.498q-1.301.111-2.499.209zm2.5-.209.042.499c9.529-.811 22.955-2.12 34.481-3.608 5.762-.745 11.056-1.535 15.153-2.332 2.048-.399 3.805-.8 5.176-1.201 1.346-.394 2.396-.807 2.96-1.258l-.312-.391-.312-.39c-.392.313-1.261.683-2.616 1.079-1.329.388-3.053.783-5.087 1.179-4.066.791-9.336 1.579-15.09 2.322-11.506 1.486-24.917 2.793-34.437 3.603zm0 0 .499-.037-1.191-15.888-.498.038-.499.037 1.19 15.888zm-2.803-14.291-.5.013c.09 3.571.201 6.356.26 8.005l.5-.018.5-.018c-.06-1.652-.17-4.43-.26-7.994zm.26 8-.5.018c.027.738.043 1.237.043 1.482h1c0-.267-.017-.788-.043-1.518zm0 0-.046-.498c-.972.089-2.406.46-3.56 1.308-1.181.866-2.071 2.239-1.848 4.245l.497-.055.497-.055c-.177-1.593.502-2.637 1.445-3.329.969-.711 2.214-1.04 3.061-1.118zm-4.957 5-.497.055c.246 2.212.423 4.17.912 5.493.248.674.601 1.254 1.145 1.618.557.372 1.237.467 2.028.326l-.088-.492-.088-.492c-.614.109-1.012.017-1.296-.173-.297-.199-.551-.557-.763-1.133-.434-1.177-.602-2.968-.856-5.257zm3.5 7 .088.492c.734-.13 1.3-.341 1.681-.712.402-.392.521-.885.534-1.391.014-.486-.07-1.068-.146-1.684a18 18 0 0 1-.157-2.205h-1c0 .906.085 1.681.164 2.327.082.665.15 1.145.14 1.535-.01.368-.09.563-.233.702-.164.16-.489.325-1.159.444zm96.5 46.5.454.21c1.701-3.687 4.516-7.079 7.146-10.656 2.605-3.544 5.015-7.254 5.721-11.471l-.493-.083-.493-.082c-.664 3.962-2.939 7.505-5.541 11.043-2.576 3.505-5.491 7.023-7.248 10.83zM145 8.166l-.47-.17c-.533 1.479-.657 3.255-.505 4.966.153 1.713.588 3.402 1.211 4.717.311.658.677 1.238 1.093 1.683.414.442.904.777 1.461.882 1.183.222 2.255-.622 3.15-2.285l-.44-.237-.44-.237c-.855 1.588-1.596 1.868-2.085 1.776-.278-.052-.589-.234-.916-.583-.324-.346-.637-.83-.92-1.427-.564-1.192-.973-2.763-1.118-4.378-.144-1.618-.018-3.238.449-4.538zM74.5 72.222l-.127-.483c-4.321 1.137-9.555 2.507-14.225 3.407-2.335.45-4.517.78-6.367.905-1.866.126-3.328.039-4.263-.3l-.17.471-.17.47c1.142.413 2.781.484 4.671.357 1.907-.13 4.134-.468 6.488-.921 4.709-.907 9.975-2.287 14.29-3.422zm5 0-.248-.434c-5.183 2.962-10.04 4.27-14.926 5.08-2.449.407-4.898.688-7.41.991-2.506.303-5.069.628-7.72 1.122l.092.492.091.491c2.617-.487 5.152-.81 7.658-1.112 2.5-.303 4.977-.587 7.452-.997 4.961-.824 9.942-2.16 15.26-5.199zm28.5 122-.495.067c.335 2.476.99 4.873 1.681 7.262.693 2.399 1.42 4.783 1.924 7.278l.49-.099.49-.099c-.514-2.546-1.256-4.98-1.944-7.357-.689-2.387-1.325-4.723-1.651-7.119zm95-114-.354.354c1.032 1.03 1.982 1.724 2.995 2.214 1.01.488 2.058.764 3.265.986 2.427.448 5.472.685 10.442 1.931l.122-.485.122-.485c-5-1.253-8.19-1.517-10.505-1.944-1.165-.215-2.115-.47-3.01-.904-.893-.431-1.755-1.051-2.723-2.02z"/><path stroke="rgba(0, 0, 0, .87)" stroke-linecap="round" d="M156.662 225.135c0 .668 0 1.309.056 1.629.011.06.167-.237.225-.5.057-.264.057-.524-.11-.528s-.501.256-.562.278.162-.2.147-.259-.275.052-.543.167M157.563 230.872c-.075-.371-.149-.742-.261-.785s-.261.254-.338.259c-.076.004-.076-.293.036-.486"/><path stroke="rgba(0, 0, 0, .87)" d="M250 267.722c0-4 2.667-3 4-2 1 2 1 4.429-1 5-1.5.429-3 0-3-3ZM14.5 247.222c2-3.6-.833-3.833-2.5-4-1.833 0-3.75 2-2 4s3.667 1.5 4.5 0Z"/></svg>