<svg xmlns="http://www.w3.org/2000/svg" viewBox="0 0 221 163" width="221" height="163" fill="none"><path fill="rgba(0, 0, 0, .87)" d="m16.736 8-.012-.5a.5.5 0 0 0-.174.036zm192 0-.353.354zm7.5 38 .489.102zm-.5 64.5.495-.071zm4 37 .354.354a.5.5 0 0 0 .146-.354zm-101.5 8.5-.039.499zm-99.5 6 .038.499zm-9.5-.5-.496-.059a.5.5 0 0 0 .338.533zm-7-22.5h.5zm8-19v-.5a.5.5 0 0 0-.414.221zm151.5-7.5.021.5a.5.5 0 0 0 .27-.093zm-3.5-26 .479-.143zm-57-22.5-.066-.496zm-43 1.5-.479-.144v.004zm11.447-37.276a.5.5 0 1 0-.894-.448l.447.224zM54.736 83.5l.07.495a.5.5 0 0 0 .42-.396zm-40.5 2.5h-.5a.5.5 0 0 0 .478.5zm-1.5-10.5-.434.248zm104.5-44.5.498.05zm27.5 9.5-.245-.436zm14.5-17.5-.05-.497a.5.5 0 0 0-.449.532zm1.5 21.5-.499.035a.5.5 0 0 0 .561.461zm44-19-.353.354zm-39 64-.349-.358a.5.5 0 0 0-.151.358zm0 23h-.5c0 .21.132.398.329.47zm35.5-24.5.434-.248a.5.5 0 0 0-.353-.245zm-8.5 4h.5a.5.5 0 0 0-.551-.497zm-19.5 2-.051-.497a.5.5 0 0 0-.449.497zm0 15.5h-.5a.5.5 0 0 0 .5.5zm17-1.5.132.482a.5.5 0 0 0 .368-.482zm-11.5-3.5.482-.132zM182.734.55a.5.5 0 0 0-.995-.1l.497.05zm16.502.95a.5.5 0 0 0-1 0h1m-132 5.022-.163.472a.5.5 0 0 0 .174.028zM31.236 86v-.5l-.035.001zm3.5 7.313.031.499a.5.5 0 0 0 .47-.5zm5-.313h.5a.5.5 0 0 0-.531-.499zm0 4 .05.498a.5.5 0 0 0 .45-.498zm-8.5.5-.496-.062a.5.5 0 0 0 .496.562zm3.5 20.952.03.5zm-.72.043.029.499a1 1 0 0 0 .064-.008zM8.235 155l-.465.183zm200.5-147-.353.354c2.891 2.892 11.826 16.224 7.364 37.544l.489.102.489.102c4.538-21.68-4.527-35.347-7.635-38.456zm7.5 38-.489-.102c-4.559 21.778-5.159 34.688-4.373 43.807.392 4.56 1.131 8.162 1.885 11.434.756 3.278 1.519 6.192 1.982 9.432l.495-.071.495-.071c-.471-3.294-1.25-6.272-1.997-9.515-.75-3.25-1.477-6.8-1.864-11.295-.774-8.989-.191-21.795 4.355-43.516zm-.5 64.5-.495.071c1.502 10.514 3.995 29.973 3.995 36.929h1c0-7.044-2.507-26.585-4.005-37.071zm4 37-.353-.353c-.721.72-2.016 1.863-3.104 3.258-1.091 1.399-2.043 3.133-2.043 5.095h1c0-1.638.798-3.154 1.832-4.48 1.037-1.33 2.243-2.387 3.022-3.166zm-5 8h-.5c0-.209.127-.328.166-.361a.3.3 0 0 1 .085-.053c.006-.003-.013.005-.077.019a7 7 0 0 1-.603.085c-.559.06-1.39.121-2.466.181-2.149.12-5.245.235-9.025.34-7.558.211-17.836.383-28.709.477-21.757.187-45.858.062-55.332-.686l-.039.498-.039.499c9.526.752 33.675.876 55.418.689 10.877-.094 21.162-.266 28.729-.477 3.782-.106 6.889-.221 9.053-.342 1.08-.06 1.932-.122 2.518-.185.29-.031.529-.065.702-.101a1.5 1.5 0 0 0 .256-.075.7.7 0 0 0 .169-.1.53.53 0 0 0 .194-.408zm-96.5.5.039-.498c-2.408-.191-9.216.045-18.177.511-8.982.466-20.173 1.167-31.384 1.914a5796 5796 0 0 0-50.016 3.575l.038.498.038.499a5847 5847 0 0 1 50.007-3.574c11.21-.748 22.395-1.447 31.369-1.914 8.994-.467 15.72-.696 18.047-.512zm-99.5 6-.038-.498c-3.219.247-5.561.123-7.09-.061a17 17 0 0 1-1.692-.28 8 8 0 0 1-.519-.134l-.004-.002v.001l-.157.474-.158.475h.002l.003.001.01.003.032.01.119.035c.102.028.253.068.453.112.4.09.994.202 1.792.298 1.596.192 4.004.317 7.285.065zm143-49.5c.291.407.292.406.293.405l.002-.001.005-.004.01-.008.024-.019a1.46 1.46 0 0 0 .209-.235 3 3 0 0 0 .365-.725c.244-.673.467-1.782.467-3.6 0-3.634-.89-10.188-4.396-21.956l-.479.143-.479.143c3.495 11.732 4.354 18.178 4.354 21.67 0 1.744-.215 2.728-.407 3.258a2 2 0 0 1-.237.484 1 1 0 0 1-.045.056l.009-.007.007-.005.003-.003.002-.001a7 7 0 0 1 .293.405m-3.5-26 .479-.143c-2.047-6.873-4.877-12.003-8.442-15.758-3.569-3.76-7.851-6.118-12.762-7.484-9.787-2.723-22.11-1.508-36.341.39l.066.495.066.496c14.269-1.903 26.384-3.076 35.941-.418 4.761 1.325 8.877 3.599 12.304 7.21 3.431 3.613 6.195 8.59 8.21 15.355zm-57-22.5-.066-.496c-5.964.796-31.436 1.83-42.92 1.496l-.014.5-.014.5c11.516.334 37.045-.7 43.08-1.504zm-32-36-.447-.224c-2.028 4.055-4.19 11.484-6.136 18.846-1.957 7.4-3.698 14.743-4.896 18.734l.48.144.478.144c1.203-4.01 2.96-11.415 4.904-18.766 1.954-7.387 4.092-14.71 6.064-18.654zm-14.5 55.5.49.1c.474-2.34 1.117-6.052 1.756-9.56.642-3.528 1.276-6.83 1.734-8.4l-.48-.14-.48-.14c-.476 1.63-1.12 4.995-1.758 8.5-.642 3.525-1.281 7.214-1.752 9.54zm-40.5 2.5h.5c0-4.922.518-7.102-1.566-10.748l-.434.248-.434.248c1.916 3.354 1.434 5.174 1.434 10.252zm-1.5-10.5.434-.248c-.975-1.707-4.84-9.68-7.96-18.103-1.559-4.21-2.925-8.512-3.653-12.188C1.193 43.123.99 41.457 1 40.046c.01-1.42.232-2.53.67-3.298l-.434-.248-.434-.248C.24 37.235.01 38.546 0 40.04c-.01 1.502.204 3.24.576 5.116.743 3.75 2.13 8.11 3.697 12.34 3.134 8.46 7.02 16.486 8.029 18.252zm-11.5-39 .434.248c1.022-1.788 2.035-4.293 3.088-7.054 1.059-2.776 2.162-5.824 3.377-8.752s2.53-5.706 3.995-7.933c1.473-2.235 3.059-3.851 4.792-4.545L16.736 8l-.186-.464c-2.016.807-3.743 2.628-5.255 4.923-1.518 2.306-2.86 5.152-4.083 8.1-1.223 2.946-2.338 6.024-3.388 8.778-1.057 2.77-2.044 5.204-3.022 6.915zm96.5-14-.307-.395c-3.195 2.485-5.503 6.731-6.124 10.869s.435 8.318 4.183 10.46l.248-.434.248-.434c-3.252-1.858-4.278-5.53-3.69-9.444.587-3.913 2.78-7.917 5.75-10.227zm-2 20.5-.248.434c3.673 2.099 8.931 1.998 13.396-.09 4.486-2.098 8.244-6.236 8.85-12.294l-.498-.05-.497-.05c-.566 5.652-4.058 9.514-8.279 11.488-4.243 1.985-9.148 2.03-12.476.128zm21.5-12 .498.05c.522-5.224-2.231-9.297-6.292-11.13-4.055-1.832-9.376-1.421-14.013 2.185l.307.395.307.395c4.363-3.394 9.292-3.733 12.987-2.064 3.69 1.666 6.186 5.344 5.709 10.12zm24-12.5.042-.498c-1.629-.136-3.384.374-5.069 1.285-1.689.913-3.341 2.247-4.779 3.812-2.858 3.113-4.956 7.243-4.693 10.937l.499-.036.499-.036c-.236-3.305 1.665-7.175 4.432-10.188 1.375-1.497 2.941-2.757 4.518-3.61 1.581-.854 3.139-1.282 4.51-1.168zm-14 15.5-.499.036c.254 3.554 1.472 7.18 4.405 8.952 2.957 1.787 7.423 1.557 13.839-2.052l-.245-.436-.245-.436c-6.311 3.55-10.345 3.57-12.832 2.068-2.51-1.517-3.678-4.722-3.924-8.168zm17.5 6.5.245.436c4.2-2.363 6.626-7.795 6.363-12.745-.133-2.49-.946-4.9-2.596-6.762-1.656-1.87-4.12-3.148-7.47-3.427l-.042.498-.041.498c3.126.26 5.339 1.44 6.804 3.094 1.471 1.66 2.223 3.84 2.346 6.152.248 4.655-2.054 9.683-5.854 11.82zm14.5-17.5-.499.035 1.5 21.5.499-.035.499-.035-1.5-21.5zm1.5 21.5.062.496c7.948-.993 19.656-.622 29.532.003 4.931.312 9.395.687 12.689.983 1.648.149 3.002.278 3.977.37.951.089 1.584.148 1.74.148v-1h-.01a2 2 0 0 1-.133-.008l-.341-.029c-.284-.025-.675-.061-1.162-.107-.975-.092-2.331-.221-3.981-.37a482 482 0 0 0-12.716-.985c-9.874-.625-21.667-1.004-29.719.003zm48 1.5v.5a.98.98 0 0 0 .746-.359c.168-.194.282-.445.365-.707.166-.526.248-1.241.27-2.061.043-1.653-.156-3.875-.549-6.206-.394-2.334-.984-4.8-1.733-6.941-.742-2.124-1.662-3.996-2.745-5.08l-.354.354-.353.354c.916.916 1.776 2.606 2.508 4.702.726 2.077 1.304 4.486 1.691 6.777.386 2.294.576 4.447.535 6.013-.021.79-.099 1.394-.223 1.787a1.1 1.1 0 0 1-.168.353c-.033.039-.026.014.01.014zm-4-20.5.354-.354c-.217-.217-.548-.385-.91-.525a11 11 0 0 0-1.387-.415c-1.088-.261-2.519-.505-4.197-.728-3.36-.446-7.757-.815-12.488-1.07-9.457-.511-20.3-.576-26.922.095l.05.497.051.497c6.544-.662 17.327-.6 26.767-.09 4.717.254 9.085.62 12.41 1.062 1.664.221 3.055.46 4.095.71q.781.188 1.259.374c.333.13.501.237.565.3zm-39 64h-.5v23h1v-23zm0 23-.171.47c5.598 2.036 15.058 2.53 23.187 2.28 4.076-.126 7.845-.439 10.665-.849 1.408-.204 2.593-.435 3.465-.682a6.6 6.6 0 0 0 1.098-.397c.262-.128.561-.314.703-.598l-.447-.224-.447-.224c.017-.034-.008.03-.249.149a6 6 0 0 1-.93.332c-.812.23-1.947.453-3.336.655-2.774.402-6.505.714-10.553.838-8.122.25-17.412-.255-22.814-2.22zm38.5 0 .447.224c.17-.34.275-.904.345-1.558.073-.68.117-1.534.13-2.511.026-1.954-.068-4.425-.299-7.012s-.597-5.3-1.118-7.74c-.519-2.429-1.199-4.625-2.071-6.151l-.434.248-.434.248c.794 1.39 1.448 3.465 1.961 5.864.51 2.39.872 5.061 1.1 7.62.228 2.558.321 4.994.295 6.91a27 27 0 0 1-.124 2.417c-.071.663-.165 1.058-.245 1.217zm-3-24.5.081-.493c-5.094-.839-12.973-1.466-20.097-1.382-3.561.042-6.95.261-9.715.726-1.382.232-2.62.527-3.651.897-1.024.368-1.881.822-2.467 1.394l.349.358.349.358c.439-.428 1.144-.823 2.107-1.169.956-.343 2.132-.626 3.479-.852 2.694-.453 6.026-.67 9.561-.712 7.071-.083 14.892.54 19.923 1.368zm-8.5 8h.5v-4h-1v4zm0-4-.051-.497-19.5 2 .051.497.051.498 19.5-2zm-19.5 2h-.5v15.5h1V94zm17 14h.5v-4.14h-1V108zm-17-14-.494.074c.272 1.817 1.368 3.175 2.467 4.66 1.115 1.507 2.32 3.239 3.045 5.898l.482-.132.482-.132c-.774-2.841-2.069-4.693-3.205-6.228-1.151-1.556-2.055-2.697-2.282-4.214zm5.5 10.5-.482.132a.9.9 0 0 0 .441.538c.178.101.388.165.601.208.428.086.985.11 1.607.099 1.252-.024 2.887-.2 4.552-.419 1.667-.219 3.386-.486 4.803-.696 1.442-.214 2.525-.362 2.978-.362v-1c-.547 0-1.725.165-3.125.373-1.426.211-3.13.476-4.787.694-1.659.218-3.248.387-4.441.41-.6.011-1.07-.015-1.39-.079a1.1 1.1 0 0 1-.3-.095c-.043-.026.004-.012.025.065zm14.5-1v.5a1 1 0 0 0 .594-.18.94.94 0 0 0 .346-.499c.105-.343.055-.752-.04-1.136-.197-.795-.678-1.828-1.279-2.872a24 24 0 0 0-2.116-3.089c-.75-.925-1.545-1.731-2.248-2.153l-.257.43-.257.428c.547.328 1.252 1.022 1.986 1.925a23 23 0 0 1 2.025 2.958c.586 1.018 1.012 1.955 1.175 2.613.084.342.077.53.055.604-.007.023-.006.003.024-.018.028-.021.039-.011-.008-.011zm-11-103-.497-.05-.5 5 .497.05.498.05.5-5zm-.5 5-.011.5c6.24.134 11.746.449 16.959.997l.052-.497.052-.497c-5.246-.552-10.78-.869-17.041-1.003zm17 1-.052.497c.931.098 1.963.178 2.993.259 1.034.08 2.067.16 3.015.26.951.1 1.8.217 2.467.368q.5.113.824.243c.221.089.343.17.4.227l.353-.354.354-.354c-.195-.194-.459-.336-.734-.447a6.5 6.5 0 0 0-.977-.29c-.725-.164-1.62-.286-2.582-.387-.964-.102-2.012-.183-3.042-.263-1.034-.08-2.051-.16-2.967-.256zm0-5h-.5v5h1v-5zm-182 6.5.012.5c5.933-.14 12.61-.422 19.774-.712 7.166-.291 14.823-.59 22.725-.766l-.01-.5-.012-.5c-7.912.176-15.577.476-22.744.766-7.168.29-13.835.572-19.757.712zm42.5-1.478.355-.353c-.371-.373-.744-.78-.994-1.178-.26-.414-.317-.706-.258-.9.053-.17.26-.456 1.044-.697C60.156 3.157 61.38 3 63.236 3V2c-1.893 0-3.233.158-4.147.438-.903.278-1.508.715-1.706 1.361-.19.624.065 1.243.367 1.724.313.498.752.97 1.132 1.351zm0 0 .011.5c3.756-.084 5.748-.084 6.798-.063.525.01.81.026.958.038.074.006.11.01.122.012h-.004l-.04-.012-.004-.001h-.002c-.001-.001-.002-.002.161-.474a10 10 0 0 0 .159-.474l-.03-.009a1 1 0 0 0-.09-.018A3 3 0 0 0 67.084 6c-.177-.014-.484-.03-1.019-.04-1.07-.022-3.078-.022-6.839.062zM31.236 86l-.035-.499c-3.297.232-7.529.232-10.946.174a258 258 0 0 1-5.88-.17l-.087-.003-.022-.001h-.007l-.023.5-.022.499h.03l.089.005.341.014a259.567 259.567 0 0 0 5.564.156c3.423.058 7.69.059 11.033-.176zm0 0-.497.053c.249 2.337.373 4.202.435 5.482a58 58 0 0 1 .062 1.935v.03h1v-.135l-.008-.388c-.008-.34-.023-.842-.055-1.49a97 97 0 0 0-.44-5.54zm23.5-2.5-.07-.495h-.004l-.01.002-.037.005-.146.021-2.575.362c-1.68.235-3.944.547-6.286.86-2.343.312-4.762.624-6.75.858-2.005.236-3.533.387-4.122.387v1c.661 0 2.258-.161 4.238-.394 1.996-.235 4.421-.548 6.766-.86a1075 1075 0 0 0 8.31-1.143l.56-.08.146-.02.038-.006.01-.001h.002zm-20 2.5v-.5h-3.5v1h3.5zm0 0h-.5v7.313h1V86zm0 7.313-.031-.5-3 .188.031.5.031.498 3-.187zm-3 .187.031.5 8-.5-.03-.5-.032-.499-8 .5zm8-.5h-.5v4h1v-4zm-8.5 4.5.496.062.5-4-.496-.062-.496-.062-.5 4zm8.5-.5-.05-.498-5 .5.05.498.05.498 5-.5zm-5 .5V97h-3.5v1h3.5zm0 20.952.03.5c33.73-1.97 93.695-4.55 126.991-5.952l-.021-.5-.021-.499c-33.294 1.401-93.267 3.983-127.008 5.952zm0-20.952h-.5v20.952h1V97.5zm-24.5 22.5v.5c1.05 0 3.519-.173 7.442-.445 3.936-.274 9.365-.65 16.366-1.061l-.029-.499-.03-.499c-7.006.411-12.44.787-16.377 1.061-3.951.275-6.367.443-7.372.443zm23.78-1.505.093.491c.07-.013.156-.02.273-.023.102-.003.254-.004.383-.011l-.029-.5-.029-.499c-.112.007-.21.006-.353.01-.128.004-.281.012-.433.041zm0 0 .067-.496c-.472-.064-1.082-.382-1.736-.908a10.5 10.5 0 0 1-1.792-1.89c-.52-.704-.902-1.401-1.067-1.954-.083-.278-.101-.485-.082-.625.018-.124.06-.175.108-.206l-.278-.416-.277-.416c-.328.219-.494.549-.543.899-.047.335.009.698.114 1.05.21.707.664 1.509 1.221 2.263a11.5 11.5 0 0 0 1.97 2.074c.704.567 1.485 1.019 2.226 1.12zm.72-.043.284.412c.892-.616 2.552-2.272 3.794-3.819.62-.774 1.168-1.558 1.463-2.201.143-.313.256-.654.243-.97a.96.96 0 0 0-.165-.513.9.9 0 0 0-.46-.335l-.159.474-.158.474c.008.003-.018-.005-.042-.039-.021-.031-.016-.047-.015-.019.003.074-.029.239-.154.511-.241.528-.725 1.234-1.333 1.992-1.217 1.517-2.807 3.087-3.582 3.622zm5-6.952.158-.474c-.365-.122-.724-.026-1.015.127-.293.154-.578.394-.845.67-.538.553-1.092 1.338-1.598 2.158-1.013 1.641-1.907 3.538-2.173 4.309l.473.162.473.163c.234-.681 1.09-2.51 2.077-4.108.494-.799 1.003-1.511 1.465-1.987.232-.24.432-.397.593-.482s.225-.067.234-.064zm-10.5.5.277.416c.055-.036.106-.048.195-.024.11.03.266.117.466.294.4.356.846.959 1.295 1.698.889 1.465 1.696 3.309 2.08 4.293l.466-.182.466-.182c-.395-1.011-1.227-2.914-2.157-4.448-.462-.761-.97-1.469-1.486-1.926-.257-.229-.548-.424-.865-.511a1.2 1.2 0 0 0-1.014.156zm34-109.5V3c1.82 0 2.947.187 3.619.45.654.256.802.548.836.758.043.268-.062.614-.276 1.022a9 9 0 0 1-.33.562c-.105.17-.222.354-.298.51l.45.22.448.22c.049-.1.131-.232.25-.422.11-.18.244-.395.365-.625.232-.442.477-1.038.378-1.647-.108-.668-.594-1.19-1.459-1.529C66.375 2.188 65.099 2 63.237 2zm4 4.022.01.5c38.156-.82 76.372-1.838 114.479-1.022l.011-.5.011-.5c-38.135-.817-76.375.202-114.522 1.022zM2.236 139h.5c0-1.701.48-3.718 1.221-5.811.74-2.087 1.73-4.217 2.723-6.134a79 79 0 0 1 3.883-6.644l.066-.099.017-.025.003-.006.002-.001-.415-.28-.415-.279-.001.002-.005.007-.018.027-.068.102a62 62 0 0 0-1.17 1.845 80 80 0 0 0-2.767 4.891c-1.006 1.941-2.017 4.115-2.777 6.259-.758 2.139-1.279 4.28-1.279 6.146zm7 22.5.497.058v-.001l.001-.012a2 2 0 0 0 .013-.143q.013-.146.024-.413a15.794 15.794 0 0 0-1.07-6.172l-.465.183-.465.183c.656 1.668.899 3.24.976 4.396.039.577.036 1.048.024 1.373a9 9 0 0 1-.029.463l-.002.022v.005zm-1-6.5.465-.183c-1.007-2.558-2.532-5.552-3.761-8.337-1.253-2.839-2.204-5.472-2.204-7.48h-1c0 2.247 1.044 5.062 2.289 7.883 1.269 2.875 2.743 5.753 3.746 8.3zm165-45.5v.5h10v-1h-10zm10 0v.5c.429 0 1.098-.103 1.822-.243a56 56 0 0 0 2.357-.521 107 107 0 0 0 2.711-.688l.178-.048.047-.013.012-.003.004-.001.001-.001-.132-.482-.132-.482-.003.001-.012.003-.045.012-.176.047c-.153.041-.373.1-.641.17-.537.14-1.268.326-2.045.513-.778.187-1.598.372-2.314.511-.73.141-1.311.225-1.632.225z"/><path stroke="rgba(0, 0, 0, .87)" stroke-linejoin="round" d="m43.736 7 3 77.5h.5l-.5-14.5m-2-63 2 61.5m5.5-61.5c1 18.167 2.37 56.695 1.5 60-.395 1.5-5.46 1.833-7 1.5m0 0V70m0 0c2.014 0 6.7-1.2 7.5-2s-.333-40.5-1-61"/><path fill="rgba(0, 0, 0, .87)" d="M105.511 26.922a5 5 0 0 1-.698-.056c-.069-.009-.037-.063-.085-.071-.095-.015-.181.017-.277.002-.032-.005-.001-.092-.035-.096-.186-.018-.356.027-.545.042a8 8 0 0 0-1.098.17c-.504.108-.992.343-1.456.661-.251.171-.59.368-.799.624-.025.03.044.066.043.075-.014.146-.093.015-.16.055a2.3 2.3 0 0 0-.659.65c-.07.104.122.102-.02.146-.01.003-.05-.071-.08-.05-.063.048-.145.171-.188.215-.083.083-.094.1-.164.186-.095.118-.237.237-.323.378-.019.03.073.043.05.095a.7.7 0 0 1-.165.195c-.046.029-.083-.027-.1-.029-.095-.012-.114.095-.119.17 0 .035.002.063-.001.07-.156.326-.383.544-.507.866-.092.242-.13.518-.174.762-.053.29-.113.543-.103.839 0 .031.094-.006.096.031.017.4.054.797.069 1.213.001.042-.09.005-.093.048-.021.26-.077.709.313.757.033.17.08.375.06.547-.013.11-.13.045-.054.151.017.024.08-.035.1.002.085.158.126.349.226.498.02.03.083-.003.099.002.126.041.017.234.018.267 0 .253.1.4.184.602.02.048.084-.045.106-.001.113.228.212.47.279.717.014.054-.08.042-.077.07.015.122.165.082.182.198.004.024-.064.041-.07.049a.1.1 0 0 0-.02.043c-.008.062.118.043.127.053.134.146.05.344.194.474.016.014.05-.08.093-.038.27.27.634.421 1.085.562.068.022.008.079.011.088.054.137.127-.025.151-.028l.034-.001c.161-.002.317.12.433-.068.757.08 1.506-.196 2.306-.24.01 0 .016.085.037.083.247-.025.163-.136.267-.336.026-.05.2.095.216.105.054.036.054.167.07.173.131.04-.018-.346.119-.393.004-.001.011.077.025.08.044.01.07-.032.115-.02.102.028.199.206.283.05.011-.02-.095-.23.033-.266.049-.014.265-.102.33-.113.066-.01.053.077.058.078.2.026.154.09.293.192.14.101-.018-.213 0-.263s.169-.024.21-.01c.04.013.022.073.055.077.215.022.007-.193.041-.268.079-.179.289.013.421-.02.036-.008-.016-.05.011-.068.108-.073.211-.031.311-.16.016-.022.055-.213.172-.142.017.01.017.082.072.071a.75.75 0 0 0 .29-.126c.05-.043-.064-.105.024-.112.039-.003.007.083.077.073.071-.01.224-.09.281-.123.057-.032-.012-.087-.009-.094a.6.6 0 0 1 .117-.14c.489-.267 1.007-.398 1.456-.712.035-.024-.032-.083-.027-.088.108-.105.123.15.25.163-.101-.142-.032-.145.047-.214.038-.033-.02-.077-.02-.085.012-.126.123-.039.148-.023.063.04.077-.004.098-.026.011-.01.023-.015.043-.002.063.039.048.162.132.109-.009-.067-.156-.167-.108-.228.182-.224.651-.428.813-.582.162-.145.195-.208.29-.293.167-.16.02-.163.044-.304.017-.14.244.056.31.07.066.01.019-.04.062-.049.044-.008.056.064.097.012.043-.055.003-.262-.055-.303-.119-.087-.279-.068-.188-.189.005-.007.072.04.089.011.117-.22.144-.483.153-.74l.002-.064c.001-.038.092-.019.094-.043.005-.249-.123-.135-.31-.202.213-.037.323-.149.249-.328-.046-.105-.124-.047-.214-.08-.027-.009-.006-.107-.052-.097-.149.033-.252.17-.285-.005-.002-.008.078-.03.068-.055-.07-.161-.205-.09-.331-.213-.098-.096-.211-.337-.332-.452.157-.186-.013-.247-.16-.145-.084-.067-.187-.12-.267-.189-.027-.024.027-.075.026-.083-.002-.053-.022-.068-.045-.067-.039.003-.089.05-.103.047-.25-.05-.414-.231-.677-.163-.009.003-.053.166-.092.034-.003-.01.088-.072-.022-.096s-.323-.135-.485-.055c-.04.018-.128.157-.211.055-.011-.014-.003-.062-.02-.088-.056-.082-.067.09-.14-.048-.072-.138-.221-.23-.373-.098-.005.004-.017.144-.068.153-.083.014-.205.017-.289.043-.04.012.01.085.003.089a1.4 1.4 0 0 1-.198.08c-.17.055-.339.075-.546.152-.054.02-.137.192-.273.169-.152-.023-.261-.444-.455-.2-.082.103.119.599-.201.512-.251.294-.602.467-.755.844-.007.017.082.144.059.175-.035.047-.11.038-.137.072a.7.7 0 0 0-.079.131c-.053.111-.081.228-.137.335-.03.058-.085.009-.12.08s.033.154-.046.237c-.059.063-.265.08-.319.18.177.06.151.129.164.268.002.026.072.018.076.031.02.055-.043.083-.019.136.006.013.068.03.076.04.073.095-.094.183-.123.2-.11.06-.037.117-.086.172s-.076-.048-.113.022c-.076.144-.099.345-.126.501-.01.063.081.032.081.042.003.131-.105.25.054.344-.447.033.032.083-.077.256-.009.014-.218.008-.241-.052-.024-.06.051-.137.014-.222-.008-.02-.187-.151-.197-.168-.075-.127.235-.1.252-.104.192-.04.004-.2-.004-.238-.041-.167.026-.293.005-.434-.013-.092-.21-.141-.189-.21.071-.229.364-.233.187-.514-.036-.06-.264-.077-.045-.196.014-.008.205-.08.136-.185-.009-.013-.07-.035-.071-.049-.004-.092.065-.128.077-.224.013-.096.026-.217.094-.307.041-.054.187-.074.228-.086.046-.015.062-.047.072-.08.014-.05.016-.103.086-.098.115.01.197.175.323.1-.139-.095-.278-.198-.416-.297.18-.268.419-.477.633-.708.027-.028-.066-.063-.038-.096.118-.139.277-.196.404-.333.097-.106.167-.278.282-.384.184.106.333-.066.484-.13.053-.021.074.026.117.022.16-.014.021-.132.046-.175.113-.183.29.158.47.072.008-.004.058-.243.072-.262.079-.112.048.037.105.049h.013c.136-.018.237.001.373-.098.039-.029.119-.18.23-.103.015.01.022.078.032.08.18.031.146-.177.238-.265.094-.087.271.044.304.084.091.103-.059.052-.062.063-.039.133.068.1.153.106.024.207.134.19.087.006-.006-.02-.07.002-.087-.006.059-.21.206-.241.347-.045.064.093-.004.191.196.167.091-.009.071-.155.159-.184.205-.066.429.118.62.157.071.015.028-.082.078-.074.136.023.224.12.358.149.013.002.019-.086.059-.069q.06.027.115.056c.241.128.427.296.649.476.123.098.364.262.468.395.187.227.288.586.424.791.09.137.148.07.229.115.162.09.059.405.035.441 0 0-.061-.133-.079-.046-.072.066.078.044.079.046-.01.024.029.275.046.36l.005.015c.012.03.087.004.092.02.116.39.086.845-.092 1.224-.004.007-.082-.033-.09-.018-.118.202-.088.376-.134.577s-.162.314-.346.304c-.071.12-.252.218-.356.263-.105.046.001.178-.004.188-.151.284-.352.317-.603.474-.087.054-.22.153-.337.24q-.067.049-.117.089c-.087.07-.163.068-.238.142-.01.01.04.068.038.072-.052.136-.099-.051-.136-.068-.133-.061-.21-.09-.307.03-.022.028.025.308-.02.352-.06.056-.081-.042-.141.02-.006.004.025.055-.022.078-.214.107-.459.202-.674.324-.03.016.053.078.01.104a2.8 2.8 0 0 1-.645.294c-.054.015-.053-.06-.072-.071-.119-.072-.136.127-.15.138-.333.257-.684.252-1.037.49-.019.014-.109.254-.243.141-.01-.007-.144-.124-.165.004-.001.008.076.065-.006.091-.081.026-.186.13-.33.09-.046-.013-.185-.129-.241.03-.003.011-.059.344-.187.18-.021-.028-.086-.229-.172-.08-.016.028.043.056-.009.106-.08.079-.227.072-.315.203-.016.023-.057.189-.166.11-.016-.012-.018-.086-.058-.08-.191.024-.367.13-.568.138-.071.003-.069-.116-.146-.126-.075-.01-.222 0-.28.07s.067.224-.039.267c-.469.184-.982.179-1.5.212-.077.005-.005.064-.122.075-.289.027-.747.065-1.146-.02a1.4 1.4 0 0 1-.407-.145c-.279-.171.115-.173-.101-.266-.1-.045-.282.122-.314.118-.307-.027-.485-.21-.743-.354-.055-.032-.054.074-.1.045-.162-.099-.28-.262-.396-.384-.052-.054-.093-.002-.134-.06a.97.97 0 0 1-.175-.43c-.002-.015.113.02.06-.075-.048-.089-.08-.195-.122-.299a.5.5 0 0 0-.112-.177c-.037-.036-.173.025-.122-.11.01-.03.185-.079-.006-.123-.032-.008-.305-.105-.223-.252.022-.038.13-.158.085-.201-.006-.006-.067.055-.093.014-.092-.145-.154-.312-.244-.463-.024-.04-.074.055-.108-.006a2.5 2.5 0 0 1-.204-.59c-.015-.069.066-.047.071-.055.085-.118-.085-.106-.103-.129-.112-.14-.082-.287-.151-.43-.02-.039-.084.015-.093.01-.093-.065.061-.045.058-.104a1.7 1.7 0 0 0-.12-.484c-.02-.056-.089.033-.106-.018a3.4 3.4 0 0 1-.186-.95c-.002-.06.073-.037.087-.052.093-.104-.078-.198-.097-.226-.087-.12-.033-.18-.06-.294-.139-.56-.117-1.303-.008-1.868.139-.738.395-1.288.75-1.917.023-.04-.08-.048-.06-.084a3.4 3.4 0 0 1 .293-.434c.17-.216.35-.435.515-.675.02-.03-.081-.043-.05-.092a1.2 1.2 0 0 1 .257-.296c.048-.038.057.072.104.033a1.6 1.6 0 0 0 .29-.322c.035-.051-.094-.038-.043-.1.344-.423.712-.847 1.223-1.149.035-.02.182.094.221.013-.028-.042-.068-.087-.101-.13.616-.572 1.405-1 2.272-1.249.037-.01-.055-.084.017-.105l.026-.008c.36-.102.715-.212 1.115-.191.041.002.051.173.16.128.019-.009.186-.059.225-.102.006-.006-.038-.08.018-.091.325-.06.678-.075 1.016-.034.055.007-.001.093.037.099.271.039.574-.014.832.094.17.073.085.21.153.366.009.022.111.043.1.127-.026.21-.111.43-.133.654-.004.049.116.019.028.121-.006.007-.091.03-.117.067-.018.025-.008.113-.04.144-.031.03-.05-.045-.1-.01-.05.036-.042.135-.13.137m4.969 9.233c-.123-.007.049.238.086.118a1 1 0 0 0-.086-.118m-5.654-3.54c.177-.004.091-.194-.043-.199-.137 0-.012.203.043.2m-.583 1.103c.15-.08-.221-.286-.209-.107 0 .01.2.112.209.107m1.249-8.04a.3.3 0 0 0 .076.01c.048-.092-.1-.112-.076-.01m-1.512 9.21c.064-.029.028-.16-.054-.126-.066.028-.028.161.054.125m2.357 3.21c-.003-.004-.051.013-.039.036.036.072.09.023.039-.036m-2.641-1.244c.047-.29.415-.425.341-.115-.013.056-.098-.135-.137-.066-.072.127.138.238.006.362-.024.022-.214-.164-.211-.182zm6.52-.949a.2.2 0 0 0-.06.042c.027.099.145.018.06-.042m-6.669 3.04a.6.6 0 0 0-.165.037c-.041.172.278.103.165-.036m6.597-6.818c-.116.03-.184-.008-.162-.138q.083.066.162.138M136.354 25.19c.278-.02.592.039.826.104.074.021.029.07.081.086.092.032.194.02.284.057.031.012-.02.09.012.101.181.064.353.069.537.117.887.239 1.749.463 2.625.726.29.088.621.255.93.308.036.006.035-.07.043-.075.129-.06.054.073.116.111.249.153.546.248.809.298.114.022.046-.151.133-.039.006.008-.045.074-.017.091a.4.4 0 0 0 .078.035c.073.024.154.048.193.068.11.056.127.063.232.113.142.07.282.197.428.279.032.017.039-.076.095-.053a.6.6 0 0 1 .2.173c.027.048-.031.08-.034.098-.026.137.211.13.231.146.338.245.462.591.641.904.137.241.289.495.379.74.107.29.143.55.226.83.009.031.091-.029.102.008.113.391.178.79.17 1.193-.001.04-.09 0-.096.041l-.01.062c-.035.266-.142.585.164.78-.034.193-.118.442-.263.572-.092.082-.122-.056-.151.08-.008.03.081.035.063.079-.078.188-.237.334-.339.488-.021.032.035.076.036.093.002.14-.223.107-.254.115-.239.073-.351.193-.524.305-.04.025.059.074.022.102a2.7 2.7 0 0 1-.623.34c-.049.017-.05-.076-.075-.072-.112.023-.054.166-.16.189-.022.005-.046-.062-.053-.066-.112-.073-.075.1-.087.111-.149.144-.346.051-.503.166-.018.014.069.066.014.1a5.2 5.2 0 0 1-1.2.544c-.065.02-.051-.06-.059-.066-.116-.084-.081.088-.098.104-.134.116-.339.055-.359.287-.686.24-1.32.631-2.077.672-.01 0-.018-.085-.037-.083-.179.013-.167.088-.208.218a.6.6 0 0 1-.046.104c-.028.048-.186-.113-.198-.125-.047-.042-.037-.172-.051-.18-.111-.056-.012.345-.153.37-.005.001 0-.077-.013-.082-.04-.017-.07.018-.11-.002-.092-.048-.142-.242-.249-.114-.014.016.032.248-.098.247-.053 0-.285.01-.351-.01-.065-.019-.016-.092-.02-.096-.164-.11-.097-.148-.159-.302-.057-.155-.084.194-.125.228s-.15-.072-.171-.108c-.022-.035.025-.072.004-.094-.133-.146-.121.147-.195.182-.187.078-.2-.211-.292-.29-.027-.022-.031.043-.06.033-.119-.043-.134-.15-.288-.173-.024-.003-.216.043-.195-.093.004-.02.068-.048.041-.093a.8.8 0 0 0-.194-.218c-.052-.034-.086.088-.112.009-.01-.035.077-.03.054-.091l-.002-.005c-.027-.063-.122-.178-.158-.224s-.083.027-.09.027a.4.4 0 0 1-.149-.089c-.305-.438-.381-.934-.546-1.409-.013-.037-.09.008-.092.003-.067-.128.179-.073.233-.179-.166.049-.148-.012-.183-.103-.016-.044-.078-.008-.086-.011-.112-.054.012-.123.038-.138.092-.056-.029-.093.034-.13.063-.035.166.024.158-.063-.064-.021-.221.06-.252-.01-.061-.136-.053-.346-.01-.537.04-.18.108-.34.14-.439.066-.203.081-.27.144-.378.119-.192-.022-.161-.014-.314.011-.153.248.04.313.05.066.011.016-.036.058-.04.041-.005.057.058.093.017.035-.04.007-.222-.039-.273-.1-.108-.264-.124-.14-.227.008-.006.059.059.083.035.189-.19.354-.402.563-.56.029-.022.073.059.09.047.181-.118.022-.16-.012-.358.137.169.275.213.387.108.068-.064-.007-.122-.006-.213.001-.027.095-.024.075-.065-.024-.05-.06-.094-.087-.131-.047-.063-.068-.11.043-.148.007-.003.039.074.062.061.15-.079.073-.212.217-.335.114-.097.386-.153.539-.212.107.218.211.105.204-.073.101-.036.206-.086.312-.096.036-.004.035.07.042.076.098.093.094-.074.115-.087.229-.126.445-.036.676-.167.008-.005.018-.174.087-.052.004.008-.074.086.039.09q.047.005.111.022c.112.029.245.076.367.043.039-.012.172-.123.22.004.006.017-.019.06-.012.09.018.095.098-.058.101.097.003.156.044.288.212.268.005 0 .103-.1.143-.072.063.043.132.128.192.177.029.024.065-.056.071-.053.23.137.301.335.422.576.022.042.197.11.162.24-.018.066-.122.121-.205.178-.092.063-.158.125-.065.206.068.056.604-.016.405.24.169.3.098.633.242.947.006.014.158.042.16.078.004.053-.059.092-.059.13-.002.16.069.3.072.455 0 .058-.071.043-.071.112.001.071.096.11.056.208-.031.072-.218.15-.237.243.187-.002.185.063.236.177.01.022.075-.003.083.008.034.042-.02.082.017.123.009.01.073.01.084.018.094.068-.05.183-.075.202-.095.074-.012.109-.051.166s-.083-.03-.107.037c-.049.135-.043.311-.052.452-.002.055.084.02.086.028.017.116-.079.23.087.3-.442.058.039.074-.058.233-.008.013-.216.017-.243-.035-.028-.05.041-.122-.003-.193-.01-.017-.2-.119-.211-.131-.088-.104.223-.104.24-.11.186-.051-.019-.173-.033-.204-.062-.137-.016-.253-.061-.367-.03-.076-.233-.085-.226-.142.021-.191.304-.263.055-.439-.053-.038-.274.005-.103-.135.011-.008.167-.118.064-.172-.013-.007-.078-.004-.084-.013-.038-.064.012-.11-.017-.178-.029-.07-.071-.15-.056-.231.009-.048.124-.121.151-.148.078-.073-.068-.129.03-.18.098-.053.264.01.317-.108q-.254.023-.509.044c-.023-.228-.007-.458-.067-.674-.007-.027-.088.022-.099-.006-.043-.114-.011-.235-.075-.344-.05-.085-.176-.145-.235-.22.086-.072.085-.139.061-.198-.019-.048-.051-.09-.066-.132-.013-.034.032-.058.033-.089.001-.116-.118.015-.154.008-.152-.021.157-.253.06-.357-.006-.007-.215.066-.23.069-.107.01.044-.057.024-.1-.036-.075-.05-.152-.16-.161-.034-.003-.153.07-.142-.04.001-.014.039-.07.036-.076-.057-.11-.16.08-.234.124-.071.046-.089-.116-.095-.162-.011-.119.048-.034.054-.043.072-.11.001-.113-.047-.137.052-.203-.034-.213-.05-.025-.002.02.043.012.05.025-.103.183-.162.195-.22-.008-.029-.095.026-.196-.118-.171-.059.011-.051.134-.091.183l-.012.011c-.117.085-.275-.041-.401-.001-.044.014.011.085-.017.098-.075.034-.157-.01-.229.04-.007.005.031.08.008.088-.176.057-.352.068-.538.159-.09.043-.221.172-.313.223-.132.071-.33.115-.455.207a.3.3 0 0 0-.063.06c-.067.086.007.13.013.202.014.136-.229.105-.266.102-.002 0 .048-.08-.017-.074-.083-.04.017.073.017.074-.024-.004-.161.12-.172.158-.006.02.061.063.056.072-.1.228-.217.426-.366.61-.003.002-.076-.047-.083-.04-.103.102-.049.231-.036.355s-.033.187-.196.198c-.01.083-.106.174-.162.232-.055.058.11.103.112.11.037.103.026.17.003.24-.02.062-.05.127-.057.212-.01.087.026.262.059.354.025.072-.006.125.033.19.006.008.078-.017.081-.015.105.056-.084.06-.112.084-.104.085-.156.143-.071.231.02.022.295.008.323.04.037.045-.06.058-.018.105.004.004.059-.018.069.016.049.156.099.337.193.485.012.02.078-.053.097-.025.09.13.185.271.247.416.015.036-.05.06-.06.079q-.02.044-.004.06c.03.032.127 0 .135.004.237.138.277.363.507.39.017.002.151-.141.14.018-.003.01-.003.178.06.08.003-.007-.002-.093.038-.075.041.017.116-.026.174.07.017.03.065.194.139.067.008-.008.1-.299.148-.102.008.032.014.244.096.128.015-.022-.019-.066.022-.1.061-.051.162-.008.231-.116.013-.019.046-.17.119-.075.012.015.011.087.04.09.074.004.146-.017.22-.038a.7.7 0 0 1 .202-.031c.054.002.062.118.124.131.061.014.178.007.218-.062.039-.068-.079-.22-.003-.26.334-.182.727-.226 1.093-.368.054-.021-.016-.062.062-.097.287-.13.754-.42 1.063-.42.248-.002.035.2.208.163.083-.018.067-.247.081-.261.142-.149.304-.128.445-.236.028-.022-.043-.08-.018-.098.085-.063.2-.081.284-.135.037-.025-.001-.078.037-.093a.64.64 0 0 1 .295-.05c.01 0-.002.1.064.067.105-.054.262-.075.348-.197.025-.036-.048-.166.078-.12.027.008.097.175.105-.01a.7.7 0 0 1 .027-.126c.027-.073.069-.137.149-.097.037.018.16.115.189.07.003-.007-.061-.061-.032-.088.101-.095.222-.164.312-.259.024-.025-.065-.064-.029-.099.1-.096.232-.176.323-.228.033-.02.063.048.07.051.12.053.019-.08.02-.095.009-.097.097-.09.108-.148.002-.015-.072-.044-.077-.05-.049-.053.068.029.089.02.063-.028.077-.092.078-.16 0-.024-.094-.012-.093-.032.003-.114.007-.285.023-.484l.003-.04c.004-.046.077-.028.091-.04.102-.08-.063-.15-.08-.169-.081-.085-.026-.132-.053-.215-.128-.4-.214-.896-.322-1.256-.14-.464-.255-.83-.53-1.153-.017-.02-.073.06-.089.043-.195-.206-.37-.407-.607-.51-.019-.008-.036.083-.067.073a.5.5 0 0 1-.185-.107c-.025-.025.044-.08.016-.103a.4.4 0 0 0-.099-.06 1 1 0 0 0-.192-.055c-.05-.009-.004.1-.067.081-.433-.122-.859-.23-1.267-.46-.028-.017-.007-.2-.081-.184-.018.048-.033.106-.049.158-.637-.14-1.25-.355-1.889-.499-.026-.006 0 .099-.051.088-.302-.064-.598-.094-.889-.242-.029-.015.015-.18-.078-.17-.017.002-.159.002-.198.033-.006.005.006.087-.037.083a4 4 0 0 1-.76-.157c-.04-.013.013-.093-.016-.102-.201-.066-.423-.02-.593-.098-.109-.051-.066-.198-.136-.34-.013-.02-.062-.017-.077-.098-.071-.201-.051-.442-.125-.657-.023-.013-.037-.042-.24.063a.55.55 0 0 0-.193.206c-.059.108-.065.21-.071.233-.003.026-.026-.018-.001-.155.013-.135.19-.332.235-.363.168-.112.325-.152.357-.198.021-.03-.03-.111.016-.15.049-.04.099.03.165-.013.065-.042.035-.14.16-.15m-1.041 7.84q-.028.019-.01.034c.028.027.132.038.158.017q.013-.01-.004-.03a1 1 0 0 0-.144-.022m5.44-1.017c.111-.121-.093-.142-.179-.057-.086.083.145.092.179.057m.221.983c.095-.123-.329-.107-.234.006.005.007.228 0 .234-.006m-4.536-6.564a.2.2 0 0 0-.061-.006c-.035.093.081.106.061.006m4.671 7.577c.058-.037-.009-.14-.08-.095-.057.035.009.14.08.095m-4.473 2.359c-.001.005.036.028.046.005.034-.073-.027-.08-.046-.005m4.404-.619c.034-.254.394-.391.335-.109-.011.051-.104-.119-.14-.056-.065.116.148.209.021.323-.023.02-.219-.144-.217-.158zm-6.089-2.718a.2.2 0 0 0-.009.064c.078.033.102-.047.046-.063l-.023-.002zm4.227 3.476a.5.5 0 0 0 .148-.04c.021-.17-.258-.096-.148.04m-1.952-6.873c.02-.117.098-.166.198-.078-.068.022-.132.052-.198.078M167.415 30.341c.108.183.112.182.051.194-.014.005-.033.055-.039.064-.009.019.001-.004.02.022.008.009-.008.092.003.1.067.04.18.002.315-.025l.043-.009c.739-.195 1.579-.752 2.39-1.25.277-.174.65-.335.919-.552.031-.025-.029-.073-.026-.083.05-.143.098.003.174-.023.291-.099.577-.265.833-.43l.036-.023c.114-.074-.075-.141.087-.131.011 0 .015.086.052.077.081-.02.226-.102.29-.12.127-.04.146-.047.268-.087.168-.051.387-.065.607-.082.047-.004-.018-.086.064-.097a.8.8 0 0 1 .383.083c.068.045.013.092.02.11.05.142.334.14.365.167.228.16.341.362.418.54.09.21.134.408.206.592.099.257.241.51.331.618.06.069.049.068.077.085.029.012.135-.003.242-.054.024-.011-.041-.085-.013-.099.311-.151.679-.383 1.097-.538.042-.015.032.085.076.074.276-.076.706-.085.791-.474l.088-.016c.185-.03.396-.035.552.021.115.043.008.136.143.095.031-.008-.009-.087.038-.094.199-.027.41.021.605.014.039-.002.042-.073.055-.084.113-.085.23.116.257.136.221.148.398.164.61.233.049.016.02-.093.068-.08.25.065.491.155.704.262.048.024-.021.088.001.104.097.067.161-.075.252-.017.019.012-.009.076-.007.084.033.132.125-.02.141-.021.203-.01.3.185.495.173.023-.002-.022-.092.04-.093q.27-.003.532-.048a4.5 4.5 0 0 0 .683-.196c.065-.023.054.058.062.063.124.077.081-.096.097-.112.13-.128.351-.1.344-.338.557-.289 1.016-.753 1.702-.982.156-.047.321-.079.492-.079.011 0 .009.086.031.085.264.006.186-.116.402-.27.063-.038.192.182.194.2.032.062-.046.17-.034.183.077.108.202-.294.389-.197.004.003-.055.057-.045.071.03.045.087.045.109.094.051.114-.063.277.115.294.022.003.177-.18.269-.053.021.03.086.113.135.192.037.056.066.11.076.138.023.066-.066.065-.066.07.006.207-.065.168-.15.317-.085.148.209-.045.26-.033s.042.163.032.204c-.009.04-.07.03-.071.063 0 .212.191-.017.269.006.182.05.015.272.07.393.015.031.046-.026.068-.006.086.077.073.189.216.218.028.009.185-.065.17.057-.001.019-.055.063-.022.097a.32.32 0 0 0 .246.09c.065-.008.007-.123.081-.08.033.02-.04.073.023.104.063.03.228.046.293.05s.037-.08.043-.084a.5.5 0 0 1 .168-.055c.536.037 1.031.19 1.561.137.041-.004.012-.09.018-.09.141-.04.034.19.136.264-.019-.173.04-.143.139-.166.048-.01.02-.077.024-.084.067-.104.122.025.136.051.052.097.097-.023.132.042.037.064-.033.165.064.158.024-.063-.057-.22.014-.251.265-.114.783-.036 1.006-.052.218-.014.29-.036.419-.032.237.005.134-.1.266-.178.134-.078.113.225.145.285s.042-.01.073.02-.016.083.046.085c.06.003.205-.138.212-.207.018-.147-.081-.278.083-.257.009.001-.005.083.031.084.281.007.565-.05.847-.06.038-.002.024.09.047.09.238.002.126-.122.21-.309.022.217.123.329.293.289.103-.025.064-.112.114-.193.015-.024.101.021.105-.025.009-.151-.097-.293.093-.273.008.001.003.084.031.083.181-.013.166-.165.349-.227.147-.05.433-.02.611-.035.039.24.186.158.234-.015l.113-.01a.7.7 0 0 1 .278.028c.043.015.001.08.006.088.05.13.137-.012.169-.008.314.047.422.297.691.391.009.003.141-.104.102.034-.003.01-.118 0-.038.093.081.095.153.324.314.408.039.02.21.02.171.148-.005.017-.051.037-.064.065-.04.09.114.013.031.145-.084.131-.102.293.075.368.006.002.138-.046.166-.003.046.068.093.178.146.245.026.033.076-.04.081-.035.206.184.268.378.472.594q.008.008.024.014l-.028-.003c.054-.045.137-.165.251-.135.147.038.223.46.42.251.081-.085-.041-.61.255-.46.298-.232.665-.273.952-.527.013-.011-.006-.165.031-.181.054-.024.113.023.152.008.166-.06.286-.18.445-.242.06-.024.068.05.14.023.071-.027.082-.133.195-.13.086.001.227.15.328.136-.061-.177.006-.198.11-.285.021-.017-.025-.07-.016-.082.035-.046.093-.008.125-.056.008-.012-.01-.073-.004-.086.049-.113.213-.008.239.011.103.072.122-.017.192.006l.008.003h.013c.046.039-.038.077.028.103.142.057.321.088.46.143.055.022.047-.072.056-.07.128.025.201.162.342.045-.13.428.09-.003.206.17.009.013-.086.198-.146.197-.06 0-.097-.097-.183-.09-.022.001-.192.133-.207.14-.121.044-.01-.244-.01-.263.012-.195-.177-.04-.205-.031-.145.025-.243-.035-.352.006q-.004 0-.008.003l.078-.006c-.059.055-.026.24-.081.248-.187.026-.346-.222-.448.072-.022.064.091.258-.104.143-.011-.007-.171-.118-.193 0-.003.015.022.075.014.084-.051.059-.114.029-.174.082-.061.053-.13.124-.219.14-.054.011-.167-.069-.204-.084-.103-.045-.113.115-.199.043-.088-.073-.075-.254-.215-.26.071.153.138.312.207.467-.238.112-.496.187-.733.32-.029.017.043.081.013.101-.128.084-.277.09-.407.188-.101.076-.179.224-.287.306-.159-.134-.306.013-.446.06-.048.016-.067-.032-.107-.032-.055 0-.073.018-.074.042-.164.066-.434.047-.567-.07-.041.014-.072.085-.106.08-.231-.047.019-.341-.126-.478-.007-.007-.248.032-.27.025-.14-.035.041-.062.006-.126-.062-.117-.076-.215-.212-.294-.039-.023-.203-.029-.17-.152.004-.016.063-.051.061-.06-.036-.162-.21-.041-.319-.069-.108-.027-.064-.217-.045-.263.049-.12.069.015.08.012.129-.04.056-.103.023-.167.162-.132.092-.206-.035-.066-.014.016.034.049.035.066-.203.07-.285.003-.205-.206.037-.098.152-.124.016-.23-.061-.046-.153.069-.223.047-.158-.046-.185-.26-.298-.318-.04-.02-.052.069-.08.059-.068-.022-.089-.1-.152-.093-.005 0-.025.081-.038.077-.055-.013-.085-.031-.137-.042a1.3 1.3 0 0 0-.279.017c-.116.02-.323.11-.452.131-.225.037-.534-.01-.723.066-.123.05-.077.123-.119.191-.078.131-.316-.012-.347-.036-.001 0 .105-.046.036-.073-.054-.078-.035.072-.036.073-.022-.015-.249.019-.29.044-.023.014.008.087-.004.093-.285.136-.587.22-.904.242-.006 0-.014-.088-.027-.088-.188-.005-.281.12-.423.207-.137.087-.265.084-.373-.052-.11.035-.282-.01-.379-.038-.098-.029-.092.142-.1.146-.246.136-.406.054-.677.06a5 5 0 0 0-.519.066c-.109.02-.178-.018-.277.01-.014.004.002.08-.002.083-.112.093-.062-.094-.086-.126-.087-.119-.139-.181-.282-.124-.032.013-.13.28-.193.294-.08.02-.048-.076-.132-.054-.007.002-.006.06-.058.057-.241-.016-.501-.062-.748-.073-.034-.002.004.095-.046.094a2.6 2.6 0 0 1-.705-.102c-.053-.018-.011-.078-.021-.1-.059-.124-.183.032-.201.033h-.005c-.859-.07-1.089-.69-1.401-1.015-.019-.019-.281-.095-.184-.244.005-.01.105-.16-.023-.164-.008 0-.057.081-.09.005-.034-.076-.142-.159-.112-.287.01-.04.109-.189-.043-.187-.003 0-.039.006-.08.01-.083.009-.179.023-.087-.076.023-.023.189-.156.059-.14-.024.004-.045.051-.087.05-.06.001-.061-.07-.118.007-.014.011-.064.146-.02.046a1 1 0 0 0 .029-.09c0-.04-.041-.002-.135-.034-.035-.01-.04-.126-.088-.146s-.152-.019-.184.05c-.031.067.086.216.023.256l-.013.009c-.223.154-.636.308-1.004.542-.056.035.027.057-.054.114-.291.208-.834.64-1.247.681-.321.03-.015-.206-.239-.151-.105.024-.143.265-.169.281a.86.86 0 0 1-.381.13c-.122.016-.238.019-.365.046-.054.011.008.091-.039.1-.162.028-.33-.009-.477-.01-.066 0-.058.065-.119.055a.9.9 0 0 1-.385-.152c-.01-.007.082-.073-.014-.093-.155-.034-.324-.136-.502-.121-.053.004-.097.147-.171.018-.015-.027.063-.19-.098-.078-.027.02-.284.157-.333 0-.013-.042-.028-.201-.087-.196-.008.001-.005.087-.05.08-.158-.024-.308-.08-.458-.098-.04-.004-.006.092-.064.083a2.5 2.5 0 0 1-.465-.136c-.048-.018-.002-.08-.005-.088-.041-.13-.1.028-.12.035-.123.042-.201-.04-.304-.019-.027.006-.007.084-.012.09-.052.07-.015-.071-.051-.086a.46.46 0 0 0-.308.01c-.032.012.018.083-.001.1l-.003.001c-.134.046-.35.13-.589.203-.046.014-.053-.061-.07-.07-.113-.067-.13.118-.143.142-.062.112-.13.08-.212.142a4 4 0 0 1-.574.356c-.244.109-.486.267-1.034.269a1.4 1.4 0 0 1-.845-.338c-.476-.467-.498-.777-.605-1.041-.086-.261-.153-.49-.24-.656l-.041-.07c-.011-.018-.081.047-.091.034-.069-.09-.072-.066-.021-.049.05.013.015-.01-.089.029-.017.006.027.086.002.098a.6.6 0 0 1-.221.054c-.043.003-.021-.088-.063-.083a.7.7 0 0 0-.304.122c-.041.029.067.073.011.104-.376.215-.772.494-1.253.676-.033.013-.16-.122-.202-.052.024.045.058.095.086.141-.588.432-1.226.802-1.899 1.197-.028.017.071.07.015.103-.323.19-.634.4-1.095.478-.036.005-.068-.097-.134-.108a.1.1 0 0 0-.065.015c-.019.013-.209.093-.26.14-.007.007.051.076-.02.094-.396.108-1.067.068-1.502-.337-.065-.06.061-.07.017-.113-.302-.295-.526-.643-.545-.879-.009-.144.146-.16.244-.285.007-.009.002-.032.008-.048.004-.007.008-.014.033-.006.013.004.031.017.082.03.051.018.146-.012.15-.032.047-.093-.041-.1-.069-.146-.042-.05.032-.11.083-.136.104-.063.229-.093.253-.23-.006-.012 0-.024-.089-.084-.039-.018-.125-.097-.356-.063a.52.52 0 0 0-.364.282c-.087.23-.049.204-.063.243-.008.039-.024.06-.082-.006-.002-.005-.007-.014-.007-.066.004-.033-.013-.048.044-.203.021-.046.042-.1.123-.188a.65.65 0 0 1 .425-.192c.333.01.385.119.439.145.157.137.141.138.177.168a.2.2 0 0 0 .055.037c.038.012.088-.075.147-.04.057.033.013.106.078.147.044.028.095.004.143.025q.032.012.054.047m24.171.415c-.094-.073-.079.226.008.146a1 1 0 0 0-.008-.146m8.96.626c-.158-.066-.134.14-.018.195s.066-.175.018-.195m.967-.584c-.159-.043.001.35.086.219a1.2 1.2 0 0 0-.086-.219m-35.167.179a.3.3 0 0 0-.031-.072c-.103.003-.044.146.031.072m36.171-.654c-.054-.046-.145.049-.078.104.052.044.142-.047.078-.104m-15.199-.462c.003-.004-.023-.047-.043-.031-.064.049-.004.094.043.03m16.853 1.086c-.219-.175-.172-.564.067-.352.043.038-.164.022-.122.089.074.122.273-.007.313.167.007.031-.246.107-.259.096zm-12.669-.544a.2.2 0 0 0-.07.003c-.028.098.108.093.07-.003m-6.224-2.26a.5.5 0 0 0-.169.05c-.022.171.282.083.169-.05m10.651 1.175c.055-.107.154-.133.23-.021-.077.002-.156.014-.23.021M168.88 37.101a2.3 2.3 0 0 1 .684-.137c.067-.004.047.056.093.055.091 0 .164-.045.254-.041.03.001.015.091.045.091.169-.002.314-.057.481-.076a46 46 0 0 0 2.393-.352c.263-.044.596-.04.856-.134.03-.01-.005-.078-.001-.085.073-.112.075.04.14.045.259.02.529-.039.752-.125.095-.036-.039-.153.079-.099.009.004.003.086.032.087.066.003.177-.04.226-.047.094-.012.109-.017.195-.04.117-.03.267-.03.387-.084.025-.011-.032-.078.007-.103a.4.4 0 0 1 .195-.045c.043.007.045.072.056.084.09.1.171-.1.186-.11.281-.161.568-.154.848-.254.212-.075.426-.19.626-.264.238-.089.454-.133.676-.24.024-.012-.043-.086-.014-.1a7 7 0 0 1 .945-.395c.041-.012.028.086.07.079.264-.053.628.03.706-.346.16-.014.356-.02.496.043.091.041.011.136.116.092.024-.01-.011-.087.024-.096.152-.036.32-.012.468-.05.031-.009.024-.08.033-.092.076-.102.192.072.217.086.196.1.339.073.522.089.042.004-.001-.095.041-.095.211.003.431.033.629.097.045.014-.006.09.015.102.092.047.13-.102.217-.059.019.01 0 .077.003.085.04.125.108-.038.123-.04.184-.029.277.161.451.159.022 0-.014-.094.045-.09.388.027.79.107 1.159.229.057.018.006.078.009.087.042.134.104-.03.124-.033.159-.025.279.135.41-.051.628.155 1.273.123 1.887.366l.007.003c.007.003-.015.085 0 .09.189.066.165-.067.304-.215.035-.037.117.162.125.176.028.054-.014.176-.004.187.083.085.097-.327.214-.32.003.001-.017.076-.007.084.029.026.061-.003.09.025.065.064.08.266.192.154.014-.015.004-.249.108-.234.042.007.227.009.279.025s.014.09.018.094c.139.103.084.143.153.292.069.148.055-.203.084-.242s.132.045.157.074c.026.028-.006.076.016.092.151.107.067-.173.116-.229.117-.131.207.128.315.153.029.006.005-.053.031-.059.102-.022.164.058.279-.018.019-.013.109-.17.173-.058.009.017-.014.082.029.096.066.02.184.03.253.007.051-.018-.011-.122.055-.091.029.014-.022.078.033.099a.8.8 0 0 0 .245.009c.052-.004.021-.084.025-.09a.4.4 0 0 1 .132-.075c.448-.027.869.09 1.305.027.034-.005.008-.09.013-.091.116-.04.033.19.118.262-.019-.172.031-.143.113-.165.04-.011.015-.078.019-.084.055-.105.101.025.113.052.043.097.081-.021.111.044.029.064-.029.164.051.16.02-.063-.046-.223.014-.251.225-.108.656.006.84.016s.243-.003.351.019c.193.038.121-.081.242-.137.121-.055.062.24.079.304s.036-.002.057.033-.025.078.025.092c.048.013.183-.1.202-.166.038-.14-.022-.289.11-.235.007.003-.018.08.011.088.228.064.467.074.693.137.031.009-.001.094.017.1.187.064.126-.085.24-.241-.036.214.015.349.157.36.086.006.078-.09.138-.151.019-.02.075.05.089.006.048-.141.003-.308.148-.23.007.003-.021.08.001.087.144.044.175-.105.337-.107.078-.001.187.042.292.084.085.03.16.066.221.092-.072.23.061.219.192.1.091.052.189.103.254.178.021.026-.037.07-.039.078-.022.131.108.027.129.036.216.095.258.311.488.364.008.002.133-.11.087.015-.004.009-.105.018-.041.088.063.068.135.258.284.273.037.005.171-.066.16.052-.002.017-.034.053-.038.082-.01.094.088-.046.062.103a.3.3 0 0 0 .015.16.1.1 0 0 0 .044.005c.06.05.137.06.212-.016.004-.004.012-.142.053-.148.066-.009.166-.003.234-.021.032-.01-.01-.085-.005-.088.201-.102.372-.082.609-.143.044-.01.115-.165.229-.118.127.05.211.467.374.28.067-.076-.071-.59.193-.423.24-.202.551-.221.775-.447.01-.01-.018-.16.013-.172.044-.02.099.03.132.019.115-.037.202-.118.31-.165.012-.005.033 0 .043.008q.03.023.054.053c.033.046-.035.073-.005.125.027.051.13.049.124.147-.005.074-.161.198-.157.28.178-.058.193-.002.271.083.015.017.071-.023.081-.016.043.027.002.078.047.103.011.006.072-.011.084-.007.108.036-.003.174-.023.197-.075.09.014.099-.01.158-.023.059-.088-.004-.095.06-.014.132.034.284.062.407.012.05.086-.005.09.002.046.095-.016.22.163.234-.407.18.057.05.009.216-.004.013-.2.08-.241.045-.042-.037.004-.119-.058-.168-.014-.012-.224-.047-.238-.055-.111-.065.186-.155.201-.163.165-.097-.063-.147-.084-.17-.095-.105-.078-.218-.15-.307-.046-.057-.245-.013-.252-.064-.024-.17.232-.31-.049-.388-.06-.015-.261.082-.13-.077.009-.008.131-.143.02-.145-.014 0-.073.024-.081.02-.048-.024-.014-.072-.05-.086-.031-.012-.072.003-.016.038l.618.11h-.015c-.034-.001-.123-.095-.153-.114-.083-.058-.08.095-.155.017-.078-.078-.08-.252-.199-.268.071.152.14.31.211.465-.183.084-.4.143-.594.257-.024.014.044.08.019.097-.105.074-.234.071-.343.157-.084.067-.145.205-.237.277-.146-.142-.269-.012-.391.022-.043.011-.06-.037-.095-.04-.131-.013-.016.123-.035.16-.089.16-.24-.195-.385-.133-.007.003-.043.231-.054.248-.066.109-.037-.063-.098-.06-.111.005-.194-.023-.304.065-.032.026-.096.171-.188.087-.012-.01-.019-.078-.027-.08-.148-.042-.119.167-.195.25a.08.08 0 0 1-.051.026 1.1 1.1 0 0 1-.343-.046c-.112-.043-.166-.192-.169-.234-.016-.136.077-.01.088-.017.105-.09-.005-.12-.064-.171.101-.183.017-.225-.06-.052-.008.019.052.035.06.052-.166.138-.298.076-.267-.147.016-.104.119-.151-.022-.226-.064-.034-.141.09-.214.076-.167-.033-.196-.251-.305-.324-.039-.026-.06.063-.088.047-.075-.04-.088-.131-.165-.156-.007-.002-.047.072-.065.059-.133-.097-.208-.204-.305-.237a.14.14 0 0 0-.075.002c-.079.001-.161.003-.218-.008-.182-.035-.401-.175-.564-.157-.105.01-.088.094-.136.148-.093.102-.232-.1-.252-.132-.001-.001.09-.016.045-.06-.023-.09-.044.06-.045.06-.012-.02-.192-.047-.228-.033-.02.008-.012.086-.022.089-.243.06-.483.075-.727.036-.004-.002.003-.089-.007-.092-.142-.04-.234.067-.35.131-.117.064-.21.044-.281-.105-.089.02-.217-.044-.292-.083s-.081.132-.087.135c-.199.113-.318.019-.529.01-.1-.004-.298.028-.406.051-.085.019-.138-.019-.216.01-.011.004.003.079 0 .082-.084.094-.05-.093-.069-.125-.072-.117-.116-.18-.227-.118-.025.014-.09.284-.137.301-.061.023-.042-.074-.106-.048-.006.002-.002.061-.042.06-.187-.003-.393-.028-.588-.014-.027.001.011.093-.027.097a1.9 1.9 0 0 1-.56-.015c-.044-.01-.018-.076-.029-.095-.062-.116-.139.057-.152.061-.325.092-.578-.058-.913.018-.018.005-.159.188-.222.03-.005-.01-.066-.17-.122-.061-.003.007.035.09-.033.08-.068-.008-.179.045-.271-.047-.029-.03-.095-.191-.186-.066-.006.009-.153.293-.195.092-.007-.033.009-.243-.1-.14-.022.02.013.069-.042.096-.084.042-.189-.02-.296.067-.019.016-.104.154-.157.041-.009-.017.014-.086-.017-.097-.149-.048-.312-.014-.462-.079-.025-.01-.029-.04-.032-.074-.004-.036-.006-.076-.033-.095-.052-.036-.159-.077-.221-.031-.063.045-.02.233-.108.238-.381.02-.737-.13-1.104-.194-.054-.01-.017.061-.098.052-.299-.034-.818-.044-1.054-.216-.189-.138.079-.186-.07-.252-.072-.031-.183.166-.202.17-.186.043-.297-.067-.459-.06-.034.002-.013.091-.042.091-.098.002-.19-.049-.283-.054-.042-.002-.042.064-.079.054a.56.56 0 0 1-.243-.131c-.007-.007.057-.08-.009-.092-.105-.017-.233-.094-.361-.045-.038.014-.056.162-.123.051-.013-.023.026-.199-.08-.054-.018.024-.191.216-.25.075-.016-.037-.054-.187-.099-.168-.006.003.01.085-.026.09-.126.015-.257-.004-.385.014-.034.004.011.09-.039.095a1.6 1.6 0 0 1-.435-.042c-.047-.01-.014-.08-.017-.087-.055-.122-.09.042-.108.052-.113.058-.201-.017-.3.009-.028.007-.004.084-.009.091-.053.071-.019-.072-.056-.085a.5.5 0 0 0-.306.005c-.034.009.018.093-.011.1a2.4 2.4 0 0 1-.455.08c-.025.002-.042-.068-.053-.08-.032-.034-.049-.028-.055-.009-.03.04-.038.11-.046.124-.059.106-.123.069-.197.12-.366.25-.877.434-1.266.562-.507.169-.915.243-1.386.415-.03.01.029.089.003.1-.332.13-.677.194-1.011.315-.027.01.037.083-.007.102a.8.8 0 0 1-.308.063c-.049-.001-.007-.09-.056-.09a1 1 0 0 0-.335.065c-.045.018.047.088-.013.104-.41.113-.813.223-1.253.202-.03-.002-.095-.175-.148-.128.007.051.02.11.03.163-.59.16-1.192.22-1.783.336-.025.005.038.09-.01.1-.279.059-.541.142-.844.11-.03-.002-.053-.172-.129-.128-.014.007-.133.058-.156.101-.004.007.037.08-.002.09a3 3 0 0 1-.711.114c-.039.002-.02-.09-.048-.09-.198.003-.382.119-.577.093-.132-.017-.128-.17-.231-.291-.014-.018-.089 0-.116-.079-.069-.2-.097-.433-.175-.645-.017-.046-.104.035-.077-.096.002-.009.066-.068.073-.111.006-.03-.041-.106-.024-.147.016-.042.065.02.098-.033.032-.053-.013-.141.072-.177m23.692-1.26c-.071-.079-.072.22 0 .146a1 1 0 0 0 0-.145m7.878.363c-.143-.072-.103.127.001.186.104.06.042-.164-.001-.186m.499-.44c.027-.127-.241.21-.187.143.004-.004.184-.136.187-.142m-31.636 2.503a.14.14 0 0 0-.057.011c-.003.1.105.078.057-.01m32.03-1.741c.047-.046-.042-.12-.1-.062-.047.046.041.12.1.062m-12.385-.878c-.001-.004-.042-.008-.041.018.004.08.06.057.041-.017m12.789 2.408c-.049-.232.253-.457.282-.204.005.046-.134-.066-.149-.001-.027.119.204.126.121.264-.015.025-.252-.046-.255-.06zm-9.225-2.572a.14.14 0 0 0-.058-.002c-.027.095.084.1.058.002m-5.885-.121a.4.4 0 0 0-.134-.023c-.083.147.173.191.134.023m9.678.072c.099-.07.196-.04.192.092a1.3 1.3 0 0 0-.192-.092M15.212 35.286a4.7 4.7 0 0 1-.55.713c-.057.063-.077-.002-.119.04-.082.084-.12.188-.204.268-.028.027-.071-.059-.099-.03-.15.158-.248.344-.382.518-.662.86-1.241 1.767-1.805 2.711-.187.313-.464.668-.606 1.016-.016.04.061.05.063.061.023.158-.09.052-.147.12-.224.266-.4.603-.515.907-.05.132.143.069.008.16-.009.006-.064-.06-.088-.028-.055.07-.112.223-.145.28-.066.112-.075.133-.127.244-.072.15-.189.315-.246.486-.011.037.082.023.07.084a.8.8 0 0 1-.121.248c-.04.042-.088-.004-.105 0-.144.025-.061.262-.066.285-.106.434-.33.736-.476 1.125-.108.289-.19.616-.282.889-.11.325-.237.603-.301.923-.007.033.094.015.086.055a6 6 0 0 0-.063.398q-.01.095-.01.15c-.02.028.07.047-.136-.148 0 0-.08.03.013.025.022-.004.03.084.058.083.199-.006.65-.264.46-.612.126-.135.266-.306.422-.41.1-.065.116.074.159-.06.01-.03-.079-.04-.06-.082.083-.18.216-.345.281-.532.013-.038-.053-.066-.058-.082-.04-.132.185-.179.213-.203.211-.177.275-.361.397-.572.029-.05-.087-.038-.062-.087.127-.252.278-.505.452-.727.04-.049.082.04.104.02.097-.096-.022-.195.07-.29.019-.02.072.028.08.028.142-.007.028-.148.034-.166.081-.241.313-.287.416-.504.013-.027-.096-.017-.056-.088.23-.402.49-.812.919-1.15.072-.054.142-.1.218-.144.08-.044.066.048.075.05.15.05.102-.12.13-.144.205-.17.476-.106.734-.243.404.13.564.391.726.533.164.159.257.204.37.195.232-.023.604-.24.956-.4.01-.004.044.075.064.065.24-.123.12-.197.157-.429.01-.058.235.007.253.01.067.013.11.138.128.136.144-.016-.133-.321-.007-.425.004-.003.036.07.051.066.048-.009.062-.059.11-.066.113-.014.267.118.306-.066.005-.023-.167-.185-.045-.27.047-.034.25-.204.32-.238.069-.034.074.057.08.057.22-.043.185.036.351.098.163.064-.06-.208-.047-.264.011-.056.188-.07.233-.062.047.007.03.071.066.07.105-.003.117-.04.104-.093-.013-.064-.072-.146-.035-.192.078-.1.228-.098.349-.022.127.076.17.207.212.283.024.044.049-.024.079.01.112.147.056.26.177.392.02.023.206.095.123.201-.012.016-.084.009-.078.066.007.085.066.226.136.257.047.02.077-.093.093-.04.01.024-.063.054-.03.099a.1.1 0 0 0 .022.018c.053.04.192.04.248.03.066-.01.019-.086.024-.092a.6.6 0 0 1 .146-.1c.54-.153 1.11-.31 1.69-.53.047-.018-.008-.09-.001-.094.16-.08.086.174.215.22-.055-.164.019-.153.14-.188a.1.1 0 0 0 .023-.013c.024-.025-.003-.068.001-.074.09-.112.169.022.182.049.056.1.134-.008.167.065.025.072-.075.15.03.171.047-.051-.006-.232.098-.233.46.015.8.584.985.666a.8.8 0 0 0 .215.093c.063.017.113.03.178.05.24.069.163-.062.306-.113.142-.058.086.238.11.301.027.063.049-.004.08.029.033.032-.029.08.043.087.075.009.248-.133.256-.203.022-.148-.083-.276.09-.26.01 0-.004.083.034.082.306-.01.61-.118.914-.194.042-.01.042.084.067.079.262-.057.116-.152.173-.358.064.207.194.293.373.204.107-.054.046-.128.084-.223.01-.028.115-.01.108-.056-.023-.152-.169-.258.04-.296.009-.002.021.082.05.071.19-.066.139-.211.32-.33.14-.095.451-.159.631-.236.11.217.244.084.236-.1.116-.05.237-.12.358-.15.042-.01.046.065.054.07.123.074.107-.096.13-.113.156-.11.325-.138.485-.188.04-.015.108 0 .142.026a.7.7 0 0 0 .27.145c.011.002.126-.122.11.021-.002.01-.122.013-.022.099.1.085.243.306.435.348.046.01.216-.037.227.101.001.019-.037.05-.038.083-.004.102.117-.022.088.134-.026.157.026.324.238.342.007.001.117-.088.164-.056.074.051.173.146.255.194.04.023.058-.064.066-.06.29.117.44.287.723.466.054.034.256.005.327.136.079.144-.218.465.11.498.133.013.461-.417.571-.092.418.076.763.31 1.201.292.02 0 .102-.134.145-.126.065.014.09.086.136.097.192.048.378.009.565.033.072.008.042.077.127.087.086.01.149-.08.263-.028.083.038.16.224.27.26l.034-.001h.009c-.013-.186.07-.189.204-.257.026-.013-.012-.074 0-.083.047-.04.102.006.146-.038.01-.01 0-.074.008-.086.066-.106.225.01.254.03.108.076.133-.014.21.008s-.017.09.068.095c.178.01.39-.052.56-.092.067-.016 0-.087.009-.091.133-.057.296-.006.328-.19.21.397.072-.064.292-.033.017.002.092.197.04.243-.051.046-.159.008-.23.076-.016.016-.08.234-.092.25-.099.121-.194-.175-.205-.19-.118-.159-.205.08-.239.102-.152.106-.306.097-.44.174-.087.05-.055.25-.132.26-.26.029-.387-.237-.598.038-.045.056.026.257-.16.137l-.087.001-.019-.02c-.01-.011-.13-.178-.213-.081-.01.012-.013.076-.026.081-.087.03-.141-.024-.238-.006-.096.019-.214.047-.324.015-.064-.019-.14-.148-.167-.18-.078-.094-.192.032-.233-.078s.085-.25-.046-.337c-.03.166-.067.335-.1.5-.327-.055-.634-.175-.953-.257-.04-.01-.023.089-.067.08-.184-.038-.32-.148-.509-.188-.146-.03-.334 0-.489-.039-.014-.213-.248-.244-.391-.332-.05-.03-.024-.075-.053-.108-.113-.123-.123.06-.174.065-.213.02-.055-.33-.24-.42-.01-.005-.232.107-.254.109-.146.013.018-.072-.04-.122-.106-.094-.161-.183-.33-.216-.05-.01-.213.04-.236-.093-.003-.018.039-.071.033-.08-.112-.15-.23.026-.354.03-.123.005-.17-.205-.17-.257-.003-.136.078-.003.087-.01.115-.077.013-.12-.05-.178.11-.178.006-.235-.067-.059-.007.02.058.042.067.06-.179.125-.304.068-.306-.171-.001-.112.111-.159-.075-.25-.082-.04-.14.096-.23.078-.189-.04-.292-.257-.437-.376l.444.082-.038.015c-.054.027.027.082-.01.103-.094.056-.207.036-.3.108-.009.007.047.073.015.088-.24.113-.478.172-.74.308-.128.066-.334.23-.472.295-.239.113-.586.166-.779.3-.126.087-.06.144-.092.224-.065.156-.359.081-.399.066 0 0 .111-.075.029-.083-.075-.062-.027.082-.029.083-.026-.008-.279.086-.324.121-.023.02.022.085.01.094a2.4 2.4 0 0 1-1.102.397c-.008 0-.013-.088-.03-.088-.239.001-.38.12-.598.184-.217.062-.406.015-.502-.156a.6.6 0 0 1-.144-.033 1.05 1.05 0 0 1-.377-.24c-.102-.103-.205.028-.219.024-.375-.125-.427-.326-.559-.419-.064-.047-.131-.038-.187-.017a.1.1 0 0 1-.045.004c-.03-.002-.066-.007-.109.02-.009.005.018.077.016.08-.058.107-.066-.08-.092-.108-.1-.098-.17-.145-.284-.045-.027.023-.025.306-.074.342-.067.047-.073-.053-.144 0-.006.004.018.058-.032.075-.233.08-.509.161-.791.268-.04.014.043.085-.015.107-.282.09-.573.255-1.208.114-.161-.051-.04-.089-.07-.117a.5.5 0 0 0-.083-.064c-.18-.106-.429-.172-.46-.202-.415-.418-.397-.687-.452-.87a3 3 0 0 0-.038-.178c-.005-.03.02.119.283.223.052.041.344.156.282.058l-.013-.028c0-.012-.098-.144-.087-.023.001.008.07.063.02.083-.054.023-.115.132-.257.124-.044-.003-.21-.078-.217.09 0 .012.049.343-.125.229-.029-.02-.154-.19-.19-.02-.008.034.06.04.024.106-.052.103-.198.15-.241.308-.008.028.006.203-.126.17-.02-.005-.046-.075-.085-.054-.181.1-.323.274-.527.366-.072.033-.108-.082-.191-.059s-.233.093-.278.184c-.045.092.137.19.027.278-.245.175-.494.352-1.04.414a1.5 1.5 0 0 1-.9-.221c-.235-.148-.367-.299-.47-.403-.054-.057-.058.03-.131-.04-.062-.06-.122-.1-.105-.082.009.02.163.065.226.046.114-.041-.086.026-.215.06l-.04.008c-.142-.004-.07-.177-.19-.121-.071.04.033.245.025.265-.069.19-.232.261-.322.45-.018.037.075.05.06.082-.054.108-.156.2-.214.306-.025.048.035.075.005.114a.9.9 0 0 1-.262.245c-.01.007-.043-.097-.092-.02-.079.125-.222.253-.252.433-.01.053.12.128-.024.173-.03.01-.172-.104-.1.083.012.03.088.321-.081.347-.045.007-.207-.003-.218.063 0 .009.086.019.067.067-.066.17-.168.333-.24.508-.019.047.09.024.06.092-.086.19-.235.404-.364.567-.048.06-.08-.02-.088-.02-.15.013-.037.143-.045.173-.049.189-.189.266-.268.423-.021.043.063.058.063.07.002.12-.074-.02-.122.024-.136.124-.245.29-.35.445-.04.059.08.05.043.103-.231.305-.46.623-1.03.891-.11.045-.074-.052-.103-.055-.181-.025-.449.184-.555.193-.375.059-.56-.079-.785-.229a1 1 0 0 1-.154-.133c-.196-.22-.224-.36-.262-.477-.034-.134-.04-.187-.048-.27a2 2 0 0 1 0-.368 4 4 0 0 1 .094-.564 8 8 0 0 1 .286-.923c.253-.692.513-1.187.75-1.823.016-.04-.087-.036-.075-.07.164-.462.382-.872.558-1.326.015-.036-.089-.021-.069-.081.042-.123.116-.271.198-.38.039-.052.071.057.11.004.088-.121.162-.264.218-.41.023-.063-.102-.012-.065-.09.243-.524.489-1.041.868-1.505.026-.032.204.024.212-.067-.041-.03-.094-.058-.14-.086.372-.757.841-1.45 1.287-2.168.02-.03-.096-.028-.06-.086.21-.341.392-.685.695-.978.03-.029.162.081.205-.032.007-.02.086-.183.08-.242 0-.009-.085-.025-.055-.075.175-.29.387-.571.618-.82.038-.04.075.055.102.027.192-.199.312-.48.527-.647.144-.11.225.028.396.038.025.001.09-.084.162-.038.179.113.335.291.53.407.04.026.082-.12.127.018.003.009-.026.114-.008.158.011.03.1.056.107.105.007.05-.074.039-.075.11 0 .073.094.109.035.21m7.107 5.62c-.023-.123-.218.104-.096.11a.7.7 0 0 0 .096-.11m10.44.923c-.092-.157-.227.007-.162.129.066.122.193-.081.163-.13m1.325.1c-.137-.116-.198.305-.03.232.01-.004.039-.226.03-.233m-19.966-7.244a.3.3 0 0 0 .05-.063c-.053-.088-.15.033-.05.063m21.27 7.084c-.055-.048-.173.04-.105.1.057.05.175-.04.105-.1m-16.953-1.82c.003-.003-.028-.044-.045-.024-.053.06-.004.084.044.025m19.061 1.278c-.313.073-.594-.212-.248-.269.062-.01-.1.145-.015.153.157.016.19-.223.367-.15.032.013-.086.263-.104.267M22.5 40.591a.3.3 0 0 0-.06-.053c-.09.05.023.15.06.053m-6.716.791a.8.8 0 0 0-.155.095c.008.182.313-.005.155-.095m11.31-1.913c.03-.124.117-.181.23-.104-.077.032-.152.07-.23.103M172.033 75.057c.179.016.402.1.569.181.052.026.011.07.047.09.069.04.145.033.213.076.022.015-.03.088-.006.101.131.074.269.091.408.152.663.338 1.448.458 2.056 1.457q.053.11.082.243c.074.339-.011.637-.039.871-.004.035.072.033.076.04.063.129-.072.056-.109.114a3 3 0 0 0-.337.67c-.03.089.142.07.027.118-.008.003-.067-.053-.086-.034-.043.043-.08.144-.106.18-.049.068-.055.08-.092.148-.05.092-.141.183-.167.282-.005.02.079.03.079.064-.002.037-.035.102-.058.112s-.081-.014-.096-.015c-.132.012.042.058.039-.006v-.015c.123.224.1.421.206.575.079.111.189.154.273.186.102.041.23.088.401.045.017-.004-.022-.092-.003-.098.215-.06.449-.155.72-.236.027-.008.038.082.067.078.182-.024.513-.048.394-.406.101-.054.228-.128.357-.136.083-.005.085.107.129.025.01-.019-.058-.066-.04-.089.078-.097.2-.162.266-.27.013-.022-.037-.072-.04-.087-.022-.116.163-.048.187-.053.184-.034.25-.14.365-.24.027-.024-.067-.067-.044-.092.121-.126.262-.244.417-.331.035-.02.064.064.083.057.086-.028-.006-.152.073-.181.017-.007.058.05.065.054.117.054.03-.097.036-.108.076-.143.267-.082.358-.205.01-.015-.08-.05-.046-.087.219-.247.49-.482.771-.663.045-.03.065.044.073.047.128.052.032-.093.039-.11.063-.126.248-.11.172-.32.461-.34.738-.841 1.41-1.046.01-.002.032.08.05.076a1 1 0 0 0 .1-.031c.038-.019.138-.023.197.032.052.044.073.075.101.1.051.048.107.097.16.17.033.054-.175.108-.19.111-.057.017-.173-.039-.184-.031-.094.057.31.138.289.233-.001.003-.072-.026-.082-.02-.028.021-.004.052-.034.07-.069.043-.272.034-.167.138.014.011.246.026.23.094-.008.03.001.132-.007.148-.01.022-.086.03-.089.032-.072.098-.121.087-.218.215-.074.15.19-.087.224-.106.029-.016.015.037.023.08l.003.025c.004.033-.038.066-.029.089.082.146.111-.144.158-.186.1-.108.114.158.205.194.023.01.01-.052.032-.055.084-.013.131.07.231-.001.017-.012.095-.167.146-.053.007.017-.013.082.024.096a.35.35 0 0 0 .216.009c.044-.018-.011-.123.045-.092.026.014-.017.078.03.099.048.02.167.01.212.006.046-.005.016-.085.019-.09a.3.3 0 0 1 .112-.078c.136-.012.272-.007.408.004.15.021.234 0 .478.09a.21.21 0 0 1 .113.163c.004.084-.024.117-.039.143-.033.048-.062.071-.087.094-.052.046-.1.082-.146.12-.024.021.041.08.038.084-.073.09-.125-.147-.226-.172.101.141.048.138-.003.192-.025.026.026.073.027.08.011.114-.083.018-.104 0-.03-.05-.079.037-.003-.075.013-.027.008-.103-.034-.14-.044-.039-.044-.03-.06-.038-.024-.007-.034-.007-.04-.008l-.008-.003q.001-.002.013.02c.036.058.01.166.077.146.001-.065-.09-.207-.054-.245a.4.4 0 0 1 .121-.078c.18-.084.448-.094.571-.124.153-.039.202-.066.297-.073.171-.012.078-.108.163-.192.085-.083.121.215.153.272s.029-.01.056.018.002.08.046.081c.043.001.125-.14.122-.208-.006-.144-.097-.273.028-.253.007.001.007.082.033.083.208.006.411-.04.616-.03.028 0 .023.09.04.092.172.02.084-.11.142-.288.022.216.097.335.218.313.073-.012.044-.103.08-.177.011-.022.074.033.076-.013.008-.148-.07-.3.071-.257.006.002.001.083.021.085.132.011.123-.14.261-.178.107-.03.312.04.437.042.021.242.129.176.163.005.08 0 .166-.015.245.003.028.006.014.077.018.084.059.116.083-.048.1-.056.185-.072.341.046.517-.077.006-.005.014-.173.064-.05.003.008-.055.085.029.09s.242.095.358.019c.028-.019.103-.154.158-.046.007.014-.002.063.008.09.033.086.057-.084.095.062.037.146.119.257.238.162.003-.003.036-.137.073-.133.059.006.14.038.201.04.029.002.015-.083.02-.084.2-.036.336.047.542.095.038.009.158-.097.225-.001.073.105-.044.508.151.426.078-.033.218-.545.331-.263.269-.044.502.117.773.047.013-.003.064-.145.092-.14.042.007.057.077.086.084.121.032.243-.015.36.005.045.008.023.076.077.085.053.01.1-.08.168-.028.052.039.089.233.162.261.019-.186.071-.177.164-.218.018-.008.006-.075.014-.082.036-.03.062.026.097-.007.008-.008.014-.072.021-.082.062-.09.138.062.151.088a.1.1 0 0 0 .021.033l.01.002c.036.051.078.006.106.051.03.054-.051.07-.015.11.071.085.105.137.089.229-.007.034.081.027.082.032.001.099-.121.136.004.262-.413-.16.011.071-.139.139-.012.005-.189-.104-.194-.15-.006-.047.079-.058.061-.123a1.3 1.3 0 0 0-.162-.16c-.07-.069.221.033.239.031.191.013-.009-.097-.027-.077-.067.017-.002.025-.067.039-.038.017-.098.212-.11.203l-.002-.002.073.012c-.149-.04-.179-.317-.343-.088-.036.05-.025.273-.122.09-.006-.012-.074-.179-.131-.083-.007.012-.013.077-.021.082-.056.03-.087-.025-.148-.006-.06.02-.133.05-.197.022-.038-.017-.078-.142-.095-.173-.046-.09-.116.043-.14-.062-.023-.107.056-.257-.025-.332q-.03.252-.063.506c-.194-.024-.377-.096-.57-.106-.024-.002-.008.09-.034.092-.109.004-.198-.069-.311-.053-.089.013-.192.1-.283.117-.039-.197-.178-.143-.273-.168-.033-.008-.027-.06-.05-.078-.087-.069-.056.104-.083.13-.115.105-.096-.28-.224-.278-.007 0-.102.2-.113.211-.076.08-.008-.072-.051-.09-.08-.032-.134-.084-.232-.029-.029.017-.101.141-.15.04-.007-.013 0-.08-.006-.085-.101-.07-.111.142-.172.213-.061.07-.146-.08-.163-.123-.046-.11.038-.046.041-.056.034-.127-.033-.107-.084-.119-.002-.209-.075-.198-.052-.011.002.02.042.001.052.011-.049.204-.125.229-.209.036-.04-.09-.001-.194-.124-.156-.056.017-.034.16-.083.2-.11.09-.256-.041-.37-.016-.041.009.002.086-.026.095-.074.024-.142-.032-.216.002-.006.003.014.084-.009.087-.174.019-.33-.023-.513-.006-.087.008-.24.07-.331.073-.158.005-.371-.083-.5-.03-.084.033-.05.111-.077.173-.052.12-.214-.046-.238-.072-.001 0 .07-.035.022-.068-.041-.082-.021.068-.022.068-.015-.017-.169-.003-.195.02-.014.011.012.085.004.09a1.3 1.3 0 0 1-.581.202c-.004 0-.022-.086-.031-.086-.128-.004-.17.12-.246.209-.078.09-.155.092-.258-.032-.065.04-.19.012-.261-.006s-.024.146-.028.151c-.127.158-.248.099-.422.148l-.022.007-.018.007c-.052.016-.104.04-.188.073-.025.01-.042.016-.087.029-.018.005-.049.014-.121.021-.015.001-.045.005-.114 0-.075-.015-.143.01-.365-.14-.167-.108-.3-.416-.27-.603a.72.72 0 0 1 .181-.419c.128-.13.118-.108.147-.135l.044-.037c.074-.064.126-.049.166-.104.005-.007-.042-.067-.042-.07.006-.112.079.06.108.081.102.078.176.105.177.032a.27.27 0 0 0-.104-.102c-.06-.026-.177-.07-.275.21a.77.77 0 0 0 .018.452.7.7 0 0 0 .17.264c.096.085.156.103.235.136.048.016.11.034.14.048.005.003.011.065.039.066.029-.012-.202-.042-.349-.024-.022.002.013.093-.019.098-.15.02-.328.03-.491-.006-.041-.009-.019-.075-.029-.094-.058-.115-.126.059-.139.062-.308.09-.531-.05-.941-.038-.014.003-.256.141-.318-.049-.008-.014-.04-.19-.186-.148h-.003q-.002.001-.001.008c-.001.017.004.058-.031.058a.2.2 0 0 1-.081-.037c-.148-.088-.439-.322-.439-.576-.005-.084.102-.258-.041-.383-.013-.002-.315-.23-.109-.293.034-.009.241.01.145-.126-.018-.027-.07.013-.092-.055-.033-.106.044-.213-.027-.327-.013-.02-.137-.122-.021-.144.019-.003.084.025.097.003a.3.3 0 0 0 .034-.084c.002.01-.013.007.003.154.023.07 0 .255.313.52a.8.8 0 0 0 .457.16.7.7 0 0 0 .231-.03q.05-.02.059-.038c.008-.023-.048-.123-.071-.145-.022-.023-.101-.006-.095.056.002.063.144.183.111.227-.15.2-.446.334-.679.538-.034.03.038.05-.01.099-.176.178-.446.534-.702.594-.205.048-.105-.17-.234-.106-.062.032.035.233.028.249-.062.157-.206.167-.288.288-.016.025.064.066.049.086-.05.07-.141.106-.195.168-.024.028.027.07-.001.09a.46.46 0 0 1-.236.089c-.009 0-.031-.091-.076-.052-.073.063-.202.103-.241.225-.011.036.09.146-.033.12-.026-.006-.134-.15-.089.02.007.028.045.278-.097.225-.038-.014-.171-.09-.185-.047-.002.007.069.052.049.08-.07.098-.168.174-.244.274-.02.026.071.057.04.095a1.3 1.3 0 0 1-.35.262c-.044.024-.061-.05-.069-.054-.121-.058-.043.09-.051.11-.056.119-.177.117-.251.2-.021.023.044.071.043.08-.008.093-.056-.047-.097-.035a.85.85 0 0 0-.301.188c-.032.028.059.074.03.098a1.9 1.9 0 0 1-.615.346c-.042.013-.053-.06-.069-.07-.107-.067-.115.11-.129.134-.059.106-.123.069-.197.117-.366.235-1.015.437-1.672.256-.882-.268-1.132-.954-1.324-1.43-.011-.031-.088.031-.1.004q-.059-.15-.097-.311c-.066-.319-.012-.46.012-.58a2 2 0 0 1 .093-.272c.06-.144.114-.256.16-.366.01-.025-.086-.03-.072-.072a.6.6 0 0 1 .143-.231c.03-.028.073.053.101.024a.56.56 0 0 0 .141-.23c.01-.035-.094-.026-.075-.068.132-.285.201-.538.315-.624.008-.005.192-.014.155-.03-.05.002-.11.007-.164.01q-.007-.009-.006.004c.056.068-.147-.229-.503-.374-.016-.008-.026.093-.058.08-.185-.082-.393-.126-.586-.287-.019-.016.043-.176-.032-.171-.012 0-.12-.007-.157.02-.005.005-.009.087-.042.08a2.4 2.4 0 0 1-.575-.21c-.03-.016.025-.09.004-.102-.151-.084-.343-.064-.482-.177-.094-.076-.021-.21-.043-.363-.003-.022-.068-.04-.052-.123.04-.208.126-.425.165-.648.008-.047-.092-.018-.013-.12.006-.006.079-.029.104-.064.017-.024.017-.112.047-.14.031-.03.039.046.086.015.047-.032.053-.13.13-.124m11.934 3.274c-.083-.057.012.227.046.138a1 1 0 0 0-.046-.138m6.994-.646c-.066-.139-.137.05-.092.156s.112-.114.092-.156m.817-.02c-.081-.112-.135.309-.029.233a2 2 0 0 0 .029-.233m-19.942-1.382c0-.004-.046-.019-.048-.015-.048.086.044.116.048.015m20.756 1.35c-.024-.06-.112 0-.083.074.024.06.113 0 .083-.073m-10.643.14c0-.004-.035-.012-.037.013-.008.08.046.064.037-.013m10.473.723c.137-.144.493-.034.321.122-.031.027-.033-.138-.09-.117-.103.037.028.224-.122.223-.028 0-.117-.22-.109-.229m-8.609-.491c-.003-.004-.049.01-.049.013.009.098.102.073.049-.013m-2.679-1.662a.3.3 0 0 0-.107.066c.047.157.237.04.107-.067m5.799.703c.044-.1.108-.118.161-.002-.054-.002-.107.002-.161.002"/></svg>