<svg xmlns="http://www.w3.org/2000/svg" width="256" height="134" fill="none"><path stroke="#000" stroke-linecap="round" stroke-width="2" d="M41.433 87.939c-.66-4.62-7.105-10.135-19.573-14.225-6.113-2.006-12.797.365-16.607 1.87s-4.8 3.155-3.99 5.82c3.45 6.295 12.44 14.82 26.972 25.122 8.263 5.518 18.328 11.623 30.697 18.413"/><path fill="#000" d="M38.447 92.272a1 1 0 0 0 1.971.334l-.986-.167zm18.37-44.063-.608-.794zm6.003 2.535-.77.638zm6.04 29.832-.991-.134zm-11.587 39.48-.99-.149-.003.022-.002.021zm-1.34 8.883a1 1 0 0 0 2 0h-2m-16.5-36.5.986.167c1.968-11.632 5.231-21.799 8.522-29.451 1.645-3.827 3.292-7.013 4.78-9.433 1.508-2.45 2.798-4.024 3.705-4.72l-.608-.793-.61-.794c-1.212.931-2.66 2.772-4.19 5.26-1.55 2.518-3.24 5.794-4.915 9.69-3.35 7.793-6.66 18.113-8.657 29.907zm17.385-44.23.608.793c.49-.376 1.072-.417 1.892-.012.855.423 1.806 1.275 2.732 2.392l.77-.638.77-.639c-1.002-1.208-2.165-2.304-3.386-2.908-1.257-.621-2.711-.768-3.995.218zm6.002 2.535-.77.638c2.1 2.532 3.956 6.904 5.085 12.154 1.124 5.227 1.503 11.215.734 16.906l.991.134.991.134c.803-5.946.407-12.168-.76-17.594-1.162-5.403-3.112-10.128-5.501-13.01zm6.04 29.832-.991-.134C66.578 90 63.958 98.13 61.524 104.721a331 331 0 0 1-1.767 4.654c-.56 1.453-1.09 2.816-1.557 4.075-.928 2.501-1.65 4.68-1.916 6.457l.989.149.988.149c.233-1.549.884-3.553 1.814-6.059.462-1.244.984-2.591 1.548-4.05a336 336 0 0 0 1.777-4.683c2.458-6.655 5.132-14.94 6.451-24.703zm-11.587 39.48-.995-.106c-.346 3.247-.346 6.103-.346 8.989h2c0-2.894.001-5.649.335-8.777z"/><path stroke="#000" stroke-linecap="round" stroke-width="2" d="M79.432 113.439c-.99-1.815-1.98-3.63-3.727-4.4-1.748-.77-4.223-.44-5.168 1.957s-.285 6.853.88 10.138 2.815 5.265 6.14 6.037 8.275.278 11.98-3.607 6.015-11.145 5.39-21.32-4.255-23.045-7.197-31.903c-4.493-13.525-8.453-19.717-7.893-19.992 8.141-3.998 20.335 18.685 35.573 29.847 5.846 4.283 8.472 4.893 9.747 3.833s1.275-4.03-2.932-16.285c-4.208-12.255-12.623-33.705-21.293-55.805M134.433 83.939c.66-8.58-.32-21.745-2.073-34.088-.251-1.766 3.048 5.368 8.035 13.945 2.084 3.584 4.988 4.453 7.253 3.398s4.245-4.355 4.852-8.365c1.293-8.536-2.717-17.515-4.475-21.043-2.764-5.547 8.023 19.903 17.175 36.858 8.977 16.629 10.228 33.89 10.565 46.537.148 5.553-.982 9.348-2.232 10.56-1.25 1.213-2.9-.272-4.658-5.162-1.757-4.89-3.572-13.14-3.27-30.26s2.778-42.86 3.558-56.368c.78-13.507-.21-14.002-1.133-13.515-.922.488-1.747 1.973-1.925 4.223-.824 10.445 11.778 17.41 17.323 24.34.913 1.141-2.615 2.42-4.795 2.847s-4.16.263-3.035-4.195c3.492-13.836 9.835-26.172 9.092-33.08-.325-3.022-2.227-4.762-3.982-5.037s-3.735 1.045-4.673 2.797c-.937 1.753-.772 3.898 1.788 6.488 6.568 6.645 14.59 10.27 17.755 13.595 1.414 1.486 1.515 3.325.365 4.835-2.866 3.762-7.83 4.355-9.253 4.44-1.127.067 6.698-3.39 14.108-9.04 11.757-8.966 9.595-32.93 13.467-37.55.444-.53-2.622 1.16-4.387 3.067s-3.085 5.043-3.435 8.143.31 6.07 2.3 7.435 5.29 1.035 6.99-.62c3.53-3.438 1.04-11.15.04-15.08-.142-.559-.34 2.175 1.392 4.855 1.733 2.68 5.198 5.32 8.55 6.102 3.353.783 6.488-.372 8.845-2.122s3.843-4.06 5.373-6.44"/><path stroke="#000" stroke-linecap="round" stroke-width="2" d="M125.432 132.439c22.605-22.275 45.21-44.55 63.95-63.45s32.93-33.75 42.798-42.72c14.982-11.61 21.407-14.66 22.745-14.83.182.16-.643.82-1.493 1.5"/></svg>