<svg xmlns="http://www.w3.org/2000/svg" viewBox="0 0 133 88" width="133" height="88" fill="none"><path stroke="rgba(0, 0, 0, .87)" stroke-linecap="round" d="M94.753 7.6v41c0 4.4 1 23.167 1.5 32m0 0h33m-33 0h-3.5c-.667 2.167-1.6 6.4 0 6 2-.5 22.5 0 25 0s13.5 0 14-1c.4-.8.167-3.666 0-5h-2.5m-2-73c.667 6.667 2 21.1 2 25.5v47.5m-37.5-73.5c-.334-2-.8-6.1 0-6.5 1-.5 22 1 26 1.5 3.2.4 10.667.167 14 0v5.5c-4.667.167-15.4.4-21 0s-15-.5-19-.5ZM95.753 10.6c5.333 3 18.9 9 30.5 9M95.753 20.6c5.333 3 18.9 9 30.5 9M95.753 30.6c5.333 3 18.9 9 30.5 9M95.753 40.6c5.333 3 18.9 9 30.5 9M95.753 50.6c5.333 3 18.9 9 30.5 9"/><path stroke="rgba(0, 0, 0, .87)" stroke-linecap="round" d="M95.753 60.6c5.333 3 18.9 9 30.5 9M95.753 70.6c5.333 3 18.9 9 30.5 9"/><path stroke="rgba(0, 0, 0, .87)" stroke-linecap="round" d="M129.253 71.6c-5.333 3-18.9 9-30.5 9M129.253 61.6c-5.333 3-18.9 9-30.5 9M129.253 51.6c-5.333 3-18.9 9-30.5 9M129.253 41.6c-5.333 3-18.9 9-30.5 9M129.253 31.6c-5.333 3-18.9 9-30.5 9M128.253 21.6c-5.333 3-18.9 9-30.5 9M127.253 11.6c-5.333 3-18.9 9-30.5 9M65.753 38.85c-2.333 6.82-7 24.168-7 39M57.753 39.1c-2.333 6.82-7 23.918-7 38.75M49.753 39.6c-2.333 6.82-7 23.418-7 38.25M41.753 39.6c-2.333 6.82-7 23.418-7 38.25M33.753 39.6c-2.333 6.82-7 23.418-7 38.25M25.253 40.1c-2.333 6.82-6.5 22.918-6.5 37.75M17.253 40.1c-2.333 6.82-6.5 22.918-6.5 37.75"/><path stroke="rgba(0, 0, 0, .87)" stroke-linecap="round" d="M16.753 82.85c-2.333-6.994-5.5-26.536-5.5-41.75M24.753 82.1c-2.333-6.994-7-24.036-7-39.25M32.253 82.1c-2.333-6.994-6.5-24.036-6.5-39.25M40.253 81.6c-2.333-6.994-6.5-23.536-6.5-38.75M48.253 81.1c-2.333-6.994-6.5-23.036-6.5-38.25M56.253 81.1c-2.333-7.169-6.5-24.656-6.5-40.25M65.253 80.6c-2.333-6.994-7.5-25.536-7.5-40.75"/><path stroke="rgba(0, 0, 0, .87)" d="M77.4 66.6c-.877 8.438-3.298 14.5-6.147 14.5-3.59 0-6.5-9.625-6.5-21.5 0-11.873 2.91-21.5 6.5-21.5 3.282 0 5.996 8.047 6.437 18.5"/><path stroke="rgba(0, 0, 0, .87)" d="M77.4 66.6c-.877 8.438-3.298 14.5-6.147 14.5-3.59 0-6.5-9.625-6.5-21.5 0-11.873 2.91-21.5 6.5-21.5 3.282 0 5.996 8.047 6.437 18.5"/><path stroke="rgba(0, 0, 0, .87)" d="M77.4 66.6c-.877 8.438-3.298 14.5-6.147 14.5-3.59 0-6.5-9.625-6.5-21.5 0-11.873 2.91-21.5 6.5-21.5 3.282 0 5.996 8.047 6.437 18.5"/><path stroke="rgba(0, 0, 0, .87)" d="M77.4 66.6c-.877 8.438-3.298 14.5-6.147 14.5-3.59 0-6.5-9.625-6.5-21.5 0-11.873 2.91-21.5 6.5-21.5 3.282 0 5.996 8.047 6.437 18.5"/><path stroke="rgba(0, 0, 0, .87)" d="M77.4 66.6c-.877 8.438-3.298 14.5-6.147 14.5-3.59 0-6.5-9.625-6.5-21.5 0-11.873 2.91-21.5 6.5-21.5 3.282 0 5.996 8.047 6.437 18.5"/><path stroke="rgba(0, 0, 0, .87)" d="M77.4 66.6c-.877 8.438-3.298 14.5-6.147 14.5-3.59 0-6.5-9.625-6.5-21.5 0-11.873 2.91-21.5 6.5-21.5 3.282 0 5.996 8.047 6.437 18.5"/><path stroke="rgba(0, 0, 0, .87)" d="M77.4 66.6c-.877 8.438-3.298 14.5-6.147 14.5-3.59 0-6.5-9.625-6.5-21.5 0-11.873 2.91-21.5 6.5-21.5 3.282 0 5.996 8.047 6.437 18.5"/><path stroke="rgba(0, 0, 0, .87)" d="m71.253 38.1-58 2c-3.59 0-6.5 9.627-6.5 21.5 0 11.875 2.91 21.5 6.5 21.5l58-2"/><path stroke="rgba(0, 0, 0, .87)" d="m71.253 38.1-58 2c-3.59 0-6.5 9.627-6.5 21.5 0 11.875 2.91 21.5 6.5 21.5l58-2"/><path stroke="rgba(0, 0, 0, .87)" d="m71.253 38.1-58 2c-3.59 0-6.5 9.627-6.5 21.5 0 11.875 2.91 21.5 6.5 21.5l58-2"/><path stroke="rgba(0, 0, 0, .87)" d="m71.253 38.1-58 2c-3.59 0-6.5 9.627-6.5 21.5 0 11.875 2.91 21.5 6.5 21.5l58-2"/><path stroke="rgba(0, 0, 0, .87)" d="m71.253 38.1-58 2c-3.59 0-6.5 9.627-6.5 21.5 0 11.875 2.91 21.5 6.5 21.5l58-2"/><path stroke="rgba(0, 0, 0, .87)" d="m71.253 38.1-58 2c-3.59 0-6.5 9.627-6.5 21.5 0 11.875 2.91 21.5 6.5 21.5l58-2"/><path stroke="rgba(0, 0, 0, .87)" d="m71.253 38.1-58 2c-3.59 0-6.5 9.627-6.5 21.5 0 11.875 2.91 21.5 6.5 21.5l58-2M80.753 56.6c.56 0 1.177.424 1.683 1.351.495.909.817 2.198.817 3.65s-.322 2.74-.817 3.649c-.506.928-1.123 1.35-1.683 1.35s-1.177-.422-1.683-1.35c-.495-.909-.817-2.198-.817-3.65 0-1.45.322-2.74.817-3.649.506-.927 1.123-1.35 1.683-1.35Z"/><path stroke="rgba(0, 0, 0, .87)" stroke-linecap="round" d="M80.753 56.6h-9m9 10h-9M6.253 58.1l-5.5 1.5c-.333 3-.6 9.5 1 11.5.8 1 4 .5 5-.5"/><path fill="rgba(0, 0, 0, .87)" d="M96.977 4.008c.185-.083.427-.14.609-.17.058-.01.036.024.076.018.077-.01.144-.04.222-.046.026-.002.006.046.032.043.146-.016.275-.057.42-.079a28 28 0 0 1 2.135-.244c.24-.015.531.005.779-.02.028-.002.01-.039.015-.042.085-.049.057.027.115.035.224.034.472.04.686.033.092-.003.003-.08.094-.035.006.003-.019.041.006.046.056.012.164.01.208.016.084.011.097.012.178.018.108.008.237.039.354.041.025 0-.005-.043.036-.046a.7.7 0 0 1 .18.025c.034.013.016.043.021.05.045.067.174-.003.191-.003.287-.001.522.08.784.114.198.025.411.034.597.053.222.022.408.054.622.05.022-.001-.004-.048.023-.049.289-.008.572-.032.86-.059.029-.002.001.046.031.046l.043-.001c.193-.006.457.005.534-.176a1.5 1.5 0 0 1 .402-.005c.076.015.01.068.097.039.02-.007-.01-.043.02-.05.126-.028.269-.027.394-.056.026-.006.017-.04.024-.047.059-.056.167.024.19.03.173.038.296.017.455.017.037 0-.007-.047.029-.049.185-.007.376.001.556.03.039.007.001.046.02.051.082.023.106-.052.185-.031.017.004.006.038.008.042.045.063.093-.019.105-.02.16-.014.254.083.406.085.018 0-.019-.047.033-.044.342.022.698.082 1.025.168.051.013.009.04.012.045.043.07.09-.008.108-.008.136-.002.248.09.355.005.555.13 1.117.181 1.654.359.007.002-.012.041.002.045q.033.01.056.014c.106.017.104-.042.21-.096.03-.016.103.092.109.1.024.03-.013.087-.004.093.071.05.087-.156.189-.142.004 0-.015.037-.007.041.026.016.055.004.079.02.057.038.065.14.166.094.012-.006.009-.124.1-.108.036.006.2.022.245.035.044.012.009.046.012.048.118.062.07.078.125.158.055.079.054-.097.081-.115.027-.017.114.033.136.049.021.016-.009.037.01.047.127.064.065-.081.11-.106.108-.057.176.079.27.099.025.005.006-.026.029-.027.09-.005.141.04.245.009.017-.005.103-.078.153-.018.008.009-.016.04.022.049a.7.7 0 0 0 .22.019c.046-.006-.003-.062.053-.043.024.009-.024.038.023.051.048.014.168.018.214.018.047 0 .023-.04.027-.043a.5.5 0 0 1 .119-.03c.394.008.753.084 1.138.07.03 0 .012-.043.016-.044.104-.015.019.096.091.136-.008-.087.033-.07.106-.077.036-.004.018-.038.021-.041.054-.05.088.017.096.031.033.05.073-.006.095.028.022.033-.033.08.036.082.021-.03-.028-.113.026-.124.203-.043.576.045.736.072.127.02.187.027.251.042l.052.013c.162.045.109-.024.214-.038.105-.016.04.125.051.159.011.033.031.002.047.021.017.02-.025.037.018.048.043.01.166-.036.184-.068.037-.068-.01-.145.1-.112.006.002-.017.04.007.045.196.041.403.048.602.075.028.004.003.047.019.05.167.028.107-.045.197-.127-.019.108.032.174.159.172.076 0 .062-.048.11-.082.014-.01.069.02.078-.002.03-.073-.022-.153.108-.124.006.001-.011.041.009.043.127.012.14-.065.277-.08.107-.01.301.028.424.03.003.121.118.088.162.003.079 0 .166-.009.243 0 .027.003.011.039.015.042.054.058.085-.025.102-.028.187-.038.341.02.519-.043.006-.002.016-.086.065-.025.003.004-.056.043.029.045.084.003.243.05.361.015.029-.008.103-.073.16-.016.007.008-.003.031.008.045.033.045.057-.038.094.037a.19.19 0 0 0 .236.103c.003 0 .041-.064.078-.056.038.007.09.024.135.038l.063.001c.03-.001.009-.042.015-.043.197-.03.339 0 .552.007.039 0 .148-.062.225-.02.085.045.011.255.198.196.076-.023.16-.289.304-.16.266-.048.516.01.782-.048.012-.003.047-.077.076-.077.042 0 .066.034.096.035.126.006.241-.025.363-.022.046.002.03.037.085.039.055.001.092-.045.166-.022.056.018.11.114.182.128.007-.093.057-.09.15-.109.018-.004.001-.037.01-.04.034-.015.065.014.098-.001.008-.004.011-.036.018-.04a.07.07 0 0 1 .063-.009.24.24 0 0 1 .093.063c.052.054.085.016.127.04s-.027.04.024.057c.106.035.246.044.356.055.044.004.018-.04.024-.04.092-.004.181.048.237-.033.048.223.057-.017.183.035.01.004.017.108-.023.121-.041.013-.098-.024-.155-.004-.013.005-.095.097-.106.102-.084.04-.082-.116-.086-.125-.04-.095-.14.001-.164.006-.113.023-.205-.01-.299.004-.061.008-.079.108-.126.1a.3.3 0 0 1-.122-.054c-.062-.043-.116-.084-.215-.007-.031.025-.006.137-.11.045-.006-.006-.085-.088-.134-.038-.006.006-.006.039-.014.041-.052.017-.087-.01-.144.003-.057.012-.126.031-.191.021-.04-.006-.091-.065-.111-.08-.055-.04-.11.03-.146-.02s.029-.131-.061-.162q-.003.127-.008.255c-.194.003-.385-.016-.581-.003-.024.002.003.046-.023.049-.109.012-.206-.015-.319.004-.088.014-.182.067-.274.084-.061-.094-.197-.054-.297-.058-.035-.001-.034-.027-.059-.034-.096-.027-.048.056-.073.07-.108.063-.126-.129-.256-.118-.007 0-.087.106-.099.113-.072.044-.013-.035-.06-.041-.08-.01-.138-.03-.227-.005a.4.4 0 0 1-.064-.006q-.007 0-.015.002c-.026.003-.098.054-.14-.002-.005-.008.004-.04-.001-.043-.095-.048-.11.059-.171.088-.057.03-.14-.05-.156-.072-.044-.058.038-.021.04-.026.035-.062-.03-.056-.081-.064-.001-.105-.074-.102-.053-.008.003.01.043.002.053.008-.051.1-.127.109-.21.01-.04-.045 0-.097-.125-.08-.057.008-.036.08-.086.1-.113.044-.262-.022-.38-.008-.043.005 0 .043-.03.048-.078.012-.147-.015-.225.003-.007.001.012.042-.013.043-.185.012-.347-.008-.542 0-.094.004-.262.034-.36.033-.171 0-.383-.053-.528-.035-.096.011-.074.052-.114.08-.079.057-.221-.04-.24-.054 0 0 .082-.011.038-.032-.026-.044-.037.031-.038.032a.8.8 0 0 0-.21-.012c-.018.005-.008.044-.018.045a2.3 2.3 0 0 1-.676 0c-.004 0 .006-.044-.004-.046-.13-.029-.219.016-.334.034-.112.018-.201-.006-.253-.088l-.002-.003c-.072-.003-.174-.05-.233-.076-.06-.027-.078.057-.084.058-.174.037-.269-.018-.451-.035a3 3 0 0 0-.354.003c-.075.005-.12-.016-.189-.005-.009.001-.001.04-.004.04-.079.044-.039-.048-.055-.064-.055-.062-.091-.095-.191-.07-.023.007-.093.138-.136.145-.054.009-.032-.038-.09-.028-.005 0-.004.03-.04.028-.163-.01-.342-.031-.513-.034-.024 0 .005.048-.029.048-.158 0-.334-.008-.487-.036-.038-.008-.013-.04-.021-.05-.049-.06-.124.022-.136.023-.286.027-.499-.064-.792-.05-.015.002-.146.083-.192 0-.004-.005-.05-.09-.102-.04-.004.004.026.048-.032.039-.059-.01-.154.01-.23-.044-.025-.017-.075-.103-.158-.047-.005.004-.138.134-.168.03-.005-.017.014-.12-.082-.077-.019.008.01.035-.038.044-.072.014-.16-.025-.252.01-.017.006-.089.069-.132.008-.007-.01.013-.042-.014-.05-.113-.033-.232-.033-.348-.065l-.04-.012c-.044-.016-.012-.068-.057-.09-.045-.024-.137-.054-.191-.036-.054.017-.015.116-.091.11-.327-.024-.634-.134-.949-.198-.046-.01-.013.029-.082.017-.255-.043-.696-.086-.904-.186-.168-.081.06-.09-.072-.132-.064-.02-.148.074-.164.076-.158.012-.258-.048-.396-.05-.029 0-.006.046-.03.045-.084-.002-.167-.03-.246-.034-.036-.002-.033.03-.064.025a.7.7 0 0 1-.217-.069c-.007-.003.043-.04-.015-.046-.092-.01-.206-.047-.315-.022-.033.008-.037.083-.103.028-.014-.011.008-.1-.074-.026-.015.012-.15.112-.213.044-.017-.018-.06-.092-.099-.08-.005 0 .015.041-.016.045-.111.012-.227.008-.341.024-.03.004.016.044-.029.05-.123.013-.277.01-.399.004-.044-.001-.016-.038-.019-.041-.057-.057-.082.027-.099.033-.105.037-.189.007-.287.028-.027.005-.003.042-.008.046-.053.04-.019-.034-.055-.038a1 1 0 0 0-.312.028c-.037.007.011.046-.021.052a6 6 0 0 1-.592.09c-.042.004-.024-.035-.034-.041-.069-.043-.139.047-.159.058-.085.048-.124.023-.204.04-.391.083-.883.059-1.237.016-.464-.055-.802-.141-1.221-.186-.026-.002-.006.047-.029.045-.294-.026-.578-.077-.87-.088-.024 0 .007.046-.031.046a1.2 1.2 0 0 1-.255-.027c-.038-.01.016-.044-.022-.052a1.1 1.1 0 0 0-.281-.023c-.04.001.019.048-.033.047-.348-.006-.689.006-1.046-.033-.024-.002-.052-.093-.103-.072q-.001.04 0 .083-.255.023-.514.045c-.34.03-.68.06-1.02.111-.021.003.024.045-.018.052-.24.039-.471.094-.724.098-.025 0-.03-.086-.1-.058-.012.005-.117.04-.141.064-.003.003.025.038-.009.046a7 7 0 0 1-.61.125c-.032.005-.01-.045-.034-.042-.164.024-.327.108-.476.125-.1.012-.093-.07-.172-.113-.011-.007-.062.017-.086-.017-.063-.085-.086-.205-.156-.295-.009-.028-.14.1-.086-.013.01-.015.084-.078.095-.105.007-.019-.035-.046-.016-.074.021-.03.064-.01.1-.047.031-.035-.002-.075.078-.111m20.958.814c-.057-.045-.076.104-.01.073a.3.3 0 0 0 .01-.073m7.325.056c-.081-.062-.131.037-.073.085s.098-.066.073-.085m.815-.072c-.093-.05-.104.161-.007.118a.5.5 0 0 0 .007-.118m-28.795-.25a.2.2 0 0 0-.047.015c-.008.053.082.026.047-.014m29.6.234c-.016-.02-.058-.018-.077-.003q-.017.013-.003.033-.002 0 0 0c.025.033.111.01.08-.03m-12.088-.254c-.001-.003-.036-.007-.036.005-.001.04.049.033.036-.005m13.471.363c-.204-.018-.318-.2-.098-.168.04.005-.089.05-.039.07.092.033.16-.074.253-.01.016.011-.104.11-.117.108zm-10.35-.258a.2.2 0 0 0-.051-.006c-.029.046.068.056.051.006m-5.141-.435a.6.6 0 0 0-.117-.023c-.071.067.153.112.117.023m8.399.443c.05-.05.113-.058.158 0zM75.158 59.442c-.037.019-.162.052-.258.079-.031.008-.029-.023-.051-.017-.044.01-.074.04-.119.052-.015.003-.02-.042-.034-.038-.082.025-.147.075-.226.115l-.004.002c-.233.103-.429.406-.509.727a1.4 1.4 0 0 0-.034.192c-.016.13-.042.303.005.433.005.015.04-.002.043 0 .056.033-.02.036-.022.068-.004.1.032.203.081.255a.1.1 0 0 0 .037.03c.024.012.049-.062.042-.017 0 .004-.027.033-.023.04.009.018.04.022.053.027.025.01.03.01.061.01.042 0 .109.003.163-.03.01-.007-.02-.037-.005-.051a.2.2 0 0 1 .087-.037c.021-.002.03.03.037.034.02.014.037.008.048-.006.02-.024.025-.07.03-.074.116-.126.26-.194.408-.313.035-.028.07-.057.117-.089.057-.022.072-.1.297-.063.163.065.174.176.19.222a.5.5 0 0 1 .01.131c-.02.214-.075.336-.199.52-.015.02.041.025.02.052a.42.42 0 0 1-.369.153.5.5 0 0 1-.253-.11.7.7 0 0 1-.219-.323c-.008-.024.043-.014.038-.038l-.009-.047c-.026-.151 0-.32-.164-.395a.57.57 0 0 1 .087-.322c.044-.055.063.02.076-.059.004-.018-.043-.013-.033-.041a.4.4 0 0 1 .052-.09.53.53 0 0 1 .283-.173c.028-.008.017-.041.026-.049.08-.061.2.055.215.072a.5.5 0 0 1 .202.252c.013.045.03.088.042.138.006.025.044-.016.052.008.038.125.058.26.053.387-.001.028-.045.008-.047.022-.012.06.065.064.054.122-.003.012-.038.008-.041.01-.057.039.03.06.032.07.032.108-.054.18-.04.282.002.013.045-.015.047.02.013.233-.014.477-.064.697-.007.034-.038.007-.043.01-.065.031.018.058.02.07.019.09-.056.169.044.23-.016.129-.014.258.013.358.041.13-.043.271-.097.32-.057.06-.109.094-.156.13-.095.067-.174.12-.245.19l-.002.002c-.003.003-.036-.024-.042-.017-.068.084 0 .096.054.183.014.02-.093.042-.101.046-.03.01-.085-.023-.091-.019-.052.041.15.081.138.141 0 .002-.036-.013-.04-.009-.016.015-.004.034-.02.048-.035.033-.137.035-.085.102.007.009.123.01.113.066-.004.022-.006.124-.012.152-.008.029-.046.01-.047.012-.048.08-.07.05-.141.096-.07.047.103.023.124.037.02.014-.014.076-.026.093-.012.016-.038.001-.044.015-.018.043 0 .053.027.051.033-.002.079-.017.097-.006.076.046-.039.122-.03.185.002.017.025-.006.033.006.03.046.008.097.071.127.012.007.094-.013.069.04-.003.008-.033.026-.023.043.015.028.061.049.08.029.012-.013-.02-.053-.007-.048h.003c.01.003.011.04.035.037.026-.001.072-.061.083-.087.013-.026-.03-.03-.032-.034a.3.3 0 0 1-.005-.075c.053-.153.098-.325.058-.488a.5.5 0 0 0-.076-.16c-.01-.015-.041.017-.043.015-.048-.045.075-.06.082-.12-.07.051-.07.02-.105-.015-.016-.016-.037.013-.041.013-.061 0-.02-.056-.013-.069.028-.047-.034-.035-.016-.066.019-.032.08-.03.053-.067-.033.006-.081.08-.112.058-.121-.083-.195-.36-.21-.474a2 2 0 0 1-.023-.126.4.4 0 0 1-.003-.093c.014-.12-.043-.073-.07-.15-.025-.078.122-.033.154-.042.032-.008 0-.02.018-.032.019-.01.038.017.047-.01.008-.027-.04-.11-.07-.125-.067-.031-.146-.005-.108-.08.002-.005.038.016.045 0 .051-.132.086-.268.151-.39.01-.017.046.012.051.003.06-.097-.021-.081-.077-.168.097.05.17.04.201-.035.02-.045-.027-.055-.044-.1-.004-.013.04-.031.024-.047l-.002-.002c-.047-.056-.155-.05-.041-.146.006-.004.018.04.038.024.014-.01.028-.026.072-.034.052-.008.098.039.105.057.022.04.024.059.03.084.002.024.011.047-.015.097a.14.14 0 0 1-.125.067c-.06-.003-.088-.026-.108-.04a.2.2 0 0 1-.044-.03c-.072-.063-.11-.215-.137-.297.11-.05.054-.108-.036-.11-.017-.053-.041-.108-.046-.162-.002-.018.035-.017.038-.02.046-.052-.038-.05-.045-.06-.066-.113-.032-.23-.124-.324-.004-.003-.086.016-.036-.032.003-.003.051.022.038-.03-.013-.05-.009-.17-.08-.203-.017-.01-.078.015-.06-.018l.003-.007c.003-.007.014-.028.017-.041-.007-.045-.002.036-.035-.028-.047-.065-.166-.04-.171.057 0 .003.043.059.03.077-.024.032-.063.073-.083.11-.009.017.034.026.033.03-.04.125-.113.194-.19.315-.013.022.005.115-.058.14-.07.027-.227-.115-.24.013-.003.047.187.244.02.241a.23.23 0 0 1-.08.095c-.11.065-.2.01-.307-.057-.006-.004-.079.023-.091.005-.017-.026.003-.058-.005-.076-.02-.053-.057-.087-.06-.155.058-.06.079.002.101.013.023.023-.01.04.015.067.023.028.074.015.09.068.011.04-.04.128-.02.172.076-.055.095-.027.15.008.01.007.03-.022.036-.02.028.009.018.041.045.049.006.002.033-.016.04-.015.06.004.033.096.028.111a.1.1 0 0 0-.005.026c0 .032.03.034.03.063-.001.035-.044.008-.036.044.015.074.06.153.088.22.01.027.042-.008.044-.005.035.053.013.125.104.13-.194.11.033.028.017.126-.002.008-.099.045-.12.025-.022-.02-.003-.066-.037-.092-.008-.007-.115-.018-.123-.021-.06-.028.081-.092.088-.098.074-.063-.046-.077-.059-.086-.059-.048-.067-.11-.116-.148-.032-.024-.12.025-.133 0-.04-.085.055-.196-.099-.198-.033 0-.11.081-.081-.026.002-.006.033-.097-.025-.087-.007 0-.032.022-.037.02-.034-.013-.028-.045-.058-.06-.02-.009-.096-.039-.022-.005.016.004.03.018.123.019.105.021.286-.166.268-.224-.003-.135-.045-.08-.05-.09-.04.017.035.016-.004.05-.037.04-.126.044-.127.108q.11-.065.219-.132c.039.065.039.065-.005.069-.003 0-.014-.044-.019-.044q-.009 0-.004.004c-.016.02.017.01.029-.022.014-.037 0-.106.015-.157.1.018.11-.073.146-.126.013-.02.035-.007.05-.017.055-.042-.034-.053-.04-.074-.02-.09.157-.013.19-.094.002-.004-.064-.101-.066-.111-.014-.066.035.008.057-.018.04-.047.079-.071.09-.15.002-.023-.024-.105.044-.118.01-.002.036.02.04.017.08-.055-.001-.123.033-.208.016-.094.336-.139.395-.076.131.084-.115.003-.12.028-.068.08.105.019.202.092l.003.002c-.037.097.02.14.061.052.006-.01-.048-.04-.061-.052.124-.052.24.063.19.18-.024.054-.082.048-.026.13.024.038.085-.004.117.027.073.07.038.193.07.267.011.027.042-.012.05.007.025.047.01.1.038.144.003.003.04-.019.044-.004.038.11.044.211.087.306.02.047.08.104.099.131l.018.038c-.017-.014-.038-.034-.095-.055a.3.3 0 0 0-.245.027c-.13.098-.107.141-.119.17a.2.2 0 0 0 .004.079c.017.024-.013.112.185.202.212.037.226-.049.245-.053.015-.017.015-.02.015-.024s-.007.003-.012.011a.1.1 0 0 0-.011.027c-.013.049.03.057.047.087.034.059-.085.1-.103.107 0 0 .007-.05-.022-.032-.047 0 .022.031.022.032-.012.003-.051.094-.049.116.002.01.04.016.04.022q-.003.2-.054.382c0 .002-.044-.007-.046-.002-.028.071.022.123.052.177.031.055.023.09-.049.127q.006.016.004.033c-.002.032-.016.07-.023.096-.01.038.072.016.075.017.078.059.053.12.102.215.022.044.093.127.138.177.036.04.038.078.077.117.006.005.034-.022.036-.02.072.03-.023.052-.03.071-.028.072-.042.108.02.173.013.013.16.02.183.062l.005.012c.013.04-.028.037-.004.086.002.005.03-.003.037.032.029.168.01.34-.017.499-.004.022.047.002.042.035a.83.83 0 0 1-.258.491c-.049.042-.044-.01-.06-.008-.05.007-.084.043-.128.083a.5.5 0 0 1-.11.082.54.54 0 0 1-.472-.085.65.65 0 0 1-.178-.205c-.072-.128-.103-.24-.156-.358-.006-.01-.105-.085-.064-.145l.013-.014c.004-.005.076-.06.017-.09-.004-.002-.041.03-.043-.018s-.036-.123.007-.189c.014-.021.093-.068.03-.127-.005-.002-.147-.102-.045-.13.017-.005.121.009.074-.065-.01-.015-.035.008-.046-.03-.017-.057.02-.126-.012-.203-.006-.014-.065-.082-.002-.113.01-.004.041.017.05-.004.046-.1.06-.22.142-.324.012-.016.027-.016.042-.014.02.003.042.01.063-.01.039-.036.107-.1.119-.15.013-.052-.09-.077-.043-.135.081-.097.17-.161.22-.195.023-.014.034-.026.016.007-.02.023-.055.165-.023.233a2 2 0 0 1-.025-.183c-.004-.043-.033-.005-.039-.067-.021-.23-.025-.54.052-.684.062-.116.095.037.123-.053.014-.043-.089-.097-.092-.107-.028-.104.022-.17.01-.26-.003-.019-.046-.002-.047-.017-.007-.053.013-.108.01-.158-.003-.022-.035-.018-.033-.038a.3.3 0 0 1 .046-.14c.002-.004.044.023.044-.013 0-.058.024-.133-.014-.196-.012-.019-.086-.01-.04-.058.01-.01.1-.01.017-.048-.014-.008-.13-.068-.07-.118.015-.013.081-.054.065-.074-.002-.003-.039.018-.047 0-.026-.06-.04-.127-.07-.186l.001.007c.01.036-.051-.004-.03.054.092.174.198.151.239.136.018-.008-.002-.04 0-.043 0-.062.033.012.045.012.033.002.056-.022.067-.045.008-.017.007-.028.012-.027.003 0 .038.016.042.017.033.01-.033-.014-.041-.015-.025.002-.03.043-.024.08.002.014.047 0 .048.01.008.065.02.142.025.204l.001.016c.001.013-.033.021-.04.027-.04.044.041.031.049.03.04 0 .02.023.031.027.01.003.017-.01-.041-.032-.053-.03-.224.005-.263.058-.059.08.033-.056.035-.096.004-.014.005-.027.009-.012.023.002-.058.11.244.264.197.046.22-.01.234-.01.012-.007.003-.005-.007 0a1 1 0 0 0-.09.057q-.105.076-.234.188c-.015.013.03.036.017.048a1.75 1.75 0 0 1-.7.379c-.027.006.022.041-.023.054a.7.7 0 0 1-.35-.005c-.056-.018.026-.04-.028-.057a1.2 1.2 0 0 1-.356-.188c-.043-.034-.01.056-.065.007a1.205 1.205 0 0 1-.357-.968c.002-.021.092-.046.072-.087q-.04-.002-.083 0a1.8 1.8 0 0 1 .04-.576q.085-.351.277-.672c.01-.016-.048-.012-.03-.044.113-.183.25-.37.475-.476.022-.01.061.065.11.018l.012-.01a.3.3 0 0 0 .068-.078c0-.003-.032-.03-.01-.044.127-.084.273-.155.43-.2.026-.008.018.042.036.037.128-.032.251-.119.426-.108.121.011.086.09.143.163.006.008.09.029.078.073-.042.097-.09.203-.127.309 0 .038-.107-.08-.07.026.01.017.075.062.073.078.004.014-.014.055-.002.074.013.02.021-.017.021.003 0 .022.01.069-.001.077m-.123 4.08c-.02.05.115-.015.067-.03a1 1 0 0 0-.067.03M73.54 61.77c.01.07.021-.028.022-.079.018-.048-.017.06-.022.08m-.3-.072c-.006-.075-.126.102-.082.084.003-.001.083-.08.083-.084m1.723-2.846c.001.002.038-.005.038-.007.008-.052-.067-.036-.038.008m-1.362 3.225c.014-.031-.044-.059-.06-.02-.014.032.043.059.06.02m1.162 2.718c.002-.002-.004-.025-.016-.02-.038.014-.016.043.016.02m-.83-1.88c-.022-.133.124-.26.143-.108.003.028-.069-.043-.075-.006-.013.068.104.084.06.16-.008.014-.126-.039-.128-.047m.95.705a.1.1 0 0 0 .014.03c.05-.006.024-.064-.014-.03m.08-.112c.003 0 .05-.048.049-.052-.031-.083-.137.028-.05.052m-.177-1.693c-.06-.014-.083-.057-.038-.106q.017.053.038.106M4.244 63.426a.7.7 0 0 1-.249-.084c-.021-.01-.003-.034-.018-.043-.03-.017-.06-.01-.089-.03-.01-.006.012-.044.002-.05-.055-.03-.113-.031-.17-.05a2 2 0 0 0-.323-.081c-.01-.005.055 0 .118-.072.051-.072.028-.087.029-.068a.7.7 0 0 0 .03.215c.022.092.032.223.09.316.006.01.037-.01.041-.01.058.017-.016.035-.015.061a.6.6 0 0 0 .097.292c.022.036.072-.032.052.023-.002.004-.042.01-.041.022.002.027.028.07.033.09.01.039.013.045.027.08.019.048.024.112.051.166.006.012.039-.018.052 0a.2.2 0 0 1 .024.106c-.004.028-.038.023-.044.029a.04.04 0 0 0-.017.03c0 .017.01.036-.015.097-.005.048-.142.123-.19.097-.052-.013-.043-.015-.057-.021-.035-.024-.032-.025-.04-.031l-.02-.016a.1.1 0 0 0-.028-.011c-.019-.005-.036-.004-.038-.006a.5.5 0 0 1-.104-.115c-.013-.037-.076-.05.032-.039a.1.1 0 0 0 .043-.011c.08-.063.005.039-.002.092-.026.078-.064.16-.062.228 0 .006.048 0 .048.006-.004 0 .02.035-.022-.062-.006-.048-.178-.144-.248-.11-.067.017-.075.032-.084.037-.014.012-.008.008-.004.004l.045-.051c.048-.05.04-.066.189-.177.087-.042-.017.05.09.015a.2.2 0 0 1 .1.008c.086.067.164.192.308.078.056.045.118.104.137.172.012.044-.046.05 0 .07.01.004.03-.034.043-.025.058.039.095.104.15.146.011.009.038-.014.045-.015.063-.001.021.093.021.105.005.099.049.145.08.22.007.016.042-.023.05-.007.043.084.07.178.074.27 0 .02-.043.013-.045.023-.007.045.069.034.062.077-.001.009-.036.012-.04.014-.052.037.035.038.038.043.041.071-.038.134-.014.204.002.008.043-.018.048.006.036.16.037.334.006.493-.004.025-.038.008-.042.01-.063.026.023.04.026.048.024.063-.047.122.054.165-.037.266.002.534-.108.784-.001.003-.043-.006-.045 0-.03.079.037.067.112.125.019.015-.08.048-.087.05-.027.011-.088-.006-.094-.002-.042.031.164.04.161.089 0 .001-.038-.008-.042-.004-.012.012.002.025-.012.036-.032.023-.133.031-.076.076.007.005.124.002.117.043-.003.018-.003.087-.01.104-.006.017-.044.007-.046.008-.047.054-.069.035-.14.07-.067.047.105.006.125.009.013 0 .004.013-.01.017v.001l.001.002.003.004.004.01c.001.004.004.006.005.026.021.013-.069.111-.103.08-.063-.033-.032-.023-.04-.027l-.004-.005v-.008l.003-.008.003-.011c.006-.016.033-.02.034-.032.008-.08-.086.03-.12.03-.078.004.005-.102-.013-.142-.005-.01-.021.015-.03.01-.028-.018-.031-.075-.06-.048.002.002-.004.013.016.025.092.02.13-.052.085-.04-.008 0-.038-.016-.048-.005a.13.13 0 0 0-.02.094c.004.022.06.005.04.03-.008.011-.036-.016-.05.005s-.024.078-.03.1c-.004.023.038.022.04.024.013.015.016.068.014.073a.4.4 0 0 1-.044.087c-.126.173-.32.204-.5.204-.017 0-.012.043-.014.044-.066.007.001-.096-.024-.14-.016.084-.035.065-.076.059-.02-.003-.023.031-.026.034-.051.033-.042-.038-.038-.051q.003-.024-.005-.028a.1.1 0 0 1-.027-.034c-.003-.01-.026-.013-.007-.028.027-.021.081-.015.07-.045-.033.002-.1.053-.121.034-.08-.07-.076-.255-.093-.327s-.03-.093-.032-.138c-.004-.08-.053-.035-.093-.073-.041-.039.107-.06.136-.076.028-.015-.005-.013.009-.026s.04-.002.04-.023c.001-.02-.068-.056-.102-.053-.072.005-.136.05-.126-.009 0-.003.04-.004.041-.017.003-.096-.021-.19-.02-.285.001-.013.046-.013.046-.021.007-.082-.056-.036-.145-.056.107-.019.165-.057.15-.114-.007-.034-.052-.016-.09-.03-.01-.003.015-.036-.008-.035-.074.004-.147.046-.13-.02 0-.003.041-.005.042-.014 0-.06-.075-.05-.098-.11-.02-.048.006-.145.001-.202.119-.025.08-.072-.007-.075-.004-.036-.017-.075-.013-.112.001-.013.037-.012.04-.014.054-.036-.03-.035-.034-.042-.048-.079-.001-.159-.076-.228-.003-.002-.087.009-.03-.025.003-.002.046.017.042-.021-.005-.039.026-.118-.022-.163-.012-.012-.085-.031-.038-.065.006-.005.03-.006.043-.014.053-.025-.094-.012.063-.042l-.017.004c-.059.03-.092.076-.038.116.002.001.07 0 .073.018.004.026-.002.067.004.094.003.014.042-.003.043-.001.042.084.02.155.025.254 0 .018.068.054.032.099-.04.048-.25.057-.18.132.027.03.29.011.175.105.062.112.024.24.103.346.004.005.079.002.081.015.004.019-.026.038-.024.052.006.059.048.101.06.156.005.02-.031.024-.026.049.006.024.055.027.044.066-.009.03-.092.083-.092.12.09-.028.095-.005.132.028.007.006.035-.013.04-.01.02.01 0 .031.021.04.006.001.036-.009.042-.008.052.009-.002.07-.012.08-.036.042.007.04-.004.066-.01.025-.043.004-.045.03-.006.056.021.115.038.163.007.02.042-.009.044-.007.024.036-.002.092.085.082-.193.109.03.016.011.087-.002.006-.095.051-.116.04s-.002-.05-.033-.064c-.008-.003-.11 0-.118-.003-.057-.018.086-.079.094-.084.077-.053-.035-.055-.046-.063-.049-.037-.043-.085-.08-.118-.023-.02-.12.01-.124-.012-.015-.074.112-.142-.026-.17-.03-.005-.131.043-.064-.035.004-.005.068-.066.013-.073-.007 0-.038.009-.041.006-.025-.019-.005-.043-.025-.066-.02-.022-.047-.049-.045-.082 0-.02.052-.06.063-.074.034-.036-.04-.043.004-.072.046-.03.13-.022.15-.07l-.247.062c-.022-.09-.02-.184-.046-.272-.003-.01-.044.012-.049 0-.02-.048 0-.1-.025-.148-.02-.038-.077-.071-.1-.11.088-.049.042-.103.04-.151-.001-.017.024-.021.03-.034.02-.05-.058-.011-.074-.02-.067-.038.12-.085.102-.142 0-.003-.11-.02-.117-.024-.047-.024.034-.013.037-.036.005-.041.024-.073-.015-.111-.012-.013-.08-.03-.037-.067.005-.004.039-.01.04-.012.023-.055-.082-.037-.122-.058-.02-.01-.016-.027-.006-.044-.001-.014-.007-.054-.006-.068l.01-.043.004-.02c.01-.022-.02.034.039-.106.019-.033.05-.09.14-.139a.35.35 0 0 1 .302-.008c.139.074.143.136.145.128q.014.024.018.038c.023.067.011.062.01.073a.1.1 0 0 1-.02.03c-.046.041-.027-.016-.036-.026-.078-.037-.038.058-.043.071-.102.024-.088.058 0 .028.01-.004-.004-.022 0-.028.105.002.126.039.04.097-.041.028-.096.018-.066.073.013.023.082 0 .106.02.053.042.001.124.022.174.008.019.042-.008.049.005.018.034-.005.069.017.102.002.002.04-.013.044-.003.022.082.011.158.03.245.009.04.048.11.053.154.01.076-.026.18.005.241.019.039.057.02.088.03.062.02-.017.105-.03.117 0 0-.019-.032-.034-.008-.04.022.034.008.035.008-.009.008.001.081.013.093.006.006.042-.008.045-.005.06.086.095.175.105.275 0 .002-.042.011-.042.016-.003.06.059.08.103.115s.045.073-.018.123c.02.03.004.089-.006.123s.072.011.075.013c.076.058.045.117.066.198a.6.6 0 0 0 .056.119l-.136-.17.004-.004c.004-.007-.002.012.002 0l.01-.04c.006-.044-.01.047-.013.063-.008.06.001.093.015.064a.7.7 0 0 0-.011-.147c-.003-.01.01.037.008.025l-.01-.027c.002.006.016.016.009.02-.001 0-.038-.028-.041-.026l-.003.003c-.013.014 0 0 .027-.037.007-.01.038.002.048.001.06-.006-.02-.046-.021-.051a.3.3 0 0 1 .002-.107c.006-.026.01-.055.036-.118.015-.033.031-.078.097-.148a.46.46 0 0 1 .342-.132c.233.039.225.092.27.117.031.03.05.051.068.071.036.04.064.072.1.102.007.005.122.005.075.075-.003.005-.052.073.008.064.001 0 .008-.01.016-.016l.012-.005a.01.01 0 0 1 .01.004l.001.003h.001v.001l.001.001-.001-.002-.01-.013c-.003-.004-.002-.005-.022-.028-.006-.007-.012-.014-.033-.034-.012-.01-.026-.024-.062-.048-.041-.014-.09-.092-.33-.055a.45.45 0 0 0-.287.225c-.046.093-.047.155-.048.197.002.08.014.105.02.128.013.04.019.05.023.06.027.051.02.035.024.042l.004.006.002.003-.008-.013c-.085-.156-.103-.241-.066-.298.013-.023.091-.062.027-.103-.005-.004-.148-.07-.048-.09.017-.003.122.003.07-.043-.01-.01-.034.005-.048-.018-.02-.036.01-.08-.034-.123-.008-.007-.077-.044-.021-.063.009-.003.043.007.048-.005.023-.058.004-.12.033-.178.01-.02.066-.005.083-.025s.035-.062.01-.087c-.024-.025-.116-.008-.12-.04-.022-.148.04-.284.052-.425.002-.02-.03-.005-.03-.035 0-.114-.03-.303.034-.4.052-.079.098.016.118-.044.01-.03-.098-.054-.102-.06-.038-.063.005-.112-.016-.169-.004-.011-.045.005-.048-.005-.012-.033.003-.07-.006-.102-.003-.014-.035-.006-.035-.02a.17.17 0 0 1 .034-.097c.002-.003.046.008.043-.016-.005-.037.014-.091-.027-.125-.013-.01-.085.01-.042-.03.009-.008.097-.026.014-.035-.014-.002-.128-.017-.073-.06.015-.012.078-.054.062-.063-.003-.001-.037.02-.045.01-.027-.033-.04-.073-.07-.103-.007-.008-.037.025-.047.013a.3.3 0 0 1-.055-.115c-.004-.014.03-.027.032-.03.039-.05-.033-.008-.04-.009-.042-.007-.029-.05-.057-.064-.007-.004-.03.028-.034.03-.035.013.022-.03.02-.042-.006-.036-.034-.055-.06-.067-.01-.005-.027.04-.035.035a.6.6 0 0 1-.138-.094q.021.008.042.013c.216.033.235-.019.266-.026.022-.014.021-.02.019-.024-.006-.009-.031-.01-.012-.022.103-.092.073-.083.093-.079.01.007.023.025.025.028.014.037-.02.031-.035.062a.7.7 0 0 1-.066.108c-.019.024-.036.049-.085.094-.03.023-.05.054-.168.101a.47.47 0 0 1-.568-.206c-.083-.168-.06-.19-.07-.236a1.024 1.024 0 0 1 .016-.22 1.6 1.6 0 0 1 .146-.416c.054-.074.05-.164.303-.303.314-.109.45.044.516.082.072.056.114.103.156.149.012.012.036-.031.046-.02a1 1 0 0 1 .105.126l.006.009-.013-.014c-.012-.012 0-.007-.06-.054a.4.4 0 0 0-.078-.045c.024.008-.262-.132-.488.084-.102.106-.102.153-.118.19a.4.4 0 0 0-.018.09c-.004.048 0 .074.002.095.008.028-.013-.055-.042-.107-.005-.008-.04.02-.05.008a.2.2 0 0 1-.033-.106c0-.018.044-.012.042-.03a.26.26 0 0 0-.042-.124c-.01-.015-.04.029-.05.007-.071-.15-.148-.303-.161-.495 0-.013.08-.057.055-.075q-.039.012-.079.026a1.6 1.6 0 0 1-.121-.427c-.01-.09-.027-.186.017-.36a.56.56 0 0 1 .197-.296.56.56 0 0 1 .315-.112c.027 0-.023-.048.031-.049q.036 0 .069.002c.12.01.236.016.347.079.012.007-.008.09.03.083.007 0 .064-.002.082-.018.002-.002 0-.043.017-.04a1 1 0 0 1 .304.094c.015.008-.012.045-.001.05.074.042.169.034.228.089.038.036.004.103.01.18.002.01.026.016.019.058-.011.105-.049.216-.06.328-.021.025.132.008.033.062-.013.004-.072.013-.084.03-.01.012-.007.057-.025.07s-.025-.024-.05-.009c-.024.016-.028.065-.066.061m-.715 4.42c-.03.04.113-.006.07-.022a1 1 0 0 0-.07.022m-.648-1.063c.054-.052-.046-.052-.088-.014-.043.039.072.03.088.014m.15.354c.038-.056-.167-.002-.113.03a1 1 0 0 0 .114-.03m1.325-4.321c0 .002.022.01.022.008.024-.043-.018-.058-.022-.008m-1.16 4.664c.023-.022-.02-.048-.049-.02-.023.021.021.047.05.02m1.035.195c-.002.002.007.016.017.008.03-.027.006-.038-.017-.008m-.799.401c-.032-.09.108-.21.13-.11.004.017-.067-.014-.072.013-.01.051.103.032.067.096-.006.011-.123.007-.125.001m-.068-.156c-.002.001.004.023.006.023.049-.004.038-.048-.006-.023m1.05-.8a.1.1 0 0 0 .008-.054c-.075-.033-.091.072-.008.055m-1.562-.622c-.052-.014-.064-.042-.01-.074q.004.036.01.074"/></svg>