<svg width="133" height="88" viewBox="0 0 133 88" fill="none" xmlns="http://www.w3.org/2000/svg">
<path d="M94.7529 7.60063C94.7529 8.38091 94.7529 9.21743 94.7529 10.1006C94.7529 22.6116 94.7529 44.4908 94.7529 48.6006C94.7529 53.0006 95.7529 71.7673 96.2529 80.6006M96.2529 80.6006C101.467 80.6006 108.519 80.6006 110.753 80.6006C113.198 80.6006 122.939 80.6006 129.253 80.6006M96.2529 80.6006C94.9323 80.6006 93.7296 80.6006 92.7529 80.6006C92.0862 82.7673 91.1529 87.0006 92.7529 86.6006C94.7529 86.1006 115.253 86.6006 117.753 86.6006C120.253 86.6006 131.253 86.6006 131.753 85.6006C132.153 84.8006 131.92 81.934 131.753 80.6006C131.014 80.6006 130.169 80.6006 129.253 80.6006M127.253 7.60063C127.92 14.2673 129.253 28.7006 129.253 33.1006C129.253 38.6006 129.253 55.6006 129.253 61.1006C129.253 65.5006 129.253 75.934 129.253 80.6006M91.7529 7.10063C91.4195 5.10063 90.9529 1.00063 91.7529 0.600633C92.7529 0.100633 113.753 1.60063 117.753 2.10063C120.953 2.50063 128.42 2.2673 131.753 2.10063V7.60063C127.086 7.7673 116.353 8.00063 110.753 7.60063C105.153 7.20063 95.7529 7.10063 91.7529 7.10063Z" stroke="black" stroke-linecap="round"/>
<path d="M95.7529 10.6006C101.086 13.6006 114.653 19.6006 126.253 19.6006" stroke="black" stroke-linecap="round"/>
<path d="M95.7529 20.6006C101.086 23.6006 114.653 29.6006 126.253 29.6006" stroke="black" stroke-linecap="round"/>
<path d="M95.7529 30.6006C101.086 33.6006 114.653 39.6006 126.253 39.6006" stroke="black" stroke-linecap="round"/>
<path d="M95.7529 40.6006C101.086 43.6006 114.653 49.6006 126.253 49.6006" stroke="black" stroke-linecap="round"/>
<path d="M95.7529 50.6006C101.086 53.6006 114.653 59.6006 126.253 59.6006" stroke="black" stroke-linecap="round"/>
<path d="M95.7529 60.6006C101.086 63.6006 114.653 69.6006 126.253 69.6006" stroke="black" stroke-linecap="round"/>
<path d="M95.7529 70.6006C101.086 73.6006 114.653 79.6006 126.253 79.6006" stroke="black" stroke-linecap="round"/>
<path d="M129.253 71.6006C123.92 74.6006 110.353 80.6006 98.7529 80.6006" stroke="black" stroke-linecap="round"/>
<path d="M129.253 61.6006C123.92 64.6006 110.353 70.6006 98.7529 70.6006" stroke="black" stroke-linecap="round"/>
<path d="M129.253 51.6006C123.92 54.6006 110.353 60.6006 98.7529 60.6006" stroke="black" stroke-linecap="round"/>
<path d="M129.253 41.6006C123.92 44.6006 110.353 50.6006 98.7529 50.6006" stroke="black" stroke-linecap="round"/>
<path d="M129.253 31.6006C123.92 34.6006 110.353 40.6006 98.7529 40.6006" stroke="black" stroke-linecap="round"/>
<path d="M128.253 21.6006C122.92 24.6006 109.353 30.6006 97.7529 30.6006" stroke="black" stroke-linecap="round"/>
<path d="M127.253 11.6006C121.92 14.6006 108.353 20.6006 96.7529 20.6006" stroke="black" stroke-linecap="round"/>
<path d="M65.7529 38.8506C63.4196 45.6703 58.7529 63.0178 58.7529 77.8506" stroke="black" stroke-linecap="round"/>
<path d="M57.7529 39.1006C55.4196 45.9203 50.7529 63.0178 50.7529 77.8506" stroke="black" stroke-linecap="round"/>
<path d="M49.7529 39.6006C47.4196 46.4203 42.7529 63.0178 42.7529 77.8506" stroke="black" stroke-linecap="round"/>
<path d="M41.7529 39.6006C39.4196 46.4203 34.7529 63.0178 34.7529 77.8506" stroke="black" stroke-linecap="round"/>
<path d="M33.7529 39.6006C31.4196 46.4203 26.7529 63.0178 26.7529 77.8506" stroke="black" stroke-linecap="round"/>
<path d="M25.2529 40.1006C22.9196 46.9203 18.7529 63.0178 18.7529 77.8506" stroke="black" stroke-linecap="round"/>
<path d="M17.2529 40.1006C14.9196 46.9203 10.7529 63.0178 10.7529 77.8506" stroke="black" stroke-linecap="round"/>
<path d="M16.7529 82.8506C14.4196 75.8561 11.2529 56.3137 11.2529 41.1006" stroke="black" stroke-linecap="round"/>
<path d="M24.7529 82.1006C22.4196 75.1061 17.7529 58.0637 17.7529 42.8506" stroke="black" stroke-linecap="round"/>
<path d="M32.2529 82.1006C29.9196 75.1061 25.7529 58.0637 25.7529 42.8506" stroke="black" stroke-linecap="round"/>
<path d="M40.2529 81.6006C37.9196 74.6061 33.7529 58.0637 33.7529 42.8506" stroke="black" stroke-linecap="round"/>
<path d="M48.2529 81.1006C45.9196 74.1061 41.7529 58.0637 41.7529 42.8506" stroke="black" stroke-linecap="round"/>
<path d="M56.2529 81.1006C53.9196 73.9312 49.7529 56.4441 49.7529 40.8506" stroke="black" stroke-linecap="round"/>
<path d="M65.2529 80.6006C62.9196 73.6061 57.7529 55.0637 57.7529 39.8506" stroke="black" stroke-linecap="round"/>
<path d="M77.4006 66.6006C76.5227 75.0381 74.1019 81.1006 71.2529 81.1006C67.6631 81.1006 64.7529 71.4748 64.7529 59.6006C64.7529 47.7265 67.6631 38.1006 71.2529 38.1006C74.535 38.1006 77.2489 46.1466 77.6902 56.6006" stroke="black"/>
<path d="M77.4006 66.6006C76.5227 75.0381 74.1019 81.1006 71.2529 81.1006C67.6631 81.1006 64.7529 71.4748 64.7529 59.6006C64.7529 47.7265 67.6631 38.1006 71.2529 38.1006C74.535 38.1006 77.2489 46.1466 77.6902 56.6006" stroke="black"/>
<path d="M77.4006 66.6006C76.5227 75.0381 74.1019 81.1006 71.2529 81.1006C67.6631 81.1006 64.7529 71.4748 64.7529 59.6006C64.7529 47.7265 67.6631 38.1006 71.2529 38.1006C74.535 38.1006 77.2489 46.1466 77.6902 56.6006" stroke="black"/>
<path d="M77.4006 66.6006C76.5227 75.0381 74.1019 81.1006 71.2529 81.1006C67.6631 81.1006 64.7529 71.4748 64.7529 59.6006C64.7529 47.7265 67.6631 38.1006 71.2529 38.1006C74.535 38.1006 77.2489 46.1466 77.6902 56.6006" stroke="black"/>
<path d="M77.4006 66.6006C76.5227 75.0381 74.1019 81.1006 71.2529 81.1006C67.6631 81.1006 64.7529 71.4748 64.7529 59.6006C64.7529 47.7265 67.6631 38.1006 71.2529 38.1006C74.535 38.1006 77.2489 46.1466 77.6902 56.6006" stroke="black"/>
<path d="M77.4006 66.6006C76.5227 75.0381 74.1019 81.1006 71.2529 81.1006C67.6631 81.1006 64.7529 71.4748 64.7529 59.6006C64.7529 47.7265 67.6631 38.1006 71.2529 38.1006C74.535 38.1006 77.2489 46.1466 77.6902 56.6006" stroke="black"/>
<path d="M77.4006 66.6006C76.5227 75.0381 74.1019 81.1006 71.2529 81.1006C67.6631 81.1006 64.7529 71.4748 64.7529 59.6006C64.7529 47.7265 67.6631 38.1006 71.2529 38.1006C74.535 38.1006 77.2489 46.1466 77.6902 56.6006" stroke="black"/>
<path d="M71.2529 38.1006L13.2529 40.1006C9.66308 40.1006 6.75293 49.7265 6.75293 61.6006C6.75293 73.4748 9.66308 83.1006 13.2529 83.1006L71.2529 81.1006" stroke="black"/>
<path d="M71.2529 38.1006L13.2529 40.1006C9.66308 40.1006 6.75293 49.7265 6.75293 61.6006C6.75293 73.4748 9.66308 83.1006 13.2529 83.1006L71.2529 81.1006" stroke="black"/>
<path d="M71.2529 38.1006L13.2529 40.1006C9.66308 40.1006 6.75293 49.7265 6.75293 61.6006C6.75293 73.4748 9.66308 83.1006 13.2529 83.1006L71.2529 81.1006" stroke="black"/>
<path d="M71.2529 38.1006L13.2529 40.1006C9.66308 40.1006 6.75293 49.7265 6.75293 61.6006C6.75293 73.4748 9.66308 83.1006 13.2529 83.1006L71.2529 81.1006" stroke="black"/>
<path d="M71.2529 38.1006L13.2529 40.1006C9.66308 40.1006 6.75293 49.7265 6.75293 61.6006C6.75293 73.4748 9.66308 83.1006 13.2529 83.1006L71.2529 81.1006" stroke="black"/>
<path d="M71.2529 38.1006L13.2529 40.1006C9.66308 40.1006 6.75293 49.7265 6.75293 61.6006C6.75293 73.4748 9.66308 83.1006 13.2529 83.1006L71.2529 81.1006" stroke="black"/>
<path d="M71.2529 38.1006L13.2529 40.1006C9.66308 40.1006 6.75293 49.7265 6.75293 61.6006C6.75293 73.4748 9.66308 83.1006 13.2529 83.1006L71.2529 81.1006" stroke="black"/>
<path d="M80.7529 56.6006C81.3126 56.6006 81.9296 57.0237 82.4355 57.9512C82.9311 58.8598 83.2529 60.1492 83.2529 61.6006C83.2529 63.0521 82.9311 64.3414 82.4355 65.25C81.9296 66.1776 81.3126 66.6006 80.7529 66.6006C80.1932 66.6006 79.5762 66.1776 79.0703 65.25C78.5748 64.3414 78.2529 63.0521 78.2529 61.6006C78.2529 60.1492 78.5748 58.8598 79.0703 57.9512C79.5762 57.0237 80.1932 56.6006 80.7529 56.6006Z" stroke="black"/>
<path d="M80.7529 56.6006H71.7529M80.7529 66.6006H71.7529" stroke="black" stroke-linecap="round"/>
<path d="M6.25287 58.1006L0.752869 59.6006C0.419535 62.6006 0.152729 69.1007 1.75287 71.1006C2.55298 72.1006 5.75283 71.6006 6.75281 70.6006" stroke="black" stroke-linecap="round"/>
<path d="M96.9765 4.00772C97.1616 3.92453 97.4036 3.86742 97.5859 3.83787C97.6435 3.82844 97.622 3.86169 97.6624 3.85639C97.7393 3.84668 97.8062 3.8162 97.8844 3.80962C97.9099 3.8077 97.8896 3.85589 97.9158 3.85303C98.0618 3.83653 98.1914 3.79607 98.3365 3.77415C98.987 3.67687 99.6221 3.59556 100.277 3.54424C100.342 3.53914 100.407 3.53455 100.471 3.53049C100.711 3.51484 101.002 3.53473 101.25 3.5106C101.278 3.50773 101.26 3.47143 101.265 3.46822C101.35 3.4193 101.322 3.49451 101.38 3.50308C101.604 3.53715 101.852 3.54237 102.066 3.53557C102.158 3.53272 102.069 3.45612 102.16 3.50079C102.166 3.50382 102.141 3.54197 102.166 3.54717C102.222 3.55878 102.33 3.55728 102.374 3.56303C102.458 3.57421 102.471 3.57468 102.552 3.58078C102.66 3.58943 102.789 3.61974 102.906 3.62207C102.931 3.6225 102.901 3.57934 102.942 3.57645C102.983 3.57355 103.086 3.58765 103.122 3.6011C103.156 3.61439 103.138 3.64408 103.143 3.65195C103.188 3.71814 103.317 3.64821 103.334 3.64812C103.621 3.64669 103.856 3.72797 104.118 3.76153C104.316 3.78701 104.529 3.79641 104.715 3.81501C104.937 3.83719 105.123 3.86891 105.337 3.86425C105.359 3.86373 105.333 3.81679 105.36 3.81602C105.649 3.80759 105.932 3.78431 106.22 3.75743C106.249 3.75469 106.221 3.8029 106.251 3.8025C106.264 3.80222 106.279 3.802 106.294 3.80173C106.487 3.79568 106.751 3.80672 106.828 3.62621C106.956 3.61266 107.112 3.59859 107.23 3.62147C107.306 3.6362 107.24 3.68908 107.327 3.65994C107.347 3.65348 107.317 3.61704 107.347 3.61035C107.473 3.58229 107.616 3.58297 107.741 3.55419C107.767 3.54823 107.758 3.51339 107.765 3.50655C107.824 3.45087 107.932 3.53082 107.955 3.53608C108.128 3.57461 108.251 3.55365 108.41 3.55388C108.447 3.55403 108.403 3.50662 108.439 3.50509C108.624 3.49789 108.815 3.50643 108.995 3.53564C109.034 3.54226 108.996 3.58104 109.015 3.58629C109.097 3.60906 109.121 3.53372 109.2 3.55502C109.217 3.55944 109.206 3.59346 109.208 3.59745C109.253 3.66008 109.301 3.57846 109.313 3.57747C109.473 3.56316 109.567 3.6599 109.719 3.66205C109.737 3.66227 109.7 3.61454 109.752 3.61784C110.094 3.63964 110.45 3.69967 110.777 3.78605C110.828 3.79943 110.786 3.82625 110.789 3.83077C110.832 3.90173 110.879 3.82315 110.897 3.82267C111.033 3.82116 111.145 3.91221 111.252 3.82769C111.807 3.95779 112.369 4.00944 112.906 4.18671C112.913 4.18886 112.894 4.22825 112.908 4.23236C112.93 4.23904 112.948 4.24354 112.964 4.24619C113.07 4.26343 113.068 4.20428 113.174 4.1502C113.204 4.13447 113.277 4.2419 113.283 4.24991C113.307 4.2795 113.27 4.33721 113.279 4.34349C113.35 4.39328 113.366 4.18742 113.468 4.201C113.472 4.20177 113.453 4.23758 113.461 4.24247C113.487 4.25779 113.516 4.24632 113.54 4.26265C113.597 4.30031 113.605 4.40238 113.706 4.35575C113.718 4.34961 113.715 4.23156 113.806 4.24779C113.842 4.25444 114.006 4.2705 114.051 4.28261C114.095 4.29486 114.06 4.32909 114.063 4.33105C114.181 4.39317 114.133 4.40898 114.188 4.48852C114.243 4.56769 114.242 4.39154 114.269 4.37446C114.296 4.35743 114.383 4.40667 114.405 4.42284C114.426 4.43905 114.396 4.46044 114.415 4.47025C114.542 4.53428 114.48 4.38854 114.525 4.36448C114.633 4.30737 114.701 4.44295 114.795 4.46252C114.82 4.46778 114.801 4.43677 114.824 4.43562C114.914 4.43138 114.965 4.47545 115.069 4.44469C115.086 4.4397 115.172 4.36661 115.222 4.42685C115.23 4.43553 115.206 4.46667 115.244 4.47604C115.3 4.4901 115.403 4.5025 115.464 4.49459C115.51 4.48873 115.461 4.43299 115.517 4.4522C115.541 4.46075 115.493 4.4898 115.54 4.50326C115.588 4.5168 115.708 4.5205 115.754 4.5212C115.801 4.52191 115.777 4.48046 115.781 4.47789C115.804 4.46318 115.892 4.4469 115.9 4.44719C116.294 4.45629 116.653 4.53152 117.038 4.51872C117.068 4.51778 117.05 4.47459 117.054 4.474C117.158 4.45885 117.073 4.57014 117.145 4.61008C117.137 4.52321 117.178 4.53999 117.251 4.53268C117.287 4.5291 117.269 4.49499 117.272 4.49166C117.326 4.44234 117.36 4.50933 117.368 4.5231C117.401 4.57375 117.441 4.51665 117.463 4.55061C117.485 4.58433 117.43 4.63093 117.499 4.63298C117.52 4.60276 117.471 4.51975 117.525 4.50872C117.728 4.46592 118.101 4.55372 118.261 4.58089C118.388 4.60095 118.448 4.6081 118.512 4.62296C118.529 4.62684 118.545 4.63119 118.564 4.63645C118.726 4.68103 118.673 4.6123 118.778 4.5978C118.883 4.5821 118.818 4.72339 118.829 4.7567C118.84 4.78989 118.86 4.75902 118.876 4.77823C118.893 4.79743 118.851 4.81503 118.894 4.82581C118.937 4.83688 119.06 4.78996 119.078 4.7577C119.115 4.68961 119.068 4.61262 119.178 4.64568C119.184 4.64761 119.161 4.68517 119.185 4.69059C119.381 4.7323 119.588 4.7393 119.787 4.76647C119.815 4.77025 119.79 4.81346 119.806 4.81614C119.973 4.84375 119.913 4.77071 120.003 4.68898C119.984 4.79697 120.035 4.86283 120.162 4.86118C120.238 4.86012 120.224 4.81324 120.272 4.77892C120.286 4.76858 120.341 4.79954 120.35 4.77711C120.38 4.70379 120.328 4.62433 120.458 4.6527C120.464 4.65406 120.447 4.69425 120.467 4.69603C120.594 4.70762 120.607 4.63134 120.744 4.61693C120.851 4.6056 121.045 4.64358 121.168 4.64574C121.171 4.76701 121.286 4.73426 121.33 4.64872C121.409 4.64876 121.496 4.64045 121.573 4.64905C121.6 4.65197 121.584 4.68772 121.588 4.69139C121.642 4.74888 121.673 4.66636 121.69 4.66256C121.877 4.62502 122.031 4.68244 122.209 4.62039C122.215 4.61818 122.225 4.53377 122.274 4.59504C122.277 4.59928 122.218 4.63783 122.303 4.64049C122.387 4.6431 122.546 4.68972 122.664 4.65534C122.693 4.64698 122.767 4.5817 122.824 4.63879C122.831 4.64651 122.821 4.6701 122.832 4.68422C122.865 4.72928 122.889 4.64564 122.926 4.72119C122.963 4.79692 123.042 4.85753 123.162 4.82423C123.165 4.82332 123.203 4.76048 123.24 4.76758C123.278 4.77509 123.33 4.79183 123.375 4.80604C123.397 4.80721 123.419 4.80782 123.438 4.80701C123.468 4.80576 123.447 4.76453 123.453 4.76358C123.65 4.73314 123.792 4.7644 124.005 4.77067C124.044 4.77191 124.153 4.70944 124.23 4.7508C124.315 4.79606 124.241 5.00584 124.428 4.94726C124.504 4.92379 124.588 4.65812 124.732 4.78621C124.998 4.73929 125.248 4.79627 125.514 4.73868C125.526 4.73612 125.561 4.66195 125.59 4.66201C125.632 4.66222 125.656 4.69553 125.686 4.69688C125.812 4.70343 125.927 4.67182 126.049 4.67525C126.095 4.67654 126.079 4.71181 126.134 4.7136C126.189 4.71547 126.226 4.66913 126.3 4.69246C126.356 4.71034 126.41 4.80619 126.482 4.81992C126.489 4.72674 126.539 4.73001 126.632 4.71102C126.65 4.70736 126.633 4.6737 126.642 4.67029C126.676 4.65572 126.707 4.68506 126.74 4.66959C126.748 4.66592 126.751 4.63416 126.758 4.6294C126.778 4.61582 126.8 4.61525 126.821 4.62126C126.865 4.63421 126.905 4.67461 126.914 4.6842C126.966 4.73829 126.999 4.70031 127.041 4.72406C127.083 4.74776 127.014 4.7633 127.065 4.78056C127.171 4.81638 127.311 4.82546 127.421 4.83633C127.465 4.84046 127.439 4.79546 127.445 4.79506C127.537 4.79207 127.626 4.84399 127.682 4.76289C127.73 4.9861 127.739 4.74567 127.865 4.79763C127.875 4.80179 127.882 4.90619 127.842 4.91896C127.801 4.93166 127.744 4.89549 127.687 4.91531C127.674 4.92005 127.592 5.01162 127.581 5.01666C127.497 5.05649 127.499 4.90083 127.495 4.89204C127.455 4.79667 127.355 4.89301 127.331 4.89791C127.218 4.92069 127.126 4.88889 127.032 4.90189C126.971 4.91017 126.953 5.01031 126.906 5.00166C126.855 4.99215 126.818 4.96967 126.784 4.94772C126.722 4.90502 126.668 4.86419 126.569 4.94104C126.538 4.96578 126.563 5.07759 126.459 4.98617C126.453 4.98036 126.374 4.89806 126.325 4.94789C126.319 4.95415 126.319 4.98651 126.311 4.9891C126.259 5.00593 126.224 4.97986 126.167 4.99214C126.11 5.00442 126.041 5.02331 125.976 5.01327C125.936 5.00725 125.885 4.94795 125.865 4.93361C125.81 4.89224 125.755 4.96342 125.719 4.91293C125.684 4.86219 125.748 4.78167 125.658 4.75091C125.657 4.83503 125.653 4.92151 125.65 5.00617C125.456 5.00934 125.265 4.99038 125.069 5.00332C125.045 5.00501 125.072 5.04898 125.046 5.05195C124.937 5.06434 124.84 5.03695 124.727 5.05552C124.639 5.07008 124.545 5.12282 124.453 5.13956C124.392 5.04637 124.256 5.08593 124.156 5.08202C124.121 5.08069 124.122 5.05491 124.097 5.04774C124.001 5.02128 124.049 5.10407 124.024 5.11866C123.916 5.18085 123.898 4.98914 123.768 4.99953C123.761 5.00002 123.681 5.10602 123.669 5.11285C123.597 5.15742 123.656 5.07768 123.609 5.07193C123.529 5.06196 123.471 5.04153 123.382 5.06709C123.369 5.06709 123.331 5.06438 123.318 5.06109C123.313 5.06142 123.308 5.0619 123.303 5.06254C123.277 5.06579 123.205 5.11693 123.163 5.06067C123.158 5.05325 123.167 5.02031 123.162 5.01752C123.067 4.97024 123.052 5.0766 122.991 5.10615C122.934 5.13612 122.851 5.05608 122.835 5.03386C122.791 4.97596 122.873 5.01295 122.875 5.0079C122.91 4.9464 122.845 4.95222 122.794 4.94387C122.793 4.83905 122.72 4.84158 122.741 4.93579C122.744 4.94604 122.784 4.93845 122.794 4.94387C122.743 5.04343 122.667 5.05279 122.584 4.95472C122.544 4.90892 122.584 4.85698 122.459 4.87413C122.402 4.88214 122.423 4.95426 122.373 4.97357C122.26 5.01768 122.111 4.95249 121.993 4.96591C121.95 4.97077 121.993 5.00911 121.963 5.01381C121.885 5.02645 121.816 4.99901 121.738 5.01682C121.731 5.01849 121.75 5.05907 121.725 5.06043C121.54 5.07169 121.378 5.05231 121.183 5.05998C121.089 5.06373 120.921 5.09368 120.823 5.09301C120.652 5.09225 120.44 5.03957 120.295 5.05757C120.199 5.06913 120.221 5.10978 120.181 5.1387C120.102 5.19481 119.96 5.09876 119.941 5.08367C119.941 5.08321 120.023 5.07278 119.979 5.05201C119.953 5.00815 119.942 5.08347 119.941 5.08367C119.929 5.0742 119.764 5.065 119.731 5.07237C119.713 5.07653 119.723 5.11566 119.713 5.11709C119.491 5.15005 119.265 5.15276 119.037 5.11766C119.033 5.11658 119.043 5.07347 119.033 5.07146C118.903 5.04206 118.814 5.08682 118.699 5.10507C118.587 5.123 118.498 5.09931 118.446 5.01716C118.446 5.01611 118.445 5.01506 118.444 5.01399C118.372 5.01123 118.27 4.96429 118.211 4.93756C118.151 4.91068 118.133 4.99458 118.127 4.99567C117.953 5.03288 117.858 4.97795 117.676 4.96075C117.59 4.95242 117.417 4.9579 117.322 4.96425C117.247 4.96931 117.202 4.94807 117.133 4.95889C117.124 4.96033 117.132 4.99844 117.129 4.99981C117.05 5.04298 117.09 4.95149 117.074 4.93453C117.019 4.87294 116.983 4.84 116.883 4.86585C116.86 4.87177 116.79 5.00338 116.747 5.01016C116.693 5.01876 116.715 4.9715 116.657 4.98171C116.652 4.98254 116.653 5.01202 116.617 5.00987C116.454 5.00031 116.275 4.9786 116.104 4.97631C116.08 4.97587 116.109 5.02352 116.075 5.02365C115.917 5.02431 115.741 5.01614 115.588 4.98755C115.55 4.98034 115.575 4.9487 115.567 4.93863C115.518 4.87764 115.443 4.9596 115.431 4.96063C115.145 4.98764 114.932 4.89729 114.639 4.91193C114.624 4.91299 114.493 4.99444 114.447 4.91157C114.443 4.90605 114.397 4.82147 114.345 4.87193C114.341 4.87509 114.371 4.91932 114.313 4.90984C114.254 4.90035 114.159 4.91914 114.083 4.86574C114.058 4.84887 114.008 4.76326 113.925 4.81865C113.92 4.82265 113.787 4.95334 113.757 4.84947C113.752 4.83235 113.771 4.72855 113.675 4.77162C113.656 4.77997 113.685 4.8071 113.637 4.81622C113.565 4.8303 113.477 4.79093 113.385 4.82613C113.368 4.83237 113.296 4.89501 113.253 4.83411C113.246 4.82458 113.266 4.79179 113.239 4.78417C113.126 4.7514 113.007 4.75119 112.891 4.71932C112.878 4.71563 112.865 4.71152 112.851 4.70689C112.807 4.69123 112.839 4.63871 112.794 4.61605C112.749 4.59336 112.657 4.5633 112.603 4.5806C112.549 4.59791 112.588 4.69655 112.512 4.69109C112.185 4.66727 111.878 4.55657 111.563 4.49262C111.517 4.48314 111.55 4.522 111.481 4.51035C111.226 4.46692 110.785 4.42377 110.577 4.3236C110.409 4.24288 110.637 4.234 110.505 4.1919C110.441 4.17169 110.357 4.26642 110.341 4.26756C110.183 4.27992 110.083 4.22013 109.945 4.21835C109.916 4.21803 109.939 4.2637 109.915 4.26298C109.831 4.26089 109.748 4.23279 109.669 4.22852C109.633 4.22673 109.636 4.25986 109.605 4.2543C109.528 4.24143 109.46 4.22182 109.388 4.18541C109.381 4.18209 109.431 4.14522 109.373 4.13925C109.281 4.12974 109.167 4.09191 109.058 4.1175C109.025 4.12525 109.021 4.19961 108.955 4.14508C108.941 4.13375 108.963 4.04481 108.881 4.11909C108.866 4.13128 108.731 4.23138 108.668 4.16307C108.651 4.14501 108.608 4.07094 108.569 4.0821C108.564 4.08389 108.584 4.12417 108.553 4.12779C108.442 4.1399 108.326 4.13638 108.212 4.15161C108.182 4.15578 108.228 4.19613 108.183 4.20106C108.06 4.21463 107.906 4.21121 107.784 4.20646C107.74 4.20463 107.768 4.16826 107.765 4.16474C107.708 4.10767 107.683 4.19199 107.666 4.1981C107.561 4.23522 107.477 4.20459 107.379 4.22551C107.352 4.23122 107.376 4.26799 107.371 4.27206C107.318 4.31228 107.352 4.23768 107.316 4.23409C107.214 4.22378 107.102 4.24193 107.004 4.26201C106.967 4.26949 107.015 4.30804 106.983 4.31425C106.799 4.35015 106.61 4.382 106.426 4.40048C106.414 4.40185 106.402 4.40311 106.391 4.40426C106.349 4.40824 106.367 4.36856 106.357 4.36254C106.288 4.32014 106.218 4.41024 106.198 4.42091C106.113 4.46911 106.074 4.4436 105.994 4.46017C105.603 4.54393 105.111 4.51966 104.757 4.47655C104.293 4.42225 103.955 4.33602 103.536 4.2914C103.51 4.28852 103.53 4.33804 103.507 4.33616C103.213 4.30953 102.929 4.25855 102.637 4.24833C102.613 4.24742 102.644 4.29409 102.606 4.29419C102.528 4.29472 102.428 4.2853 102.351 4.26671C102.313 4.25768 102.367 4.22294 102.329 4.21464C102.238 4.19521 102.143 4.18769 102.048 4.19153C102.008 4.1933 102.067 4.24033 102.015 4.23918C101.667 4.23275 101.326 4.24485 100.969 4.20636C100.945 4.20374 100.917 4.11347 100.866 4.13435C100.864 4.15998 100.866 4.18981 100.866 4.21704C100.696 4.23293 100.525 4.24701 100.352 4.26224C100.012 4.29203 99.6726 4.32167 99.3325 4.37319C99.311 4.37648 99.3559 4.41838 99.3143 4.42499C99.0736 4.46352 98.8428 4.51948 98.5895 4.52268C98.5646 4.52306 98.5595 4.43677 98.4901 4.4647C98.4781 4.46957 98.3725 4.50419 98.349 4.52857C98.3459 4.53213 98.374 4.56669 98.3401 4.5755C98.1412 4.6265 97.9323 4.66881 97.7301 4.70045C97.6978 4.70542 97.7195 4.65516 97.6963 4.65837C97.5316 4.68174 97.369 4.76639 97.2198 4.78321C97.1205 4.79518 97.127 4.71345 97.0482 4.66956C97.0367 4.6632 96.9858 4.68748 96.9622 4.65346C96.8988 4.56797 96.8759 4.4478 96.806 4.35791C96.7971 4.32971 96.6655 4.45751 96.7198 4.34481C96.7309 4.33031 96.8039 4.2667 96.8154 4.2401C96.8223 4.22148 96.7799 4.19448 96.7992 4.16562C96.8202 4.13621 96.8628 4.15629 96.8985 4.11911C96.9303 4.08365 96.8975 4.04375 96.9765 4.00772ZM117.935 4.82217C117.878 4.77717 117.859 4.92583 117.925 4.89463C117.929 4.89295 117.938 4.82439 117.935 4.82217ZM125.26 4.87798C125.179 4.81551 125.129 4.91495 125.187 4.96329C125.245 5.01161 125.285 4.89692 125.26 4.87798ZM126.075 4.80634C125.982 4.75514 125.971 4.96739 126.068 4.92358C126.073 4.92111 126.08 4.80932 126.075 4.80634ZM97.2802 4.55656C97.2784 4.55501 97.2326 4.56908 97.2326 4.57126C97.225 4.62431 97.3151 4.59657 97.2802 4.55656ZM126.88 4.79006C126.864 4.76941 126.822 4.77181 126.803 4.78683C126.793 4.79497 126.79 4.80649 126.8 4.81975C126.799 4.82008 126.799 4.82051 126.8 4.82094C126.825 4.85277 126.911 4.82975 126.88 4.79006ZM114.792 4.53551C114.791 4.53323 114.756 4.52866 114.756 4.54126C114.755 4.58192 114.805 4.57405 114.792 4.53551ZM128.263 4.89915C128.059 4.88109 127.945 4.69907 128.165 4.73068C128.205 4.73633 128.076 4.78194 128.126 4.8004C128.218 4.83401 128.286 4.72719 128.379 4.79052C128.395 4.8021 128.275 4.90064 128.262 4.89937C128.262 4.8993 128.262 4.89922 128.263 4.89915ZM117.913 4.64053C117.912 4.63845 117.864 4.63338 117.862 4.63528C117.833 4.68094 117.93 4.69114 117.913 4.64053ZM112.772 4.20643C112.77 4.20191 112.66 4.1796 112.655 4.18275C112.584 4.24966 112.808 4.29516 112.772 4.20643ZM121.171 4.64888C121.221 4.59888 121.284 4.59054 121.329 4.64867C121.276 4.64773 121.224 4.64954 121.171 4.64888Z" fill="black"/>
<path d="M75.1579 59.4419C75.1215 59.4607 74.9961 59.4938 74.8995 59.5208C74.8689 59.5292 74.8712 59.4985 74.849 59.5037C74.8054 59.5141 74.7753 59.5449 74.7301 59.5558C74.7154 59.5592 74.7109 59.5136 74.6957 59.5182C74.6136 59.5433 74.5485 59.5935 74.4704 59.6333C74.4691 59.6339 74.4677 59.6345 74.4664 59.6351C74.2325 59.7381 74.0371 60.0405 73.9573 60.3621C73.9415 60.4232 73.93 60.4878 73.9228 60.554C73.9074 60.6839 73.8809 60.8568 73.9281 60.9874C73.9335 61.0024 73.9673 60.9849 73.9709 60.9871C74.0267 61.0201 73.951 61.0232 73.9495 61.0552C73.9449 61.1547 73.981 61.2581 74.0301 61.3103C74.0421 61.3234 74.0546 61.3331 74.0667 61.3397C74.0914 61.3516 74.1157 61.2782 74.1085 61.3233C74.1084 61.3265 74.0821 61.3562 74.0858 61.3634C74.0948 61.3808 74.1262 61.3851 74.1388 61.3901C74.164 61.4007 74.1697 61.4007 74.2002 61.4C74.2416 61.3992 74.3088 61.4026 74.3627 61.3702C74.3738 61.3633 74.3428 61.333 74.3584 61.3188C74.3736 61.3052 74.4235 61.2835 74.445 61.2817C74.4663 61.2804 74.4752 61.3116 74.4819 61.3161C74.5026 61.3301 74.5185 61.3236 74.53 61.3096C74.5495 61.2857 74.5554 61.2401 74.5593 61.2358C74.676 61.1103 74.8201 61.042 74.9683 60.923C75.0031 60.8955 75.0389 60.8658 75.0853 60.8342C75.1418 60.8124 75.1574 60.7336 75.3824 60.7709C75.5448 60.8363 75.5561 60.9474 75.5716 60.9932C75.5837 61.0476 75.5841 61.0874 75.5828 61.1244C75.5623 61.3379 75.5069 61.4603 75.3832 61.6437C75.3677 61.6634 75.424 61.6694 75.4026 61.6955C75.3898 61.7106 75.3751 61.7263 75.3583 61.7416C75.2865 61.8124 75.1484 61.8657 75.034 61.8489C74.9195 61.8351 74.8411 61.786 74.7815 61.7383C74.6643 61.64 74.6035 61.5291 74.5622 61.4155C74.554 61.3915 74.6053 61.402 74.5998 61.3777C74.5965 61.363 74.5937 61.3476 74.5911 61.3314C74.5648 61.1799 74.5909 61.0101 74.4266 60.936C74.4282 60.833 74.4477 60.7005 74.5143 60.6135C74.5581 60.5591 74.5771 60.6342 74.5896 60.5552C74.5936 60.537 74.547 60.5419 74.5573 60.514C74.5688 60.4838 74.5858 60.453 74.6091 60.4231C74.6786 60.3326 74.7894 60.2792 74.8919 60.2513C74.9202 60.2435 74.9095 60.2095 74.9178 60.2023C74.9972 60.1408 75.1175 60.2566 75.1332 60.2744C75.2258 60.3382 75.3021 60.4194 75.335 60.5263C75.3484 60.5712 75.3643 60.6142 75.3766 60.6641C75.3827 60.6893 75.4213 60.6478 75.4288 60.6718C75.4672 60.797 75.4873 60.9317 75.482 61.0591C75.4806 61.0873 75.4373 61.0669 75.4346 61.0806C75.4227 61.1401 75.5001 61.1451 75.4888 61.2027C75.4864 61.2148 75.4513 61.2111 75.4477 61.2136C75.391 61.2517 75.4774 61.2737 75.4799 61.2824C75.5125 61.3905 75.4263 61.463 75.4398 61.5655C75.4415 61.578 75.4852 61.5495 75.4872 61.5847C75.5004 61.8185 75.4725 62.0622 75.4234 62.2815C75.4158 62.3161 75.3845 62.2891 75.3803 62.2911C75.3147 62.323 75.3983 62.3503 75.4008 62.362C75.4186 62.4512 75.3436 62.531 75.4436 62.5922C75.4281 62.7207 75.4305 62.8501 75.4567 62.9503C75.4981 63.0798 75.4141 63.2214 75.3602 63.2702C75.3026 63.3292 75.2513 63.3644 75.2039 63.3991C75.1089 63.467 75.03 63.5201 74.959 63.5895C74.9584 63.5902 74.9577 63.5909 74.957 63.5916C74.9541 63.5947 74.9209 63.568 74.9152 63.5747C74.8469 63.6594 74.9157 63.6715 74.9688 63.7578C74.9827 63.7782 74.8761 63.8003 74.868 63.8041C74.8384 63.8144 74.7829 63.7806 74.7765 63.7851C74.7253 63.8261 74.9273 63.866 74.9152 63.9264C74.9144 63.9283 74.8788 63.9129 74.8741 63.9175C74.8592 63.9319 74.8712 63.9511 74.8556 63.9653C74.82 63.9976 74.7181 64 74.7696 64.0674C74.7765 64.0757 74.8933 64.0764 74.8834 64.1326C74.8787 64.1553 74.8771 64.2566 74.8705 64.2851C74.8632 64.3136 74.8253 64.2946 74.8237 64.2966C74.7757 64.3766 74.7545 64.3474 74.6829 64.3929C74.6123 64.4404 74.7865 64.4159 74.8072 64.4303C74.8277 64.4445 74.7932 64.506 74.7813 64.5226C74.7692 64.539 74.7429 64.5242 74.7368 64.5384C74.7188 64.5814 74.737 64.5908 74.764 64.5891C74.7966 64.5873 74.843 64.5718 74.8606 64.5832C74.9367 64.6291 74.8223 64.7049 74.831 64.7684C74.8332 64.7846 74.8565 64.7622 74.864 64.7743C74.8931 64.8199 74.8716 64.8708 74.935 64.9006C74.9472 64.9082 75.0291 64.888 75.0036 64.9404C75.0009 64.9488 74.9713 64.9667 74.9814 64.9842C74.9958 65.0123 75.042 65.033 75.0609 65.0126C75.0728 65.0001 75.0414 64.9605 75.0541 64.9648C75.0547 64.965 75.0556 64.9653 75.0566 64.9657C75.0674 64.9677 75.068 65.0045 75.0918 65.0022C75.1184 65.0005 75.1636 64.9405 75.1749 64.9145C75.1875 64.8892 75.1441 64.8841 75.1429 64.8807C75.1357 64.8621 75.137 64.8098 75.1381 64.8057C75.1911 64.6527 75.2363 64.4812 75.1957 64.3184C75.1816 64.2634 75.1558 64.2092 75.1201 64.1587C75.1092 64.1431 75.0786 64.1755 75.0766 64.1734C75.0286 64.1281 75.1521 64.1129 75.1594 64.0525C75.0896 64.1044 75.0886 64.0727 75.0543 64.0383C75.0377 64.0218 75.0167 64.0508 75.0127 64.051C74.9517 64.0514 74.9926 63.9947 75.0002 63.982C75.0283 63.9352 74.9658 63.9473 74.9843 63.9157C75.0028 63.8843 75.0632 63.8868 75.0368 63.8487C75.0037 63.855 74.9559 63.9293 74.925 63.9067C74.8039 63.824 74.73 63.547 74.7143 63.433C74.7023 63.3762 74.6961 63.3389 74.6918 63.3067C74.6878 63.2745 74.6862 63.2482 74.6893 63.2144C74.7034 63.0949 74.6458 63.1406 74.6187 63.0639C74.594 62.9863 74.7406 63.0311 74.7727 63.022C74.805 63.014 74.7729 63.0014 74.7912 62.9904C74.8095 62.9797 74.8292 63.0068 74.8378 62.9796C74.846 62.9529 74.7986 62.8703 74.7674 62.8551C74.7007 62.8238 74.6218 62.85 74.6596 62.7742C74.6619 62.77 74.6979 62.7907 74.7046 62.7742C74.7563 62.643 74.7913 62.5067 74.8563 62.3851C74.8653 62.3685 74.9017 62.397 74.9074 62.3877C74.9674 62.2912 74.886 62.3066 74.8304 62.2202C74.9274 62.27 74.9999 62.2593 75.031 62.1849C75.0503 62.1402 75.0037 62.1297 74.9875 62.0854C74.9826 62.0719 75.0279 62.0538 75.0113 62.0384C75.0106 62.0377 75.0099 62.037 75.0092 62.0363C74.9622 61.9796 74.8538 61.9854 74.9678 61.8899C74.974 61.8858 74.9863 61.9297 75.0058 61.9136C75.0202 61.904 75.034 61.8876 75.0779 61.8805C75.1298 61.872 75.1756 61.9186 75.1831 61.9368C75.2047 61.9777 75.2066 61.996 75.2123 62.0207C75.215 62.0452 75.2242 62.0677 75.1978 62.1181C75.1859 62.1418 75.1371 62.187 75.0733 62.1847C75.0132 62.1821 74.9853 62.1595 74.9647 62.1455C74.9504 62.1387 74.9355 62.1291 74.9205 62.1152C74.8494 62.0523 74.8115 61.8998 74.7836 61.8176C74.8936 61.7673 74.8377 61.7099 74.748 61.7087C74.7307 61.6554 74.7067 61.6003 74.7016 61.5463C74.6998 61.5278 74.7369 61.5285 74.7398 61.5252C74.7861 61.4743 74.7017 61.4761 74.6952 61.4657C74.629 61.3531 74.6625 61.2368 74.5708 61.1424C74.5675 61.139 74.4853 61.1579 74.5347 61.1104C74.5381 61.1072 74.5863 61.1315 74.5725 61.0794C74.5595 61.0291 74.564 60.9098 74.4932 60.877C74.4757 60.8671 74.4155 60.8918 74.4322 60.8587C74.4333 60.8568 74.4345 60.8547 74.4358 60.8521C74.4386 60.8454 74.45 60.824 74.4526 60.8105C74.4465 60.7661 74.4509 60.8469 74.4175 60.7831C74.371 60.7178 74.2516 60.7428 74.2467 60.8404C74.2463 60.8434 74.2897 60.8986 74.2763 60.9173C74.2533 60.9491 74.2136 60.99 74.1943 61.0268C74.1852 61.0442 74.2281 61.0529 74.2271 61.0563C74.1868 61.1824 74.114 61.2512 74.0376 61.3723C74.0236 61.3944 74.0423 61.487 73.9789 61.5123C73.9098 61.5386 73.7523 61.3974 73.7396 61.5251C73.7357 61.5724 73.9258 61.7691 73.7596 61.7663C73.7401 61.8062 73.7113 61.8409 73.6781 61.8609C73.569 61.9259 73.4782 61.871 73.3718 61.8035C73.3657 61.8001 73.293 61.8273 73.2809 61.8092C73.2639 61.7833 73.2841 61.7511 73.2758 61.7327C73.256 61.6799 73.2194 61.6461 73.2157 61.5781C73.2742 61.5173 73.2947 61.5801 73.3174 61.5907C73.3401 61.6136 73.3077 61.6313 73.3317 61.6583C73.3551 61.6856 73.4064 61.6732 73.4217 61.726C73.4331 61.7662 73.3821 61.8539 73.4022 61.8985C73.4775 61.8431 73.4968 61.8711 73.5522 61.906C73.5629 61.9127 73.5821 61.8836 73.5885 61.8858C73.6155 61.8948 73.6055 61.9275 73.6327 61.935C73.6393 61.9369 73.6659 61.9191 73.6728 61.9197C73.733 61.9244 73.7064 62.0158 73.701 62.031C73.6976 62.0417 73.6962 62.0503 73.6963 62.0573C73.6966 62.0889 73.7267 62.0906 73.7261 62.1199C73.725 62.1554 73.6824 62.1282 73.6899 62.164C73.7053 62.2379 73.7505 62.3167 73.7776 62.384C73.7886 62.4107 73.8201 62.376 73.8225 62.3794C73.8566 62.4319 73.8347 62.5044 73.926 62.5088C73.7318 62.6195 73.9587 62.5368 73.9428 62.6351C73.9414 62.6429 73.8443 62.6802 73.8224 62.6602C73.8005 62.6403 73.8197 62.5935 73.7858 62.5677C73.7778 62.5611 73.6706 62.5501 73.663 62.5468C73.6033 62.5187 73.7444 62.4553 73.7513 62.4493C73.8251 62.3858 73.7047 62.3723 73.692 62.3627C73.6332 62.3146 73.6254 62.2536 73.5761 62.2155C73.544 62.1906 73.4552 62.2403 73.4432 62.2148C73.4431 62.2146 73.443 62.2144 73.4429 62.2142C73.4031 62.1305 73.4976 62.0195 73.3443 62.0166C73.3114 62.0163 73.2344 62.098 73.2627 61.991C73.2649 61.9846 73.2956 61.8941 73.2377 61.9035C73.2305 61.9048 73.2057 61.9256 73.2006 61.9236C73.1672 61.9111 73.1732 61.8786 73.1431 61.8642C73.1222 61.855 73.0471 61.8253 73.1206 61.8588C73.1374 61.8629 73.151 61.8775 73.2443 61.8776C73.3494 61.8993 73.5303 61.7116 73.5116 61.6541C73.5093 61.5191 73.4672 61.5738 73.4623 61.5642C73.4224 61.5808 73.4974 61.5799 73.4576 61.6134C73.4208 61.6533 73.3324 61.6582 73.3313 61.7216C73.4036 61.6786 73.4783 61.6353 73.5499 61.5903C73.5888 61.655 73.589 61.6548 73.5445 61.6589C73.5421 61.6591 73.5312 61.615 73.5262 61.6149C73.5201 61.6149 73.519 61.6175 73.5218 61.6188C73.5064 61.6381 73.5391 61.6297 73.5507 61.597C73.5653 61.5602 73.5517 61.4906 73.5661 61.4395C73.6658 61.4584 73.6766 61.3671 73.7124 61.3137C73.7249 61.2949 73.7474 61.3074 73.762 61.2966C73.8165 61.2551 73.7275 61.2438 73.7228 61.2229C73.7027 61.1329 73.8788 61.2101 73.9128 61.1289C73.9144 61.125 73.8477 61.0278 73.8457 61.0176C73.8316 60.9524 73.8815 61.0257 73.9027 61.0002C73.9422 60.9529 73.9819 60.9288 73.9925 60.8491C73.995 60.8267 73.969 60.7447 74.0375 60.732C74.0466 60.7302 74.0726 60.7523 74.0771 60.7492C74.1577 60.6939 74.0756 60.6259 74.1101 60.5407C74.1255 60.4471 74.4461 60.402 74.5048 60.465C74.6361 60.549 74.3899 60.4677 74.3844 60.4932C74.3166 60.5729 74.4896 60.512 74.5869 60.5854C74.5879 60.586 74.5889 60.5867 74.5899 60.5873C74.5532 60.6836 74.6094 60.7264 74.6515 60.6392C74.6568 60.6288 74.6034 60.5989 74.5899 60.5873C74.7137 60.5346 74.8298 60.6505 74.7791 60.7671C74.756 60.821 74.698 60.8155 74.7541 60.8976C74.7783 60.9354 74.8391 60.8931 74.8712 60.9239C74.9441 60.9945 74.909 61.1166 74.9409 61.1905C74.9525 61.2176 74.9826 61.1795 74.9919 61.1976C75.0165 61.2453 75.0005 61.2973 75.0293 61.3415C75.032 61.3454 75.0683 61.3231 75.0733 61.3378C75.1114 61.4482 75.117 61.5493 75.1601 61.6442C75.1809 61.6915 75.2408 61.7477 75.2589 61.775C75.2665 61.787 75.2722 61.8 75.2773 61.8127C75.2603 61.7992 75.2392 61.7792 75.1823 61.7584C75.1304 61.735 75.0043 61.7369 74.9366 61.7853C74.8069 61.8832 74.8297 61.9263 74.818 61.9546C74.8144 61.9835 74.8154 62.0011 74.822 62.0338C74.8386 62.0577 74.8087 62.1463 75.0069 62.2359C75.2187 62.2725 75.2327 62.1871 75.252 62.183C75.2671 62.1665 75.2669 62.1621 75.2674 62.1594C75.2666 62.1554 75.2599 62.1619 75.2548 62.1701C75.2503 62.1773 75.2461 62.1869 75.2435 62.197C75.231 62.2458 75.2732 62.2537 75.2906 62.2841C75.3245 62.3429 75.2064 62.3835 75.1882 62.3907C75.1875 62.3908 75.1946 62.3417 75.166 62.359C75.1193 62.3588 75.1881 62.3903 75.1882 62.3907C75.1763 62.3938 75.137 62.4853 75.1395 62.5065C75.1406 62.5179 75.1798 62.5231 75.1797 62.5288C75.1771 62.6637 75.1594 62.7895 75.1251 62.9107C75.1241 62.9128 75.0812 62.9039 75.0792 62.9089C75.0508 62.9801 75.1009 63.0319 75.1314 63.0863C75.1622 63.1412 75.154 63.1755 75.0825 63.2131C75.0862 63.2232 75.087 63.2347 75.086 63.2463C75.0835 63.2776 75.0704 63.3157 75.0628 63.3424C75.0527 63.3799 75.1355 63.3575 75.1377 63.3593C75.2155 63.4179 75.1915 63.4787 75.2395 63.5738C75.2616 63.618 75.3327 63.7008 75.3783 63.7511C75.4139 63.7904 75.4159 63.8291 75.4554 63.8676C75.4608 63.8729 75.4889 63.8465 75.4913 63.8476C75.5629 63.8771 75.468 63.9 75.4605 63.9193C75.4329 63.9911 75.4186 64.0274 75.4805 64.0916C75.4941 64.1049 75.6418 64.1113 75.6639 64.1539C75.6663 64.1584 75.6681 64.1624 75.6694 64.1661C75.6823 64.2055 75.6415 64.2034 75.6648 64.2519C75.6668 64.2565 75.6957 64.2485 75.702 64.2845C75.7309 64.4518 75.7122 64.6232 75.6847 64.783C75.6806 64.8052 75.7323 64.7855 75.7267 64.8185C75.6959 64.9742 75.6472 65.1414 75.4687 65.3091C75.42 65.3508 75.4253 65.2986 75.4089 65.3012C75.3597 65.3082 75.3247 65.3445 75.2806 65.384C75.2371 65.4244 75.1876 65.4619 75.1715 65.4665C74.9772 65.5291 74.7856 65.4488 74.6993 65.3806C74.605 65.3093 74.559 65.2399 74.5211 65.1759C74.4493 65.0483 74.4179 64.9369 74.3649 64.8181C74.3592 64.8074 74.2605 64.7334 74.3005 64.6734C74.3039 64.6685 74.3082 64.6637 74.3136 64.6592C74.3181 64.6545 74.39 64.5988 74.3308 64.5685C74.3271 64.5665 74.2895 64.5995 74.2877 64.5508C74.286 64.503 74.252 64.4278 74.2952 64.362C74.3088 64.3406 74.3875 64.2941 74.3245 64.2352C74.3197 64.2328 74.1782 64.1327 74.2804 64.1049C74.2974 64.1004 74.4014 64.1137 74.3537 64.0399C74.3446 64.0255 74.3187 64.0478 74.3077 64.0106C74.2909 63.9526 74.3287 63.8845 74.296 63.8066C74.2899 63.7935 74.2307 63.725 74.2944 63.6943C74.3043 63.6898 74.3353 63.7107 74.3447 63.6896C74.3896 63.5906 74.4048 63.4698 74.4856 63.3657C74.4981 63.3498 74.5127 63.35 74.528 63.3525C74.5483 63.3551 74.5696 63.3613 74.5914 63.3419C74.6299 63.3058 74.6976 63.2421 74.7098 63.1916C74.7226 63.1399 74.6206 63.1147 74.667 63.0573C74.7482 62.9597 74.8375 62.896 74.8862 62.8624C74.9099 62.8476 74.9214 62.8361 74.9033 62.8687C74.8835 62.8924 74.8485 63.0337 74.8798 63.1024C74.8666 63.0365 74.8597 62.9744 74.8547 62.9186C74.8512 62.8757 74.8221 62.9136 74.8162 62.8522C74.795 62.6223 74.7906 62.312 74.8678 62.1677C74.9304 62.0519 74.963 62.2048 74.9912 62.1148C75.0046 62.0716 74.902 62.0179 74.8993 62.0077C74.8712 61.9043 74.921 61.8372 74.909 61.7476C74.9065 61.7292 74.8633 61.7461 74.8616 61.7305C74.8554 61.6776 74.875 61.6228 74.8712 61.573C74.8693 61.5506 74.8367 61.5552 74.839 61.535C74.8439 61.4863 74.8563 61.4438 74.8846 61.3952C74.8872 61.3907 74.9292 61.4179 74.9289 61.3818C74.9283 61.3237 74.953 61.2485 74.9148 61.186C74.9033 61.1673 74.8293 61.1755 74.8753 61.1283C74.8848 61.1184 74.9753 61.1172 74.8918 61.0795C74.8779 61.0724 74.7627 61.0117 74.8213 60.9621C74.8368 60.9489 74.9035 60.9081 74.8873 60.8878C74.8848 60.8851 74.8483 60.9057 74.8404 60.8881C74.8138 60.8272 74.8006 60.7611 74.7698 60.7017C74.7703 60.704 74.7708 60.7062 74.7713 60.7085C74.7816 60.7447 74.7199 60.7049 74.7416 60.7634C74.8328 60.9373 74.9387 60.9141 74.9797 60.899C74.998 60.8911 74.9782 60.8595 74.9794 60.8556C74.9806 60.7937 75.0126 60.8682 75.0252 60.868C75.0577 60.8704 75.0811 60.8457 75.092 60.8232C75.1005 60.8055 75.0989 60.7955 75.1039 60.7958C75.1067 60.7962 75.1425 60.8119 75.1458 60.8131C75.1788 60.8225 75.1126 60.7986 75.1047 60.7979C75.0802 60.7997 75.0756 60.8411 75.0808 60.8785C75.0827 60.8925 75.1281 60.8772 75.1293 60.8889C75.137 60.9532 75.1496 61.0304 75.1543 61.0921C75.1547 61.0973 75.1551 61.1025 75.1554 61.1077C75.1563 61.1208 75.1216 61.1291 75.1156 61.135C75.0746 61.1789 75.156 61.1662 75.1639 61.1646C75.2037 61.1646 75.1836 61.1879 75.1952 61.1918C75.205 61.195 75.212 61.1825 75.1538 61.1602C75.1006 61.1294 74.9298 61.1653 74.8907 61.2177C74.8323 61.2973 74.924 61.1623 74.9257 61.1218C74.9301 61.1076 74.9314 61.0951 74.9349 61.1099C74.9579 61.1118 74.8766 61.2202 75.179 61.3743C75.3759 61.4202 75.3984 61.3639 75.4135 61.3645C75.425 61.3568 75.4164 61.3585 75.4063 61.3633C75.3845 61.3736 75.3504 61.3957 75.3158 61.4206C75.2454 61.4712 75.1681 61.5351 75.0818 61.6089C75.0668 61.6216 75.1115 61.6454 75.0987 61.6569C75.0298 61.7178 74.9527 61.776 74.8622 61.8324C74.7327 61.9116 74.5891 61.9846 74.3989 62.0357C74.3716 62.0425 74.4212 62.0774 74.3759 62.0896C74.2834 62.1149 74.1417 62.1205 74.0253 62.0848C73.9698 62.0674 74.0519 62.0449 73.9978 62.0278C73.8732 61.9875 73.7434 61.9185 73.6424 61.8402C73.599 61.8063 73.6319 61.896 73.5773 61.8473C73.5418 61.8145 73.511 61.7811 73.4829 61.7466C73.2451 61.4317 73.2029 61.1582 73.2205 60.8792C73.2225 60.8579 73.312 60.8325 73.2917 60.7918C73.2661 60.7903 73.2363 60.7923 73.2091 60.7925C73.1912 60.6018 73.2042 60.4098 73.2493 60.2159C73.3048 59.9821 73.3977 59.7579 73.5264 59.5441C73.5363 59.5278 73.4776 59.5315 73.4968 59.4995C73.6085 59.3167 73.7453 59.1298 73.971 59.0238C73.9935 59.0137 74.0323 59.0894 74.0812 59.0417C74.0829 59.0402 74.0869 59.0366 74.0926 59.0318C74.112 59.0142 74.1538 58.9762 74.1608 58.9544C74.1618 58.9506 74.1285 58.9241 74.1502 58.9096C74.2775 58.8259 74.424 58.7548 74.5814 58.7091C74.6069 58.7018 74.5993 58.752 74.6174 58.7473C74.7452 58.7151 74.8682 58.6284 75.0427 58.6386C75.164 58.6505 75.1294 58.7291 75.1865 58.8023C75.1919 58.8101 75.2764 58.831 75.2639 58.8752C75.2215 58.972 75.1746 59.0777 75.1368 59.184C75.1371 59.2217 75.0301 59.1036 75.0673 59.2102C75.0763 59.2268 75.1419 59.2716 75.1399 59.2878C75.1442 59.3022 75.1257 59.343 75.1385 59.3622C75.1512 59.3812 75.159 59.3448 75.159 59.3655C75.1582 59.3867 75.1696 59.4339 75.1579 59.4419ZM75.0352 63.5213C75.0142 63.5715 75.1495 63.5074 75.1019 63.4918C75.0995 63.4912 75.0362 63.5188 75.0352 63.5213ZM73.5403 61.7702C73.5496 61.8405 73.561 61.742 73.5617 61.6915C73.5799 61.6431 73.545 61.7507 73.5403 61.7702ZM73.2406 61.6982C73.2339 61.6233 73.1135 61.7998 73.158 61.7815C73.1611 61.781 73.2406 61.7024 73.2406 61.6982ZM74.9634 58.8525C74.9641 58.8542 75.0008 58.8466 75.0009 58.8447C75.0095 58.7934 74.9341 58.8091 74.9634 58.8525ZM73.6013 62.0774C73.6153 62.0458 73.5574 62.0183 73.5407 62.0576C73.527 62.0888 73.5836 62.116 73.6013 62.0774ZM74.7628 64.7946C74.7647 64.7933 74.7587 64.77 74.747 64.7745C74.7088 64.7888 74.7313 64.818 74.7628 64.7946ZM73.9337 62.9146C73.9106 62.7824 74.0572 62.6548 74.076 62.8074C74.0791 62.8348 74.0075 62.7638 74.0007 62.8014C73.9879 62.8691 74.1046 62.8851 74.0614 62.9614C74.0534 62.9748 73.9347 62.922 73.9334 62.9145C73.9335 62.9145 73.9336 62.9146 73.9337 62.9146ZM74.8833 63.6196C74.8818 63.6212 74.895 63.6511 74.8972 63.6508C74.9469 63.6437 74.9214 63.5858 74.8833 63.6196ZM74.9625 63.5077C74.9662 63.5084 75.0124 63.4596 75.0118 63.4557C74.9805 63.3726 74.8752 63.4842 74.9625 63.5077ZM74.786 61.815C74.7266 61.8008 74.7028 61.7583 74.748 61.7089C74.7585 61.7446 74.7727 61.7795 74.786 61.815Z" fill="black"/>
<path d="M4.24354 63.4262C4.15689 63.4171 4.06451 63.3784 3.99534 63.3424C3.97364 63.3311 3.99153 63.3081 3.97676 63.2992C3.94776 63.2819 3.91622 63.2881 3.88798 63.2694C3.87878 63.2632 3.9002 63.2248 3.89026 63.2192C3.83513 63.1884 3.77726 63.188 3.71935 63.1689C3.61252 63.1337 3.50495 63.1068 3.39706 63.0878C3.38676 63.0826 3.45201 63.0886 3.51506 63.0157C3.56635 62.9435 3.54331 62.929 3.54372 62.9477C3.53693 62.985 3.55171 63.078 3.57344 63.163C3.59611 63.2548 3.60648 63.3857 3.66372 63.479C3.6704 63.4898 3.70149 63.4686 3.70521 63.4697C3.76256 63.4861 3.68921 63.5035 3.68978 63.5301C3.69236 63.6357 3.73448 63.7388 3.78677 63.8223C3.80913 63.8578 3.85934 63.7901 3.83869 63.8453C3.83732 63.8491 3.79722 63.8551 3.798 63.8672C3.79965 63.8943 3.8261 63.9377 3.83107 63.9572C3.84087 63.9959 3.84392 64.002 3.85778 64.0366C3.87696 64.0855 3.88162 64.1495 3.90945 64.2034C3.91541 64.2147 3.94778 64.185 3.96129 64.2039C3.97477 64.2218 3.98903 64.2828 3.98451 64.3095C3.98058 64.3372 3.9472 64.3319 3.941 64.3377C3.92956 64.3476 3.92483 64.358 3.92424 64.3689C3.92404 64.3845 3.93381 64.4038 3.90912 64.4653C3.90442 64.5135 3.76685 64.5884 3.71873 64.5625C3.66729 64.549 3.67645 64.5473 3.66234 64.5408C3.62704 64.5174 3.6304 64.5158 3.62283 64.5098C3.61237 64.4999 3.60846 64.4971 3.60293 64.4936C3.59278 64.4873 3.58319 64.4845 3.57378 64.4825C3.55511 64.4785 3.53841 64.4788 3.53608 64.4771C3.48419 64.4376 3.45545 64.3968 3.43184 64.362C3.4192 64.3248 3.35558 64.3116 3.46379 64.323C3.47758 64.3217 3.49303 64.3179 3.50695 64.3118C3.58732 64.2492 3.51219 64.351 3.50515 64.4042C3.47874 64.4818 3.44138 64.5645 3.44321 64.6324C3.44352 64.6384 3.4907 64.6325 3.49124 64.6379C3.48691 64.6381 3.51164 64.6734 3.46915 64.5761C3.4627 64.528 3.2905 64.4319 3.2209 64.4657C3.15427 64.4825 3.14648 64.4979 3.13711 64.503C3.12285 64.5149 3.12874 64.5113 3.13277 64.5068C3.14294 64.4964 3.15986 64.4766 3.17775 64.456C3.22592 64.4069 3.21788 64.3901 3.36657 64.2795C3.45413 64.2369 3.35 64.3299 3.45749 64.2939C3.47702 64.2897 3.51808 64.2865 3.55685 64.3018C3.64301 64.3686 3.72074 64.494 3.86512 64.3803C3.92091 64.425 3.98283 64.4841 4.00226 64.5525C4.01415 64.5961 3.9562 64.6027 4.00229 64.6211C4.01264 64.6255 4.03117 64.588 4.04482 64.597C4.10273 64.6356 4.14009 64.7011 4.19484 64.7432C4.20614 64.7518 4.233 64.7285 4.24049 64.7281C4.30275 64.7266 4.2612 64.8208 4.26111 64.833C4.26643 64.932 4.30961 64.9782 4.34071 65.0521C4.34778 65.0692 4.38279 65.0302 4.39125 65.0464C4.43429 65.1304 4.46164 65.2243 4.46512 65.3156C4.46579 65.336 4.42189 65.3292 4.42017 65.3394C4.41272 65.3838 4.48896 65.3733 4.48221 65.4159C4.48083 65.4248 4.446 65.4282 4.44264 65.4305C4.38972 65.4666 4.47662 65.4676 4.47979 65.4734C4.52097 65.5442 4.44233 65.6074 4.46554 65.6765C4.46839 65.6848 4.50891 65.6589 4.51425 65.6829C4.55008 65.8437 4.55071 66.0171 4.52033 66.176C4.51566 66.2007 4.4822 66.1841 4.47818 66.1858C4.41544 66.2124 4.50079 66.2263 4.50415 66.2343C4.52849 66.2974 4.45722 66.3555 4.55824 66.3988C4.52142 66.665 4.56045 66.9326 4.45004 67.1827C4.44874 67.1859 4.40743 67.1767 4.405 67.1833C4.37537 67.2616 4.44154 67.2501 4.51695 67.3081C4.53584 67.3232 4.43698 67.3558 4.42971 67.3586C4.40287 67.3693 4.34169 67.3516 4.33636 67.3555C4.29442 67.3874 4.50034 67.3969 4.4971 67.4448C4.49666 67.4462 4.45923 67.4374 4.4552 67.4412C4.44253 67.4528 4.45678 67.4659 4.44301 67.4767C4.41127 67.5003 4.31036 67.5083 4.36653 67.5526C4.37386 67.5585 4.49089 67.5549 4.48373 67.5963C4.48052 67.6136 4.48143 67.683 4.47478 67.7C4.46775 67.7172 4.42973 67.7069 4.42813 67.7081C4.38096 67.7624 4.35937 67.7435 4.28893 67.7789C4.22139 67.8247 4.393 67.7845 4.4133 67.7866C4.42647 67.7876 4.41702 67.8002 4.40276 67.8045C4.40282 67.8046 4.4025 67.8042 4.40303 67.8051C4.40318 67.8053 4.40303 67.8051 4.40402 67.8066C4.40445 67.8074 4.40437 67.807 4.40682 67.8115C4.40757 67.813 4.40841 67.8141 4.41098 67.8206C4.4121 67.8248 4.4149 67.8273 4.41624 67.847C4.43726 67.8595 4.34742 67.958 4.31346 67.9272C4.24981 67.8939 4.28094 67.904 4.27217 67.8996C4.26865 67.8951 4.2696 67.8962 4.2691 67.8955C4.26845 67.8946 4.26859 67.8948 4.2685 67.8946C4.26842 67.8945 4.26841 67.8945 4.2684 67.8944C4.26839 67.8944 4.26839 67.8944 4.2684 67.8943C4.26841 67.8943 4.26842 67.8942 4.2684 67.894C4.26836 67.8937 4.26849 67.8937 4.26852 67.8936C4.26863 67.8933 4.26871 67.893 4.26878 67.8927C4.26893 67.892 4.2689 67.8911 4.26914 67.8906C4.26948 67.8894 4.26974 67.8881 4.26993 67.8867C4.27056 67.8842 4.27116 67.8818 4.27161 67.8793C4.27298 67.875 4.27384 67.8706 4.27501 67.868C4.28105 67.8516 4.30801 67.8485 4.30932 67.8362C4.31744 67.7561 4.22326 67.8652 4.18962 67.866C4.11069 67.8696 4.19382 67.7645 4.17589 67.7238C4.17126 67.7131 4.15476 67.7393 4.14637 67.7339C4.11782 67.7164 4.11484 67.6593 4.08677 67.6863C4.0875 67.688 4.08165 67.6988 4.10221 67.7109C4.19353 67.7316 4.23125 67.6585 4.18731 67.6708C4.17881 67.6708 4.14918 67.6552 4.13917 67.6661C4.12391 67.6835 4.11132 67.7306 4.11837 67.7602C4.12349 67.7825 4.17972 67.7649 4.15955 67.79C4.15051 67.801 4.12278 67.7745 4.10835 67.7953C4.09426 67.816 4.08496 67.8733 4.07984 67.8955C4.07514 67.9177 4.11728 67.9165 4.11948 67.9189C4.13211 67.9339 4.135 67.9871 4.13272 67.9916C4.12206 68.0215 4.10741 68.0509 4.08862 68.0786C3.96275 68.2518 3.76883 68.2831 3.58899 68.2832C3.57189 68.2828 3.57736 68.3265 3.57469 68.3269C3.50901 68.3339 3.57612 68.2308 3.55093 68.1863C3.53485 68.2713 3.51615 68.252 3.47546 68.2458C3.45566 68.2426 3.45196 68.2773 3.449 68.2799C3.39766 68.313 3.40718 68.2421 3.41074 68.2286C3.4134 68.2119 3.41091 68.2047 3.40605 68.2011C3.39697 68.1961 3.38318 68.1768 3.37888 68.1673C3.37578 68.1568 3.3532 68.154 3.37184 68.1392C3.39891 68.1177 3.45315 68.1239 3.44148 68.0942C3.40926 68.0964 3.34151 68.1469 3.3207 68.1284C3.24169 68.0586 3.24474 67.8731 3.22819 67.8011C3.2111 67.7283 3.19863 67.7079 3.1961 67.6631C3.19192 67.5826 3.14319 67.6279 3.10254 67.5898C3.06181 67.551 3.2103 67.5305 3.23864 67.5145C3.26705 67.4987 3.23358 67.5011 3.24784 67.4879C3.26212 67.4748 3.28808 67.4859 3.28863 67.4651C3.28916 67.4444 3.21964 67.4092 3.18569 67.4115C3.1139 67.4171 3.0499 67.4617 3.05988 67.4034C3.06051 67.4 3.10061 67.3986 3.10113 67.3863C3.1041 67.2896 3.07986 67.1961 3.08169 67.101C3.08202 67.0879 3.12673 67.0876 3.12737 67.0798C3.13427 66.9983 3.07091 67.0438 2.98181 67.0237C3.08855 67.0054 3.14651 66.9667 3.13269 66.9102C3.12451 66.8765 3.08035 66.894 3.04268 66.8805C3.03137 66.8766 3.0566 66.8442 3.03404 66.8453C2.9602 66.8485 2.88707 66.8906 2.90398 66.8245C2.90484 66.8216 2.94533 66.8202 2.9455 66.8108C2.94684 66.7502 2.87131 66.7602 2.84775 66.7009C2.82894 66.653 2.85386 66.5555 2.84899 66.4992C2.96754 66.4737 2.9287 66.4271 2.84249 66.4242C2.83796 66.3876 2.82482 66.3491 2.8288 66.3122C2.83006 66.2991 2.86611 66.2999 2.8695 66.2976C2.92273 66.2617 2.8399 66.2631 2.83517 66.256C2.78705 66.1773 2.83378 66.0971 2.75884 66.0282C2.75618 66.0259 2.67246 66.0367 2.72858 66.0032C2.73248 66.001 2.77528 66.0203 2.77082 65.9818C2.76631 65.9432 2.79714 65.8638 2.74869 65.8185C2.73693 65.8072 2.66357 65.7877 2.71112 65.754C2.71746 65.7489 2.74194 65.7479 2.75401 65.7399C2.80675 65.7148 2.66035 65.7276 2.81746 65.6976C2.81147 65.6978 2.80556 65.6994 2.79988 65.7019C2.7414 65.7317 2.70764 65.7781 2.76227 65.8179C2.76403 65.8193 2.83267 65.8184 2.83508 65.8358C2.83853 65.8619 2.83266 65.9032 2.83881 65.9305C2.84184 65.9438 2.88106 65.9267 2.8823 65.9289C2.92396 66.013 2.90108 66.0837 2.9068 66.1825C2.90789 66.2012 2.9748 66.2374 2.93884 66.2819C2.89932 66.3299 2.68991 66.3388 2.75818 66.4138C2.78561 66.4441 3.04956 66.4252 2.93373 66.5195C2.99604 66.6306 2.95809 66.7585 3.0373 66.8651C3.04082 66.8698 3.11568 66.8671 3.11823 66.8799C3.12188 66.8988 3.09207 66.9185 3.09365 66.9323C3.0996 66.9906 3.14239 67.0333 3.15405 67.088C3.15854 67.1087 3.12269 67.1117 3.12813 67.1365C3.13363 67.1613 3.1829 67.1639 3.17162 67.203C3.16297 67.2326 3.0804 67.286 3.08047 67.3224C3.1699 67.2952 3.17522 67.3183 3.21171 67.3505C3.21877 67.3566 3.24699 67.3383 3.25192 67.3407C3.27266 67.3501 3.25154 67.3721 3.27349 67.3802C3.27878 67.3822 3.30911 67.3723 3.31513 67.3733C3.36746 67.3817 3.31251 67.443 3.30301 67.4538C3.26685 67.4947 3.31023 67.493 3.29938 67.5185C3.28859 67.5442 3.25628 67.5228 3.25362 67.5494C3.24817 67.6046 3.27522 67.6638 3.29185 67.712C3.29871 67.7312 3.33363 67.7031 3.33553 67.7055C3.36047 67.7409 3.3337 67.7969 3.42122 67.7873C3.22817 67.8956 3.45014 67.8028 3.43198 67.8743C3.43048 67.88 3.33694 67.9254 3.31581 67.9141C3.29462 67.9026 3.31434 67.8649 3.28283 67.8499C3.27545 67.8465 3.17211 67.8495 3.16489 67.8471C3.10832 67.8287 3.25126 67.7681 3.25852 67.7633C3.33645 67.7098 3.22379 67.7078 3.21307 67.6996C3.16418 67.6632 3.17006 67.615 3.13354 67.5825C3.10986 67.5613 3.01302 67.592 3.00868 67.57C2.99429 67.4963 3.12092 67.4281 2.98272 67.4007C2.95325 67.3947 2.85204 67.4428 2.91884 67.3653C2.92303 67.3603 2.98723 67.2986 2.93227 67.2921C2.92534 67.2912 2.89448 67.301 2.89076 67.2982C2.86642 67.2792 2.88605 67.2553 2.86617 67.2325C2.8463 67.2097 2.81909 67.1831 2.82062 67.1496C2.82148 67.1295 2.87251 67.0892 2.88417 67.0765C2.91783 67.0401 2.8433 67.0331 2.88847 67.0038C2.9339 66.9744 3.01787 66.9824 3.03879 66.9337C2.95749 66.9551 2.87351 66.9752 2.79147 66.9958C2.7693 66.9064 2.77183 66.8119 2.74507 66.7241C2.74166 66.7131 2.70088 66.7358 2.69609 66.7244C2.67617 66.6763 2.69617 66.6243 2.67083 66.5757C2.65095 66.5377 2.59368 66.505 2.5718 66.4655C2.65915 66.4174 2.61267 66.3629 2.61061 66.3148C2.60991 66.2982 2.6352 66.2936 2.6408 66.2805C2.66126 66.2309 2.58294 66.2697 2.56721 66.2609C2.50021 66.2233 2.68676 66.176 2.66935 66.119C2.66844 66.1158 2.55982 66.0989 2.55247 66.0951C2.50461 66.0706 2.58624 66.0824 2.58907 66.0594C2.59436 66.0179 2.61263 65.9858 2.57407 65.9476C2.56246 65.9353 2.49358 65.9176 2.53673 65.8813C2.5424 65.8766 2.57601 65.8718 2.57741 65.8687C2.60031 65.8143 2.49521 65.8316 2.45451 65.8113C2.43589 65.8009 2.43877 65.7836 2.44944 65.7672C2.44778 65.7533 2.44223 65.7127 2.44332 65.6987C2.44554 65.6886 2.44773 65.6778 2.45241 65.656C2.45364 65.6504 2.45507 65.644 2.45703 65.636C2.46627 65.6137 2.43633 65.6701 2.49564 65.5295C2.51488 65.4967 2.54622 65.4408 2.63535 65.3913C2.72357 65.3384 2.86781 65.3446 2.93767 65.3827C3.07662 65.4573 3.08136 65.5189 3.08303 65.5114C3.0926 65.5278 3.09764 65.5394 3.10146 65.5488C3.12436 65.6156 3.11248 65.6112 3.11123 65.6224C3.10486 65.6391 3.09703 65.6492 3.0919 65.6527C3.04457 65.693 3.06444 65.6358 3.05544 65.6256C2.97732 65.589 3.01701 65.6837 3.01218 65.6971C2.91047 65.7208 2.92372 65.7554 3.0124 65.7246C3.02201 65.7208 3.00843 65.7025 3.01218 65.6971C3.11719 65.699 3.13764 65.7356 3.05126 65.7938C3.01099 65.8221 2.95572 65.8117 2.9858 65.867C2.9991 65.8904 3.06783 65.867 3.09153 65.8864C3.14531 65.9291 3.09303 66.011 3.11395 66.0612C3.12163 66.0799 3.15639 66.0531 3.16298 66.0657C3.18077 66.0997 3.15777 66.1346 3.18012 66.1677C3.18216 66.1705 3.22092 66.1546 3.22365 66.1651C3.24563 66.2469 3.23504 66.323 3.25378 66.4101C3.2625 66.4507 3.3018 66.5203 3.3074 66.5639C3.31733 66.6399 3.28125 66.7447 3.31158 66.8053C3.33092 66.8439 3.36863 66.8248 3.4003 66.8353C3.46167 66.8558 3.38293 66.94 3.37051 66.952C3.37007 66.9523 3.35145 66.9196 3.33591 66.9438C3.29614 66.9659 3.37022 66.9516 3.37051 66.952C3.36238 66.9596 3.37235 67.0332 3.38369 67.0448C3.38989 67.0512 3.42643 67.0367 3.42895 67.0403C3.48835 67.1256 3.52401 67.215 3.53449 67.3147C3.53423 67.3166 3.49161 67.3265 3.49152 67.3308C3.48913 67.3909 3.55096 67.4106 3.59508 67.4459C3.63911 67.4809 3.64012 67.5192 3.57722 67.5687C3.5969 67.5992 3.58112 67.6577 3.57135 67.6921C3.5615 67.7262 3.64344 67.703 3.64583 67.7049C3.72227 67.7633 3.69113 67.8222 3.71193 67.9029C3.71971 67.9336 3.74589 67.984 3.76833 68.0216L3.63191 67.852C3.63365 67.8508 3.63507 67.8493 3.63623 67.8479C3.64003 67.8415 3.63356 67.8603 3.63842 67.8484C3.63891 67.8468 3.64815 67.8101 3.6485 67.8087C3.6544 67.7636 3.63792 67.8547 3.63528 67.871C3.6273 67.9307 3.63642 67.9643 3.65019 67.9353C3.65591 67.9284 3.64407 67.7954 3.63886 67.7883C3.63586 67.7789 3.64814 67.8251 3.6466 67.8134C3.64644 67.8125 3.63728 67.7845 3.63749 67.7858C3.63862 67.7921 3.65284 67.8015 3.64572 67.8057C3.64465 67.8067 3.60783 67.7777 3.60471 67.7802C3.60375 67.781 3.6028 67.7819 3.60186 67.7829C3.58948 67.7968 3.60203 67.7826 3.62854 67.7456C3.6358 67.7359 3.66696 67.7479 3.67694 67.7471C3.73765 67.7406 3.65675 67.7006 3.65573 67.6956C3.65009 67.6676 3.64945 67.6392 3.65835 67.5894C3.66391 67.5629 3.66809 67.5343 3.69403 67.4706C3.70941 67.4377 3.72549 67.3931 3.79123 67.3228C3.84932 67.2517 4.01797 67.175 4.1325 67.191C4.36581 67.23 4.35811 67.2828 4.40248 67.3082C4.43427 67.3371 4.45312 67.359 4.4713 67.3793C4.50661 67.4194 4.53507 67.4515 4.57098 67.4808C4.57819 67.4861 4.69287 67.4857 4.64608 67.5556C4.64333 67.5608 4.59351 67.6291 4.65356 67.6197C4.6554 67.6194 4.66173 67.6101 4.66966 67.604C4.67361 67.601 4.67782 67.5986 4.68206 67.5985C4.68427 67.5987 4.68647 67.5993 4.68846 67.6006C4.68931 67.601 4.69074 67.6024 4.69171 67.6035C4.69228 67.6041 4.6925 67.6043 4.69335 67.6055C4.69369 67.606 4.694 67.6064 4.69426 67.6068C4.6944 67.607 4.69452 67.6072 4.69463 67.6074C4.69459 67.6073 4.695 67.6079 4.69511 67.6081C4.69512 67.6081 4.69544 67.6086 4.69484 67.6077C4.69468 67.6075 4.69465 67.6074 4.6938 67.6062C4.69214 67.6038 4.6966 67.6099 4.68464 67.5932C4.68118 67.5888 4.68182 67.5883 4.66229 67.5652C4.6562 67.5585 4.64989 67.5505 4.62861 67.5306C4.61698 67.5203 4.60345 67.5069 4.56668 67.4832C4.52566 67.4685 4.4767 67.3915 4.23705 67.4276C4.11857 67.4495 3.99042 67.5602 3.94954 67.6529C3.90387 67.7462 3.90346 67.8083 3.90237 67.8495C3.90427 67.9306 3.9161 67.9553 3.92182 67.9777C3.93474 68.0176 3.94077 68.0272 3.94543 68.0377C3.97208 68.089 3.96522 68.0731 3.96906 68.0803C3.9721 68.0851 3.97233 68.0854 3.97295 68.0864C3.97551 68.0903 3.9746 68.0889 3.97494 68.0894C3.97512 68.0897 3.97509 68.0896 3.97509 68.0896C3.97225 68.0853 3.96941 68.0807 3.96661 68.0759C3.88234 67.9201 3.86409 67.8349 3.90123 67.7775C3.9139 67.7555 3.99208 67.7165 3.92813 67.6746C3.92344 67.6707 3.77976 67.6046 3.88037 67.585C3.89692 67.5824 4.00208 67.5875 3.94997 67.5415C3.93988 67.5327 3.91565 67.5468 3.90204 67.524C3.88111 67.4883 3.91207 67.4445 3.86791 67.4015C3.86004 67.3944 3.79089 67.3567 3.84674 67.3383C3.8555 67.3353 3.89011 67.3447 3.89494 67.3328C3.91814 67.275 3.89941 67.2127 3.92827 67.1552C3.93844 67.1347 3.99439 67.1496 4.01122 67.1296C4.02805 67.1098 4.04595 67.0675 4.02168 67.0427C3.99738 67.0182 3.90515 67.0355 3.90028 67.0023C3.87931 66.8548 3.94081 66.7188 3.95328 66.5779C3.95511 66.5571 3.92214 66.5733 3.92243 66.5427C3.92393 66.4293 3.89291 66.2401 3.95717 66.1433C4.00896 66.0644 4.0554 66.1592 4.0751 66.099C4.0844 66.0694 3.97717 66.0451 3.97342 66.0388C3.93544 65.9759 3.97797 65.9268 3.95738 65.8704C3.95309 65.8589 3.91191 65.8753 3.90873 65.8655C3.89746 65.8322 3.91171 65.7943 3.90349 65.7629C3.89969 65.7489 3.86783 65.7566 3.86827 65.7431C3.8689 65.7111 3.87768 65.6818 3.90192 65.6461C3.90411 65.6428 3.94764 65.6537 3.9446 65.6304C3.93958 65.5927 3.9585 65.5389 3.91755 65.5054C3.90518 65.4953 3.83316 65.5144 3.87571 65.4751C3.88456 65.467 3.97271 65.4487 3.88953 65.4404C3.87552 65.438 3.76152 65.4234 3.81702 65.3792C3.83168 65.3675 3.89482 65.3264 3.87873 65.3167C3.87632 65.3155 3.84163 65.337 3.83379 65.3275C3.80684 65.2941 3.79363 65.2536 3.7647 65.2242C3.7569 65.2164 3.72689 65.2489 3.71663 65.2372C3.68856 65.2054 3.67308 65.1595 3.662 65.1218C3.65803 65.1079 3.69134 65.0954 3.69384 65.0925C3.73291 65.0427 3.66086 65.0838 3.65415 65.083C3.61182 65.0756 3.62522 65.0328 3.59717 65.019C3.58965 65.0154 3.56611 65.0471 3.56255 65.0485C3.52797 65.0625 3.58508 65.0199 3.58305 65.0072C3.57703 64.9713 3.54919 64.9525 3.52251 64.9398C3.51268 64.9352 3.49632 64.9792 3.48821 64.975C3.44065 64.9518 3.39665 64.9244 3.34988 64.8813C3.36397 64.8863 3.37822 64.8905 3.39239 64.8939C3.60814 64.9275 3.62658 64.8752 3.6583 64.8676C3.68032 64.854 3.67907 64.8483 3.67694 64.8437C3.67119 64.8351 3.64567 64.8349 3.66471 64.8218C3.76848 64.73 3.73755 64.7388 3.75774 64.743C3.76854 64.7503 3.78126 64.7677 3.78307 64.7713C3.79714 64.8075 3.76302 64.8023 3.74826 64.8329C3.73337 64.8631 3.7153 64.8958 3.68161 64.9414C3.66324 64.9651 3.64589 64.9897 3.59669 65.035C3.56695 65.0581 3.54608 65.0891 3.42909 65.1363C3.37327 65.1562 3.25845 65.1877 3.11488 65.1394C2.97351 65.0903 2.89644 64.9915 2.86092 64.93C2.77789 64.762 2.80101 64.7399 2.7919 64.6943C2.78953 64.6565 2.79043 64.6277 2.79181 64.6029C2.79485 64.5527 2.80091 64.5127 2.80794 64.4744C2.8222 64.3985 2.84107 64.3324 2.86164 64.2699C2.88523 64.1992 2.91231 64.1331 2.95304 64.0581C3.0074 63.9841 3.00392 63.8941 3.25622 63.7552C3.56987 63.6462 3.7061 63.7988 3.77197 63.837C3.84354 63.8934 3.8857 63.9405 3.92828 63.9857C3.93958 63.998 3.96377 63.9548 3.97409 63.9653C4.00369 63.9961 4.02864 64.0263 4.05039 64.0544C4.06102 64.0682 4.07137 64.0821 4.07888 64.0924C4.08236 64.0971 4.08595 64.1019 4.08494 64.1009C4.08413 64.1001 4.08301 64.0983 4.07228 64.0867C4.05981 64.0752 4.07201 64.0805 4.01164 64.0332C3.99509 64.0214 3.97342 64.0062 3.9342 63.9882C3.95752 63.9962 3.67224 63.8564 3.44593 64.0716C3.34363 64.1784 3.34356 64.225 3.32824 64.2613C3.3166 64.2992 3.31244 64.3287 3.31022 64.3525C3.30633 64.3998 3.30962 64.4263 3.31192 64.4466C3.3202 64.475 3.29949 64.3916 3.2697 64.3403C3.2651 64.3315 3.22924 64.3606 3.22071 64.3476C3.20288 64.321 3.18862 64.2806 3.18736 64.2419C3.1869 64.2236 3.23068 64.2297 3.22945 64.2115C3.22639 64.1684 3.21124 64.126 3.18702 64.0885C3.17675 64.0729 3.14672 64.1166 3.13656 64.0948C3.0658 63.9452 2.98868 63.7923 2.97595 63.6001C2.97516 63.587 3.05646 63.5434 3.03065 63.5249C3.00616 63.5321 2.97822 63.5428 2.95249 63.5515C2.89878 63.4277 2.85541 63.2969 2.83077 63.1238C2.82177 63.0342 2.80358 62.9376 2.84769 62.7639C2.87184 62.6761 2.93057 62.5545 3.04521 62.468C3.15754 62.3827 3.27717 62.3604 3.35981 62.3563C3.38688 62.3553 3.33679 62.3084 3.39115 62.307C3.41483 62.3068 3.43768 62.3077 3.45983 62.3094C3.57927 62.3181 3.69635 62.3248 3.80719 62.388C3.8191 62.3948 3.79854 62.4779 3.83731 62.4714C3.84416 62.4701 3.9011 62.4688 3.91859 62.4533C3.92107 62.4509 3.91833 62.4098 3.93639 62.4121C4.04127 62.4258 4.14678 62.4587 4.24014 62.5067C4.25524 62.5145 4.22806 62.5516 4.23863 62.5575C4.31308 62.599 4.40783 62.5909 4.46698 62.6459C4.50513 62.6822 4.47059 62.7493 4.4777 62.8251C4.47911 62.836 4.50252 62.8423 4.4959 62.8836C4.48472 62.9889 4.44723 63.0999 4.43588 63.2123C4.41479 63.2372 4.56774 63.2204 4.46931 63.2739C4.45576 63.2775 4.39672 63.2869 4.38454 63.3042C4.37437 63.316 4.37833 63.3606 4.36 63.3747C4.34114 63.3885 4.33473 63.3502 4.31025 63.3654C4.28556 63.3808 4.28177 63.4301 4.24354 63.4262ZM3.52868 67.8463C3.49904 67.8855 3.64157 67.8401 3.59819 67.8242C3.59593 67.8235 3.53011 67.8444 3.52868 67.8463ZM2.88127 66.7833C2.93546 66.7307 2.83537 66.7314 2.79275 66.7695C2.75026 66.8078 2.8649 66.7995 2.88127 66.7833ZM3.03162 67.1368C3.06916 67.0809 2.8639 67.1346 2.91832 67.167C2.92142 67.1688 3.02945 67.14 3.03162 67.1368ZM4.35634 62.8157C4.35634 62.8178 4.37766 62.8253 4.3785 62.8235C4.40203 62.7806 4.35964 62.7655 4.35634 62.8157ZM3.19661 67.48C3.21942 67.4581 3.17579 67.4323 3.14729 67.4594C3.12438 67.4814 3.16826 67.5073 3.19661 67.48ZM4.23055 67.6753C4.22919 67.6771 4.2382 67.6909 4.24766 67.6826C4.27819 67.6558 4.25396 67.645 4.23055 67.6753ZM3.43232 68.0761C3.40025 67.9853 3.54011 67.8657 3.56171 67.9652C3.56576 67.9833 3.4948 67.9517 3.48965 67.9793C3.48051 68.0301 3.59257 68.0111 3.55708 68.0745C3.55069 68.0865 3.43387 68.0817 3.43203 68.076C3.43212 68.076 3.43222 68.076 3.43232 68.0761ZM3.36414 67.9201C3.36245 67.9213 3.36801 67.9429 3.37005 67.9428C3.41882 67.9385 3.40769 67.895 3.36414 67.9201ZM4.41377 67.1205C4.41806 67.1198 4.42589 67.0677 4.42215 67.0656C4.34674 67.0327 4.33072 67.1376 4.41377 67.1205ZM2.85195 66.4976C2.79986 66.4836 2.78798 66.456 2.84245 66.4243C2.84448 66.4485 2.84935 66.4726 2.85195 66.4976Z" fill="black"/>
</svg>
