<svg xmlns="http://www.w3.org/2000/svg" viewBox="0 0 165 175" width="165" height="175" fill="none"><path fill="rgba(0, 0, 0, .87)" d="m83.5.667.432-.252L83.691 0l-.425.225zm-83 49H1zm72.5 124.5-.442.233zm91-55.5.454.209zm-47.5-64.5-.416.277zM58 98.667l-.491-.095zm10 36.5-.33.376zm50 2.5.323.381zm-1.5-64.5-.291.406zm-35 1.5-.11-.488-.021.004-.02.007zM63 94.167l.453.212zm30 6.5.3.4zm-49-68.5.243.437zm4.5 2.5.464-.186zm35-34-.234-.442c-13.07 6.91-33.837 17.419-51.32 27.067-8.743 4.825-16.68 9.443-22.435 13.296-2.876 1.926-5.222 3.67-6.855 5.162-.816.746-1.467 1.44-1.919 2.075C.294 48.448 0 49.073 0 49.666h1c0-.28.15-.695.552-1.261q.593-.833 1.778-1.916c1.578-1.442 3.876-3.154 6.737-5.07 5.719-3.828 13.625-8.43 22.362-13.251 17.475-9.644 38.208-20.136 51.305-27.06zm-83 49H0c0 .721.256 1.668.68 2.782.43 1.128 1.054 2.48 1.834 4.028 1.562 3.1 3.771 7.032 6.363 11.623 5.189 9.19 11.93 21.049 18.17 34.28l.453-.213.452-.214c-6.259-13.269-13.018-25.16-18.204-34.345-2.596-4.597-4.792-8.507-6.34-11.58-.775-1.537-1.381-2.854-1.793-3.935C1.197 50.998 1 50.195 1 49.666zm27 52.5-.452.213c6.275 13.304 11.557 19.717 18.304 28.589 6.736 8.857 14.97 20.209 27.206 43.431l.442-.233.442-.234c-12.264-23.278-20.53-34.676-27.294-43.569-6.753-8.878-11.971-15.215-18.196-28.411zm45.5 72-.442.233a.72.72 0 0 0 .429.345c.144.045.295.051.43.044.27-.014.605-.089.977-.201.753-.228 1.789-.647 3.054-1.223 2.537-1.155 6.066-2.973 10.255-5.251 8.38-4.56 19.431-10.986 30.524-17.707s22.233-13.741 30.79-19.489c4.277-2.874 7.915-5.433 10.581-7.481 1.332-1.023 2.428-1.924 3.242-2.676.407-.376.749-.719 1.017-1.027.262-.301.474-.591.597-.858l-.454-.209-.454-.21c-.064.139-.203.345-.444.621q-.353.405-.94.949c-.783.722-1.852 1.602-3.173 2.617-2.641 2.029-6.259 4.575-10.53 7.443-8.54 5.737-19.666 12.748-30.75 19.464-11.085 6.717-22.123 13.134-30.484 17.684-4.183 2.276-7.688 4.08-10.191 5.22-1.255.571-2.242.968-2.93 1.175-.347.106-.589.153-.738.16-.075.004-.095-.004-.082 0 .02.006.104.04.158.143zm91-55.5.454.209a.55.55 0 0 0 .043-.31 1 1 0 0 0-.037-.143 2 2 0 0 0-.097-.213 8 8 0 0 0-.323-.543 51 51 0 0 0-1.233-1.809 372 372 0 0 0-4.538-6.234c-3.812-5.151-9.013-12.064-14.474-19.323-10.93-14.529-22.889-30.427-26.879-36.412l-.416.277-.416.278c4.01 6.015 15.995 21.947 26.912 36.458 5.462 7.26 10.66 14.17 14.469 19.317a374 374 0 0 1 4.525 6.215c.533.757.94 1.353 1.207 1.771a7 7 0 0 1 .311.529l.007.017.003.006-.004-.01-.007-.037a.44.44 0 0 1 .039-.253zm-47.5-64.5.416-.278C110.523 44.3 91.096 12.743 83.932.415L83.5.667l-.432.25c7.17 12.34 26.609 43.916 33.016 53.527zm-29 13-.11-.488c-8.286 1.86-25.831 10.833-29.881 31.893l.491.094.491.095c3.95-20.54 21.072-29.3 29.118-31.107zM58 98.667l-.491-.095c-2.517 13.089-.687 21.74 2.159 27.434 2.842 5.688 6.68 8.38 8.003 9.537l.329-.376.33-.377c-1.372-1.199-5.032-3.757-7.767-9.231-2.732-5.466-4.555-13.887-2.072-26.798zm10 36.5-.33.376c1.07.935 3.765 2.401 7.394 3.859a72.5 72.5 0 0 0 13.344 3.895c10.043 1.888 21.738 1.67 29.915-5.249l-.323-.381-.323-.382c-7.823 6.619-19.128 6.901-29.085 5.03a71.6 71.6 0 0 1-13.156-3.841c-3.62-1.455-6.176-2.869-7.107-3.684zm50 2.5.323.381c6.528-5.524 10.719-10.459 13.075-16.063 2.357-5.606 2.854-11.823 2.1-19.865l-.498.047-.498.046c.746 7.958.243 13.991-2.025 19.385-2.269 5.396-6.328 10.211-12.8 15.687zm15-35.5.498-.047c-1.518-16.195-10.986-25.273-16.707-29.36l-.291.406-.291.407c5.584 3.988 14.811 12.835 16.293 28.64zm-16.5-29 .291-.407c-10.639-7.6-21.125-7.94-29.4-6.081l.109.487.11.488c8.057-1.808 18.238-1.482 28.599 5.92zm-35 1.5-.152-.477c-3.814 1.214-12.748 6.852-18.8 19.764l.452.213.453.212C69.4 81.69 78.133 76.263 81.652 75.143zM63 94.167l-.453-.213c-3.83 8.171-2.668 16.955.686 24.295 3.349 7.33 8.92 13.303 14.043 15.865l.224-.447.224-.448c-4.877-2.438-10.306-8.215-13.582-15.385-3.271-7.16-4.36-15.626-.69-23.455zm14.5 39.5-.224.447c4.994 2.497 10.693 5.288 17.229 6.049 6.56.765 13.928-.518 22.272-6.08l-.277-.416-.277-.416c-8.156 5.437-15.288 6.655-21.603 5.919-6.339-.739-11.89-3.448-16.896-5.951zm39 0 .277.416c8.418-5.612 12.213-15.155 12.971-24.25.38-4.552.001-9.013-.95-12.85-.949-3.827-2.479-7.073-4.433-9.158l-.365.341-.365.343c1.795 1.914 3.266 4.98 4.192 8.715.924 3.727 1.295 8.078.925 12.526-.742 8.905-4.447 18.113-12.529 23.501zm7.5-45.5.365-.342c-.924-.986-1.798-2.044-2.685-3.138-.884-1.09-1.784-2.216-2.749-3.318-1.934-2.21-4.149-4.35-7.125-6.014-5.964-3.335-14.857-4.69-30.416-1.176l.11.487.11.488c15.44-3.486 24.048-2.091 29.708 1.074 2.837 1.586 4.966 3.634 6.86 5.799.95 1.085 1.835 2.193 2.726 3.29.888 1.095 1.78 2.177 2.731 3.192zm-31 12.5-.3-.4c-1.051.788-2.105 2.546-2.388 4.665-.287 2.15.212 4.701 2.314 7.067l.374-.332.374-.333c-1.898-2.134-2.322-4.39-2.07-6.27.255-1.91 1.201-3.402 1.996-3.997zm0 11-.374.332c1.102 1.24 2.469 1.737 3.845 1.667 1.359-.069 2.694-.689 3.79-1.618 2.175-1.846 3.564-5.074 2.194-8.088l-.455.207-.455.206c1.129 2.486.018 5.258-1.931 6.912-.967.821-2.1 1.326-3.194 1.382-1.077.055-2.149-.323-3.046-1.333zm9-7.5.455-.207c-1.303-2.868-3.168-4.242-5.034-4.657-1.84-.409-3.613.133-4.721.964l.3.4.3.4c.892-.67 2.37-1.128 3.904-.787 1.508.335 3.144 1.461 4.341 4.093zm-58-72-.243-.437c-2.375 1.319-3.286 3.117-3.065 4.814.216 1.655 1.496 3.046 3.15 3.597l.158-.474.158-.475c-1.346-.449-2.316-1.558-2.475-2.778-.154-1.178.435-2.63 2.56-3.81zm0 7.5-.158.474c1.792.597 3.375-.136 4.34-1.334.951-1.18 1.362-2.877.782-4.326l-.464.185-.464.186c.42 1.05.138 2.372-.632 3.328-.756.937-1.924 1.453-3.246 1.012zm4.5-5 .464-.186c-.423-1.058-1.1-2.06-1.988-2.648-.918-.609-2.043-.757-3.219-.103l.243.436.243.438c.824-.458 1.55-.356 2.18.063.663.439 1.236 1.243 1.613 2.185z"/><path stroke="rgba(0, 0, 0, .87)" stroke-linecap="round" d="M22 75.792c.124-.663.457-5.13.292-8.14-.085-1.565-.745-4.133-1.292-5.817-.62-1.906 3.91 3.327 5.764 5.986 1.013 1.452.528 3.09.3 4.026-.21.86-1.018 1.483-1.83 1.983-1.585.976-3.857.919-3.984 1.044-1.195 1.172 3.987-1.862 5.557-3.762 2.28-2.76 2.193-5.565 2.048-6.587-.195-1.375-4.035-4.666-5.399-6.38-1.533-1.925 3.206 3.184 4.33 4.578 1.184 1.466 2.78 3.627 4.46 1.78.459-.503.711-1.331.754-2.288.04-.896-.664-1.711-.71-1.903-.345-1.454 2.124 2.145 2.706 2.291.604.153 1.044-.725 1.294-1.287.501-1.124-.745-2.645-1.91-4.87-1.11-2.119-1.42-4.442-1.65-4.86-.623-1.14 1.015 3.196 1.788 5.344.319.885 1.02 1.566 1.789 2.087.568.385 1.273.192 1.876-.077 1.246-.557 1.44-2.226 1.63-3.477.401-2.648-.776-4.492-1.707-1.032-.233.863.101 1.608.412 2.169.441.795 1.353 1.19 2.143 1.213 1.907.054 2.666-3.462 3.047-5.143.486-2.148-2.578-6.486-3.663-9.227-.466-1.176 2.272 6.556 3.66 9.718.168.383.58.666.812.691.232.026.355-.263.378-.721.105-2.141-.52-3.46-.106-4.751.104-.323.373-.501.624-.587 3.295-1.125 3.47 4.454 6.851.548.36-.463.483-.752.36-1.55"/><path stroke="rgba(0, 0, 0, .87)" stroke-linecap="round" d="M34 55.292c.041-.042.083-.083 1.032-.97.95-.888 2.806-2.62 4.343-3.906M25.75 63.292c.247-.372.495-.743 1.056-1.388.56-.645 1.427-1.553 1.996-2.185.57-.633.818-.962.948-1.178M28.25 54.667l-.125.25M47.125 85.542c0-.33-.413-3.636-1.244-9.066-.87-5.687-2.413-9.324-3.048-11.163-1.076-3.116 4.91 8.176 6.514 10.615.696 1.06 2.66 2.227 4.023 1.47.736-.41 1.253-1.434 1.648-2.536.659-1.835-.223-3.935-1.741-7.204-.494-1.062-1.355-2.109-2.023-3.007-.173-.233 4.982 8.05 7.534 5.83 1.085-.944 1.712-3.776.34-6.204-.62-1.098-2.694-3.757-5.34-7.005-.953-1.227-1.118-1.598-1.788-2.355M61.5 66.792c-.041-1.24-.29-4.408-.416-5.995-.03-.378-.124-.748.143-.527 4.422 3.667 6.268 4.03 3.965-2.78a35.7 35.7 0 0 0-3.148-6.862c-.144-.24-.209-.539-.128-.502 1.91.866 3.032 5.896 4.206 7.745.527.83 2.502 1.689 3.292.715 1.037-1.279-.119-4.202-.351-6.557-.048-.483.102-.733.31-1.004.207-.272.537-.561.563-.297.108 1.115-.602 2.351-.623 3.141-.02.715.393 1.46.87 2.23.466.749 1.313 1.025 2 1.109 3.002.366 1.44-7.588 1.175-8.824-.656-3.057-2.228-6.275-3.085-8.216-.183-.415 1.916 4.669 4.936 10.542 1.071 2.084 1.246 2.326 1.249 1.794.017-3.776-.75-5.497-.73-6.6.026-1.376 2.042-.737 2.705-.303 1.177.77 1.397 2.476 2.417 3.542.842.88 2.663-1.464 2.98-2.012.9-1.553.298-3.537-.556-5.25a1.83 1.83 0 0 0-1.436-1.027c-1.135-.134-1.186 1.919-1.027 2.558.155.622 1.1 1.457 2.326 2.415.912.711 2.107.632 3.147.363.763-.198 1.006-1.145 1.256-1.893.53-1.585-1.447-3.993-1.836-4.552-.43-.62 1.689 1.977 2.305 2.534s.616.227.534-.19c-.184-.928-.665-2.619-.917-4.576-.097-.754.244-1.049.516-1.136 1.247-.398 2.566 5.254 3.501 2.483.57-1.69-.223-3.351-.521-4.527-.12-.476 1.646 1.066 3.54 3.286 1.896 2.22 4.453 5.767 5.936 7.946 2.368 3.48 3.04 5.55-1.172 7.098-10.359 3.808-4.718-9.637.82-12.1.252-.063.499-.104.254.103"/><path stroke="rgba(0, 0, 0, .87)" stroke-linecap="round" d="M63.25 56.417c.536-.537 1.073-1.073 2.112-2.195A177 177 0 0 0 69 50.166M56.5 54.792l.75-.876"/><path stroke="rgba(0, 0, 0, .87)" d="m75.382 18.577.112.344h6.454l-4.927 3.58-.294.214.112.345 1.88 5.791-4.925-3.578-.294-.214-.294.214-4.927 3.578 1.882-5.79.112-.346-.293-.213-4.928-3.58h6.454l.112-.345 1.882-5.793z"/></svg>