<svg xmlns="http://www.w3.org/2000/svg" viewBox="0 0 72 61" width="72" height="61" fill="none"><path fill="rgba(0, 0, 0, .87)" d="m37.534 9.523-.167.471.878.312-.226-.904zm-3-8h-.5v.447l.445.05zm5.5 7-.494.076zm6-4.5.464.186a.5.5 0 0 0-.817-.54zm-3 7.5-.464-.186-.179.447.44.196zm4.5 2 .158.474a.5.5 0 0 0 .045-.931zm-7.5 2.5-.158-.474a.5.5 0 0 0-.336.398zm-1 6.5-.429.257a.5.5 0 0 0 .923-.181zm-3-5 .429-.257a.5.5 0 0 0-.527-.233zm-4-4 .447.223.053-.105v-.118zm-5-6.5.257-.429zm11.5 4v.5a.5.5 0 0 0 .116-.014zm-3.5 2-.464-.186zm6-.5.49-.098zm-3.5-3 .485-.121c-.255-1.019-1.01-3.533-1.7-5.542-.343-.999-.68-1.9-.937-2.43a3 3 0 0 0-.196-.357 1 1 0 0 0-.117-.154.7.7 0 0 0-.221-.164.55.55 0 0 0-.515.03.6.6 0 0 0-.24.306c-.051.139-.059.301-.059.432h1c0-.12.012-.129-.002-.091a.4.4 0 0 1-.173.204.45.45 0 0 1-.422.03.4.4 0 0 1-.081-.05c-.015-.01-.023-.02-.025-.022l.019.027q.048.072.133.245c.227.47.547 1.318.89 2.32.685 1.991 1.43 4.477 1.676 5.458zm-3-8-.056.497h-.001l.03.004.12.022c.107.023.267.063.465.13.397.135.941.378 1.517.81 1.14.854 2.45 2.485 2.93 5.613l.495-.076.494-.076c-.518-3.372-1.959-5.241-3.319-6.262a6.5 6.5 0 0 0-1.796-.956 5 5 0 0 0-.75-.193l-.065-.009h-.008zm5.5 7-.494.076c.02.125.066.268.17.392.11.13.251.206.396.237.256.056.513-.024.702-.103.403-.17.913-.52 1.469-.96 1.13-.894 2.608-2.286 4.11-3.789l-.353-.353-.353-.354c-1.498 1.498-2.943 2.856-4.024 3.712-.55.435-.968.71-1.236.821-.147.062-.16.036-.101.05.046.01.108.039.157.097a.2.2 0 0 1 .051.098zm3 3-.203.457 4.5 2 .203-.457.203-.457-4.5-2zm4.5 2-.158-.474-7.5 2.5.158.474.158.474 7.5-2.5zm-7.5 2.5-.494-.076-1 6.5.494.076.494.076 1-6.5zm-1 6.5.429-.257-3-5-.429.257-.429.257 3 5zm-3-5-.098-.49c-.865.173-2.249.557-3.626 1.156-1.366.594-2.79 1.425-3.666 2.522l.39.312.39.312c.724-.904 1.967-1.655 3.284-2.229a18 18 0 0 1 3.424-1.093zm-7 3.5-.39-.312a3 3 0 0 1-.206.235q-.032.03-.028.025l.027-.016a.4.4 0 0 1 .084-.03.457.457 0 0 1 .547.358c.009.056-.004.07.014-.013.064-.292.31-.933.686-1.798.736-1.696 1.881-4.061 2.713-5.726l-.447-.223-.447-.224c-.835 1.67-1.99 4.054-2.737 5.775-.366.843-.657 1.577-.745 1.983-.02.092-.047.237-.025.378a.544.544 0 0 0 .67.463.7.7 0 0 0 .237-.11q.08-.058.147-.124.131-.129.29-.329zm3-7.5h.5c0-1.38-1.127-4.46-5.243-6.929l-.257.429-.257.429c3.884 2.33 4.757 5.117 4.757 6.07zm-5-6.5.257-.429c-.088-.052-.085-.063-.058-.03a.4.4 0 0 1 .09.241.46.46 0 0 1-.182.393c-.07.053-.132.064-.134.064-.01.003-.007 0 .017 0q.069-.005.244.012c.473.045 1.32.207 2.402.46a79 79 0 0 1 7.697 2.26l.167-.471.167-.471a80 80 0 0 0-7.803-2.29c-1.085-.255-1.988-.431-2.535-.484a3 3 0 0 0-.38-.015q-.086.002-.184.021a.65.65 0 0 0-.255.112.54.54 0 0 0-.22.465c.01.171.097.29.139.34.09.108.214.19.314.25zm16 4.5.464.186 3-7.5-.464-.186-.464-.186-3 7.5zm-4.5-.5v-.5h-.014l-.13.005a5.919 5.919 0 0 0-1.46.27c-.842.271-1.882.843-2.36 2.04l.464.185.464.186c.322-.804 1.033-1.232 1.74-1.46a5 5 0 0 1 1.294-.226h.003zm-3.5 2-.464-.186c-.277.692-.33 1.311-.112 1.828.222.525.674.826 1.153.984.93.306 2.175.15 3.081-.152l-.158-.474-.158-.474c-.804.268-1.81.362-2.452.15-.307-.1-.471-.25-.545-.423-.077-.182-.104-.509.12-1.067zm3.5 2 .158.474c.334-.111.67-.168 1.025-.232.332-.06.716-.133 1.04-.295.357-.178.649-.467.787-.928.129-.428.112-.96-.02-1.617l-.49.098-.49.098c.119.594.102.936.042 1.133a.48.48 0 0 1-.276.322c-.175.088-.416.14-.772.205-.332.06-.746.129-1.162.268zm2.5-2.5.49-.098c-.118-.592-.37-1.033-.71-1.347a2.27 2.27 0 0 0-1.074-.544 3.2 3.2 0 0 0-1.283-.006l-.025.005-.009.002-.003.001h-.001l.115.487.115.486h-.001l.01-.001.05-.01a2.191 2.191 0 0 1 .82.013c.224.05.435.142.607.3.168.156.327.402.409.81zM49.534 25.023l.076.494.011-.002zm-8.5 7 .474.158zm11.5.5.416.277zm-3-7.5-.076-.494c-2.259.347-7.214 2.284-8.898 7.336l.474.158.474.158c1.516-4.548 6.028-6.345 8.102-6.664zm-8.5 7-.474-.158c-.27.81-.32 1.52-.122 2.12.203.614.64 1.038 1.188 1.307 1.052.517 2.591.509 4.105.288 1.542-.225 3.172-.689 4.482-1.192a14 14 0 0 0 1.7-.773c.23-.128.436-.257.606-.386.164-.123.323-.267.431-.429l-.416-.277-.416-.277a1 1 0 0 1-.201.185 4 4 0 0 1-.49.31c-.407.227-.946.473-1.572.714-1.253.48-2.81.923-4.268 1.136-1.486.216-2.76.177-3.52-.197-.358-.175-.577-.412-.68-.722-.106-.324-.109-.8.121-1.49zm11.5.5.416.277c.259-.388.74-1.158 1.183-2.075.438-.91.859-2.003.961-3.027.103-1.029-.111-2.099-1.083-2.76-.926-.63-2.406-.788-4.564-.407l.087.492.087.492c2.092-.369 3.237-.152 3.827.25.543.37.736.987.651 1.833-.085.851-.446 1.82-.867 2.692a17 17 0 0 1-1.114 1.956z"/><path fill="rgba(0, 0, 0, .87)" d="M47.966 31.868a.24.24 0 0 1 .058.14.2.2 0 0 1-.047.136.5.5 0 0 1-.095.072 16 16 0 0 1-.356.215l-.119.072q.023.04 0 .074a.2.2 0 0 1-.068.052 1 1 0 0 1-.117.043q-.07.02-.129.03l-.23.156q-.116.078-.246.145-.1.05-.162-.023-.06-.074-.04-.139a.3.3 0 0 1 .079-.122 1 1 0 0 1 .14-.107q.08-.05.14-.091-.526-.604-1.049-1.198-.519-.595-1.032-1.206l-.212.124a5 5 0 0 1-.26.137l-.053.017a.2.2 0 0 1-.048 0 .08.08 0 0 1-.048-.028.14.14 0 0 1-.022-.163.3.3 0 0 1 .055-.077.5.5 0 0 1 .075-.065q.105-.076.22-.15.113-.075.227-.147l.226-.15a3 3 0 0 0 .411-.325q.09-.09.213-.152.066-.034.121-.006.054.025.091.07a.3.3 0 0 1 .049.077.14.14 0 0 1 .013.082q-.003.025-.046.072-.044.043-.113.096a6 6 0 0 1-.542.372q.282.285.544.577.264.292.524.587l.518.59q.259.294.533.582.142-.099.29-.197.145-.1.309-.182a.3.3 0 0 1 .103-.028.1.1 0 0 1 .095.038M48.817 29.536a7 7 0 0 1 .364.477 3.6 3.6 0 0 1 .347.615q.066.159.097.314a.8.8 0 0 1 .01.295.6.6 0 0 1-.104.257.7.7 0 0 1-.25.198.9.9 0 0 1-.346.091 1.1 1.1 0 0 1-.357-.044 1.5 1.5 0 0 1-.293-.122 3.7 3.7 0 0 1-.613-.439 7 7 0 0 1-.288-.258 8 8 0 0 1-.442-.47 5 5 0 0 1-.263-.341 3 3 0 0 1-.219-.38 2 2 0 0 1-.142-.399 1.04 1.04 0 0 1-.009-.444.4.4 0 0 1 .02-.056.2.2 0 0 1 .027-.053.1.1 0 0 1 .042-.04.1.1 0 0 1 .056-.013.2.2 0 0 1 .066.007.4.4 0 0 1 .091-.098.883.883 0 0 1 .536-.177q.21 0 .408.072.198.07.385.195.186.122.35.267.166.144.298.288.133.144.228.258m-.355.312a6 6 0 0 0-.149-.167 5.616 5.616 0 0 0-.52-.506q-.15-.133-.3-.226a1 1 0 0 0-.289-.133.32.32 0 0 0-.24.01.09.09 0 0 0-.05.068.4.4 0 0 0 0 .11 1 1 0 0 0 .032.131 4 4 0 0 1 .07.249.15.15 0 0 1 .002.082q-.004.01-.021.022l-.033.017a.3.3 0 0 1-.1.032q.075.17.178.326a4 4 0 0 0 .348.433 10 10 0 0 0 .43.433q.131.123.272.242.138.118.277.222.14.1.27.17a1 1 0 0 0 .235.093.27.27 0 0 0 .183-.012.14.14 0 0 0 .061-.055l.032-.07a.5.5 0 0 0 .016-.226 1.2 1.2 0 0 0-.072-.26 2.4 2.4 0 0 0-.13-.274 3 3 0 0 0-.168-.27 6 6 0 0 0-.334-.44M51.405 28.71q.097.116.207.265.114.15.209.315.096.165.158.339.06.171.054.333a.6.6 0 0 1-.096.305.7.7 0 0 1-.294.242 1.04 1.04 0 0 1-.51.11 1.2 1.2 0 0 1-.442-.113 3 3 0 0 1-.452-.265 4 4 0 0 1-.44-.36 10 10 0 0 1-.755-.786l-.268-.314-.084-.1-.119-.141-.131-.167a6 6 0 0 1-.225-.306.4.4 0 0 1-.048-.095.1.1 0 0 1 0-.051q.01-.02.049-.04a.38.38 0 0 1 .248-.04.33.33 0 0 1 .205.118q.12.142.23.288.11.147.23.288l.154.183a15 15 0 0 0 .543.586 6.323 6.323 0 0 0 .694.624q.178.137.342.229.166.09.312.122.145.03.253-.023a.22.22 0 0 0 .126-.152.45.45 0 0 0-.005-.223 1.2 1.2 0 0 0-.1-.262 3 3 0 0 0-.15-.261 4 4 0 0 0-.287-.39 7 7 0 0 0-.229-.259 10 10 0 0 0-.274-.293 8 8 0 0 0-.94-.852 3 3 0 0 0-.302-.204 1 1 0 0 0-.069-.035.2.2 0 0 1-.058-.041q-.03-.035-.024-.061a.1.1 0 0 1 .033-.05.2.2 0 0 1 .06-.043 1 1 0 0 1 .177-.085.4.4 0 0 1 .128-.022q.053-.002.152.058.1.06.23.163t.282.24q.153.135.308.283a15 15 0 0 1 .575.57 14 14 0 0 1 .343.373"/><path stroke="rgba(0, 0, 0, .87)" d="M33.534 5.023c-3-4-11.9-9-23.5 3-14.5 15-10.5 34.5-1 40.5s23.5 14 36 11 22.5-12.5 25-23-2.5-18.5-10-26-8.5-7-13.5-3.5"/></svg>