<svg xmlns="http://www.w3.org/2000/svg" width="151" height="358" fill="none"><path stroke="#000" d="M38 79.38c7.31-1.635 15.4-2.807 24-3.411M100 77.083c3.635.485 7.143 1.076 10.5 1.762M33.5 80.47C13.587 85.684.5 94.501.5 104.5c0 16.016 33.579 29 75 29s75-12.984 75-29c0-10.493-14.412-19.684-36-24.776M118.5 355c0 1.105-18.7 2.5-43 2.5S32 356.105 32 355"/><path stroke="#000" stroke-linecap="round" d="M1 105.5 32 355M150 105.5 118.5 355"/><path fill="#000" d="m90.5 119.5.132.483zm-8-20.5-.496.06zm-2-53 .465.184zm10 73.5-.132-.482c-.416.113-.882.138-1.397-.124-.532-.271-1.182-.879-1.88-2.176-1.403-2.605-2.895-7.786-4.094-17.777L82.5 99l-.496.059c1.2 10.008 2.708 15.35 4.206 18.132.751 1.396 1.527 2.196 2.307 2.593.797.406 1.531.357 2.115.198zm-8-20.5.496-.06c-.75-6.26-1.623-11.769-2.415-16.737-.793-4.973-1.503-9.396-1.935-13.505-.863-8.207-.61-15.117 2.319-22.514L80.5 46l-.465-.184c-3.01 7.603-3.256 14.693-2.384 22.986.436 4.141 1.15 8.593 1.942 13.558.792 4.969 1.662 10.46 2.41 16.7zm-2-53 .465.184c1.168-2.95 2.542-4.822 4.004-5.86 1.444-1.024 3.014-1.264 4.667-.876 1.672.392 3.444 1.433 5.23 3 1.782 1.562 3.552 3.627 5.224 6.025 3.343 4.798 6.258 10.89 8.056 16.866 1.803 5.99 2.461 11.792 1.37 16.037l.484.124.484.125c1.159-4.506.442-10.517-1.38-16.574-1.827-6.07-4.787-12.26-8.194-17.15-1.703-2.445-3.526-4.575-5.385-6.206-1.855-1.626-3.77-2.777-5.66-3.22-1.91-.449-3.778-.17-5.475 1.034-1.678 1.191-3.148 3.258-4.355 6.307zM110 81.5l-.484-.124c-2.255 8.768-4.37 17.472-7.289 24.367-2.926 6.911-6.595 11.839-11.859 13.275l.132.482.132.483c5.736-1.565 9.567-6.886 12.516-13.85 2.956-6.981 5.091-15.777 7.336-24.508z"/><path stroke="#000" stroke-linecap="round" d="M78.5 133c.667-5.667 1.6-18 0-28-2-12.5-10-35-7.5-48.5s8.5-27 18.5-24 23 20.5 23.5 29 4.5 19.5-2.5 39.5c-5.6 16-10.667 27-12.5 30.5"/><path stroke="#000" stroke-linecap="round" d="m63 132.5-6.5-23c-3.167-.5-10-2-12-4-2.5-2.5-7.5-7.5-10-13S33.51 68.494 43 63c9.5-5.5 16-4.792 24.5 3 9.273 8.5 2 29.5 0 33.5-1.6 3.2-4.333 7.333-5.5 9l12 24"/><path stroke="#000" stroke-linecap="round" d="M38.5 89.5c.8 7.2 7.333 11 11 12.5 8 2 14.636-4.773 17.5-10.5 3-6 0-17-5-22.5s-16-3.5-20.5 3-4 8.5-3 17.5ZM89.5.5c1.009 8.631 2.498 21.548 4 33.5M94.317 41.5c1.998 14.673 3.872 27.363 4.683 30 .962 3.126 2.644 17.107 4.5 32M105.193 115.5c.694 5.804 1.321 11.211 1.807 15.5M67.5 119.5c-.622-5.016-1.302-10.538-2-16.124"/><path stroke="#000" stroke-linecap="round" d="M64.508 95.5c-1.374-10.815-2.743-21.076-3.803-27.5M59.132 60.5c-1.825-8.643-5.77-41.547-7.632-58M90 6.5 76.5 8M91 17.5 77.5 19M90.5 9 83 10M90.5 12l-7 1M90.5 15l-7 1M92 28.5 78.5 30M91.5 20 84 21M91.5 23l-7 1M92.5 26l-7 1M95 51l-13.5 1.5M94.5 42.5l-7.5 1M94.5 45.5l-7 1M94.5 48.5l-7 1M97 62l-13.5 1.5M95.5 53.5l-7.5 1M102 95.5 88.5 97M101 87l-7 1M101.5 90l-7 1M101.5 93l-7 1M102.5 106.5l-13 1.5M102.5 98 95 99M102.5 101l-7 1M103 104l-6.5 1M101 109.5l-4 .5M98.5 113h-1M106.5 128.5l-7 .5M105.5 120l-2.5.5M105.5 123l-3.5.5M106 126l-5.5.5M95.5 56.5l-7 1M96.5 59.5l-7 1M99 73l-13.5 1.5M97.5 64.5l-7.5 1M97.5 67.5l-7 1M98.5 70.5l-7 1M101 84l-13.5 1.5M99.5 75.5l-7.5 1M99.5 78.5l-7 1M100.5 81.5l-7 1M41.75 180.5c.165.165.992.25 2.53.003 3.51-.565 9.242-5.119 14.569-17.298C62 156 60.753 152.093 60.089 150.47c-.593-1.449-2.331-1.885-3.704-2.135-1.11-.202-2.707.328-4.539 1.241-2.661 1.328-3.501 10.604-6.085 21.792-2.311 10.007-3.836 18.28-5.292 21.443-.886 1.925-1.882 2.852-2.795 3.147-.49.158-1.079-.778-1.376-1.613-.621-1.742.197-3.67 1.36-5.209 2.928-3.875 12.632-2.721 17.37-2.138 2.367.291 2.573.082 3.82 0 2.474-.164 6.533-.274 10.138-6.498.61-1.052 2.514-6.155 2.39-6.7s-.371-1.04-.829-1.295-1.117-.255-1.746.034c-3.269 1.501-4.211 8.511-3.847 14.026.08 1.23.951 2.165 1.62 2.84s1.411 1.005 2.412.886c5.014-.594 8.329-7.261 11.67-15.552 2.123-5.268 1.591-9.646 1.884-10.733.045-.178-.12.399-.329 4.409s-.456 11.435-1.461 18.085"/><path stroke="#000" stroke-linecap="round" d="M72.75 177.5c4.207-1.815 8.415-3.63 10.83-4.689 2.415-1.058 2.91-1.306 3.42-1.311M91.5 156.5c-.082 1.32-.165 2.64-.207 4.145-.043 1.505-.043 3.155-.043 4.605M102.5 166.5c0-.165-1.041-2.62-5 0-1.497.991-3.883 3.5-2.463 6.861 1.63 3.855 5.79 4.967 6.748 6.378 1.113 1.64.467 4.249-.32 6.454-.373 1.043-1.365 1.627-2.532 1.885-1.168.257-2.653.092-3.707-.24-1.053-.333-1.631-.828-1.805-1.454s.074-1.369 2.305-3.443 6.439-5.456 11.274-9.191M70.75 214.25c3.795-3.135 6.162-5.905 6.623-7.944.194-.863-.283-1.461-.742-1.882-.908-.834-2.456-1.006-4.407-.966-5.171.106-9.284 4.772-13.085 10.72-3.454 5.404-3.139 12.545-2.85 16.958.112 1.712.866 2.269 1.452 2.773 1.124.965 2.666 1.341 4.784 1.094 5.93-.693 9.46-7.805 11.133-10.244.187.614-.968 4.986-1.852 9.054-.883 4.067-1.461 7.697-2.306 10.687M82.5 214.25c-1.745 2.16-3.575 5.48-4.705 9.235a9.93 9.93 0 0 0 .076 5.88c.419 1.259 1.624 1.8 2.622 2.05 2.376.596 6.567-3.23 8.918-5.989 2.553-2.995.924-8.826.135-11.252-.174-.536-.951-.669-1.537-.796-1.144-.249-2.996.78-5.078 2.526-1.547 1.298-1.928 3.006-2.262 4.254a1.65 1.65 0 0 0 .286 1.461c.29.379.785.626 1.453.671 3.415-1.28 8.892-7.745 12.956-11.575M42.25 267c2.56-3.385 7.993-10.492 9.406-11.782.64-.584 1.249-.878 1.753-.305 1.488 1.69 1.093 9.445.595 18.856-.246 4.646-.837 6.474-.755 6.196 1.087-3.712 1.991-9.602 3.986-14.967 1.702-4.578 3.758-7.24 5.171-8.407.613-.505 1.249-.506 1.753-.177 2.928 1.911 1.593 11.116 1.26 18.704-.065 1.481 1.319-5.308 3.771-15.38 1.587-6.52 4.468-9.065 6.214-9.858.788-.358 1.581-.05 2.129.736.547.787.877 2.189.84 6.995-.035 4.807-.448 12.974-.578 17.965.035 6.559.865 10.154 1.948 13.484.422 1.35.587 2.01 1.257 3.19M82.5 274.5c5.733-2.482 10.9-8.31 12.125-12.072.187-.575-.615-.758-1.118-.719-2.44.188-4.907 5.761-6.712 12.31-.61 2.214.535 3.891 1.241 5.097.627 1.072 1.791 1.549 3.079 1.675 1.554.153 3.458-1.861 5.33-4.315 3.878-5.082 4.715-18.491 5.346-23.431.787-6.16-1.126 15.948-.381 17.279.404.721 1.57 1.001 2.41.884 3.934-.551 5.005-8.263 5.927-13.275.171-.927.333-1.423.748-1.678s1.075-.255 1.786.158c1.652.957 2.797 4.727 3.548 9.511.333 2.125-.074 3.711-1.068 4.89s-2.726 1.921-3.949 2.097c-1.222.177-1.882-.236-2.562-.661"/><path stroke="#000" stroke-linecap="round" d="M96.75 264c-.495.083-.99.165.611-1.03 1.602-1.195 5.314-3.67 8.889-6.22M119.75 264.75l4-36M119.75 273.5c0-.165.495.328 1.328.625.337-.28.502-1.435.051-1.782-.451-.348-1.524.147-2.629.657M82 304.5c-2.975-.985-8.82-7.165-11.2-7.167-1.07-.002-3.264 1.105-4.929 3.1-1.431 1.715-1.327 4.322-.871 6.567.896 4.408 9.365 9.055 16.267 14.061 4.103 4.304 7.143 8.672 8.226 12.328.422 1.924.587 3.986.757 5.111"/><path stroke="#000" stroke-linecap="round" d="M82 304.5c4.125-8.25 7.983-10.32 11.061-12.485 1.3-.914 2.254-1.175 3.258-.561 2.569 1.571 3.511 5.529 3.681 8.979.171 3.461-3.975 9.44-8.055 16.931-3.027 7.874-2.027 20.216-1.445 21.636"/></svg>