<svg xmlns="http://www.w3.org/2000/svg" viewBox="0 0 102 205" width="102" height="205" fill="none"><path stroke="rgba(0, 0, 0, .87)" d="M56.814.529c27.6-.4 36.167 3.5 37 5.5-.667.333-2.2 1-3 1-1 0-10 2-12 1.5s-10 1.5-13.5 2-28 1.5-32 1-19.5 0-27 2c-4.348 1.16 2-9.5 18-10 3.037-.095 13-3 15-3 3.688 0 13.167.333 17.5 0Z"/><path stroke="rgba(0, 0, 0, .87)" d="m66.314 3.029-25.5 1.5v4c.5.166 2.2.4 5 0s14.833-1.5 20.5-2z"/><path fill="rgba(0, 0, 0, .87)" d="M54.242 5.774c.411.14.743-.21 1.296-.307.576-.11.704-.004 1.384-.227q.287-.091.591-.129c.462-.05.882-.108 1.082-.209.274-.14.36.04.76-.133.291-.13.508-.204.739-.269a.3.3 0 0 1 .208-.002c.073.03.104.072.123.098.038.055.045.085.055.115.017.057.025.102.035.146.019.081.054.19.146.26l-.058-.021c.489.12 1.245.082 1.553-.025.349-.113.764-.108 1.065-.125l.144-.004q.138-.006.223.001.036.006.039.025c.002.015-.012.033-.041.04q-.135.03-.336.093-.117.046-.26.108c-.46.195-.53.105-1.186.225-.464.074-.812.137-1.26.089a.4.4 0 0 1-.107-.038c-.253-.13-.379-.492-.4-.6.004.003.006.018.057.05.05.04.167.033.193.013-.682.224-.794.554-1.88.66a5.6 5.6 0 0 0-.809.11c-.412.104-.626.336-1.338.575-.808.276-2.269.561-2.997-.29-.173-.183-.153-.416-.158-.422.001-.002-.001.01.018.06.015.048.091.14.16.166.132.05.131.022.135.028l-.01.003c-.582.151-1.396.532-2.403.574-.428.007-.992-.009-1.48-.382a.8.8 0 0 1-.241-.342 1 1 0 0 0-.027-.063.3.3 0 0 0 .202.141c-.188-.03-.436.032-.55.127-.097.08-.21.178-.32.266-.326.262-.715.576-1.166.82-.225.119-.47.23-.754.252-.285.038-.614-.14-.724-.35-.14-.27-.086-.418-.093-.553.02-.32-.002-.536-.086-.509-.185.01-.383.076-.684.198a6.8 6.8 0 0 1-1.247.38c-.216.038-.189-.03.005-.13.283-.149.536-.217.666-.338.262-.24.374-.344.813-.393.162-.016.285-.052.424-.08.2-.055.458.156.5.269a.65.65 0 0 1 .094.305c.003.103-.014.162-.026.257-.015.075-.013.287.012.322.075.09.132.145.367.068.898-.46 1.32-1.095 1.677-1.402l.01-.01c.258-.236.717-.39 1.225-.287.2.031.33.211.357.276.038.076.047.116.057.144.018.056.02.044-.005.027a.9.9 0 0 0 .552.208c.606.085 1.993-.371 2.652-.591l.071-.018c.044-.008.093-.018.182-.01.08.003.257.058.357.196.163.272.097.308.115.336.01.049-.009-.073-.072-.124.11.121.104.232.374.352"/><path stroke="rgba(0, 0, 0, .87)" d="M39.314 20.529c-2.5-2.5-1.5-4 1.5-5.5.166-.167.9-.4 2.5 0 2 .5 2 3 2 4s-3.5 4-6 1.5Z"/><path stroke="rgba(0, 0, 0, .87)" d="M40.566 19.882c-1.167-1.625-.605-2.522.967-3.357.09-.098.47-.22 1.262.078.991.372.896 1.918.858 2.537s-1.92 2.366-3.087.742ZM62.489 20.009c-3.338-1.168-3.088-2.953-1.036-5.606.078-.223.637-.751 2.252-1.085 2.019-.418 3.104 1.834 3.538 2.735s-1.417 5.123-4.754 3.956Z"/><path stroke="rgba(0, 0, 0, .87)" d="M62.083 17.695c-.228-1.987.7-2.497 2.479-2.46.127-.042.517.036 1.065.682.684.807-.152 2.112-.487 2.633-.334.522-2.829 1.132-3.057-.855ZM5.315 13.529c-.167 3-1.5 10.5-1.5 13"/><path stroke="rgba(0, 0, 0, .87)" d="M93.315 5.529c1.5 0 6.5 13 5.5 13.5s-27.92 3.416-32.001 4c-3.443.491-16.668 1.948-30.5 2.5-14.29.57-29.197.237-32.5 1"/><path stroke="rgba(0, 0, 0, .87)" stroke-linejoin="round" d="m22.314 35.029-13 26.5 3.5 2 9.5-23"/><path stroke="rgba(0, 0, 0, .87)" stroke-linecap="round" d="m12.314 60.029 10.5-23.5M25.814 34.029c1.6.4.667 1.5 0 2 0 .833.3 2.5 1.5 2.5 1.5 0 0 3-3.5 2.5-2.8-.4-1.167-1.834 0-2.5.166-.834-.3-2.2-1.5-3-1.5-1 1.5-2 3.5-1.5ZM24.314 40.029l1-.5M23.814 35.029h1M11.314 58.029l3 1.5M11.314 58.029l3 1.5M11.814 56.529l3 1.5M12.814 54.529l3 1.5M18.814 42.529l2 1M20.814 38.529l1.5 1M21.814 37.529l1.5 1M10.814 59.529l3 1.5M13.814 52.529l2.5 1.5M14.814 50.529l2.5 1M15.814 48.529l2 1M17.814 44.529l2 1M16.814 46.529l2 1M19.814 40.529l2 1"/><path stroke="rgba(0, 0, 0, .87)" stroke-linejoin="round" d="m69.517 29.64 21.305 24.41-2.667 3.186-16.79-21.721"/><path stroke="rgba(0, 0, 0, .87)" stroke-linecap="round" d="M87.456 53.347 69.544 31.392M65.842 29.62c-1.392.908-.132 1.803.672 2.137.28.89.554 2.761-.591 3.121-1.43.45 1.008 3.205 4.179 1.621 2.536-1.267.497-2.309-.84-2.67-.44-.841-.453-2.441.423-3.656 1.095-1.518-2.103-1.686-3.843-.552ZM69.289 35.58l-1.122-.233M68.086 30.09l-.954.3M87.738 50.91l-2.358 2.503M87.738 50.91l-2.358 2.503M86.757 49.458l-2.358 2.502M85.13 47.621l-2.357 2.503M75.375 36.601l-1.572 1.669M72.124 32.928l-1.095 1.519M70.834 32.16l-1.095 1.518M88.719 52.363l-2.358 2.502M83.505 45.785l-1.881 2.352M81.879 43.948l-2.049 1.818M80.253 42.111l-1.572 1.669M77.001 38.438l-1.572 1.668M78.627 40.275l-1.572 1.668M73.75 34.765l-1.573 1.668M3.814 26.029c-1 4.833-1.458 19.35 0 31.5 1.5 12.5 2 30.5-2 53-3.947 22.201 2.5 38.5 0 57-1.828 13.524 3.5 18 2.5 30.5M98.814 21.029c1.5 8 3.6 28.7 0 47.5s-1.5 55.5 0 71.5c-1.167 10.833-2.8 34.8 0 44s1.167 16.166 0 18.5M45.814 25.029c-1.167 7.333-1.5 23.5 2.5 35.5 2.061 6.184 2.5 19.5 9.5 31.5 6.48 11.109 4.5 19.5 11.5 41 2.257 12.417 2.423 16.829 4 25.5 2 11 .5 23 3 44.5"/><path stroke="rgba(0, 0, 0, .87)" stroke-linecap="round" d="M50.314 68.529c-4 4.833-12.4 19.6-14 40-2 25.5-2.5 31-4.5 38.5s-8.5 20-4.5 40.5c1.153 5.911 1 9 1 16"/><path stroke="rgba(0, 0, 0, .87)" stroke-linecap="round" stroke-linejoin="round" d="M57.814 24.029c-1 15.5 1.5 24.5-3.5 30l-6.5 4.5"/></svg>