<svg xmlns="http://www.w3.org/2000/svg" viewBox="0 0 144 144" width="144" height="144" fill="none"><path stroke="rgba(0, 0, 0, .87)" stroke-linecap="round" d="M44.517 21.31c-1.834-1.5-9.7-1.7-24.5 9.5S.85 49.81.517 52.31c1.833 3.5 2 6.5 16 19.5 1.099 1.022 12.5-6 16-12 2 7.334 5.6 24.3 4 33.5-2 11.501 4 41.001 0 48.501M99.517 21.044c1.833-1.5 9.2-1.7 24 9.5s19.166 19 19.5 21.5c-1.834 3.5-2 6.5-16 19.5-1.1 1.02-12.5-6-16-12-2 7.333-5.6 24.3-4 33.5 2 11.5-4 41 0 48.5M36.517 141.811c6.333.833 21.2 2.5 30 .5 11-2.5 30.5-3 34-1.5 2.8 1.2 5.5 1 6.5 1"/><path fill="rgba(0, 0, 0, .87)" d="m44.517 21.31-.176-.467a.5.5 0 0 0-.24.745zm48.5 4.5-.258-.428zm6.5-5 .416.278a.5.5 0 0 0-.037-.603zm-51-1 .093-.49a.5.5 0 0 0-.269.023zm48-2.5.38-.325a.5.5 0 0 0-.485-.163zm-31 4-.039-.498zm21.5-2 .098.491zm-34.5 4.557-.293.406zm12.5-.056-.109-.488zm-20.5-2.5-.416.277c.863 1.296 2.551 3.261 4.837 5.008 2.287 1.747 5.202 3.297 8.517 3.711l.062-.496.062-.496c-3.085-.386-5.837-1.836-8.034-3.514s-3.81-3.563-4.612-4.767zm13 8.5-.062.496c3.982.498 7.38 1 10.321 1.314 2.948.313 5.491.443 7.796.187l-.055-.497-.056-.497c-2.195.244-4.652.124-7.579-.188-2.933-.312-6.286-.809-10.303-1.311zm18 1.5.055.497c2.304-.256 6.095-1.27 9.598-2.396 3.493-1.123 6.797-2.388 8.104-3.172l-.257-.43-.258-.428c-1.193.716-4.388 1.95-7.895 3.078-3.498 1.124-7.207 2.11-9.403 2.354zm17.5-5.5.257.429c1.725-1.035 4.576-2.028 6.659-5.152l-.416-.277-.416-.277c-1.918 2.876-4.429 3.7-6.342 4.848zm-37 0-.186.464c5.068 2.027 12.15 3.043 16.74 2.533l-.054-.497-.056-.497c-4.41.49-11.327-.494-16.259-2.467zm16.5 2.5.055.497c4.459-.496 10.092-1 14.21-3.573l-.265-.424-.265-.424c-3.883 2.426-9.25 2.922-13.79 3.427zm27-7.5.38-.326-3-3.5-.38.326-.38.325 3 3.5zm-55 .5.175.468 4-1.5-.175-.468-.176-.468-4 1.5zm4-1.5-.094.491c3.503.667 11.86 1.913 17.132 1.507l-.038-.498-.039-.499c-5.128.395-13.37-.826-16.868-1.492zm17 1.5.038.498c3.25-.25 8.003-.625 12.255-1 4.235-.374 8.02-.751 9.305-1.008l-.098-.49-.099-.49c-1.216.243-4.93.615-9.195.992-4.248.375-8.995.75-12.245 1zm21.5-2 .098.49c2.004-.4 7.174-1.501 9.506-2.001l-.104-.49-.105-.488c-2.335.5-7.498 1.6-9.494 1.999zm-38.5.5-.424.265c.594.95 2.022 2.671 4.13 4.197l.294-.406.293-.405c-2.007-1.451-3.346-3.078-3.87-3.916zm4 4.056-.293.406a17 17 0 0 0 3.607 2.002l.186-.464.185-.464a16 16 0 0 1-3.392-1.885zm0 0-.059.497c1.348.159 3.59.346 5.949.393 2.35.047 4.857-.045 6.718-.458l-.108-.488-.109-.488c-1.74.386-4.148.48-6.482.434a64 64 0 0 1-5.85-.386zm12.5-.056.108.488c2.176-.483 5.594-.364 8.945-.3 1.655.03 3.283.047 4.689-.04 1.387-.087 2.633-.277 3.481-.7l-.223-.448-.224-.447c-.652.326-1.719.51-3.097.596-1.36.085-2.95.07-4.608.038-3.274-.061-6.855-.192-9.18.325zm21.5 1 .265.424c2.488-1.556 4.352-2.4 6.419-4.032l-.31-.392-.31-.392c-2.016 1.592-3.71 2.33-6.33 3.968zm6.374-4 .31.392c1.11-.876 2.288-1.983 3.69-3.56l-.374-.332-.374-.332c-1.37 1.541-2.506 2.606-3.562 3.44zm-10.874 2 .223.447c1.123-.561 3.114-1.011 5.207-1.34a64 64 0 0 1 5.476-.608l-.032-.5-.032-.498c-1.325.084-3.459.285-5.567.617-2.088.33-4.222.796-5.499 1.435z"/><path stroke="rgba(0, 0, 0, .87)" stroke-linecap="round" d="m32.868 58.432-.047 4.601M32.775 67.634l-.134 5.61M32.77 75.828l-.835 5.483M29.688 17.396l4.041-13.61M35.695 17.97 28.95 5.483M26.449 5.543c.736 1.362 1.973.527 2.5-.06-.044-.862-.411-2.635-1.534-2.838-1.403-.254-1.886 1.195-.966 2.898ZM35.222.525c-1.194.17-1.362 2.119-1.296 3.072.53.407 1.77.905 2.487-.352.898-1.571.302-2.931-1.19-2.72ZM33.108 19.039l-.223 6.617M33.015 28.24l.172 6.178M32.528 37.884l.567 5.736M32.742 47.654l.172 6.177M111.624 59.432l.046 4.601M111.716 68.634l.135 5.61M111.72 76.828l.836 5.483M114.803 18.396l-4.041-13.61M108.796 18.97l6.747-12.487M118.042 6.543c-.736 1.362-1.973.527-2.5-.06.044-.862.411-2.635 1.534-2.838 1.403-.254 1.886 1.195.966 2.898ZM109.269 1.525c1.194.17 1.362 2.119 1.297 3.072-.531.407-1.771.905-2.488-.352-.897-1.571-.302-2.931 1.191-2.72ZM111.384 20.039l.222 6.617M111.476 29.24l-.172 6.178M111.964 38.884l-.568 5.736M111.749 48.654l-.172 6.177M65.268 34.337l-3.374-.175M58.52 33.987l-4.11-.292M52.517 32.81l-4-2.046M47.517 29.455l-3.5-3.144M43.017 24.81l-3.5-5.5M94.426 29.693l7.586-.264M95.884 33.559l3.95-6.766M99.087 25.246c-.431.738.319 1.339.748 1.547.394-.203 1.125-.796.898-1.537-.285-.928-1.108-.933-1.646-.01ZM103.98 29.693c-.423-.71-1.392-.416-1.823-.18-.039.414.083 1.29.883 1.48.999.238 1.47-.412.94-1.3ZM94.723 31.517l-4.528 1.778M88.017 33.918h-5.352M80.517 34.31h-5M73.18 34.513l-4.538-.001M92.871 125.687l-3.69-.014M85.492 125.66l-4.5-.095M78.922 125.714h-4.405M125.735 122.215l10.96 3.945M125.346 128.226l9.932-6.835M135.201 118.892c-1.084.746-.4 1.977.077 2.499.691-.049 2.108-.429 2.258-1.553.187-1.405-.981-1.878-2.335-.946ZM139.327 127.629c-.15-1.193-1.715-1.347-2.478-1.275-.32.534-.705 1.777.311 2.486 1.271.886 2.354.28 2.167-1.211ZM124.459 125.646l-5.309-.175M117.08 125.619l-4.951.216M109.342 125.201l-4.592.607M101.511 125.484l-4.95.216M53.157 125.687l3.69-.014M60.536 125.66l4.5-.095M67.106 125.714h4.41M44.517 125.484l4.95.216M23.157 125.687l3.69-.014M30.536 125.66l4.5-.095M37.106 125.714h4.91M14.517 125.484l4.95.216"/></svg>