<svg width="74" height="159" viewBox="0 0 74 159" fill="none" xmlns="http://www.w3.org/2000/svg">
<path d="M66.3133 2.99525C69.2713 7.11374 74.655 21.1915 72.5252 44.5545C69.8629 73.7583 40.8775 74.1327 39.5463 96.5971C38.4814 114.569 39.1026 145.894 39.5463 151.261" stroke="black" stroke-linecap="round"/>
<path d="M7.19785 2.99525C4.23978 7.11374 -1.1439 21.1915 0.985911 44.5545C3.64817 73.7583 32.6336 74.1327 33.9648 96.5971C35.0297 114.569 34.4085 146.269 33.9648 151.635" stroke="black" stroke-linecap="round"/>
<path d="M36.662 0.5C44.9228 0.5 52.3954 0.79297 57.7968 1.26562C60.5002 1.50219 62.671 1.78218 64.1581 2.08984C64.9055 2.24448 65.4549 2.40195 65.8075 2.55273C65.8614 2.57579 65.907 2.59977 65.9471 2.62012C65.9068 2.64056 65.8617 2.66627 65.8075 2.68945C65.4549 2.84022 64.9054 2.99675 64.1581 3.15137C62.671 3.45903 60.5001 3.73902 57.7968 3.97559C52.3954 4.44824 44.9228 4.74219 36.662 4.74219C28.4013 4.74218 20.9286 4.44824 15.5272 3.97559C12.8241 3.73904 10.6539 3.459 9.16687 3.15137C8.41931 2.99671 7.86913 2.84026 7.51648 2.68945C7.46187 2.66609 7.41636 2.64069 7.37585 2.62012C7.41618 2.59965 7.46221 2.57595 7.51648 2.55273C7.86913 2.40193 8.41931 2.2445 9.16687 2.08984C10.6539 1.78222 12.8241 1.50217 15.5272 1.26562C20.9286 0.792974 28.4013 0.500005 36.662 0.5Z" stroke="black"/>
<path d="M36.8844 43.9313C46.6758 43.9313 55.5337 44.3078 61.9371 44.9156C65.1417 45.2199 67.7165 45.5809 69.4821 45.9772C70.3687 46.1762 71.0246 46.379 71.4489 46.5758C71.6378 46.6635 71.7584 46.741 71.8297 46.8004C71.7584 46.8599 71.6383 46.9381 71.4489 47.026C71.0246 47.2228 70.3687 47.4256 69.4821 47.6246C67.7165 48.0209 65.1417 48.3819 61.9371 48.6862C55.5337 49.294 46.6758 49.6705 36.8844 49.6705C27.093 49.6705 18.2352 49.294 11.8317 48.6862C8.62723 48.382 6.05234 48.0209 4.28674 47.6246C3.39989 47.4256 2.74322 47.2228 2.31897 47.026C2.1289 46.9378 2.00827 46.86 1.93713 46.8004C2.00835 46.7409 2.12935 46.6638 2.31897 46.5758C2.74322 46.379 3.39989 46.1762 4.28674 45.9772C6.05234 45.5809 8.62724 45.2198 11.8317 44.9156C18.2352 44.3078 27.093 43.9313 36.8844 43.9313Z" stroke="black"/>
<path d="M34.2218 143.8C18.805 144.118 6.71179 147.169 6.71179 150.886C6.71179 154.815 20.2204 158 36.8841 158C53.5477 158 67.0563 154.815 67.0563 150.886C67.0563 147.169 54.9631 144.118 39.5463 143.8" stroke="black"/>
</svg>
